<?xml version="1.0" encoding="UTF-8" standalone="no"?>
<svg
   xmlns:dc="http://purl.org/dc/elements/1.1/"
   xmlns:cc="http://creativecommons.org/ns#"
   xmlns:rdf="http://www.w3.org/1999/02/22-rdf-syntax-ns#"
   xmlns:svg="http://www.w3.org/2000/svg"
   xmlns="http://www.w3.org/2000/svg"
   xmlns:sodipodi="http://sodipodi.sourceforge.net/DTD/sodipodi-0.dtd"
   xmlns:inkscape="http://www.inkscape.org/namespaces/inkscape"
   inkscape:version="1.0 (6e3e5246a0, 2020-05-07)"
   height="130.82991"
   width="130.82991"
   sodipodi:docname="gdpr.svg"
   xml:space="preserve"
   viewBox="0 0 130.82991 130.82991"
   y="0px"
   x="0px"
   id="Calque_1"
   version="1.1"><metadata
   id="metadata51"><rdf:RDF><cc:Work
       rdf:about=""><dc:format>image/svg+xml</dc:format><dc:type
         rdf:resource="http://purl.org/dc/dcmitype/StillImage" /><dc:title>icon-orchestration-engine</dc:title></cc:Work></rdf:RDF></metadata><defs
   id="defs49" /><sodipodi:namedview
   fit-margin-bottom="0"
   fit-margin-right="0"
   fit-margin-left="0"
   fit-margin-top="0"
   inkscape:current-layer="Calque_1"
   inkscape:window-maximized="1"
   inkscape:window-y="27"
   inkscape:window-x="0"
   inkscape:cy="71.907667"
   inkscape:cx="65.416657"
   inkscape:zoom="3.4385246"
   inkscape:guide-bbox="true"
   showguides="true"
   showgrid="false"
   id="namedview47"
   inkscape:window-height="1025"
   inkscape:window-width="1920"
   inkscape:pageshadow="2"
   inkscape:pageopacity="0"
   guidetolerance="10"
   gridtolerance="10"
   objecttolerance="10"
   borderopacity="1"
   bordercolor="#666666"
   pagecolor="#ffffff"><sodipodi:guide
     id="guide878"
     orientation="0,-1"
     position="-38.217643,160.07329" /></sodipodi:namedview>
<style
   id="style2"
   type="text/css">
	.st0{fill:#FFFFFF;stroke:#000000;stroke-linejoin:round;stroke-miterlimit:10;}
</style>
<title
   id="title4">icon-orchestration-engine</title>
<circle
   r="64.882927"
   cy="65.414955"
   cx="65.414955"
   id="path876"
   style="fill:#0000ff;fill-opacity:1;stroke:#000000;stroke-width:1.06405;stroke-opacity:1" /><g
   transform="translate(4.4166571,4.3691679)"
   id="g44">
	<g
   id="g30">
		<polygon
   id="polygon6"
   points="68.8,6.8 64.9,10.5 65.8,15.9 61.1,13.3 56.3,15.9 57.2,10.5 53.3,6.8 58.7,6 61.1,1.2 63.5,6 "
   class="st0" />
		<polygon
   id="polygon8"
   points="16.2,58.9 12.4,62.6 13.3,68 8.5,65.4 3.7,68 4.6,62.6 0.8,58.9 6.1,58.1 8.5,53.3 10.9,58.1 "
   class="st0" />
		<polygon
   id="polygon10"
   points="121.2,58.9 117.4,62.6 118.3,68 113.5,65.4 108.7,68 109.6,62.6 105.8,58.9 111.1,58.1 113.5,53.3 115.9,58.1 "
   class="st0" />
		<polygon
   id="polygon12"
   points="22.7,32.6 18.8,36.4 19.7,41.7 15,39.2 10.2,41.7 11.1,36.4 7.2,32.6 12.6,31.8 15,27 17.4,31.8 "
   class="st0" />
		<polygon
   id="polygon14"
   points="22.7,85.1 18.8,88.9 19.7,94.2 15,91.7 10.2,94.2 11.1,88.9 7.2,85.1 12.6,84.3 15,79.5 17.4,84.3 "
   class="st0" />
		<polygon
   id="polygon16"
   points="42.4,104.2 38.5,107.9 39.4,113.3 34.6,110.8 29.8,113.3 30.8,107.9 26.9,104.2 32.2,103.4 34.6,98.6 37,103.4 "
   class="st0" />
		<polygon
   id="polygon18"
   points="95.3,104.2 91.5,107.9 92.4,113.3 87.6,110.8 82.8,113.3 83.8,107.9 79.9,104.2 85.2,103.4 87.6,98.6 90,103.4 "
   class="st0" />
		<polygon
   id="polygon20"
   points="114.8,85.1 110.9,88.9 111.8,94.2 107,91.7 102.3,94.2 103.2,88.9 99.3,85.1 104.6,84.3 107,79.5 109.4,84.3 "
   class="st0" />
		<polygon
   id="polygon22"
   points="42.4,14.1 38.5,17.9 39.4,23.2 34.6,20.7 29.8,23.2 30.8,17.9 26.9,14.1 32.2,13.3 34.6,8.5 37,13.3 "
   class="st0" />
		<polygon
   id="polygon24"
   points="95.3,14.1 91.5,17.9 92.4,23.2 87.6,20.7 82.8,23.2 83.8,17.9 79.9,14.1 85.2,13.3 87.6,8.5 90,13.3 "
   class="st0" />
		<polygon
   id="polygon26"
   points="114.8,32.6 110.9,36.4 111.8,41.7 107,39.2 102.3,41.7 103.2,36.4 99.3,32.6 104.6,31.8 107,27 109.4,31.8 "
   class="st0" />
		<polygon
   id="polygon28"
   points="68.8,111.8 64.9,115.5 65.8,120.8 61.1,118.3 56.3,120.8 57.2,115.5 53.3,111.8 58.7,111 61.1,106.1 63.5,111 "
   class="st0" />
	</g>
	
	<path
   style="fill:#ffffff;fill-opacity:1;stroke:#000000;stroke-width:1.81551;stroke-opacity:1"
   id="path42"
   d="m 75.238869,57.599338 h -0.907757 v -4.357235 c 0,-7.988264 -6.354301,-14.88722 -14.342566,-14.88722 -0.18155,0 -0.726205,0 -0.907757,0 -7.988264,0.181552 -14.342565,6.898956 -14.342565,14.88722 v 4.357235 h -0.907757 c -1.452412,0 -2.541721,1.452412 -2.541721,3.267926 v 21.967727 c 0,1.815515 1.089309,3.267927 2.541721,3.267927 h 31.408402 c 1.452411,0 2.54172,-1.452412 2.54172,-3.267927 V 60.867264 C 77.962142,59.05175 76.69128,57.599338 75.238869,57.599338 Z M 62.530267,71.941904 v 6.535852 c 0,0.726205 -0.544654,1.452411 -1.452412,1.452411 h -3.086374 c -0.726207,0 -1.452412,-0.726206 -1.452412,-1.452411 V 71.941904 C 55.812863,71.215698 55.44976,70.126389 55.44976,69.03708 c 0,-2.178618 1.633963,-3.81258 3.631029,-3.994132 0.181552,0 0.726207,0 0.907757,0 1.997067,0 3.631029,1.815514 3.631029,3.994132 0,1.089309 -0.363102,2.178618 -1.089308,2.904824 z M 68.158362,57.599338 H 50.729421 v -4.357235 c 0,-4.720338 3.994133,-8.71447 8.714471,-8.71447 4.720339,0 8.71447,3.994132 8.71447,8.71447 z m 0,0" />
</g>
</svg>
