<?xml version="1.0" encoding="UTF-8" standalone="no"?>
<svg
   xmlns:dc="http://purl.org/dc/elements/1.1/"
   xmlns:cc="http://creativecommons.org/ns#"
   xmlns:rdf="http://www.w3.org/1999/02/22-rdf-syntax-ns#"
   xmlns:svg="http://www.w3.org/2000/svg"
   xmlns="http://www.w3.org/2000/svg"
   xmlns:sodipodi="http://sodipodi.sourceforge.net/DTD/sodipodi-0.dtd"
   xmlns:inkscape="http://www.inkscape.org/namespaces/inkscape"
   inkscape:version="1.0 (6e3e5246a0, 2020-05-07)"
   sodipodi:docname="privacy_match_zoom.svg"
   viewBox="0 0 505.33334 442.66666"
   height="442.66666"
   width="505.33334"
   xml:space="preserve"
   id="svg946"
   version="1.1"><metadata
     id="metadata952"><rdf:RDF><cc:Work
         rdf:about=""><dc:format>image/svg+xml</dc:format><dc:type
           rdf:resource="http://purl.org/dc/dcmitype/StillImage" /><dc:title></dc:title></cc:Work></rdf:RDF></metadata><defs
     id="defs950"><clipPath
       id="clipPath980"
       clipPathUnits="userSpaceOnUse"><path
         id="path978"
         d="M 0,0 H 379.5 V 332.25 H 0 Z" /></clipPath><clipPath
       id="clipPath996"
       clipPathUnits="userSpaceOnUse"><path
         id="path994"
         d="M 42.4,31.35 H 295.59 V 326.77 H 42.4 Z" /></clipPath></defs><sodipodi:namedview
     inkscape:current-layer="g954"
     inkscape:window-maximized="0"
     inkscape:window-y="261"
     inkscape:window-x="890"
     inkscape:cy="221.33333"
     inkscape:cx="252.66667"
     inkscape:zoom="0.94766568"
     showgrid="false"
     id="namedview948"
     inkscape:window-height="791"
     inkscape:window-width="985"
     inkscape:pageshadow="2"
     inkscape:pageopacity="0"
     guidetolerance="10"
     gridtolerance="10"
     objecttolerance="10"
     borderopacity="1"
     bordercolor="#666666"
     pagecolor="#ffffff" /><g
     transform="matrix(1.3333333,0,0,-1.3333333,0,442.66667)"
     inkscape:label="privacy_match_zoom"
     inkscape:groupmode="layer"
     id="g954"><g
       id="g956" /><g
       id="g958" /><g
       id="g960" /><g
       id="g962" /><g
       id="g964" /><g
       id="g966" /><g
       id="g968" /><g
       id="g970" /><g
       id="g972" /><g
       id="g984" /><g
       id="g986" /><g
       id="g988" /><g
       id="g990"><g
         clip-path="url(#clipPath996)"
         id="g992"><path
           id="path998"
           style="fill:#ebebeb;fill-opacity:1;fill-rule:nonzero;stroke:none"
           d="M 42.4,31.35 H 295.59 V 326.77 H 42.4 Z" /><path
           id="path1000"
           style="fill:none;stroke:#ffffff;stroke-width:0.53;stroke-linecap:butt;stroke-linejoin:round;stroke-miterlimit:10;stroke-dasharray:none;stroke-opacity:1"
           d="M 42.4,41.15 H 295.59" /><path
           id="path1002"
           style="fill:none;stroke:#ffffff;stroke-width:0.53;stroke-linecap:butt;stroke-linejoin:round;stroke-miterlimit:10;stroke-dasharray:none;stroke-opacity:1"
           d="M 42.4,101.63 H 295.59" /><path
           id="path1004"
           style="fill:none;stroke:#ffffff;stroke-width:0.53;stroke-linecap:butt;stroke-linejoin:round;stroke-miterlimit:10;stroke-dasharray:none;stroke-opacity:1"
           d="M 42.4,162.12 H 295.59" /><path
           id="path1006"
           style="fill:none;stroke:#ffffff;stroke-width:0.53;stroke-linecap:butt;stroke-linejoin:round;stroke-miterlimit:10;stroke-dasharray:none;stroke-opacity:1"
           d="M 42.4,222.61 H 295.59" /><path
           id="path1008"
           style="fill:none;stroke:#ffffff;stroke-width:0.53;stroke-linecap:butt;stroke-linejoin:round;stroke-miterlimit:10;stroke-dasharray:none;stroke-opacity:1"
           d="M 42.4,283.1 H 295.59" /><path
           id="path1010"
           style="fill:none;stroke:#ffffff;stroke-width:0.53;stroke-linecap:butt;stroke-linejoin:round;stroke-miterlimit:10;stroke-dasharray:none;stroke-opacity:1"
           d="M 78.2,31.35 V 326.77" /><path
           id="path1012"
           style="fill:none;stroke:#ffffff;stroke-width:0.53;stroke-linecap:butt;stroke-linejoin:round;stroke-miterlimit:10;stroke-dasharray:none;stroke-opacity:1"
           d="M 142.14,31.35 V 326.77" /><path
           id="path1014"
           style="fill:none;stroke:#ffffff;stroke-width:0.53;stroke-linecap:butt;stroke-linejoin:round;stroke-miterlimit:10;stroke-dasharray:none;stroke-opacity:1"
           d="M 206.08,31.35 V 326.77" /><path
           id="path1016"
           style="fill:none;stroke:#ffffff;stroke-width:0.53;stroke-linecap:butt;stroke-linejoin:round;stroke-miterlimit:10;stroke-dasharray:none;stroke-opacity:1"
           d="M 270.01,31.35 V 326.77" /><path
           id="path1018"
           style="fill:none;stroke:#ffffff;stroke-width:1.07;stroke-linecap:butt;stroke-linejoin:round;stroke-miterlimit:10;stroke-dasharray:none;stroke-opacity:1"
           d="M 42.4,71.39 H 295.59" /><path
           id="path1020"
           style="fill:none;stroke:#ffffff;stroke-width:1.07;stroke-linecap:butt;stroke-linejoin:round;stroke-miterlimit:10;stroke-dasharray:none;stroke-opacity:1"
           d="M 42.4,131.88 H 295.59" /><path
           id="path1022"
           style="fill:none;stroke:#ffffff;stroke-width:1.07;stroke-linecap:butt;stroke-linejoin:round;stroke-miterlimit:10;stroke-dasharray:none;stroke-opacity:1"
           d="M 42.4,192.37 H 295.59" /><path
           id="path1024"
           style="fill:none;stroke:#ffffff;stroke-width:1.07;stroke-linecap:butt;stroke-linejoin:round;stroke-miterlimit:10;stroke-dasharray:none;stroke-opacity:1"
           d="M 42.4,252.85 H 295.59" /><path
           id="path1026"
           style="fill:none;stroke:#ffffff;stroke-width:1.07;stroke-linecap:butt;stroke-linejoin:round;stroke-miterlimit:10;stroke-dasharray:none;stroke-opacity:1"
           d="M 42.4,313.34 H 295.59" /><path
           id="path1028"
           style="fill:none;stroke:#ffffff;stroke-width:1.07;stroke-linecap:butt;stroke-linejoin:round;stroke-miterlimit:10;stroke-dasharray:none;stroke-opacity:1"
           d="M 46.23,31.35 V 326.77" /><path
           id="path1030"
           style="fill:none;stroke:#ffffff;stroke-width:1.07;stroke-linecap:butt;stroke-linejoin:round;stroke-miterlimit:10;stroke-dasharray:none;stroke-opacity:1"
           d="M 110.17,31.35 V 326.77" /><path
           id="path1032"
           style="fill:none;stroke:#ffffff;stroke-width:1.07;stroke-linecap:butt;stroke-linejoin:round;stroke-miterlimit:10;stroke-dasharray:none;stroke-opacity:1"
           d="M 174.11,31.35 V 326.77" /><path
           id="path1034"
           style="fill:none;stroke:#ffffff;stroke-width:1.07;stroke-linecap:butt;stroke-linejoin:round;stroke-miterlimit:10;stroke-dasharray:none;stroke-opacity:1"
           d="M 238.05,31.35 V 326.77" /><path
           id="path1036"
           style="fill:none;stroke:#f8766d;stroke-width:4.27;stroke-linecap:butt;stroke-linejoin:round;stroke-miterlimit:1;stroke-dasharray:none;stroke-opacity:1"
           d="m 53.91,260.12 2.91,-2.53 2.91,-2.57 2.92,-2.62 2.91,-2.67 2.91,-2.71 2.92,-2.75 2.91,-2.79 2.92,-2.83 2.91,-2.86 2.91,-2.93 2.92,-2.98 2.91,-3.04 2.91,-3.08 2.92,-3.11 2.91,-3.15 2.91,-3.16 2.92,-3.18 2.91,-3.21 2.91,-3.37 2.92,-3.53 2.91,-3.64 2.92,-3.7 2.91,-3.73 2.91,-3.71 2.92,-3.63 2.91,-3.53 2.91,-3.41 2.92,-3.36 2.91,-3.32 2.91,-3.3 2.92,-3.27 2.91,-3.25 2.92,-3.24 2.91,-3.23 2.91,-3.22 2.92,-3.24 2.91,-3.28 2.91,-3.3 2.92,-3.3 2.91,-3.27 2.91,-3.22 2.92,-3.15 2.91,-3.05 2.91,-2.94 2.92,-2.87 2.91,-2.83 2.92,-2.79 2.91,-2.75 2.91,-2.7 2.92,-2.65 2.91,-2.59 2.91,-2.53 2.92,-2.47 2.91,-2.41 2.91,-2.35 2.92,-2.3 2.91,-2.24 2.91,-2.2 2.92,-2.15 2.91,-2.11 2.92,-2.08 2.91,-2.04 2.91,-2 2.92,-1.93 2.91,-1.89 2.91,-1.84 2.92,-1.79 2.91,-1.75 2.91,-1.7 2.92,-1.66 2.91,-1.63 2.91,-1.57 2.92,-1.53 2.91,-1.49 2.92,-1.44 2.91,-1.39 2.91,-1.36 2.92,-1.3 2.91,-1.26" /><path
           id="path1038"
           style="fill:none;stroke:#cd9600;stroke-width:4.27;stroke-linecap:butt;stroke-linejoin:round;stroke-miterlimit:1;stroke-dasharray:8.54, 8.54;stroke-dashoffset:0;stroke-opacity:1"
           d="m 53.91,220.55 2.91,-1.25 2.91,-1.33 2.92,-1.41 2.91,-1.49 2.91,-1.57 2.92,-1.64 2.91,-1.72 2.92,-1.79 2.91,-1.86 2.91,-1.95 2.92,-2.05 2.91,-2.14 2.91,-2.22 2.92,-2.28 2.91,-2.34 2.91,-2.39 2.92,-2.44 2.91,-2.49 2.91,-2.74 2.92,-2.98 2.91,-3.16 2.92,-3.27 2.91,-3.32 2.91,-3.3 2.92,-3.22 2.91,-3.08 2.91,-2.91 2.92,-2.87 2.91,-2.84 2.91,-2.82 2.92,-2.8 2.91,-2.78 2.92,-2.77 2.91,-2.77 2.91,-2.76 2.92,-2.77 2.91,-2.81 2.91,-2.82 2.92,-2.82 2.91,-2.81 2.91,-2.77 2.92,-2.73 2.91,-2.66 2.91,-2.59 2.92,-2.56 2.91,-2.55 2.92,-2.55 2.91,-2.52 2.91,-2.49 2.92,-2.43 2.91,-2.38 2.91,-2.3 2.92,-2.22 2.91,-2.14 2.91,-2.08 2.92,-2.02 2.91,-1.97 2.91,-1.93 2.92,-1.91 2.91,-1.87 2.92,-1.86 2.91,-1.85 2.91,-1.81 2.92,-1.76 2.91,-1.73 2.91,-1.68 2.92,-1.65 2.91,-1.61 2.91,-1.58 2.92,-1.54 2.91,-1.52 2.91,-1.47 2.92,-1.44 2.91,-1.4 2.92,-1.36 2.91,-1.33 2.91,-1.29 2.92,-1.25 2.91,-1.22" /><path
           id="path1040"
           style="fill:none;stroke:#7cae00;stroke-width:4.27;stroke-linecap:butt;stroke-linejoin:round;stroke-miterlimit:1;stroke-dasharray:17.07, 8.54;stroke-dashoffset:0;stroke-opacity:1"
           d="m 53.91,295.68 2.91,-4.67 2.91,-4.65 2.92,-4.62 2.91,-4.6 2.91,-4.56 2.92,-4.53 2.91,-4.51 2.92,-4.47 2.91,-4.43 2.91,-4.42 2.92,-4.39 2.91,-4.37 2.91,-4.33 2.92,-4.3 2.91,-4.27 2.91,-4.22 2.92,-4.18 2.91,-4.14 2.91,-4.2 2.92,-4.25 2.91,-4.27 2.92,-4.26 2.91,-4.22 2.91,-4.13 2.92,-4.03 2.91,-3.89 2.91,-3.71 2.92,-3.53 2.91,-3.38 2.91,-3.26 2.92,-3.18 2.91,-3.14 2.92,-3.14 2.91,-3.16 2.91,-3.23 2.92,-3.29 2.91,-3.28 2.91,-3.27 2.92,-3.24 2.91,-3.22 2.91,-3.17 2.92,-3.11 2.91,-3.06 2.91,-2.99 2.92,-2.96 2.91,-2.96 2.92,-2.93 2.91,-2.91 2.91,-2.86 2.92,-2.81 2.91,-2.74 2.91,-2.66 2.92,-2.58 2.91,-2.5 2.91,-2.45 2.92,-2.39 2.91,-2.34 2.91,-2.28 2.92,-2.24 2.91,-2.19 2.92,-2.14 2.91,-2.1 2.91,-2.05 2.92,-1.99 2.91,-1.93 2.91,-1.88 2.92,-1.84 2.91,-1.78 2.91,-1.73 2.92,-1.68 2.91,-1.64 2.91,-1.58 2.92,-1.53 2.91,-1.48 2.92,-1.44 2.91,-1.38 2.91,-1.33 2.92,-1.28 2.91,-1.23" /><path
           id="path1042"
           style="fill:none;stroke:#00be67;stroke-width:4.27;stroke-linecap:butt;stroke-linejoin:round;stroke-miterlimit:1;stroke-dasharray:17.07, 17.07;stroke-dashoffset:0;stroke-opacity:1"
           d="m 53.91,218.44 2.59,-0.38 2.59,-0.52 2.59,-0.63 2.59,-0.76 2.59,-0.86 2.59,-0.98 2.59,-1.09 2.59,-1.19 2.59,-1.28 2.59,-1.39 2.59,-1.52 2.59,-1.67 2.58,-1.81 2.59,-1.94 2.59,-2.04 2.59,-2.14 2.59,-2.21 2.59,-2.28 2.59,-2.32 2.59,-2.36 2.59,-2.58 2.59,-2.82 2.59,-3.01 2.59,-3.14 2.59,-3.2 2.59,-3.22 2.59,-3.17 2.59,-3.07 2.59,-2.9 2.59,-2.7 2.59,-2.63 2.59,-2.61 2.59,-2.59 2.59,-2.57 2.59,-2.54 2.59,-2.53 2.59,-2.51 2.59,-2.5 2.59,-2.48 2.59,-2.48 2.59,-2.48 2.59,-2.49 2.59,-2.49 2.59,-2.48 2.59,-2.45 2.59,-2.44 2.59,-2.39 2.59,-2.36 2.59,-2.3 2.59,-2.25 2.59,-2.25 2.59,-2.23 2.59,-2.2 2.59,-2.19 2.59,-2.15 2.59,-2.12 2.59,-2.07 2.59,-2.03 2.59,-1.98 2.59,-1.92 2.59,-1.89 2.59,-1.85 2.59,-1.81 2.59,-1.78 2.59,-1.74 2.59,-1.7 2.59,-1.67 2.59,-1.63 2.59,-1.59 2.59,-1.55 2.59,-1.51 2.59,-1.48 2.59,-1.44 2.59,-1.4 2.59,-1.37 2.59,-1.33 2.59,-1.29 2.59,-1.25 2.59,-1.22" /><path
           id="path1044"
           style="fill:none;stroke:#00bfc4;stroke-width:4.27;stroke-linecap:butt;stroke-linejoin:round;stroke-miterlimit:1;stroke-dasharray:4.27, 12.8;stroke-dashoffset:0;stroke-opacity:1"
           d="m 53.91,300.51 2.91,-4.95 2.91,-4.91 2.92,-4.88 2.91,-4.83 2.91,-4.79 2.92,-4.75 2.91,-4.71 2.92,-4.66 2.91,-4.62 2.91,-4.59 2.92,-4.54 2.91,-4.52 2.91,-4.47 2.92,-4.42 2.91,-4.38 2.91,-4.33 2.92,-4.28 2.91,-4.22 2.91,-4.26 2.92,-4.28 2.91,-4.28 2.92,-4.25 2.91,-4.19 2.91,-4.12 2.92,-4.02 2.91,-3.89 2.91,-3.73 2.92,-3.55 2.91,-3.4 2.91,-3.29 2.92,-3.21 2.91,-3.17 2.92,-3.16 2.91,-3.18 2.91,-3.24 2.92,-3.29 2.91,-3.28 2.91,-3.27 2.92,-3.24 2.91,-3.21 2.91,-3.16 2.92,-3.1 2.91,-3.04 2.91,-2.96 2.92,-2.92 2.91,-2.9 2.92,-2.86 2.91,-2.82 2.91,-2.79 2.92,-2.73 2.91,-2.67 2.91,-2.61 2.92,-2.54 2.91,-2.48 2.91,-2.42 2.92,-2.37 2.91,-2.33 2.91,-2.27 2.92,-2.22 2.91,-2.18 2.92,-2.13 2.91,-2.09 2.91,-2.03 2.92,-1.98 2.91,-1.93 2.91,-1.88 2.92,-1.82 2.91,-1.78 2.91,-1.73 2.92,-1.68 2.91,-1.64 2.91,-1.59 2.92,-1.54 2.91,-1.49 2.92,-1.44 2.91,-1.4 2.91,-1.34 2.92,-1.3 2.91,-1.25" /><path
           id="path1046"
           style="fill:none;stroke:#00a9ff;stroke-width:4.27;stroke-linecap:butt;stroke-linejoin:round;stroke-miterlimit:1;stroke-dasharray:4.27, 12.8, 17.07, 12.8;stroke-dashoffset:0;stroke-opacity:1"
           d="m 53.91,230.65 2.91,-1.31 2.91,-1.39 2.92,-1.48 2.91,-1.56 2.91,-1.65 2.92,-1.73 2.91,-1.81 2.92,-1.88 2.91,-1.96 2.91,-2.06 2.92,-2.16 2.91,-2.26 2.91,-2.34 2.92,-2.41 2.91,-2.48 2.91,-2.53 2.92,-2.57 2.91,-2.63 2.91,-2.92 2.92,-3.19 2.91,-3.38 2.92,-3.51 2.91,-3.55 2.91,-3.53 2.92,-3.43 2.91,-3.26 2.91,-3.07 2.92,-3 2.91,-2.96 2.91,-2.92 2.92,-2.89 2.91,-2.87 2.92,-2.86 2.91,-2.85 2.91,-2.85 2.92,-2.87 2.91,-2.91 2.91,-2.94 2.92,-2.93 2.91,-2.92 2.91,-2.87 2.92,-2.82 2.91,-2.74 2.91,-2.64 2.92,-2.58 2.91,-2.55 2.92,-2.52 2.91,-2.48 2.91,-2.43 2.92,-2.39 2.91,-2.34 2.91,-2.28 2.92,-2.22 2.91,-2.15 2.91,-2.07 2.92,-2.02 2.91,-1.98 2.91,-1.93 2.92,-1.92 2.91,-1.89 2.92,-1.9 2.91,-1.9 2.91,-1.86 2.92,-1.82 2.91,-1.78 2.91,-1.76 2.92,-1.71 2.91,-1.69 2.91,-1.66 2.92,-1.64 2.91,-1.61 2.91,-1.57 2.92,-1.55 2.91,-1.52 2.92,-1.48 2.91,-1.45 2.91,-1.43 2.92,-1.39 2.91,-1.36" /><path
           id="path1048"
           style="fill:none;stroke:#c77cff;stroke-width:4.27;stroke-linecap:butt;stroke-linejoin:round;stroke-miterlimit:1;stroke-dasharray:29.88, 12.8;stroke-dashoffset:0;stroke-opacity:1"
           d="m 53.91,307.25 2.91,-4.89 2.91,-4.87 2.92,-4.84 2.91,-4.81 2.91,-4.77 2.92,-4.74 2.91,-4.71 2.92,-4.67 2.91,-4.63 2.91,-4.61 2.92,-4.58 2.91,-4.56 2.91,-4.52 2.92,-4.49 2.91,-4.44 2.91,-4.4 2.92,-4.34 2.91,-4.31 2.91,-4.37 2.92,-4.43 2.91,-4.46 2.92,-4.44 2.91,-4.39 2.91,-4.31 2.92,-4.19 2.91,-4.03 2.91,-3.82 2.92,-3.62 2.91,-3.44 2.91,-3.32 2.92,-3.22 2.91,-3.18 2.92,-3.18 2.91,-3.22 2.91,-3.3 2.92,-3.37 2.91,-3.38 2.91,-3.37 2.92,-3.35 2.91,-3.32 2.91,-3.27 2.92,-3.21 2.91,-3.14 2.91,-3.06 2.92,-3.02 2.91,-3.01 2.92,-2.97 2.91,-2.95 2.91,-2.89 2.92,-2.84 2.91,-2.78 2.91,-2.71 2.92,-2.62 2.91,-2.55 2.91,-2.49 2.92,-2.44 2.91,-2.38 2.91,-2.32 2.92,-2.28 2.91,-2.24 2.92,-2.2 2.91,-2.15 2.91,-2.1 2.92,-2.05 2.91,-1.99 2.91,-1.94 2.92,-1.89 2.91,-1.84 2.91,-1.79 2.92,-1.74 2.91,-1.7 2.91,-1.65 2.92,-1.6 2.91,-1.55 2.92,-1.51 2.91,-1.45 2.91,-1.4 2.92,-1.36 2.91,-1.3" /><path
           id="path1050"
           style="fill:none;stroke:#ff61cc;stroke-width:4.27;stroke-linecap:butt;stroke-linejoin:round;stroke-miterlimit:1;stroke-dasharray:8.54, 8.54, 25.61, 8.54;stroke-dashoffset:0;stroke-opacity:1"
           d="m 53.91,230.61 2.91,-1.27 2.91,-1.35 2.92,-1.45 2.91,-1.54 2.91,-1.62 2.92,-1.7 2.91,-1.79 2.92,-1.87 2.91,-1.94 2.91,-2.05 2.92,-2.16 2.91,-2.26 2.91,-2.35 2.92,-2.42 2.91,-2.48 2.91,-2.54 2.92,-2.57 2.91,-2.65 2.91,-2.94 2.92,-3.23 2.91,-3.43 2.92,-3.57 2.91,-3.61 2.91,-3.58 2.92,-3.47 2.91,-3.29 2.91,-3.09 2.92,-3.01 2.91,-2.97 2.91,-2.92 2.92,-2.89 2.91,-2.87 2.92,-2.84 2.91,-2.85 2.91,-2.84 2.92,-2.86 2.91,-2.87 2.91,-2.89 2.92,-2.87 2.91,-2.86 2.91,-2.82 2.92,-2.77 2.91,-2.7 2.91,-2.63 2.92,-2.58 2.91,-2.57 2.92,-2.53 2.91,-2.51 2.91,-2.46 2.92,-2.42 2.91,-2.36 2.91,-2.31 2.92,-2.23 2.91,-2.17 2.91,-2.09 2.92,-2.04 2.91,-1.99 2.91,-1.96 2.92,-1.93 2.91,-1.91 2.92,-1.91 2.91,-1.91 2.91,-1.87 2.92,-1.83 2.91,-1.8 2.91,-1.76 2.92,-1.73 2.91,-1.7 2.91,-1.66 2.92,-1.65 2.91,-1.61 2.91,-1.58 2.92,-1.55 2.91,-1.51 2.92,-1.49 2.91,-1.45 2.91,-1.43 2.92,-1.39 2.91,-1.36" /></g></g><g
       id="g1052" /><g
       id="g1054" /><g
       id="g1056" /><g
       id="g1058" /><g
       id="g1060" /><g
       id="g1062"><text
         id="text1066"
         style="font-variant:normal;font-weight:normal;font-size:9px;font-family:Helvetica;-inkscape-font-specification:Helvetica;writing-mode:lr-tb;fill:#4d4d4d;fill-opacity:1;fill-rule:nonzero;stroke:none"
         transform="matrix(1,0,0,-1,19.95,68.16)"><tspan
           id="tspan1064"
           sodipodi:role="line"
           y="0"
           x="0 5.0040002 7.506 12.51">1.25</tspan></text><text
         id="text1070"
         style="font-variant:normal;font-weight:normal;font-size:9px;font-family:Helvetica;-inkscape-font-specification:Helvetica;writing-mode:lr-tb;fill:#4d4d4d;fill-opacity:1;fill-rule:nonzero;stroke:none"
         transform="matrix(1,0,0,-1,19.95,128.65)"><tspan
           id="tspan1068"
           sodipodi:role="line"
           y="0"
           x="0 5.0040002 7.506 12.51">1.50</tspan></text><text
         id="text1074"
         style="font-variant:normal;font-weight:normal;font-size:9px;font-family:Helvetica;-inkscape-font-specification:Helvetica;writing-mode:lr-tb;fill:#4d4d4d;fill-opacity:1;fill-rule:nonzero;stroke:none"
         transform="matrix(1,0,0,-1,19.95,189.13)"><tspan
           id="tspan1072"
           sodipodi:role="line"
           y="0"
           x="0 5.0040002 7.506 12.51">1.75</tspan></text><text
         id="text1078"
         style="font-variant:normal;font-weight:normal;font-size:9px;font-family:Helvetica;-inkscape-font-specification:Helvetica;writing-mode:lr-tb;fill:#4d4d4d;fill-opacity:1;fill-rule:nonzero;stroke:none"
         transform="matrix(1,0,0,-1,19.95,249.62)"><tspan
           id="tspan1076"
           sodipodi:role="line"
           y="0"
           x="0 5.0040002 7.506 12.51">2.00</tspan></text><text
         id="text1082"
         style="font-variant:normal;font-weight:normal;font-size:9px;font-family:Helvetica;-inkscape-font-specification:Helvetica;writing-mode:lr-tb;fill:#4d4d4d;fill-opacity:1;fill-rule:nonzero;stroke:none"
         transform="matrix(1,0,0,-1,19.95,310.11)"><tspan
           id="tspan1080"
           sodipodi:role="line"
           y="0"
           x="0 5.0040002 7.506 12.51">2.25</tspan></text></g><g
       id="g1084" /><g
       id="g1086" /><g
       id="g1088"><path
         id="path1090"
         style="fill:none;stroke:#333333;stroke-width:1.07;stroke-linecap:butt;stroke-linejoin:round;stroke-miterlimit:10;stroke-dasharray:none;stroke-opacity:1"
         d="M 39.66,71.39 H 42.4" /><path
         id="path1092"
         style="fill:none;stroke:#333333;stroke-width:1.07;stroke-linecap:butt;stroke-linejoin:round;stroke-miterlimit:10;stroke-dasharray:none;stroke-opacity:1"
         d="M 39.66,131.88 H 42.4" /><path
         id="path1094"
         style="fill:none;stroke:#333333;stroke-width:1.07;stroke-linecap:butt;stroke-linejoin:round;stroke-miterlimit:10;stroke-dasharray:none;stroke-opacity:1"
         d="M 39.66,192.37 H 42.4" /><path
         id="path1096"
         style="fill:none;stroke:#333333;stroke-width:1.07;stroke-linecap:butt;stroke-linejoin:round;stroke-miterlimit:10;stroke-dasharray:none;stroke-opacity:1"
         d="M 39.66,252.85 H 42.4" /><path
         id="path1098"
         style="fill:none;stroke:#333333;stroke-width:1.07;stroke-linecap:butt;stroke-linejoin:round;stroke-miterlimit:10;stroke-dasharray:none;stroke-opacity:1"
         d="M 39.66,313.34 H 42.4" /></g><g
       id="g1100" /><g
       id="g1102" /><g
       id="g1104" /><g
       id="g1106" /><g
       id="g1108" /><g
       id="g1110" /><g
       id="g1112" /><g
       id="g1114" /><g
       id="g1116"><path
         id="path1118"
         style="fill:none;stroke:#333333;stroke-width:1.07;stroke-linecap:butt;stroke-linejoin:round;stroke-miterlimit:10;stroke-dasharray:none;stroke-opacity:1"
         d="m 46.23,28.61 v 2.74" /><path
         id="path1120"
         style="fill:none;stroke:#333333;stroke-width:1.07;stroke-linecap:butt;stroke-linejoin:round;stroke-miterlimit:10;stroke-dasharray:none;stroke-opacity:1"
         d="m 110.17,28.61 v 2.74" /><path
         id="path1122"
         style="fill:none;stroke:#333333;stroke-width:1.07;stroke-linecap:butt;stroke-linejoin:round;stroke-miterlimit:10;stroke-dasharray:none;stroke-opacity:1"
         d="m 174.11,28.61 v 2.74" /><path
         id="path1124"
         style="fill:none;stroke:#333333;stroke-width:1.07;stroke-linecap:butt;stroke-linejoin:round;stroke-miterlimit:10;stroke-dasharray:none;stroke-opacity:1"
         d="m 238.05,28.61 v 2.74" /></g><g
       id="g1126" /><g
       id="g1128"><text
         id="text1132"
         style="font-variant:normal;font-weight:normal;font-size:9px;font-family:Helvetica;-inkscape-font-specification:Helvetica;writing-mode:lr-tb;fill:#4d4d4d;fill-opacity:1;fill-rule:nonzero;stroke:none"
         transform="matrix(1,0,0,-1,43.73,19.95)"><tspan
           id="tspan1130"
           y="0"
           x="0">0</tspan></text><text
         id="text1136"
         style="font-variant:normal;font-weight:normal;font-size:9px;font-family:Helvetica;-inkscape-font-specification:Helvetica;writing-mode:lr-tb;fill:#4d4d4d;fill-opacity:1;fill-rule:nonzero;stroke:none"
         transform="matrix(1,0,0,-1,105.17,19.95)"><tspan
           id="tspan1134"
           sodipodi:role="line"
           y="0"
           x="0 5.0040002">25</tspan></text><text
         id="text1140"
         style="font-variant:normal;font-weight:normal;font-size:9px;font-family:Helvetica;-inkscape-font-specification:Helvetica;writing-mode:lr-tb;fill:#4d4d4d;fill-opacity:1;fill-rule:nonzero;stroke:none"
         transform="matrix(1,0,0,-1,169.1,19.95)"><tspan
           id="tspan1138"
           sodipodi:role="line"
           y="0"
           x="0 5.0040002">50</tspan></text><text
         id="text1144"
         style="font-variant:normal;font-weight:normal;font-size:9px;font-family:Helvetica;-inkscape-font-specification:Helvetica;writing-mode:lr-tb;fill:#4d4d4d;fill-opacity:1;fill-rule:nonzero;stroke:none"
         transform="matrix(1,0,0,-1,233.04,19.95)"><tspan
           id="tspan1142"
           sodipodi:role="line"
           y="0"
           x="0 5.0040002">75</tspan></text></g><g
       id="g1146" /><g
       id="g1148" /><g
       id="g1150" /><g
       id="g1152" /><g
       id="g1154" /><g
       id="g1156"><text
         id="text1160"
         style="font-variant:normal;font-weight:normal;font-size:11px;font-family:Helvetica;-inkscape-font-specification:Helvetica;writing-mode:lr-tb;fill:#000000;fill-opacity:1;fill-rule:nonzero;stroke:none"
         transform="matrix(1,0,0,-1,151.88,7.67)"><tspan
           id="tspan1158"
           sodipodi:role="line"
           y="0"
           x="0 3.0580001 9.1739998 11.616 14.674 17.115999 23.232 25.674 28.732">Initial k</tspan></text></g><g
       id="g1162" /><g
       id="g1164" /><g
       id="g1166"><text
         id="text1170"
         style="font-variant:normal;font-weight:normal;font-size:11px;font-family:Helvetica;-inkscape-font-specification:Helvetica;writing-mode:lr-tb;fill:#000000;fill-opacity:1;fill-rule:nonzero;stroke:none"
         transform="matrix(0,1,1,0,15.57,154)"><tspan
           id="tspan1168"
           sodipodi:role="line"
           y="0"
           x="0 9.1630001 15.279 18.337 23.837 29.952999 33.011002 36.674 46.452999">Match (%)</tspan></text></g><g
       id="g1172" /><g
       id="g1174" /><g
       id="g1176" /><g
       id="g1178" /><g
       id="g1180" /><g
       id="g1182" /><g
       id="g1188" /><g
       id="g1190"><text
         id="text1194"
         style="font-variant:normal;font-weight:normal;font-size:11px;font-family:Helvetica;-inkscape-font-specification:Helvetica;writing-mode:lr-tb;fill:#000000;fill-opacity:1;fill-rule:nonzero;stroke:none"
         transform="matrix(1,0,0,-1,308.34,270.15)"><tspan
           id="tspan1192"
           sodipodi:role="line"
           y="0"
           x="0 7.3369999 9.7790003 15.895 22.011 25.839001 28.281 31.339001 37.455002">Algorithm</tspan></text></g><g
       id="g1196" /><g
       id="g1198"><path
         id="path1200"
         style="fill:#f2f2f2;fill-opacity:1;fill-rule:nonzero;stroke:#ffffff;stroke-width:1.07;stroke-linecap:round;stroke-linejoin:round;stroke-miterlimit:10;stroke-dasharray:none;stroke-opacity:1"
         d="m 308.34,241.3 h 23.04 v 23.04 h -23.04 z" /></g><g
       id="g1202" /><g
       id="g1204"><path
         id="path1206"
         style="fill:none;stroke:#f8766d;stroke-width:4.27;stroke-linecap:butt;stroke-linejoin:round;stroke-miterlimit:10;stroke-dasharray:none;stroke-opacity:1"
         d="m 310.65,252.82 h 18.43" /></g><g
       id="g1208" /><g
       id="g1210"><path
         id="path1212"
         style="fill:#f2f2f2;fill-opacity:1;fill-rule:nonzero;stroke:#ffffff;stroke-width:1.07;stroke-linecap:round;stroke-linejoin:round;stroke-miterlimit:10;stroke-dasharray:none;stroke-opacity:1"
         d="m 308.34,218.26 h 23.04 v 23.04 h -23.04 z" /></g><g
       id="g1214" /><g
       id="g1216"><path
         id="path1218"
         style="fill:none;stroke:#cd9600;stroke-width:4.27;stroke-linecap:butt;stroke-linejoin:round;stroke-miterlimit:10;stroke-dasharray:8.54, 8.54;stroke-dashoffset:0;stroke-opacity:1"
         d="m 310.65,229.78 h 18.43" /></g><g
       id="g1220" /><g
       id="g1222"><path
         id="path1224"
         style="fill:#f2f2f2;fill-opacity:1;fill-rule:nonzero;stroke:#ffffff;stroke-width:1.07;stroke-linecap:round;stroke-linejoin:round;stroke-miterlimit:10;stroke-dasharray:none;stroke-opacity:1"
         d="m 308.34,195.22 h 23.04 v 23.04 h -23.04 z" /></g><g
       id="g1226" /><g
       id="g1228"><path
         id="path1230"
         style="fill:none;stroke:#7cae00;stroke-width:4.27;stroke-linecap:butt;stroke-linejoin:round;stroke-miterlimit:10;stroke-dasharray:17.07, 8.54;stroke-dashoffset:0;stroke-opacity:1"
         d="m 310.65,206.74 h 18.43" /></g><g
       id="g1232" /><g
       id="g1234"><path
         id="path1236"
         style="fill:#f2f2f2;fill-opacity:1;fill-rule:nonzero;stroke:#ffffff;stroke-width:1.07;stroke-linecap:round;stroke-linejoin:round;stroke-miterlimit:10;stroke-dasharray:none;stroke-opacity:1"
         d="m 308.34,172.18 h 23.04 v 23.04 h -23.04 z" /></g><g
       id="g1238" /><g
       id="g1240"><path
         id="path1242"
         style="fill:none;stroke:#00be67;stroke-width:4.27;stroke-linecap:butt;stroke-linejoin:round;stroke-miterlimit:10;stroke-dasharray:17.07, 17.07;stroke-dashoffset:0;stroke-opacity:1"
         d="m 310.65,183.7 h 18.43" /></g><g
       id="g1244" /><g
       id="g1246"><path
         id="path1248"
         style="fill:#f2f2f2;fill-opacity:1;fill-rule:nonzero;stroke:#ffffff;stroke-width:1.07;stroke-linecap:round;stroke-linejoin:round;stroke-miterlimit:10;stroke-dasharray:none;stroke-opacity:1"
         d="m 308.34,149.14 h 23.04 v 23.04 h -23.04 z" /></g><g
       id="g1250" /><g
       id="g1252"><path
         id="path1254"
         style="fill:none;stroke:#00bfc4;stroke-width:4.27;stroke-linecap:butt;stroke-linejoin:round;stroke-miterlimit:10;stroke-dasharray:4.27, 12.8;stroke-dashoffset:0;stroke-opacity:1"
         d="m 310.65,160.66 h 18.43" /></g><g
       id="g1256" /><g
       id="g1258"><path
         id="path1260"
         style="fill:#f2f2f2;fill-opacity:1;fill-rule:nonzero;stroke:#ffffff;stroke-width:1.07;stroke-linecap:round;stroke-linejoin:round;stroke-miterlimit:10;stroke-dasharray:none;stroke-opacity:1"
         d="m 308.34,126.1 h 23.04 v 23.04 h -23.04 z" /></g><g
       id="g1262" /><g
       id="g1264"><path
         id="path1266"
         style="fill:none;stroke:#00a9ff;stroke-width:4.27;stroke-linecap:butt;stroke-linejoin:round;stroke-miterlimit:10;stroke-dasharray:4.27, 12.8, 17.07, 12.8;stroke-dashoffset:0;stroke-opacity:1"
         d="m 310.65,137.62 h 18.43" /></g><g
       id="g1268" /><g
       id="g1270"><path
         id="path1272"
         style="fill:#f2f2f2;fill-opacity:1;fill-rule:nonzero;stroke:#ffffff;stroke-width:1.07;stroke-linecap:round;stroke-linejoin:round;stroke-miterlimit:10;stroke-dasharray:none;stroke-opacity:1"
         d="m 308.34,103.06 h 23.04 v 23.04 h -23.04 z" /></g><g
       id="g1274" /><g
       id="g1276"><path
         id="path1278"
         style="fill:none;stroke:#c77cff;stroke-width:4.27;stroke-linecap:butt;stroke-linejoin:round;stroke-miterlimit:10;stroke-dasharray:29.88, 12.8;stroke-dashoffset:0;stroke-opacity:1"
         d="m 310.65,114.58 h 18.43" /></g><g
       id="g1280" /><g
       id="g1282"><path
         id="path1284"
         style="fill:#f2f2f2;fill-opacity:1;fill-rule:nonzero;stroke:#ffffff;stroke-width:1.07;stroke-linecap:round;stroke-linejoin:round;stroke-miterlimit:10;stroke-dasharray:none;stroke-opacity:1"
         d="m 308.34,80.02 h 23.04 v 23.04 h -23.04 z" /></g><g
       id="g1286" /><g
       id="g1288"><path
         id="path1290"
         style="fill:none;stroke:#ff61cc;stroke-width:4.27;stroke-linecap:butt;stroke-linejoin:round;stroke-miterlimit:10;stroke-dasharray:8.54, 8.54, 25.61, 8.54;stroke-dashoffset:0;stroke-opacity:1"
         d="m 310.65,91.54 h 18.43" /></g><g
       id="g1292" /><g
       id="g1294"><text
         id="text1298"
         style="font-variant:normal;font-weight:normal;font-size:9px;font-family:Helvetica;-inkscape-font-specification:Helvetica;writing-mode:lr-tb;fill:#000000;fill-opacity:1;fill-rule:nonzero;stroke:none"
         transform="matrix(1,0,0,-1,334.26,249.59)"><tspan
           id="tspan1296"
           sodipodi:role="line"
           y="0"
           x="0 6.4980001 9.4949999 14.499">D(1)</tspan></text></g><g
       id="g1300" /><g
       id="g1302"><text
         id="text1306"
         style="font-variant:normal;font-weight:normal;font-size:9px;font-family:Helvetica;-inkscape-font-specification:Helvetica;writing-mode:lr-tb;fill:#000000;fill-opacity:1;fill-rule:nonzero;stroke:none"
         transform="matrix(1,0,0,-1,334.26,226.55)"><tspan
           id="tspan1304"
           sodipodi:role="line"
           y="0"
           x="0 6.4980001 9.4949999 14.499 17.496 22.752001">D(1)+T</tspan></text></g><g
       id="g1308" /><g
       id="g1310"><text
         id="text1314"
         style="font-variant:normal;font-weight:normal;font-size:9px;font-family:Helvetica;-inkscape-font-specification:Helvetica;writing-mode:lr-tb;fill:#000000;fill-opacity:1;fill-rule:nonzero;stroke:none"
         transform="matrix(1,0,0,-1,334.26,203.51)"><tspan
           id="tspan1312"
           sodipodi:role="line"
           y="0"
           x="0 6.4980001 9.4949999 14.499">D(2)</tspan></text></g><g
       id="g1316" /><g
       id="g1318"><text
         id="text1322"
         style="font-variant:normal;font-weight:normal;font-size:9px;font-family:Helvetica;-inkscape-font-specification:Helvetica;writing-mode:lr-tb;fill:#000000;fill-opacity:1;fill-rule:nonzero;stroke:none"
         transform="matrix(1,0,0,-1,334.26,180.47)"><tspan
           id="tspan1320"
           sodipodi:role="line"
           y="0"
           x="0 6.4980001 9.4949999 14.499 17.496 22.752001">D(2)+T</tspan></text></g><g
       id="g1324" /><g
       id="g1326"><text
         id="text1330"
         style="font-variant:normal;font-weight:normal;font-size:9px;font-family:Helvetica;-inkscape-font-specification:Helvetica;writing-mode:lr-tb;fill:#000000;fill-opacity:1;fill-rule:nonzero;stroke:none"
         transform="matrix(1,0,0,-1,334.26,157.43)"><tspan
           id="tspan1328"
           sodipodi:role="line"
           y="0"
           x="0 6.4980001 9.4949999 14.499">D(3)</tspan></text></g><g
       id="g1332" /><g
       id="g1334"><text
         id="text1338"
         style="font-variant:normal;font-weight:normal;font-size:9px;font-family:Helvetica;-inkscape-font-specification:Helvetica;writing-mode:lr-tb;fill:#000000;fill-opacity:1;fill-rule:nonzero;stroke:none"
         transform="matrix(1,0,0,-1,334.26,134.39)"><tspan
           id="tspan1336"
           sodipodi:role="line"
           y="0"
           x="0 6.4980001 9.4949999 14.499 17.496 22.752001">D(3)+T</tspan></text></g><g
       id="g1340" /><g
       id="g1342"><text
         id="text1346"
         style="font-variant:normal;font-weight:normal;font-size:9px;font-family:Helvetica;-inkscape-font-specification:Helvetica;writing-mode:lr-tb;fill:#000000;fill-opacity:1;fill-rule:nonzero;stroke:none"
         transform="matrix(1,0,0,-1,334.26,111.35)"><tspan
           id="tspan1344"
           sodipodi:role="line"
           y="0"
           x="0 6.4980001 9.4949999 14.499">D(4)</tspan></text></g><g
       id="g1348" /><g
       id="g1350"><text
         id="text1354"
         style="font-variant:normal;font-weight:normal;font-size:9px;font-family:Helvetica;-inkscape-font-specification:Helvetica;writing-mode:lr-tb;fill:#000000;fill-opacity:1;fill-rule:nonzero;stroke:none"
         transform="matrix(1,0,0,-1,334.26,88.31)"><tspan
           id="tspan1352"
           sodipodi:role="line"
           y="0"
           x="0 6.4980001 9.4949999 14.499 17.496 22.752001">D(4)+T</tspan></text></g><g
       id="g1356" /><g
       id="g1358" /><g
       id="g1360" /><g
       id="g1362" /><g
       id="g1364" /><g
       id="g1366" /><g
       id="g1368" /><g
       id="g1370" /><g
       id="g1372" /><g
       id="g1374" /><g
       id="g1376" /><g
       id="g1378" /></g></svg>
