<?xml version="1.0" encoding="UTF-8" standalone="no"?>
<svg
   xmlns:dc="http://purl.org/dc/elements/1.1/"
   xmlns:cc="http://creativecommons.org/ns#"
   xmlns:rdf="http://www.w3.org/1999/02/22-rdf-syntax-ns#"
   xmlns:svg="http://www.w3.org/2000/svg"
   xmlns="http://www.w3.org/2000/svg"
   xmlns:sodipodi="http://sodipodi.sourceforge.net/DTD/sodipodi-0.dtd"
   xmlns:inkscape="http://www.inkscape.org/namespaces/inkscape"
   inkscape:version="1.0 (6e3e5246a0, 2020-05-07)"
   sodipodi:docname="privacy_match.svg"
   viewBox="0 0 505.33334 442.66666"
   height="442.66666"
   width="505.33334"
   xml:space="preserve"
   id="svg480"
   version="1.1"><metadata
     id="metadata486"><rdf:RDF><cc:Work
         rdf:about=""><dc:format>image/svg+xml</dc:format><dc:type
           rdf:resource="http://purl.org/dc/dcmitype/StillImage" /><dc:title></dc:title></cc:Work></rdf:RDF></metadata><defs
     id="defs484"><clipPath
       id="clipPath514"
       clipPathUnits="userSpaceOnUse"><path
         id="path512"
         d="M 0,0 H 379.5 V 332.25 H 0 Z" /></clipPath><clipPath
       id="clipPath530"
       clipPathUnits="userSpaceOnUse"><path
         id="path528"
         d="m 34.89,31.35 h 260.7 V 326.77 H 34.89 Z" /></clipPath></defs><sodipodi:namedview
     inkscape:current-layer="g488"
     inkscape:window-maximized="0"
     inkscape:window-y="27"
     inkscape:window-x="960"
     inkscape:cy="221.33333"
     inkscape:cx="252.66667"
     inkscape:zoom="1.3402017"
     showgrid="false"
     id="namedview482"
     inkscape:window-height="1025"
     inkscape:window-width="960"
     inkscape:pageshadow="2"
     inkscape:pageopacity="0"
     guidetolerance="10"
     gridtolerance="10"
     objecttolerance="10"
     borderopacity="1"
     bordercolor="#666666"
     pagecolor="#ffffff" /><g
     transform="matrix(1.3333333,0,0,-1.3333333,0,442.66667)"
     inkscape:label="privacy_match"
     inkscape:groupmode="layer"
     id="g488"><g
       id="g490" /><g
       id="g492" /><g
       id="g494" /><g
       id="g496" /><g
       id="g498" /><g
       id="g500" /><g
       id="g502" /><g
       id="g504" /><g
       id="g506" /><g
       id="g518" /><g
       id="g520" /><g
       id="g522" /><g
       id="g524"><g
         clip-path="url(#clipPath530)"
         id="g526"><path
           id="path532"
           style="fill:#ebebeb;fill-opacity:1;fill-rule:nonzero;stroke:none"
           d="m 34.89,31.35 h 260.7 V 326.77 H 34.89 Z" /><path
           id="path534"
           style="fill:none;stroke:#ffffff;stroke-width:0.53;stroke-linecap:butt;stroke-linejoin:round;stroke-miterlimit:10;stroke-dasharray:none;stroke-opacity:1"
           d="m 34.89,88.09 h 260.7" /><path
           id="path536"
           style="fill:none;stroke:#ffffff;stroke-width:0.53;stroke-linecap:butt;stroke-linejoin:round;stroke-miterlimit:10;stroke-dasharray:none;stroke-opacity:1"
           d="m 34.89,174.73 h 260.7" /><path
           id="path538"
           style="fill:none;stroke:#ffffff;stroke-width:0.53;stroke-linecap:butt;stroke-linejoin:round;stroke-miterlimit:10;stroke-dasharray:none;stroke-opacity:1"
           d="m 34.89,261.36 h 260.7" /><path
           id="path540"
           style="fill:none;stroke:#ffffff;stroke-width:0.53;stroke-linecap:butt;stroke-linejoin:round;stroke-miterlimit:10;stroke-dasharray:none;stroke-opacity:1"
           d="M 71.76,31.35 V 326.77" /><path
           id="path542"
           style="fill:none;stroke:#ffffff;stroke-width:0.53;stroke-linecap:butt;stroke-linejoin:round;stroke-miterlimit:10;stroke-dasharray:none;stroke-opacity:1"
           d="M 137.59,31.35 V 326.77" /><path
           id="path544"
           style="fill:none;stroke:#ffffff;stroke-width:0.53;stroke-linecap:butt;stroke-linejoin:round;stroke-miterlimit:10;stroke-dasharray:none;stroke-opacity:1"
           d="M 203.42,31.35 V 326.77" /><path
           id="path546"
           style="fill:none;stroke:#ffffff;stroke-width:0.53;stroke-linecap:butt;stroke-linejoin:round;stroke-miterlimit:10;stroke-dasharray:none;stroke-opacity:1"
           d="M 269.26,31.35 V 326.77" /><path
           id="path548"
           style="fill:none;stroke:#ffffff;stroke-width:1.07;stroke-linecap:butt;stroke-linejoin:round;stroke-miterlimit:10;stroke-dasharray:none;stroke-opacity:1"
           d="m 34.89,44.77 h 260.7" /><path
           id="path550"
           style="fill:none;stroke:#ffffff;stroke-width:1.07;stroke-linecap:butt;stroke-linejoin:round;stroke-miterlimit:10;stroke-dasharray:none;stroke-opacity:1"
           d="m 34.89,131.41 h 260.7" /><path
           id="path552"
           style="fill:none;stroke:#ffffff;stroke-width:1.07;stroke-linecap:butt;stroke-linejoin:round;stroke-miterlimit:10;stroke-dasharray:none;stroke-opacity:1"
           d="m 34.89,218.04 h 260.7" /><path
           id="path554"
           style="fill:none;stroke:#ffffff;stroke-width:1.07;stroke-linecap:butt;stroke-linejoin:round;stroke-miterlimit:10;stroke-dasharray:none;stroke-opacity:1"
           d="m 34.89,304.68 h 260.7" /><path
           id="path556"
           style="fill:none;stroke:#ffffff;stroke-width:1.07;stroke-linecap:butt;stroke-linejoin:round;stroke-miterlimit:10;stroke-dasharray:none;stroke-opacity:1"
           d="M 38.84,31.35 V 326.77" /><path
           id="path558"
           style="fill:none;stroke:#ffffff;stroke-width:1.07;stroke-linecap:butt;stroke-linejoin:round;stroke-miterlimit:10;stroke-dasharray:none;stroke-opacity:1"
           d="M 104.67,31.35 V 326.77" /><path
           id="path560"
           style="fill:none;stroke:#ffffff;stroke-width:1.07;stroke-linecap:butt;stroke-linejoin:round;stroke-miterlimit:10;stroke-dasharray:none;stroke-opacity:1"
           d="M 170.51,31.35 V 326.77" /><path
           id="path562"
           style="fill:none;stroke:#ffffff;stroke-width:1.07;stroke-linecap:butt;stroke-linejoin:round;stroke-miterlimit:10;stroke-dasharray:none;stroke-opacity:1"
           d="M 236.34,31.35 V 326.77" /><path
           id="path564"
           style="fill:none;stroke:#f8766d;stroke-width:4.27;stroke-linecap:butt;stroke-linejoin:round;stroke-miterlimit:1;stroke-dasharray:none;stroke-opacity:1"
           d="m 46.74,44.77 h 3 3 3 3 3 3 3 3 3 3 3 3 3 3 3 3 3 3 3 3 3 3 3 3 3 3 3 3 3 3 3 3 3 3 3 3 3 3 3 3 3 3 3 3 3 3 3 3 3 3 3 3 3 3 3 3 3 3 3 3 3 3 3 3 3 3 3 3 3 3 3 3 3 3 3 3 3 3 3" /><path
           id="path566"
           style="fill:none;stroke:#d89000;stroke-width:4.27;stroke-linecap:butt;stroke-linejoin:round;stroke-miterlimit:1;stroke-dasharray:8.54, 8.54;stroke-dashoffset:0;stroke-opacity:1"
           d="m 46.74,293.41 3,-17.43 3,-16.7 3,-15.96 3,-15.25 3,-14.54 3,-13.85 3,-13.16 3,-12.49 3,-11.82 3,-11.01 3,-10.16 3,-9.38 3,-8.67 3,-8.02 3,-7.44 3,-6.92 3,-6.46 3,-5.89 3,-4.09 3,-2.38 3,-1.07 3,-0.15 3,0.37 3,0.49 3,0.22 3,-0.46 3,-1.17 3,-1.02 3,-0.82 3,-0.67 3,-0.57 3,-0.51 3,-0.51 3,-0.54 3,-0.62 3,-0.66 3,-0.58 3,-0.53 3,-0.47 3,-0.44 3,-0.42 3,-0.41 3,-0.41 3,-0.44 3,-0.42 3,-0.39 3,-0.37 3,-0.34 3,-0.32 3,-0.31 3,-0.31 3,-0.31 3,-0.31 3,-0.31 3,-0.29 3,-0.27 3,-0.27 3,-0.25 3,-0.25 3,-0.25 3,-0.25 3,-0.24 3,-0.23 3,-0.23 3,-0.22 3,-0.21 3,-0.2 3,-0.2 3,-0.19 3,-0.18 3,-0.17 3,-0.17 3,-0.16 3,-0.16 3,-0.14 3,-0.14 3,-0.13 3,-0.13 3,-0.11" /><path
           id="path568"
           style="fill:none;stroke:#a3a500;stroke-width:4.27;stroke-linecap:butt;stroke-linejoin:round;stroke-miterlimit:1;stroke-dasharray:17.07, 8.54;stroke-dashoffset:0;stroke-opacity:1"
           d="m 46.74,62.36 3,-0.09 3,-0.09 3,-0.09 3,-0.1 3,-0.1 3,-0.1 3,-0.1 3,-0.1 3,-0.1 3,-0.1 3,-0.11 3,-0.11 3,-0.11 3,-0.11 3,-0.11 3,-0.12 3,-0.11 3,-0.12 3,-0.12 3,-0.12 3,-0.13 3,-0.14 3,-0.13 3,-0.13 3,-0.13 3,-0.13 3,-0.12 3,-0.12 3,-0.12 3,-0.12 3,-0.12 3,-0.11 3,-0.12 3,-0.11 3,-0.12 3,-0.11 3,-0.12 3,-0.12 3,-0.12 3,-0.12 3,-0.11 3,-0.11 3,-0.11 3,-0.11 3,-0.1 3,-0.1 3,-0.1 3,-0.1 3,-0.1 3,-0.09 3,-0.09 3,-0.1 3,-0.08 3,-0.09 3,-0.08 3,-0.09 3,-0.08 3,-0.08 3,-0.07 3,-0.08 3,-0.07 3,-0.08 3,-0.07 3,-0.07 3,-0.06 3,-0.07 3,-0.06 3,-0.07 3,-0.06 3,-0.06 3,-0.06 3,-0.05 3,-0.06 3,-0.05 3,-0.05 3,-0.05 3,-0.05 3,-0.05 3,-0.04" /><path
           id="path570"
           style="fill:none;stroke:#39b600;stroke-width:4.27;stroke-linecap:butt;stroke-linejoin:round;stroke-miterlimit:1;stroke-dasharray:17.07, 17.07;stroke-dashoffset:0;stroke-opacity:1"
           d="m 46.74,60.94 3,-0.04 3,-0.05 3,-0.05 3,-0.05 3,-0.06 3,-0.06 3,-0.06 3,-0.06 3,-0.07 3,-0.07 3,-0.07 3,-0.08 3,-0.08 3,-0.08 3,-0.08 3,-0.09 3,-0.09 3,-0.09 3,-0.09 3,-0.11 3,-0.11 3,-0.12 3,-0.12 3,-0.12 3,-0.11 3,-0.11 3,-0.11 3,-0.1 3,-0.1 3,-0.1 3,-0.1 3,-0.1 3,-0.1 3,-0.1 3,-0.1 3,-0.1 3,-0.1 3,-0.1 3,-0.1 3,-0.1 3,-0.1 3,-0.1 3,-0.09 3,-0.1 3,-0.09 3,-0.09 3,-0.09 3,-0.09 3,-0.09 3,-0.09 3,-0.08 3,-0.09 3,-0.07 3,-0.08 3,-0.08 3,-0.07 3,-0.07 3,-0.07 3,-0.07 3,-0.06 3,-0.07 3,-0.07 3,-0.06 3,-0.06 3,-0.07 3,-0.06 3,-0.06 3,-0.05 3,-0.06 3,-0.05 3,-0.06 3,-0.05 3,-0.05 3,-0.05 3,-0.05 3,-0.05 3,-0.05 3,-0.04 3,-0.04" /><path
           id="path572"
           style="fill:none;stroke:#00bf7d;stroke-width:4.27;stroke-linecap:butt;stroke-linejoin:round;stroke-miterlimit:1;stroke-dasharray:4.27, 12.8;stroke-dashoffset:0;stroke-opacity:1"
           d="m 46.74,63.64 3,-0.17 3,-0.17 3,-0.16 3,-0.17 3,-0.16 3,-0.16 3,-0.17 3,-0.16 3,-0.15 3,-0.16 3,-0.16 3,-0.16 3,-0.15 3,-0.16 3,-0.15 3,-0.15 3,-0.15 3,-0.15 3,-0.15 3,-0.15 3,-0.15 3,-0.16 3,-0.15 3,-0.14 3,-0.15 3,-0.14 3,-0.13 3,-0.13 3,-0.12 3,-0.11 3,-0.12 3,-0.11 3,-0.11 3,-0.12 3,-0.11 3,-0.12 3,-0.12 3,-0.11 3,-0.12 3,-0.12 3,-0.11 3,-0.11 3,-0.11 3,-0.11 3,-0.1 3,-0.11 3,-0.1 3,-0.11 3,-0.1 3,-0.1 3,-0.1 3,-0.1 3,-0.09 3,-0.09 3,-0.08 3,-0.09 3,-0.08 3,-0.09 3,-0.08 3,-0.07 3,-0.08 3,-0.08 3,-0.07 3,-0.07 3,-0.07 3,-0.07 3,-0.06 3,-0.07 3,-0.06 3,-0.06 3,-0.06 3,-0.05 3,-0.06 3,-0.05 3,-0.05 3,-0.05 3,-0.05 3,-0.05 3,-0.04" /><path
           id="path574"
           style="fill:none;stroke:#00bfc4;stroke-width:4.27;stroke-linecap:butt;stroke-linejoin:round;stroke-miterlimit:1;stroke-dasharray:4.27, 12.8, 17.07, 12.8;stroke-dashoffset:0;stroke-opacity:1"
           d="m 46.74,60.92 3,-0.04 3,-0.04 3,-0.04 3,-0.05 3,-0.05 3,-0.05 3,-0.06 3,-0.06 3,-0.06 3,-0.07 3,-0.07 3,-0.07 3,-0.08 3,-0.08 3,-0.08 3,-0.09 3,-0.08 3,-0.09 3,-0.1 3,-0.11 3,-0.12 3,-0.13 3,-0.12 3,-0.12 3,-0.12 3,-0.12 3,-0.11 3,-0.1 3,-0.11 3,-0.1 3,-0.1 3,-0.1 3,-0.1 3,-0.11 3,-0.1 3,-0.09 3,-0.11 3,-0.1 3,-0.1 3,-0.09 3,-0.1 3,-0.1 3,-0.09 3,-0.09 3,-0.09 3,-0.09 3,-0.09 3,-0.09 3,-0.09 3,-0.08 3,-0.09 3,-0.08 3,-0.08 3,-0.07 3,-0.07 3,-0.08 3,-0.07 3,-0.06 3,-0.07 3,-0.07 3,-0.06 3,-0.07 3,-0.07 3,-0.06 3,-0.06 3,-0.06 3,-0.07 3,-0.05 3,-0.06 3,-0.06 3,-0.06 3,-0.05 3,-0.06 3,-0.05 3,-0.05 3,-0.05 3,-0.05 3,-0.05 3,-0.05" /><path
           id="path576"
           style="fill:none;stroke:#00b0f6;stroke-width:4.27;stroke-linecap:butt;stroke-linejoin:round;stroke-miterlimit:1;stroke-dasharray:29.88, 12.8;stroke-dashoffset:0;stroke-opacity:1"
           d="m 46.74,63.81 3,-0.18 3,-0.18 3,-0.17 3,-0.17 3,-0.17 3,-0.17 3,-0.17 3,-0.17 3,-0.17 3,-0.16 3,-0.16 3,-0.16 3,-0.16 3,-0.16 3,-0.16 3,-0.15 3,-0.16 3,-0.15 3,-0.15 3,-0.15 3,-0.16 3,-0.15 3,-0.15 3,-0.15 3,-0.14 3,-0.14 3,-0.13 3,-0.13 3,-0.12 3,-0.12 3,-0.12 3,-0.11 3,-0.11 3,-0.12 3,-0.11 3,-0.12 3,-0.12 3,-0.11 3,-0.12 3,-0.12 3,-0.11 3,-0.11 3,-0.11 3,-0.1 3,-0.11 3,-0.1 3,-0.11 3,-0.1 3,-0.1 3,-0.09 3,-0.1 3,-0.09 3,-0.09 3,-0.09 3,-0.09 3,-0.08 3,-0.09 3,-0.08 3,-0.08 3,-0.08 3,-0.07 3,-0.08 3,-0.07 3,-0.07 3,-0.07 3,-0.07 3,-0.06 3,-0.07 3,-0.06 3,-0.06 3,-0.06 3,-0.05 3,-0.06 3,-0.05 3,-0.05 3,-0.05 3,-0.05 3,-0.05 3,-0.04" /><path
           id="path578"
           style="fill:none;stroke:#9590ff;stroke-width:4.27;stroke-linecap:butt;stroke-linejoin:round;stroke-miterlimit:1;stroke-dasharray:8.54, 8.54, 25.61, 8.54;stroke-dashoffset:0;stroke-opacity:1"
           d="m 46.74,61.31 3,-0.05 3,-0.05 3,-0.05 3,-0.06 3,-0.06 3,-0.06 3,-0.06 3,-0.07 3,-0.07 3,-0.08 3,-0.07 3,-0.08 3,-0.09 3,-0.08 3,-0.09 3,-0.09 3,-0.1 3,-0.09 3,-0.1 3,-0.12 3,-0.12 3,-0.13 3,-0.12 3,-0.13 3,-0.12 3,-0.12 3,-0.11 3,-0.11 3,-0.1 3,-0.11 3,-0.1 3,-0.1 3,-0.11 3,-0.1 3,-0.1 3,-0.1 3,-0.11 3,-0.1 3,-0.11 3,-0.1 3,-0.1 3,-0.1 3,-0.1 3,-0.1 3,-0.09 3,-0.09 3,-0.09 3,-0.09 3,-0.09 3,-0.08 3,-0.09 3,-0.08 3,-0.08 3,-0.07 3,-0.08 3,-0.07 3,-0.07 3,-0.07 3,-0.07 3,-0.07 3,-0.07 3,-0.06 3,-0.07 3,-0.07 3,-0.06 3,-0.06 3,-0.06 3,-0.06 3,-0.06 3,-0.06 3,-0.06 3,-0.06 3,-0.05 3,-0.06 3,-0.05 3,-0.05 3,-0.05 3,-0.05 3,-0.05" /><path
           id="path580"
           style="fill:none;stroke:#e76bf3;stroke-width:4.27;stroke-linecap:butt;stroke-linejoin:round;stroke-miterlimit:1;stroke-dasharray:4.27, 8.54, 8.54, 8.54, 12.8, 8.54, 17.07, 8.54;stroke-dashoffset:0;stroke-opacity:1"
           d="m 46.74,64.05 3,-0.18 3,-0.17 3,-0.17 3,-0.18 3,-0.17 3,-0.17 3,-0.16 3,-0.17 3,-0.17 3,-0.16 3,-0.17 3,-0.16 3,-0.16 3,-0.16 3,-0.16 3,-0.16 3,-0.15 3,-0.16 3,-0.16 3,-0.15 3,-0.16 3,-0.16 3,-0.16 3,-0.15 3,-0.15 3,-0.15 3,-0.14 3,-0.13 3,-0.12 3,-0.12 3,-0.11 3,-0.12 3,-0.11 3,-0.12 3,-0.11 3,-0.12 3,-0.13 3,-0.12 3,-0.12 3,-0.11 3,-0.12 3,-0.12 3,-0.11 3,-0.11 3,-0.11 3,-0.1 3,-0.11 3,-0.11 3,-0.1 3,-0.1 3,-0.1 3,-0.1 3,-0.09 3,-0.09 3,-0.09 3,-0.09 3,-0.09 3,-0.08 3,-0.08 3,-0.08 3,-0.08 3,-0.08 3,-0.07 3,-0.07 3,-0.08 3,-0.07 3,-0.06 3,-0.07 3,-0.06 3,-0.07 3,-0.06 3,-0.06 3,-0.05 3,-0.06 3,-0.05 3,-0.05 3,-0.05 3,-0.05 3,-0.05" /><path
           id="path582"
           style="fill:none;stroke:#ff62bc;stroke-width:4.27;stroke-linecap:butt;stroke-linejoin:round;stroke-miterlimit:1;stroke-dasharray:64.02, 8.54, 34.14, 8.54;stroke-dashoffset:0;stroke-opacity:1"
           d="m 46.74,61.31 3,-0.05 3,-0.05 3,-0.05 3,-0.06 3,-0.05 3,-0.06 3,-0.07 3,-0.07 3,-0.07 3,-0.07 3,-0.08 3,-0.08 3,-0.08 3,-0.09 3,-0.09 3,-0.09 3,-0.09 3,-0.09 3,-0.11 3,-0.12 3,-0.12 3,-0.13 3,-0.12 3,-0.13 3,-0.13 3,-0.12 3,-0.11 3,-0.1 3,-0.11 3,-0.1 3,-0.11 3,-0.1 3,-0.1 3,-0.1 3,-0.11 3,-0.1 3,-0.1 3,-0.1 3,-0.11 3,-0.1 3,-0.1 3,-0.1 3,-0.1 3,-0.09 3,-0.09 3,-0.1 3,-0.09 3,-0.09 3,-0.08 3,-0.09 3,-0.09 3,-0.08 3,-0.08 3,-0.08 3,-0.07 3,-0.07 3,-0.07 3,-0.07 3,-0.07 3,-0.07 3,-0.07 3,-0.07 3,-0.07 3,-0.06 3,-0.07 3,-0.06 3,-0.06 3,-0.06 3,-0.06 3,-0.06 3,-0.06 3,-0.05 3,-0.06 3,-0.05 3,-0.06 3,-0.05 3,-0.05 3,-0.05 3,-0.05" /></g></g><g
       id="g584" /><g
       id="g586" /><g
       id="g588" /><g
       id="g590" /><g
       id="g592" /><g
       id="g594"><text
         id="text598"
         style="font-variant:normal;font-weight:normal;font-size:9px;font-family:Helvetica;-inkscape-font-specification:Helvetica;writing-mode:lr-tb;fill:#4d4d4d;fill-opacity:1;fill-rule:nonzero;stroke:none"
         transform="matrix(1,0,0,-1,24.96,41.54)"><tspan
           id="tspan596"
           y="0"
           x="0">0</tspan></text><text
         id="text602"
         style="font-variant:normal;font-weight:normal;font-size:9px;font-family:Helvetica;-inkscape-font-specification:Helvetica;writing-mode:lr-tb;fill:#4d4d4d;fill-opacity:1;fill-rule:nonzero;stroke:none"
         transform="matrix(1,0,0,-1,19.95,128.18)"><tspan
           id="tspan600"
           sodipodi:role="line"
           y="0"
           x="0 5.0040002">10</tspan></text><text
         id="text606"
         style="font-variant:normal;font-weight:normal;font-size:9px;font-family:Helvetica;-inkscape-font-specification:Helvetica;writing-mode:lr-tb;fill:#4d4d4d;fill-opacity:1;fill-rule:nonzero;stroke:none"
         transform="matrix(1,0,0,-1,19.95,214.81)"><tspan
           id="tspan604"
           sodipodi:role="line"
           y="0"
           x="0 5.0040002">20</tspan></text><text
         id="text610"
         style="font-variant:normal;font-weight:normal;font-size:9px;font-family:Helvetica;-inkscape-font-specification:Helvetica;writing-mode:lr-tb;fill:#4d4d4d;fill-opacity:1;fill-rule:nonzero;stroke:none"
         transform="matrix(1,0,0,-1,19.95,301.45)"><tspan
           id="tspan608"
           sodipodi:role="line"
           y="0"
           x="0 5.0040002">30</tspan></text></g><g
       id="g612" /><g
       id="g614" /><g
       id="g616"><path
         id="path618"
         style="fill:none;stroke:#333333;stroke-width:1.07;stroke-linecap:butt;stroke-linejoin:round;stroke-miterlimit:10;stroke-dasharray:none;stroke-opacity:1"
         d="m 32.15,44.77 h 2.74" /><path
         id="path620"
         style="fill:none;stroke:#333333;stroke-width:1.07;stroke-linecap:butt;stroke-linejoin:round;stroke-miterlimit:10;stroke-dasharray:none;stroke-opacity:1"
         d="m 32.15,131.41 h 2.74" /><path
         id="path622"
         style="fill:none;stroke:#333333;stroke-width:1.07;stroke-linecap:butt;stroke-linejoin:round;stroke-miterlimit:10;stroke-dasharray:none;stroke-opacity:1"
         d="m 32.15,218.04 h 2.74" /><path
         id="path624"
         style="fill:none;stroke:#333333;stroke-width:1.07;stroke-linecap:butt;stroke-linejoin:round;stroke-miterlimit:10;stroke-dasharray:none;stroke-opacity:1"
         d="m 32.15,304.68 h 2.74" /></g><g
       id="g626" /><g
       id="g628" /><g
       id="g630" /><g
       id="g632" /><g
       id="g634" /><g
       id="g636" /><g
       id="g638" /><g
       id="g640" /><g
       id="g642"><path
         id="path644"
         style="fill:none;stroke:#333333;stroke-width:1.07;stroke-linecap:butt;stroke-linejoin:round;stroke-miterlimit:10;stroke-dasharray:none;stroke-opacity:1"
         d="m 38.84,28.61 v 2.74" /><path
         id="path646"
         style="fill:none;stroke:#333333;stroke-width:1.07;stroke-linecap:butt;stroke-linejoin:round;stroke-miterlimit:10;stroke-dasharray:none;stroke-opacity:1"
         d="m 104.67,28.61 v 2.74" /><path
         id="path648"
         style="fill:none;stroke:#333333;stroke-width:1.07;stroke-linecap:butt;stroke-linejoin:round;stroke-miterlimit:10;stroke-dasharray:none;stroke-opacity:1"
         d="m 170.51,28.61 v 2.74" /><path
         id="path650"
         style="fill:none;stroke:#333333;stroke-width:1.07;stroke-linecap:butt;stroke-linejoin:round;stroke-miterlimit:10;stroke-dasharray:none;stroke-opacity:1"
         d="m 236.34,28.61 v 2.74" /></g><g
       id="g652" /><g
       id="g654"><text
         id="text658"
         style="font-variant:normal;font-weight:normal;font-size:9px;font-family:Helvetica;-inkscape-font-specification:Helvetica;writing-mode:lr-tb;fill:#4d4d4d;fill-opacity:1;fill-rule:nonzero;stroke:none"
         transform="matrix(1,0,0,-1,36.34,19.95)"><tspan
           id="tspan656"
           y="0"
           x="0">0</tspan></text><text
         id="text662"
         style="font-variant:normal;font-weight:normal;font-size:9px;font-family:Helvetica;-inkscape-font-specification:Helvetica;writing-mode:lr-tb;fill:#4d4d4d;fill-opacity:1;fill-rule:nonzero;stroke:none"
         transform="matrix(1,0,0,-1,99.67,19.95)"><tspan
           id="tspan660"
           sodipodi:role="line"
           y="0"
           x="0 5.0040002">25</tspan></text><text
         id="text666"
         style="font-variant:normal;font-weight:normal;font-size:9px;font-family:Helvetica;-inkscape-font-specification:Helvetica;writing-mode:lr-tb;fill:#4d4d4d;fill-opacity:1;fill-rule:nonzero;stroke:none"
         transform="matrix(1,0,0,-1,165.5,19.95)"><tspan
           id="tspan664"
           sodipodi:role="line"
           y="0"
           x="0 5.0040002">50</tspan></text><text
         id="text670"
         style="font-variant:normal;font-weight:normal;font-size:9px;font-family:Helvetica;-inkscape-font-specification:Helvetica;writing-mode:lr-tb;fill:#4d4d4d;fill-opacity:1;fill-rule:nonzero;stroke:none"
         transform="matrix(1,0,0,-1,231.34,19.95)"><tspan
           id="tspan668"
           sodipodi:role="line"
           y="0"
           x="0 5.0040002">75</tspan></text></g><g
       id="g672" /><g
       id="g674" /><g
       id="g676" /><g
       id="g678" /><g
       id="g680" /><g
       id="g682"><text
         id="text686"
         style="font-variant:normal;font-weight:normal;font-size:11px;font-family:Helvetica;-inkscape-font-specification:Helvetica;writing-mode:lr-tb;fill:#000000;fill-opacity:1;fill-rule:nonzero;stroke:none"
         transform="matrix(1,0,0,-1,148.12,7.67)"><tspan
           id="tspan684"
           sodipodi:role="line"
           y="0"
           x="0 3.0580001 9.1739998 11.616 14.674 17.115999 23.232 25.674 28.732">Initial k</tspan></text></g><g
       id="g688" /><g
       id="g690" /><g
       id="g692"><text
         id="text696"
         style="font-variant:normal;font-weight:normal;font-size:11px;font-family:Helvetica;-inkscape-font-specification:Helvetica;writing-mode:lr-tb;fill:#000000;fill-opacity:1;fill-rule:nonzero;stroke:none"
         transform="matrix(0,1,1,0,15.57,154)"><tspan
           id="tspan694"
           sodipodi:role="line"
           y="0"
           x="0 9.1630001 15.279 18.337 23.837 29.952999 33.011002 36.674 46.452999">Match (%)</tspan></text></g><g
       id="g698" /><g
       id="g700" /><g
       id="g702" /><g
       id="g704" /><g
       id="g706" /><g
       id="g708" /><g
       id="g714" /><g
       id="g716"><text
         id="text720"
         style="font-variant:normal;font-weight:normal;font-size:11px;font-family:Helvetica;-inkscape-font-specification:Helvetica;writing-mode:lr-tb;fill:#000000;fill-opacity:1;fill-rule:nonzero;stroke:none"
         transform="matrix(1,0,0,-1,308.34,293.19)"><tspan
           id="tspan718"
           sodipodi:role="line"
           y="0"
           x="0 7.3369999 9.7790003 15.895 22.011 25.839001 28.281 31.339001 37.455002">Algorithm</tspan></text></g><g
       id="g722" /><g
       id="g724"><path
         id="path726"
         style="fill:#f2f2f2;fill-opacity:1;fill-rule:nonzero;stroke:#ffffff;stroke-width:1.07;stroke-linecap:round;stroke-linejoin:round;stroke-miterlimit:10;stroke-dasharray:none;stroke-opacity:1"
         d="m 308.34,264.34 h 23.04 v 23.04 h -23.04 z" /></g><g
       id="g728" /><g
       id="g730"><path
         id="path732"
         style="fill:none;stroke:#f8766d;stroke-width:4.27;stroke-linecap:butt;stroke-linejoin:round;stroke-miterlimit:10;stroke-dasharray:none;stroke-opacity:1"
         d="m 310.65,275.86 h 18.43" /></g><g
       id="g734" /><g
       id="g736"><path
         id="path738"
         style="fill:#f2f2f2;fill-opacity:1;fill-rule:nonzero;stroke:#ffffff;stroke-width:1.07;stroke-linecap:round;stroke-linejoin:round;stroke-miterlimit:10;stroke-dasharray:none;stroke-opacity:1"
         d="m 308.34,241.3 h 23.04 v 23.04 h -23.04 z" /></g><g
       id="g740" /><g
       id="g742"><path
         id="path744"
         style="fill:none;stroke:#d89000;stroke-width:4.27;stroke-linecap:butt;stroke-linejoin:round;stroke-miterlimit:10;stroke-dasharray:8.54, 8.54;stroke-dashoffset:0;stroke-opacity:1"
         d="m 310.65,252.82 h 18.43" /></g><g
       id="g746" /><g
       id="g748"><path
         id="path750"
         style="fill:#f2f2f2;fill-opacity:1;fill-rule:nonzero;stroke:#ffffff;stroke-width:1.07;stroke-linecap:round;stroke-linejoin:round;stroke-miterlimit:10;stroke-dasharray:none;stroke-opacity:1"
         d="m 308.34,218.26 h 23.04 v 23.04 h -23.04 z" /></g><g
       id="g752" /><g
       id="g754"><path
         id="path756"
         style="fill:none;stroke:#a3a500;stroke-width:4.27;stroke-linecap:butt;stroke-linejoin:round;stroke-miterlimit:10;stroke-dasharray:17.07, 8.54;stroke-dashoffset:0;stroke-opacity:1"
         d="m 310.65,229.78 h 18.43" /></g><g
       id="g758" /><g
       id="g760"><path
         id="path762"
         style="fill:#f2f2f2;fill-opacity:1;fill-rule:nonzero;stroke:#ffffff;stroke-width:1.07;stroke-linecap:round;stroke-linejoin:round;stroke-miterlimit:10;stroke-dasharray:none;stroke-opacity:1"
         d="m 308.34,195.22 h 23.04 v 23.04 h -23.04 z" /></g><g
       id="g764" /><g
       id="g766"><path
         id="path768"
         style="fill:none;stroke:#39b600;stroke-width:4.27;stroke-linecap:butt;stroke-linejoin:round;stroke-miterlimit:10;stroke-dasharray:17.07, 17.07;stroke-dashoffset:0;stroke-opacity:1"
         d="m 310.65,206.74 h 18.43" /></g><g
       id="g770" /><g
       id="g772"><path
         id="path774"
         style="fill:#f2f2f2;fill-opacity:1;fill-rule:nonzero;stroke:#ffffff;stroke-width:1.07;stroke-linecap:round;stroke-linejoin:round;stroke-miterlimit:10;stroke-dasharray:none;stroke-opacity:1"
         d="m 308.34,172.18 h 23.04 v 23.04 h -23.04 z" /></g><g
       id="g776" /><g
       id="g778"><path
         id="path780"
         style="fill:none;stroke:#00bf7d;stroke-width:4.27;stroke-linecap:butt;stroke-linejoin:round;stroke-miterlimit:10;stroke-dasharray:4.27, 12.8;stroke-dashoffset:0;stroke-opacity:1"
         d="m 310.65,183.7 h 18.43" /></g><g
       id="g782" /><g
       id="g784"><path
         id="path786"
         style="fill:#f2f2f2;fill-opacity:1;fill-rule:nonzero;stroke:#ffffff;stroke-width:1.07;stroke-linecap:round;stroke-linejoin:round;stroke-miterlimit:10;stroke-dasharray:none;stroke-opacity:1"
         d="m 308.34,149.14 h 23.04 v 23.04 h -23.04 z" /></g><g
       id="g788" /><g
       id="g790"><path
         id="path792"
         style="fill:none;stroke:#00bfc4;stroke-width:4.27;stroke-linecap:butt;stroke-linejoin:round;stroke-miterlimit:10;stroke-dasharray:4.27, 12.8, 17.07, 12.8;stroke-dashoffset:0;stroke-opacity:1"
         d="m 310.65,160.66 h 18.43" /></g><g
       id="g794" /><g
       id="g796"><path
         id="path798"
         style="fill:#f2f2f2;fill-opacity:1;fill-rule:nonzero;stroke:#ffffff;stroke-width:1.07;stroke-linecap:round;stroke-linejoin:round;stroke-miterlimit:10;stroke-dasharray:none;stroke-opacity:1"
         d="m 308.34,126.1 h 23.04 v 23.04 h -23.04 z" /></g><g
       id="g800" /><g
       id="g802"><path
         id="path804"
         style="fill:none;stroke:#00b0f6;stroke-width:4.27;stroke-linecap:butt;stroke-linejoin:round;stroke-miterlimit:10;stroke-dasharray:29.88, 12.8;stroke-dashoffset:0;stroke-opacity:1"
         d="m 310.65,137.62 h 18.43" /></g><g
       id="g806" /><g
       id="g808"><path
         id="path810"
         style="fill:#f2f2f2;fill-opacity:1;fill-rule:nonzero;stroke:#ffffff;stroke-width:1.07;stroke-linecap:round;stroke-linejoin:round;stroke-miterlimit:10;stroke-dasharray:none;stroke-opacity:1"
         d="m 308.34,103.06 h 23.04 v 23.04 h -23.04 z" /></g><g
       id="g812" /><g
       id="g814"><path
         id="path816"
         style="fill:none;stroke:#9590ff;stroke-width:4.27;stroke-linecap:butt;stroke-linejoin:round;stroke-miterlimit:10;stroke-dasharray:8.54, 8.54, 25.61, 8.54;stroke-dashoffset:0;stroke-opacity:1"
         d="m 310.65,114.58 h 18.43" /></g><g
       id="g818" /><g
       id="g820"><path
         id="path822"
         style="fill:#f2f2f2;fill-opacity:1;fill-rule:nonzero;stroke:#ffffff;stroke-width:1.07;stroke-linecap:round;stroke-linejoin:round;stroke-miterlimit:10;stroke-dasharray:none;stroke-opacity:1"
         d="m 308.34,80.02 h 23.04 v 23.04 h -23.04 z" /></g><g
       id="g824" /><g
       id="g826"><path
         id="path828"
         style="fill:none;stroke:#e76bf3;stroke-width:4.27;stroke-linecap:butt;stroke-linejoin:round;stroke-miterlimit:10;stroke-dasharray:4.27, 8.54, 8.54, 8.54, 12.8, 8.54, 17.07, 8.54;stroke-dashoffset:0;stroke-opacity:1"
         d="m 310.65,91.54 h 18.43" /></g><g
       id="g830" /><g
       id="g832"><path
         id="path834"
         style="fill:#f2f2f2;fill-opacity:1;fill-rule:nonzero;stroke:#ffffff;stroke-width:1.07;stroke-linecap:round;stroke-linejoin:round;stroke-miterlimit:10;stroke-dasharray:none;stroke-opacity:1"
         d="m 308.34,56.98 h 23.04 v 23.04 h -23.04 z" /></g><g
       id="g836" /><g
       id="g838"><path
         id="path840"
         style="fill:none;stroke:#ff62bc;stroke-width:4.27;stroke-linecap:butt;stroke-linejoin:round;stroke-miterlimit:10;stroke-dasharray:64.02, 8.54, 34.14, 8.54;stroke-dashoffset:0;stroke-opacity:1"
         d="m 310.65,68.5 h 18.43" /></g><g
       id="g842" /><g
       id="g844"><text
         id="text848"
         style="font-variant:normal;font-weight:normal;font-size:9px;font-family:Helvetica;-inkscape-font-specification:Helvetica;writing-mode:lr-tb;fill:#000000;fill-opacity:1;fill-rule:nonzero;stroke:none"
         transform="matrix(1,0,0,-1,334.26,272.63)"><tspan
           id="tspan846"
           y="0"
           x="0">A</tspan></text></g><g
       id="g850" /><g
       id="g852"><text
         id="text856"
         style="font-variant:normal;font-weight:normal;font-size:9px;font-family:Helvetica;-inkscape-font-specification:Helvetica;writing-mode:lr-tb;fill:#000000;fill-opacity:1;fill-rule:nonzero;stroke:none"
         transform="matrix(1,0,0,-1,334.26,249.59)"><tspan
           id="tspan854"
           sodipodi:role="line"
           y="0"
           x="0 6.0029998 9 15.498 21.996">A(NR)</tspan></text></g><g
       id="g858" /><g
       id="g860"><text
         id="text864"
         style="font-variant:normal;font-weight:normal;font-size:9px;font-family:Helvetica;-inkscape-font-specification:Helvetica;writing-mode:lr-tb;fill:#000000;fill-opacity:1;fill-rule:nonzero;stroke:none"
         transform="matrix(1,0,0,-1,334.26,226.55)"><tspan
           id="tspan862"
           sodipodi:role="line"
           y="0"
           x="0 6.4980001 9.4949999 14.499">D(1)</tspan></text></g><g
       id="g866" /><g
       id="g868"><text
         id="text872"
         style="font-variant:normal;font-weight:normal;font-size:9px;font-family:Helvetica;-inkscape-font-specification:Helvetica;writing-mode:lr-tb;fill:#000000;fill-opacity:1;fill-rule:nonzero;stroke:none"
         transform="matrix(1,0,0,-1,334.26,203.51)"><tspan
           id="tspan870"
           sodipodi:role="line"
           y="0"
           x="0 6.4980001 9.4949999 14.499 17.496 22.752001">D(1)+T</tspan></text></g><g
       id="g874" /><g
       id="g876"><text
         id="text880"
         style="font-variant:normal;font-weight:normal;font-size:9px;font-family:Helvetica;-inkscape-font-specification:Helvetica;writing-mode:lr-tb;fill:#000000;fill-opacity:1;fill-rule:nonzero;stroke:none"
         transform="matrix(1,0,0,-1,334.26,180.47)"><tspan
           id="tspan878"
           sodipodi:role="line"
           y="0"
           x="0 6.4980001 9.4949999 14.499">D(2)</tspan></text></g><g
       id="g882" /><g
       id="g884"><text
         id="text888"
         style="font-variant:normal;font-weight:normal;font-size:9px;font-family:Helvetica;-inkscape-font-specification:Helvetica;writing-mode:lr-tb;fill:#000000;fill-opacity:1;fill-rule:nonzero;stroke:none"
         transform="matrix(1,0,0,-1,334.26,157.43)"><tspan
           id="tspan886"
           sodipodi:role="line"
           y="0"
           x="0 6.4980001 9.4949999 14.499 17.496 22.752001">D(2)+T</tspan></text></g><g
       id="g890" /><g
       id="g892"><text
         id="text896"
         style="font-variant:normal;font-weight:normal;font-size:9px;font-family:Helvetica;-inkscape-font-specification:Helvetica;writing-mode:lr-tb;fill:#000000;fill-opacity:1;fill-rule:nonzero;stroke:none"
         transform="matrix(1,0,0,-1,334.26,134.39)"><tspan
           id="tspan894"
           sodipodi:role="line"
           y="0"
           x="0 6.4980001 9.4949999 14.499">D(3)</tspan></text></g><g
       id="g898" /><g
       id="g900"><text
         id="text904"
         style="font-variant:normal;font-weight:normal;font-size:9px;font-family:Helvetica;-inkscape-font-specification:Helvetica;writing-mode:lr-tb;fill:#000000;fill-opacity:1;fill-rule:nonzero;stroke:none"
         transform="matrix(1,0,0,-1,334.26,111.35)"><tspan
           id="tspan902"
           sodipodi:role="line"
           y="0"
           x="0 6.4980001 9.4949999 14.499 17.496 22.752001">D(3)+T</tspan></text></g><g
       id="g906" /><g
       id="g908"><text
         id="text912"
         style="font-variant:normal;font-weight:normal;font-size:9px;font-family:Helvetica;-inkscape-font-specification:Helvetica;writing-mode:lr-tb;fill:#000000;fill-opacity:1;fill-rule:nonzero;stroke:none"
         transform="matrix(1,0,0,-1,334.26,88.31)"><tspan
           id="tspan910"
           sodipodi:role="line"
           y="0"
           x="0 6.4980001 9.4949999 14.499">D(4)</tspan></text></g><g
       id="g914" /><g
       id="g916"><text
         id="text920"
         style="font-variant:normal;font-weight:normal;font-size:9px;font-family:Helvetica;-inkscape-font-specification:Helvetica;writing-mode:lr-tb;fill:#000000;fill-opacity:1;fill-rule:nonzero;stroke:none"
         transform="matrix(1,0,0,-1,334.26,65.27)"><tspan
           id="tspan918"
           sodipodi:role="line"
           y="0"
           x="0 6.4980001 9.4949999 14.499 17.496 22.752001">D(4)+T</tspan></text></g><g
       id="g922" /><g
       id="g924" /><g
       id="g926" /><g
       id="g928" /><g
       id="g930" /><g
       id="g932" /><g
       id="g934" /><g
       id="g936" /><g
       id="g938" /><g
       id="g940" /><g
       id="g942" /><g
       id="g944" /></g></svg>
