<?xml version="1.0" encoding="UTF-8" standalone="no"?>
<svg
   xmlns:dc="http://purl.org/dc/elements/1.1/"
   xmlns:cc="http://creativecommons.org/ns#"
   xmlns:rdf="http://www.w3.org/1999/02/22-rdf-syntax-ns#"
   xmlns:svg="http://www.w3.org/2000/svg"
   xmlns="http://www.w3.org/2000/svg"
   xmlns:sodipodi="http://sodipodi.sourceforge.net/DTD/sodipodi-0.dtd"
   xmlns:inkscape="http://www.inkscape.org/namespaces/inkscape"
   inkscape:version="1.0 (6e3e5246a0, 2020-05-07)"
   sodipodi:docname="privacy_final_k.svg"
   viewBox="0 0 505.33334 442.66666"
   height="442.66666"
   width="505.33334"
   xml:space="preserve"
   id="svg2"
   version="1.1"><metadata
     id="metadata8"><rdf:RDF><cc:Work
         rdf:about=""><dc:format>image/svg+xml</dc:format><dc:type
           rdf:resource="http://purl.org/dc/dcmitype/StillImage" /><dc:title></dc:title></cc:Work></rdf:RDF></metadata><defs
     id="defs6"><clipPath
       id="clipPath36"
       clipPathUnits="userSpaceOnUse"><path
         id="path34"
         d="M 0,0 H 379.5 V 332.25 H 0 Z" /></clipPath><clipPath
       id="clipPath52"
       clipPathUnits="userSpaceOnUse"><path
         id="path50"
         d="M 39.9,31.35 H 295.59 V 326.77 H 39.9 Z" /></clipPath></defs><sodipodi:namedview
     inkscape:current-layer="g10"
     inkscape:window-maximized="0"
     inkscape:window-y="27"
     inkscape:window-x="0"
     inkscape:cy="221.33333"
     inkscape:cx="252.66667"
     inkscape:zoom="1.3402017"
     showgrid="false"
     id="namedview4"
     inkscape:window-height="1025"
     inkscape:window-width="960"
     inkscape:pageshadow="2"
     inkscape:pageopacity="0"
     guidetolerance="10"
     gridtolerance="10"
     objecttolerance="10"
     borderopacity="1"
     bordercolor="#666666"
     pagecolor="#ffffff" /><g
     transform="matrix(1.3333333,0,0,-1.3333333,0,442.66667)"
     inkscape:label="privacy_final_k"
     inkscape:groupmode="layer"
     id="g10"><g
       id="g12" /><g
       id="g14" /><g
       id="g16" /><g
       id="g18" /><g
       id="g20" /><g
       id="g22" /><g
       id="g24" /><g
       id="g26" /><g
       id="g28" /><g
       id="g40" /><g
       id="g42" /><g
       id="g44" /><g
       id="g46"><g
         clip-path="url(#clipPath52)"
         id="g48"><path
           id="path54"
           style="fill:#ebebeb;fill-opacity:1;fill-rule:nonzero;stroke:none"
           d="M 39.9,31.35 H 295.59 V 326.77 H 39.9 Z" /><path
           id="path56"
           style="fill:none;stroke:#ffffff;stroke-width:0.53;stroke-linecap:butt;stroke-linejoin:round;stroke-miterlimit:10;stroke-dasharray:none;stroke-opacity:1"
           d="M 39.9,72.02 H 295.59" /><path
           id="path58"
           style="fill:none;stroke:#ffffff;stroke-width:0.53;stroke-linecap:butt;stroke-linejoin:round;stroke-miterlimit:10;stroke-dasharray:none;stroke-opacity:1"
           d="M 39.9,133.93 H 295.59" /><path
           id="path60"
           style="fill:none;stroke:#ffffff;stroke-width:0.53;stroke-linecap:butt;stroke-linejoin:round;stroke-miterlimit:10;stroke-dasharray:none;stroke-opacity:1"
           d="M 39.9,195.85 H 295.59" /><path
           id="path62"
           style="fill:none;stroke:#ffffff;stroke-width:0.53;stroke-linecap:butt;stroke-linejoin:round;stroke-miterlimit:10;stroke-dasharray:none;stroke-opacity:1"
           d="M 39.9,257.77 H 295.59" /><path
           id="path64"
           style="fill:none;stroke:#ffffff;stroke-width:0.53;stroke-linecap:butt;stroke-linejoin:round;stroke-miterlimit:10;stroke-dasharray:none;stroke-opacity:1"
           d="M 39.9,319.69 H 295.59" /><path
           id="path66"
           style="fill:none;stroke:#ffffff;stroke-width:0.53;stroke-linecap:butt;stroke-linejoin:round;stroke-miterlimit:10;stroke-dasharray:none;stroke-opacity:1"
           d="M 76.05,31.35 V 326.77" /><path
           id="path68"
           style="fill:none;stroke:#ffffff;stroke-width:0.53;stroke-linecap:butt;stroke-linejoin:round;stroke-miterlimit:10;stroke-dasharray:none;stroke-opacity:1"
           d="M 140.62,31.35 V 326.77" /><path
           id="path70"
           style="fill:none;stroke:#ffffff;stroke-width:0.53;stroke-linecap:butt;stroke-linejoin:round;stroke-miterlimit:10;stroke-dasharray:none;stroke-opacity:1"
           d="M 205.19,31.35 V 326.77" /><path
           id="path72"
           style="fill:none;stroke:#ffffff;stroke-width:0.53;stroke-linecap:butt;stroke-linejoin:round;stroke-miterlimit:10;stroke-dasharray:none;stroke-opacity:1"
           d="M 269.76,31.35 V 326.77" /><path
           id="path74"
           style="fill:none;stroke:#ffffff;stroke-width:1.07;stroke-linecap:butt;stroke-linejoin:round;stroke-miterlimit:10;stroke-dasharray:none;stroke-opacity:1"
           d="M 39.9,41.06 H 295.59" /><path
           id="path76"
           style="fill:none;stroke:#ffffff;stroke-width:1.07;stroke-linecap:butt;stroke-linejoin:round;stroke-miterlimit:10;stroke-dasharray:none;stroke-opacity:1"
           d="M 39.9,102.98 H 295.59" /><path
           id="path78"
           style="fill:none;stroke:#ffffff;stroke-width:1.07;stroke-linecap:butt;stroke-linejoin:round;stroke-miterlimit:10;stroke-dasharray:none;stroke-opacity:1"
           d="M 39.9,164.89 H 295.59" /><path
           id="path80"
           style="fill:none;stroke:#ffffff;stroke-width:1.07;stroke-linecap:butt;stroke-linejoin:round;stroke-miterlimit:10;stroke-dasharray:none;stroke-opacity:1"
           d="M 39.9,226.81 H 295.59" /><path
           id="path82"
           style="fill:none;stroke:#ffffff;stroke-width:1.07;stroke-linecap:butt;stroke-linejoin:round;stroke-miterlimit:10;stroke-dasharray:none;stroke-opacity:1"
           d="M 39.9,288.73 H 295.59" /><path
           id="path84"
           style="fill:none;stroke:#ffffff;stroke-width:1.07;stroke-linecap:butt;stroke-linejoin:round;stroke-miterlimit:10;stroke-dasharray:none;stroke-opacity:1"
           d="M 43.77,31.35 V 326.77" /><path
           id="path86"
           style="fill:none;stroke:#ffffff;stroke-width:1.07;stroke-linecap:butt;stroke-linejoin:round;stroke-miterlimit:10;stroke-dasharray:none;stroke-opacity:1"
           d="M 108.34,31.35 V 326.77" /><path
           id="path88"
           style="fill:none;stroke:#ffffff;stroke-width:1.07;stroke-linecap:butt;stroke-linejoin:round;stroke-miterlimit:10;stroke-dasharray:none;stroke-opacity:1"
           d="M 172.91,31.35 V 326.77" /><path
           id="path90"
           style="fill:none;stroke:#ffffff;stroke-width:1.07;stroke-linecap:butt;stroke-linejoin:round;stroke-miterlimit:10;stroke-dasharray:none;stroke-opacity:1"
           d="M 237.48,31.35 V 326.77" /><path
           id="path92"
           style="fill:none;stroke:#f8766d;stroke-width:4.27;stroke-linecap:butt;stroke-linejoin:round;stroke-miterlimit:1;stroke-dasharray:none;stroke-opacity:1"
           d="m 51.52,301.94 2.94,-0.66 2.94,-0.63 2.95,-0.62 2.94,-0.59 2.94,-0.56 2.94,-0.54 2.95,-0.52 2.94,-0.48 2.94,-0.46 2.94,-0.44 2.94,-0.41 2.95,-0.4 2.94,-0.37 2.94,-0.34 2.94,-0.31 2.95,-0.27 2.94,-0.24 2.94,-0.2 2.94,-0.28 2.95,-0.35 2.94,-0.38 2.94,-0.37 2.94,-0.33 2.95,-0.26 2.94,-0.14 2.94,0.01 2.94,0.21 2.95,0.48 2.94,0.67 2.94,0.82 2.94,0.89 2.94,0.92 2.95,0.87 2.94,0.77 2.94,0.6 2.94,0.51 2.95,0.59 2.94,0.64 2.94,0.65 2.94,0.65 2.95,0.6 2.94,0.54 2.94,0.44 2.94,0.31 2.95,0.2 2.94,0.12 2.94,0.05 2.94,-0.01 2.94,-0.04 2.95,-0.06 2.94,-0.08 2.94,-0.08 2.94,-0.06 2.95,-0.21 2.94,-0.34 2.94,-0.41 2.94,-0.44 2.95,-0.41 2.94,-0.31 2.94,-0.16 2.94,0.03 2.95,0.26 2.94,0.29 2.94,0.32 2.94,0.35 2.95,0.39 2.94,0.45 2.94,0.51 2.94,0.58 2.94,0.66 2.95,0.74 2.94,0.79 2.94,0.86 2.94,0.91 2.95,0.97 2.94,1.03 2.94,1.1 2.94,1.16 2.95,1.22" /><path
           id="path94"
           style="fill:none;stroke:#d89000;stroke-width:4.27;stroke-linecap:butt;stroke-linejoin:round;stroke-miterlimit:1;stroke-dasharray:8.54, 8.54;stroke-dashoffset:0;stroke-opacity:1"
           d="m 51.52,44.77 2.94,1.42 2.94,1.41 2.95,1.41 2.94,1.41 2.94,1.41 2.94,1.41 2.95,1.41 2.94,1.41 2.94,1.41 2.94,1.41 2.94,1.41 2.95,1.41 2.94,1.41 2.94,1.42 2.94,1.41 2.95,1.41 2.94,1.41 2.94,1.41 2.94,1.41 2.95,1.41 2.94,1.41 2.94,1.41 2.94,1.41 2.95,1.41 2.94,1.41 2.94,1.41 2.94,1.42 2.95,1.41 2.94,1.41 2.94,1.41 2.94,1.41 2.94,1.41 2.95,1.41 2.94,1.41 2.94,1.41 2.94,1.41 2.95,1.41 2.94,1.41 2.94,1.41 2.94,1.42 2.95,1.41 2.94,1.41 2.94,1.41 2.94,1.41 2.95,1.41 2.94,1.41 2.94,1.41 2.94,1.41 2.94,1.41 2.95,1.41 2.94,1.41 2.94,1.41 2.94,1.42 2.95,1.41 2.94,1.41 2.94,1.41 2.94,1.41 2.95,1.41 2.94,1.41 2.94,1.41 2.94,1.41 2.95,1.41 2.94,1.41 2.94,1.41 2.94,1.41 2.95,1.41 2.94,1.42 2.94,1.41 2.94,1.41 2.94,1.41 2.95,1.41 2.94,1.41 2.94,1.41 2.94,1.41 2.95,1.41 2.94,1.41 2.94,1.41 2.94,1.41 2.95,1.41" /><path
           id="path96"
           style="fill:none;stroke:#a3a500;stroke-width:4.27;stroke-linecap:butt;stroke-linejoin:round;stroke-miterlimit:1;stroke-dasharray:17.07, 8.54;stroke-dashoffset:0;stroke-opacity:1"
           d="m 51.52,65.25 2.94,0.12 2.94,0.16 2.95,0.2 2.94,0.24 2.94,0.28 2.94,0.33 2.95,0.36 2.94,0.41 2.94,0.45 2.94,0.5 2.94,0.53 2.95,0.59 2.94,0.62 2.94,0.67 2.94,0.7 2.95,0.74 2.94,0.78 2.94,0.81 2.94,0.87 2.95,0.91 2.94,0.97 2.94,1 2.94,1.05 2.95,1.08 2.94,1.12 2.94,1.14 2.94,1.19 2.95,1.27 2.94,1.35 2.94,1.41 2.94,1.44 2.94,1.46 2.95,1.45 2.94,1.43 2.94,1.39 2.94,1.35 2.95,1.37 2.94,1.39 2.94,1.39 2.94,1.4 2.95,1.4 2.94,1.41 2.94,1.4 2.94,1.39 2.95,1.41 2.94,1.41 2.94,1.42 2.94,1.42 2.94,1.43 2.95,1.43 2.94,1.42 2.94,1.42 2.94,1.42 2.95,1.41 2.94,1.41 2.94,1.41 2.94,1.41 2.95,1.41 2.94,1.41 2.94,1.41 2.94,1.41 2.95,1.41 2.94,1.41 2.94,1.41 2.94,1.41 2.95,1.41 2.94,1.42 2.94,1.41 2.94,1.41 2.94,1.41 2.95,1.41 2.94,1.41 2.94,1.41 2.94,1.41 2.95,1.41 2.94,1.41 2.94,1.41 2.94,1.41 2.95,1.41" /><path
           id="path98"
           style="fill:none;stroke:#39b600;stroke-width:4.27;stroke-linecap:butt;stroke-linejoin:round;stroke-miterlimit:1;stroke-dasharray:17.07, 17.07;stroke-dashoffset:0;stroke-opacity:1"
           d="m 51.52,82.08 2.94,0.59 2.94,0.6 2.95,0.62 2.94,0.63 2.94,0.65 2.94,0.65 2.95,0.67 2.94,0.67 2.94,0.68 2.94,0.7 2.94,0.72 2.95,0.73 2.94,0.74 2.94,0.75 2.94,0.76 2.95,0.75 2.94,0.76 2.94,0.76 2.94,0.85 2.95,0.93 2.94,1 2.94,1.01 2.94,1.02 2.95,0.99 2.94,0.92 2.94,0.84 2.94,0.72 2.95,0.59 2.94,0.47 2.94,0.41 2.94,0.38 2.94,0.39 2.95,0.42 2.94,0.5 2.94,0.61 2.94,0.67 2.95,0.6 2.94,0.58 2.94,0.56 2.94,0.59 2.95,0.64 2.94,0.72 2.94,0.83 2.94,0.96 2.95,1.1 2.94,1.21 2.94,1.3 2.94,1.37 2.94,1.42 2.95,1.44 2.94,1.44 2.94,1.42 2.94,1.39 2.95,1.47 2.94,1.56 2.94,1.61 2.94,1.63 2.95,1.62 2.94,1.59 2.94,1.5 2.94,1.41 2.95,1.28 2.94,1.28 2.94,1.28 2.94,1.28 2.95,1.26 2.94,1.24 2.94,1.21 2.94,1.19 2.94,1.14 2.95,1.11 2.94,1.09 2.94,1.06 2.94,1.04 2.95,1.01 2.94,1 2.94,0.96 2.94,0.94 2.95,0.91" /><path
           id="path100"
           style="fill:none;stroke:#00bf7d;stroke-width:4.27;stroke-linecap:butt;stroke-linejoin:round;stroke-miterlimit:1;stroke-dasharray:4.27, 12.8;stroke-dashoffset:0;stroke-opacity:1"
           d="m 51.52,52.17 2.94,0.74 2.94,0.77 2.95,0.8 2.94,0.84 2.94,0.86 2.94,0.89 2.95,0.92 2.94,0.94 2.94,0.97 2.94,1.01 2.94,1.04 2.95,1.08 2.94,1.1 2.94,1.13 2.94,1.15 2.95,1.18 2.94,1.19 2.94,1.21 2.94,1.3 2.95,1.36 2.94,1.42 2.94,1.46 2.94,1.48 2.95,1.49 2.94,1.47 2.94,1.44 2.94,1.4 2.95,1.41 2.94,1.41 2.94,1.42 2.94,1.42 2.94,1.43 2.95,1.42 2.94,1.42 2.94,1.41 2.94,1.41 2.95,1.41 2.94,1.41 2.94,1.41 2.94,1.42 2.95,1.41 2.94,1.41 2.94,1.41 2.94,1.41 2.95,1.41 2.94,1.41 2.94,1.41 2.94,1.41 2.94,1.41 2.95,1.41 2.94,1.41 2.94,1.41 2.94,1.42 2.95,1.41 2.94,1.41 2.94,1.41 2.94,1.41 2.95,1.41 2.94,1.41 2.94,1.41 2.94,1.41 2.95,1.41 2.94,1.41 2.94,1.41 2.94,1.41 2.95,1.41 2.94,1.42 2.94,1.41 2.94,1.41 2.94,1.41 2.95,1.41 2.94,1.41 2.94,1.41 2.94,1.41 2.95,1.41 2.94,1.41 2.94,1.41 2.94,1.41 2.95,1.41" /><path
           id="path102"
           style="fill:none;stroke:#00bfc4;stroke-width:4.27;stroke-linecap:butt;stroke-linejoin:round;stroke-miterlimit:1;stroke-dasharray:4.27, 12.8, 17.07, 12.8;stroke-dashoffset:0;stroke-opacity:1"
           d="m 51.52,68.31 2.94,0.6 2.94,0.62 2.95,0.65 2.94,0.68 2.94,0.7 2.94,0.73 2.95,0.74 2.94,0.77 2.94,0.78 2.94,0.82 2.94,0.86 2.95,0.88 2.94,0.9 2.94,0.93 2.94,0.93 2.95,0.95 2.94,0.94 2.94,0.96 2.94,1.09 2.95,1.19 2.94,1.28 2.94,1.32 2.94,1.32 2.95,1.3 2.94,1.23 2.94,1.13 2.94,1 2.95,0.88 2.94,0.79 2.94,0.73 2.94,0.7 2.94,0.69 2.95,0.73 2.94,0.78 2.94,0.86 2.94,0.91 2.95,0.87 2.94,0.84 2.94,0.82 2.94,0.84 2.95,0.87 2.94,0.91 2.94,0.97 2.94,1.06 2.95,1.14 2.94,1.2 2.94,1.25 2.94,1.29 2.94,1.32 2.95,1.34 2.94,1.34 2.94,1.33 2.94,1.31 2.95,1.34 2.94,1.36 2.94,1.39 2.94,1.4 2.95,1.41 2.94,1.41 2.94,1.41 2.94,1.4 2.95,1.38 2.94,1.39 2.94,1.4 2.94,1.42 2.95,1.42 2.94,1.42 2.94,1.43 2.94,1.44 2.94,1.44 2.95,1.44 2.94,1.44 2.94,1.46 2.94,1.45 2.95,1.47 2.94,1.46 2.94,1.48 2.94,1.48 2.95,1.48" /><path
           id="path104"
           style="fill:none;stroke:#00b0f6;stroke-width:4.27;stroke-linecap:butt;stroke-linejoin:round;stroke-miterlimit:1;stroke-dasharray:29.88, 12.8;stroke-dashoffset:0;stroke-opacity:1"
           d="m 51.52,52.02 2.94,0.75 2.94,0.78 2.95,0.81 2.94,0.84 2.94,0.87 2.94,0.9 2.95,0.93 2.94,0.95 2.94,0.98 2.94,1.01 2.94,1.05 2.95,1.08 2.94,1.11 2.94,1.14 2.94,1.16 2.95,1.18 2.94,1.19 2.94,1.22 2.94,1.3 2.95,1.37 2.94,1.43 2.94,1.46 2.94,1.48 2.95,1.49 2.94,1.47 2.94,1.44 2.94,1.41 2.95,1.41 2.94,1.41 2.94,1.42 2.94,1.42 2.94,1.42 2.95,1.42 2.94,1.42 2.94,1.41 2.94,1.41 2.95,1.41 2.94,1.41 2.94,1.41 2.94,1.42 2.95,1.41 2.94,1.41 2.94,1.41 2.94,1.41 2.95,1.41 2.94,1.41 2.94,1.41 2.94,1.41 2.94,1.41 2.95,1.41 2.94,1.41 2.94,1.41 2.94,1.42 2.95,1.41 2.94,1.41 2.94,1.41 2.94,1.41 2.95,1.41 2.94,1.41 2.94,1.41 2.94,1.41 2.95,1.41 2.94,1.41 2.94,1.41 2.94,1.41 2.95,1.41 2.94,1.42 2.94,1.41 2.94,1.41 2.94,1.41 2.95,1.41 2.94,1.41 2.94,1.41 2.94,1.41 2.95,1.41 2.94,1.41 2.94,1.41 2.94,1.41 2.95,1.41" /><path
           id="path106"
           style="fill:none;stroke:#9590ff;stroke-width:4.27;stroke-linecap:butt;stroke-linejoin:round;stroke-miterlimit:1;stroke-dasharray:8.54, 8.54, 25.61, 8.54;stroke-dashoffset:0;stroke-opacity:1"
           d="m 51.52,68.55 2.94,0.48 2.94,0.51 2.95,0.54 2.94,0.58 2.94,0.6 2.94,0.64 2.95,0.66 2.94,0.69 2.94,0.71 2.94,0.75 2.94,0.8 2.95,0.83 2.94,0.86 2.94,0.88 2.94,0.9 2.95,0.92 2.94,0.93 2.94,0.94 2.94,1.08 2.95,1.19 2.94,1.28 2.94,1.33 2.94,1.34 2.95,1.32 2.94,1.26 2.94,1.17 2.94,1.05 2.95,0.96 2.94,0.89 2.94,0.85 2.94,0.82 2.94,0.82 2.95,0.84 2.94,0.88 2.94,0.94 2.94,0.98 2.95,0.94 2.94,0.91 2.94,0.92 2.94,0.92 2.95,0.93 2.94,0.98 2.94,1.02 2.94,1.09 2.95,1.14 2.94,1.18 2.94,1.22 2.94,1.24 2.94,1.27 2.95,1.28 2.94,1.29 2.94,1.29 2.94,1.29 2.95,1.31 2.94,1.33 2.94,1.36 2.94,1.36 2.95,1.38 2.94,1.38 2.94,1.38 2.94,1.38 2.95,1.37 2.94,1.37 2.94,1.39 2.94,1.4 2.95,1.41 2.94,1.42 2.94,1.42 2.94,1.43 2.94,1.43 2.95,1.44 2.94,1.45 2.94,1.45 2.94,1.46 2.95,1.47 2.94,1.47 2.94,1.49 2.94,1.48 2.95,1.5" /><path
           id="path108"
           style="fill:none;stroke:#e76bf3;stroke-width:4.27;stroke-linecap:butt;stroke-linejoin:round;stroke-miterlimit:1;stroke-dasharray:4.27, 8.54, 8.54, 8.54, 12.8, 8.54, 17.07, 8.54;stroke-dashoffset:0;stroke-opacity:1"
           d="m 51.52,51.91 2.94,0.75 2.94,0.77 2.95,0.81 2.94,0.84 2.94,0.87 2.94,0.9 2.95,0.92 2.94,0.96 2.94,0.98 2.94,1.01 2.94,1.05 2.95,1.09 2.94,1.11 2.94,1.14 2.94,1.17 2.95,1.18 2.94,1.2 2.94,1.23 2.94,1.3 2.95,1.39 2.94,1.44 2.94,1.48 2.94,1.5 2.95,1.5 2.94,1.49 2.94,1.45 2.94,1.41 2.95,1.41 2.94,1.41 2.94,1.41 2.94,1.42 2.94,1.41 2.95,1.42 2.94,1.41 2.94,1.41 2.94,1.41 2.95,1.41 2.94,1.41 2.94,1.41 2.94,1.42 2.95,1.41 2.94,1.41 2.94,1.41 2.94,1.41 2.95,1.41 2.94,1.41 2.94,1.41 2.94,1.41 2.94,1.41 2.95,1.41 2.94,1.41 2.94,1.41 2.94,1.42 2.95,1.41 2.94,1.41 2.94,1.41 2.94,1.41 2.95,1.41 2.94,1.41 2.94,1.41 2.94,1.41 2.95,1.41 2.94,1.41 2.94,1.41 2.94,1.41 2.95,1.41 2.94,1.42 2.94,1.41 2.94,1.41 2.94,1.41 2.95,1.41 2.94,1.41 2.94,1.41 2.94,1.41 2.95,1.41 2.94,1.41 2.94,1.41 2.94,1.41 2.95,1.41" /><path
           id="path110"
           style="fill:none;stroke:#ff62bc;stroke-width:4.27;stroke-linecap:butt;stroke-linejoin:round;stroke-miterlimit:1;stroke-dasharray:64.02, 8.54, 34.14, 8.54;stroke-dashoffset:0;stroke-opacity:1"
           d="m 51.52,68.48 2.94,0.59 2.94,0.62 2.95,0.64 2.94,0.67 2.94,0.69 2.94,0.72 2.95,0.74 2.94,0.75 2.94,0.78 2.94,0.81 2.94,0.84 2.95,0.87 2.94,0.9 2.94,0.91 2.94,0.93 2.95,0.93 2.94,0.94 2.94,0.95 2.94,1.07 2.95,1.17 2.94,1.25 2.94,1.29 2.94,1.3 2.95,1.27 2.94,1.21 2.94,1.12 2.94,1 2.95,0.89 2.94,0.81 2.94,0.76 2.94,0.74 2.94,0.73 2.95,0.75 2.94,0.8 2.94,0.88 2.94,0.92 2.95,0.86 2.94,0.84 2.94,0.82 2.94,0.83 2.95,0.86 2.94,0.91 2.94,0.97 2.94,1.05 2.95,1.14 2.94,1.2 2.94,1.25 2.94,1.29 2.94,1.32 2.95,1.34 2.94,1.34 2.94,1.33 2.94,1.31 2.95,1.34 2.94,1.36 2.94,1.39 2.94,1.4 2.95,1.41 2.94,1.41 2.94,1.41 2.94,1.4 2.95,1.38 2.94,1.39 2.94,1.4 2.94,1.42 2.95,1.42 2.94,1.42 2.94,1.43 2.94,1.44 2.94,1.44 2.95,1.44 2.94,1.44 2.94,1.46 2.94,1.45 2.95,1.47 2.94,1.46 2.94,1.48 2.94,1.48 2.95,1.48" /></g></g><g
       id="g112" /><g
       id="g114" /><g
       id="g116" /><g
       id="g118" /><g
       id="g120" /><g
       id="g122"><text
         id="text126"
         style="font-variant:normal;font-weight:normal;font-size:9px;font-family:Helvetica;-inkscape-font-specification:Helvetica;writing-mode:lr-tb;fill:#4d4d4d;fill-opacity:1;fill-rule:nonzero;stroke:none"
         transform="matrix(1,0,0,-1,29.96,37.83)"><tspan
           id="tspan124"
           y="0"
           x="0">0</tspan></text><text
         id="text130"
         style="font-variant:normal;font-weight:normal;font-size:9px;font-family:Helvetica;-inkscape-font-specification:Helvetica;writing-mode:lr-tb;fill:#4d4d4d;fill-opacity:1;fill-rule:nonzero;stroke:none"
         transform="matrix(1,0,0,-1,24.96,99.75)"><tspan
           id="tspan128"
           sodipodi:role="line"
           y="0"
           x="0 5.0040002">50</tspan></text><text
         id="text134"
         style="font-variant:normal;font-weight:normal;font-size:9px;font-family:Helvetica;-inkscape-font-specification:Helvetica;writing-mode:lr-tb;fill:#4d4d4d;fill-opacity:1;fill-rule:nonzero;stroke:none"
         transform="matrix(1,0,0,-1,19.95,161.66)"><tspan
           id="tspan132"
           sodipodi:role="line"
           y="0"
           x="0 5.0040002 10.008">100</tspan></text><text
         id="text138"
         style="font-variant:normal;font-weight:normal;font-size:9px;font-family:Helvetica;-inkscape-font-specification:Helvetica;writing-mode:lr-tb;fill:#4d4d4d;fill-opacity:1;fill-rule:nonzero;stroke:none"
         transform="matrix(1,0,0,-1,19.95,223.58)"><tspan
           id="tspan136"
           sodipodi:role="line"
           y="0"
           x="0 5.0040002 10.008">150</tspan></text><text
         id="text142"
         style="font-variant:normal;font-weight:normal;font-size:9px;font-family:Helvetica;-inkscape-font-specification:Helvetica;writing-mode:lr-tb;fill:#4d4d4d;fill-opacity:1;fill-rule:nonzero;stroke:none"
         transform="matrix(1,0,0,-1,19.95,285.5)"><tspan
           id="tspan140"
           sodipodi:role="line"
           y="0"
           x="0 5.0040002 10.008">200</tspan></text></g><g
       id="g144" /><g
       id="g146" /><g
       id="g148"><path
         id="path150"
         style="fill:none;stroke:#333333;stroke-width:1.07;stroke-linecap:butt;stroke-linejoin:round;stroke-miterlimit:10;stroke-dasharray:none;stroke-opacity:1"
         d="M 37.16,41.06 H 39.9" /><path
         id="path152"
         style="fill:none;stroke:#333333;stroke-width:1.07;stroke-linecap:butt;stroke-linejoin:round;stroke-miterlimit:10;stroke-dasharray:none;stroke-opacity:1"
         d="M 37.16,102.98 H 39.9" /><path
         id="path154"
         style="fill:none;stroke:#333333;stroke-width:1.07;stroke-linecap:butt;stroke-linejoin:round;stroke-miterlimit:10;stroke-dasharray:none;stroke-opacity:1"
         d="M 37.16,164.89 H 39.9" /><path
         id="path156"
         style="fill:none;stroke:#333333;stroke-width:1.07;stroke-linecap:butt;stroke-linejoin:round;stroke-miterlimit:10;stroke-dasharray:none;stroke-opacity:1"
         d="M 37.16,226.81 H 39.9" /><path
         id="path158"
         style="fill:none;stroke:#333333;stroke-width:1.07;stroke-linecap:butt;stroke-linejoin:round;stroke-miterlimit:10;stroke-dasharray:none;stroke-opacity:1"
         d="M 37.16,288.73 H 39.9" /></g><g
       id="g160" /><g
       id="g162" /><g
       id="g164" /><g
       id="g166" /><g
       id="g168" /><g
       id="g170" /><g
       id="g172" /><g
       id="g174" /><g
       id="g176"><path
         id="path178"
         style="fill:none;stroke:#333333;stroke-width:1.07;stroke-linecap:butt;stroke-linejoin:round;stroke-miterlimit:10;stroke-dasharray:none;stroke-opacity:1"
         d="m 43.77,28.61 v 2.74" /><path
         id="path180"
         style="fill:none;stroke:#333333;stroke-width:1.07;stroke-linecap:butt;stroke-linejoin:round;stroke-miterlimit:10;stroke-dasharray:none;stroke-opacity:1"
         d="m 108.34,28.61 v 2.74" /><path
         id="path182"
         style="fill:none;stroke:#333333;stroke-width:1.07;stroke-linecap:butt;stroke-linejoin:round;stroke-miterlimit:10;stroke-dasharray:none;stroke-opacity:1"
         d="m 172.91,28.61 v 2.74" /><path
         id="path184"
         style="fill:none;stroke:#333333;stroke-width:1.07;stroke-linecap:butt;stroke-linejoin:round;stroke-miterlimit:10;stroke-dasharray:none;stroke-opacity:1"
         d="m 237.48,28.61 v 2.74" /></g><g
       id="g186" /><g
       id="g188"><text
         id="text192"
         style="font-variant:normal;font-weight:normal;font-size:9px;font-family:Helvetica;-inkscape-font-specification:Helvetica;writing-mode:lr-tb;fill:#4d4d4d;fill-opacity:1;fill-rule:nonzero;stroke:none"
         transform="matrix(1,0,0,-1,41.27,19.95)"><tspan
           id="tspan190"
           y="0"
           x="0">0</tspan></text><text
         id="text196"
         style="font-variant:normal;font-weight:normal;font-size:9px;font-family:Helvetica;-inkscape-font-specification:Helvetica;writing-mode:lr-tb;fill:#4d4d4d;fill-opacity:1;fill-rule:nonzero;stroke:none"
         transform="matrix(1,0,0,-1,103.34,19.95)"><tspan
           id="tspan194"
           sodipodi:role="line"
           y="0"
           x="0 5.0040002">25</tspan></text><text
         id="text200"
         style="font-variant:normal;font-weight:normal;font-size:9px;font-family:Helvetica;-inkscape-font-specification:Helvetica;writing-mode:lr-tb;fill:#4d4d4d;fill-opacity:1;fill-rule:nonzero;stroke:none"
         transform="matrix(1,0,0,-1,167.9,19.95)"><tspan
           id="tspan198"
           sodipodi:role="line"
           y="0"
           x="0 5.0040002">50</tspan></text><text
         id="text204"
         style="font-variant:normal;font-weight:normal;font-size:9px;font-family:Helvetica;-inkscape-font-specification:Helvetica;writing-mode:lr-tb;fill:#4d4d4d;fill-opacity:1;fill-rule:nonzero;stroke:none"
         transform="matrix(1,0,0,-1,232.47,19.95)"><tspan
           id="tspan202"
           sodipodi:role="line"
           y="0"
           x="0 5.0040002">75</tspan></text></g><g
       id="g206" /><g
       id="g208" /><g
       id="g210" /><g
       id="g212" /><g
       id="g214" /><g
       id="g216"><text
         id="text220"
         style="font-variant:normal;font-weight:normal;font-size:11px;font-family:Helvetica;-inkscape-font-specification:Helvetica;writing-mode:lr-tb;fill:#000000;fill-opacity:1;fill-rule:nonzero;stroke:none"
         transform="matrix(1,0,0,-1,150.63,7.67)"><tspan
           id="tspan218"
           sodipodi:role="line"
           y="0"
           x="0 3.0580001 9.1739998 11.616 14.674 17.115999 23.232 25.674 28.732">Initial k</tspan></text></g><g
       id="g222" /><g
       id="g224" /><g
       id="g226"><text
         id="text230"
         style="font-variant:normal;font-weight:normal;font-size:11px;font-family:Helvetica;-inkscape-font-specification:Helvetica;writing-mode:lr-tb;fill:#000000;fill-opacity:1;fill-rule:nonzero;stroke:none"
         transform="matrix(0,1,1,0,15.57,162.86)"><tspan
           id="tspan228"
           sodipodi:role="line"
           y="0"
           x="0 6.7210002 9.1630001 15.279 21.395 23.837 26.895">Final k</tspan></text></g><g
       id="g232" /><g
       id="g234" /><g
       id="g236" /><g
       id="g238" /><g
       id="g240" /><g
       id="g242" /><g
       id="g248" /><g
       id="g250"><text
         id="text254"
         style="font-variant:normal;font-weight:normal;font-size:11px;font-family:Helvetica;-inkscape-font-specification:Helvetica;writing-mode:lr-tb;fill:#000000;fill-opacity:1;fill-rule:nonzero;stroke:none"
         transform="matrix(1,0,0,-1,308.34,293.19)"><tspan
           id="tspan252"
           sodipodi:role="line"
           y="0"
           x="0 7.3369999 9.7790003 15.895 22.011 25.839001 28.281 31.339001 37.455002">Algorithm</tspan></text></g><g
       id="g256" /><g
       id="g258"><path
         id="path260"
         style="fill:#f2f2f2;fill-opacity:1;fill-rule:nonzero;stroke:#ffffff;stroke-width:1.07;stroke-linecap:round;stroke-linejoin:round;stroke-miterlimit:10;stroke-dasharray:none;stroke-opacity:1"
         d="m 308.34,264.34 h 23.04 v 23.04 h -23.04 z" /></g><g
       id="g262" /><g
       id="g264"><path
         id="path266"
         style="fill:none;stroke:#f8766d;stroke-width:4.27;stroke-linecap:butt;stroke-linejoin:round;stroke-miterlimit:10;stroke-dasharray:none;stroke-opacity:1"
         d="m 310.65,275.86 h 18.43" /></g><g
       id="g268" /><g
       id="g270"><path
         id="path272"
         style="fill:#f2f2f2;fill-opacity:1;fill-rule:nonzero;stroke:#ffffff;stroke-width:1.07;stroke-linecap:round;stroke-linejoin:round;stroke-miterlimit:10;stroke-dasharray:none;stroke-opacity:1"
         d="m 308.34,241.3 h 23.04 v 23.04 h -23.04 z" /></g><g
       id="g274" /><g
       id="g276"><path
         id="path278"
         style="fill:none;stroke:#d89000;stroke-width:4.27;stroke-linecap:butt;stroke-linejoin:round;stroke-miterlimit:10;stroke-dasharray:8.54, 8.54;stroke-dashoffset:0;stroke-opacity:1"
         d="m 310.65,252.82 h 18.43" /></g><g
       id="g280" /><g
       id="g282"><path
         id="path284"
         style="fill:#f2f2f2;fill-opacity:1;fill-rule:nonzero;stroke:#ffffff;stroke-width:1.07;stroke-linecap:round;stroke-linejoin:round;stroke-miterlimit:10;stroke-dasharray:none;stroke-opacity:1"
         d="m 308.34,218.26 h 23.04 v 23.04 h -23.04 z" /></g><g
       id="g286" /><g
       id="g288"><path
         id="path290"
         style="fill:none;stroke:#a3a500;stroke-width:4.27;stroke-linecap:butt;stroke-linejoin:round;stroke-miterlimit:10;stroke-dasharray:17.07, 8.54;stroke-dashoffset:0;stroke-opacity:1"
         d="m 310.65,229.78 h 18.43" /></g><g
       id="g292" /><g
       id="g294"><path
         id="path296"
         style="fill:#f2f2f2;fill-opacity:1;fill-rule:nonzero;stroke:#ffffff;stroke-width:1.07;stroke-linecap:round;stroke-linejoin:round;stroke-miterlimit:10;stroke-dasharray:none;stroke-opacity:1"
         d="m 308.34,195.22 h 23.04 v 23.04 h -23.04 z" /></g><g
       id="g298" /><g
       id="g300"><path
         id="path302"
         style="fill:none;stroke:#39b600;stroke-width:4.27;stroke-linecap:butt;stroke-linejoin:round;stroke-miterlimit:10;stroke-dasharray:17.07, 17.07;stroke-dashoffset:0;stroke-opacity:1"
         d="m 310.65,206.74 h 18.43" /></g><g
       id="g304" /><g
       id="g306"><path
         id="path308"
         style="fill:#f2f2f2;fill-opacity:1;fill-rule:nonzero;stroke:#ffffff;stroke-width:1.07;stroke-linecap:round;stroke-linejoin:round;stroke-miterlimit:10;stroke-dasharray:none;stroke-opacity:1"
         d="m 308.34,172.18 h 23.04 v 23.04 h -23.04 z" /></g><g
       id="g310" /><g
       id="g312"><path
         id="path314"
         style="fill:none;stroke:#00bf7d;stroke-width:4.27;stroke-linecap:butt;stroke-linejoin:round;stroke-miterlimit:10;stroke-dasharray:4.27, 12.8;stroke-dashoffset:0;stroke-opacity:1"
         d="m 310.65,183.7 h 18.43" /></g><g
       id="g316" /><g
       id="g318"><path
         id="path320"
         style="fill:#f2f2f2;fill-opacity:1;fill-rule:nonzero;stroke:#ffffff;stroke-width:1.07;stroke-linecap:round;stroke-linejoin:round;stroke-miterlimit:10;stroke-dasharray:none;stroke-opacity:1"
         d="m 308.34,149.14 h 23.04 v 23.04 h -23.04 z" /></g><g
       id="g322" /><g
       id="g324"><path
         id="path326"
         style="fill:none;stroke:#00bfc4;stroke-width:4.27;stroke-linecap:butt;stroke-linejoin:round;stroke-miterlimit:10;stroke-dasharray:4.27, 12.8, 17.07, 12.8;stroke-dashoffset:0;stroke-opacity:1"
         d="m 310.65,160.66 h 18.43" /></g><g
       id="g328" /><g
       id="g330"><path
         id="path332"
         style="fill:#f2f2f2;fill-opacity:1;fill-rule:nonzero;stroke:#ffffff;stroke-width:1.07;stroke-linecap:round;stroke-linejoin:round;stroke-miterlimit:10;stroke-dasharray:none;stroke-opacity:1"
         d="m 308.34,126.1 h 23.04 v 23.04 h -23.04 z" /></g><g
       id="g334" /><g
       id="g336"><path
         id="path338"
         style="fill:none;stroke:#00b0f6;stroke-width:4.27;stroke-linecap:butt;stroke-linejoin:round;stroke-miterlimit:10;stroke-dasharray:29.88, 12.8;stroke-dashoffset:0;stroke-opacity:1"
         d="m 310.65,137.62 h 18.43" /></g><g
       id="g340" /><g
       id="g342"><path
         id="path344"
         style="fill:#f2f2f2;fill-opacity:1;fill-rule:nonzero;stroke:#ffffff;stroke-width:1.07;stroke-linecap:round;stroke-linejoin:round;stroke-miterlimit:10;stroke-dasharray:none;stroke-opacity:1"
         d="m 308.34,103.06 h 23.04 v 23.04 h -23.04 z" /></g><g
       id="g346" /><g
       id="g348"><path
         id="path350"
         style="fill:none;stroke:#9590ff;stroke-width:4.27;stroke-linecap:butt;stroke-linejoin:round;stroke-miterlimit:10;stroke-dasharray:8.54, 8.54, 25.61, 8.54;stroke-dashoffset:0;stroke-opacity:1"
         d="m 310.65,114.58 h 18.43" /></g><g
       id="g352" /><g
       id="g354"><path
         id="path356"
         style="fill:#f2f2f2;fill-opacity:1;fill-rule:nonzero;stroke:#ffffff;stroke-width:1.07;stroke-linecap:round;stroke-linejoin:round;stroke-miterlimit:10;stroke-dasharray:none;stroke-opacity:1"
         d="m 308.34,80.02 h 23.04 v 23.04 h -23.04 z" /></g><g
       id="g358" /><g
       id="g360"><path
         id="path362"
         style="fill:none;stroke:#e76bf3;stroke-width:4.27;stroke-linecap:butt;stroke-linejoin:round;stroke-miterlimit:10;stroke-dasharray:4.27, 8.54, 8.54, 8.54, 12.8, 8.54, 17.07, 8.54;stroke-dashoffset:0;stroke-opacity:1"
         d="m 310.65,91.54 h 18.43" /></g><g
       id="g364" /><g
       id="g366"><path
         id="path368"
         style="fill:#f2f2f2;fill-opacity:1;fill-rule:nonzero;stroke:#ffffff;stroke-width:1.07;stroke-linecap:round;stroke-linejoin:round;stroke-miterlimit:10;stroke-dasharray:none;stroke-opacity:1"
         d="m 308.34,56.98 h 23.04 v 23.04 h -23.04 z" /></g><g
       id="g370" /><g
       id="g372"><path
         id="path374"
         style="fill:none;stroke:#ff62bc;stroke-width:4.27;stroke-linecap:butt;stroke-linejoin:round;stroke-miterlimit:10;stroke-dasharray:64.02, 8.54, 34.14, 8.54;stroke-dashoffset:0;stroke-opacity:1"
         d="m 310.65,68.5 h 18.43" /></g><g
       id="g376" /><g
       id="g378"><text
         id="text382"
         style="font-variant:normal;font-weight:normal;font-size:9px;font-family:Helvetica;-inkscape-font-specification:Helvetica;writing-mode:lr-tb;fill:#000000;fill-opacity:1;fill-rule:nonzero;stroke:none"
         transform="matrix(1,0,0,-1,334.26,272.63)"><tspan
           id="tspan380"
           y="0"
           x="0">A</tspan></text></g><g
       id="g384" /><g
       id="g386"><text
         id="text390"
         style="font-variant:normal;font-weight:normal;font-size:9px;font-family:Helvetica;-inkscape-font-specification:Helvetica;writing-mode:lr-tb;fill:#000000;fill-opacity:1;fill-rule:nonzero;stroke:none"
         transform="matrix(1,0,0,-1,334.26,249.59)"><tspan
           id="tspan388"
           sodipodi:role="line"
           y="0"
           x="0 6.0029998 9 15.498 21.996">A(NR)</tspan></text></g><g
       id="g392" /><g
       id="g394"><text
         id="text398"
         style="font-variant:normal;font-weight:normal;font-size:9px;font-family:Helvetica;-inkscape-font-specification:Helvetica;writing-mode:lr-tb;fill:#000000;fill-opacity:1;fill-rule:nonzero;stroke:none"
         transform="matrix(1,0,0,-1,334.26,226.55)"><tspan
           id="tspan396"
           sodipodi:role="line"
           y="0"
           x="0 6.4980001 9.4949999 14.499">D(1)</tspan></text></g><g
       id="g400" /><g
       id="g402"><text
         id="text406"
         style="font-variant:normal;font-weight:normal;font-size:9px;font-family:Helvetica;-inkscape-font-specification:Helvetica;writing-mode:lr-tb;fill:#000000;fill-opacity:1;fill-rule:nonzero;stroke:none"
         transform="matrix(1,0,0,-1,334.26,203.51)"><tspan
           id="tspan404"
           sodipodi:role="line"
           y="0"
           x="0 6.4980001 9.4949999 14.499 17.496 22.752001">D(1)+T</tspan></text></g><g
       id="g408" /><g
       id="g410"><text
         id="text414"
         style="font-variant:normal;font-weight:normal;font-size:9px;font-family:Helvetica;-inkscape-font-specification:Helvetica;writing-mode:lr-tb;fill:#000000;fill-opacity:1;fill-rule:nonzero;stroke:none"
         transform="matrix(1,0,0,-1,334.26,180.47)"><tspan
           id="tspan412"
           sodipodi:role="line"
           y="0"
           x="0 6.4980001 9.4949999 14.499">D(2)</tspan></text></g><g
       id="g416" /><g
       id="g418"><text
         id="text422"
         style="font-variant:normal;font-weight:normal;font-size:9px;font-family:Helvetica;-inkscape-font-specification:Helvetica;writing-mode:lr-tb;fill:#000000;fill-opacity:1;fill-rule:nonzero;stroke:none"
         transform="matrix(1,0,0,-1,334.26,157.43)"><tspan
           id="tspan420"
           sodipodi:role="line"
           y="0"
           x="0 6.4980001 9.4949999 14.499 17.496 22.752001">D(2)+T</tspan></text></g><g
       id="g424" /><g
       id="g426"><text
         id="text430"
         style="font-variant:normal;font-weight:normal;font-size:9px;font-family:Helvetica;-inkscape-font-specification:Helvetica;writing-mode:lr-tb;fill:#000000;fill-opacity:1;fill-rule:nonzero;stroke:none"
         transform="matrix(1,0,0,-1,334.26,134.39)"><tspan
           id="tspan428"
           sodipodi:role="line"
           y="0"
           x="0 6.4980001 9.4949999 14.499">D(3)</tspan></text></g><g
       id="g432" /><g
       id="g434"><text
         id="text438"
         style="font-variant:normal;font-weight:normal;font-size:9px;font-family:Helvetica;-inkscape-font-specification:Helvetica;writing-mode:lr-tb;fill:#000000;fill-opacity:1;fill-rule:nonzero;stroke:none"
         transform="matrix(1,0,0,-1,334.26,111.35)"><tspan
           id="tspan436"
           sodipodi:role="line"
           y="0"
           x="0 6.4980001 9.4949999 14.499 17.496 22.752001">D(3)+T</tspan></text></g><g
       id="g440" /><g
       id="g442"><text
         id="text446"
         style="font-variant:normal;font-weight:normal;font-size:9px;font-family:Helvetica;-inkscape-font-specification:Helvetica;writing-mode:lr-tb;fill:#000000;fill-opacity:1;fill-rule:nonzero;stroke:none"
         transform="matrix(1,0,0,-1,334.26,88.31)"><tspan
           id="tspan444"
           sodipodi:role="line"
           y="0"
           x="0 6.4980001 9.4949999 14.499">D(4)</tspan></text></g><g
       id="g448" /><g
       id="g450"><text
         id="text454"
         style="font-variant:normal;font-weight:normal;font-size:9px;font-family:Helvetica;-inkscape-font-specification:Helvetica;writing-mode:lr-tb;fill:#000000;fill-opacity:1;fill-rule:nonzero;stroke:none"
         transform="matrix(1,0,0,-1,334.26,65.27)"><tspan
           id="tspan452"
           sodipodi:role="line"
           y="0"
           x="0 6.4980001 9.4949999 14.499 17.496 22.752001">D(4)+T</tspan></text></g><g
       id="g456" /><g
       id="g458" /><g
       id="g460" /><g
       id="g462" /><g
       id="g464" /><g
       id="g466" /><g
       id="g468" /><g
       id="g470" /><g
       id="g472" /><g
       id="g474" /><g
       id="g476" /><g
       id="g478" /></g></svg>
