<?xml version="1.0" encoding="UTF-8" standalone="no"?>
<svg
   xmlns:dc="http://purl.org/dc/elements/1.1/"
   xmlns:cc="http://creativecommons.org/ns#"
   xmlns:rdf="http://www.w3.org/1999/02/22-rdf-syntax-ns#"
   xmlns:svg="http://www.w3.org/2000/svg"
   xmlns="http://www.w3.org/2000/svg"
   xmlns:sodipodi="http://sodipodi.sourceforge.net/DTD/sodipodi-0.dtd"
   xmlns:inkscape="http://www.inkscape.org/namespaces/inkscape"
   inkscape:version="1.0 (6e3e5246a0, 2020-05-07)"
   sodipodi:docname="speed_deanonymizer.svg"
   viewBox="0 0 505.33334 442.66666"
   height="442.66666"
   width="505.33334"
   xml:space="preserve"
   id="svg2"
   version="1.1"><metadata
     id="metadata8"><rdf:RDF><cc:Work
         rdf:about=""><dc:format>image/svg+xml</dc:format><dc:type
           rdf:resource="http://purl.org/dc/dcmitype/StillImage" /><dc:title></dc:title></cc:Work></rdf:RDF></metadata><defs
     id="defs6"><clipPath
       id="clipPath46"
       clipPathUnits="userSpaceOnUse"><path
         id="path44"
         d="M 57.41,31.35 H 295.59 V 326.77 H 57.41 Z" /></clipPath></defs><sodipodi:namedview
     inkscape:current-layer="g10"
     inkscape:window-maximized="0"
     inkscape:window-y="27"
     inkscape:window-x="0"
     inkscape:cy="221.33333"
     inkscape:cx="252.66667"
     inkscape:zoom="1.8953314"
     showgrid="false"
     id="namedview4"
     inkscape:window-height="1025"
     inkscape:window-width="960"
     inkscape:pageshadow="2"
     inkscape:pageopacity="0"
     guidetolerance="10"
     gridtolerance="10"
     objecttolerance="10"
     borderopacity="1"
     bordercolor="#666666"
     pagecolor="#ffffff" /><g
     transform="matrix(1.3333333,0,0,-1.3333333,0,442.66667)"
     inkscape:label="speed_deanonymizer"
     inkscape:groupmode="layer"
     id="g10"><g
       id="g12" /><g
       id="g14" /><g
       id="g16" /><g
       id="g18" /><g
       id="g20" /><g
       id="g22" /><g
       id="g24" /><g
       id="g26" /><g
       id="g28" /><g
       id="g34" /><g
       id="g36" /><g
       id="g38" /><g
       id="g40"><g
         clip-path="url(#clipPath46)"
         id="g42"><path
           id="path48"
           style="fill:#ebebeb;fill-opacity:1;fill-rule:nonzero;stroke:none"
           d="M 57.41,31.35 H 295.59 V 326.77 H 57.41 Z" /><path
           id="path50"
           style="fill:none;stroke:#ffffff;stroke-width:0.53;stroke-linecap:butt;stroke-linejoin:round;stroke-miterlimit:10;stroke-dasharray:none;stroke-opacity:1"
           d="M 57.41,85.47 H 295.59" /><path
           id="path52"
           style="fill:none;stroke:#ffffff;stroke-width:0.53;stroke-linecap:butt;stroke-linejoin:round;stroke-miterlimit:10;stroke-dasharray:none;stroke-opacity:1"
           d="M 57.41,166.85 H 295.59" /><path
           id="path54"
           style="fill:none;stroke:#ffffff;stroke-width:0.53;stroke-linecap:butt;stroke-linejoin:round;stroke-miterlimit:10;stroke-dasharray:none;stroke-opacity:1"
           d="M 57.41,248.23 H 295.59" /><path
           id="path56"
           style="fill:none;stroke:#ffffff;stroke-width:0.53;stroke-linecap:butt;stroke-linejoin:round;stroke-miterlimit:10;stroke-dasharray:none;stroke-opacity:1"
           d="M 91.09,31.35 V 326.77" /><path
           id="path58"
           style="fill:none;stroke:#ffffff;stroke-width:0.53;stroke-linecap:butt;stroke-linejoin:round;stroke-miterlimit:10;stroke-dasharray:none;stroke-opacity:1"
           d="M 151.24,31.35 V 326.77" /><path
           id="path60"
           style="fill:none;stroke:#ffffff;stroke-width:0.53;stroke-linecap:butt;stroke-linejoin:round;stroke-miterlimit:10;stroke-dasharray:none;stroke-opacity:1"
           d="M 211.38,31.35 V 326.77" /><path
           id="path62"
           style="fill:none;stroke:#ffffff;stroke-width:0.53;stroke-linecap:butt;stroke-linejoin:round;stroke-miterlimit:10;stroke-dasharray:none;stroke-opacity:1"
           d="M 271.53,31.35 V 326.77" /><path
           id="path64"
           style="fill:none;stroke:#ffffff;stroke-width:1.07;stroke-linecap:butt;stroke-linejoin:round;stroke-miterlimit:10;stroke-dasharray:none;stroke-opacity:1"
           d="M 57.41,44.77 H 295.59" /><path
           id="path66"
           style="fill:none;stroke:#ffffff;stroke-width:1.07;stroke-linecap:butt;stroke-linejoin:round;stroke-miterlimit:10;stroke-dasharray:none;stroke-opacity:1"
           d="M 57.41,126.16 H 295.59" /><path
           id="path68"
           style="fill:none;stroke:#ffffff;stroke-width:1.07;stroke-linecap:butt;stroke-linejoin:round;stroke-miterlimit:10;stroke-dasharray:none;stroke-opacity:1"
           d="M 57.41,207.54 H 295.59" /><path
           id="path70"
           style="fill:none;stroke:#ffffff;stroke-width:1.07;stroke-linecap:butt;stroke-linejoin:round;stroke-miterlimit:10;stroke-dasharray:none;stroke-opacity:1"
           d="M 57.41,288.93 H 295.59" /><path
           id="path72"
           style="fill:none;stroke:#ffffff;stroke-width:1.07;stroke-linecap:butt;stroke-linejoin:round;stroke-miterlimit:10;stroke-dasharray:none;stroke-opacity:1"
           d="M 61.02,31.35 V 326.77" /><path
           id="path74"
           style="fill:none;stroke:#ffffff;stroke-width:1.07;stroke-linecap:butt;stroke-linejoin:round;stroke-miterlimit:10;stroke-dasharray:none;stroke-opacity:1"
           d="M 121.17,31.35 V 326.77" /><path
           id="path76"
           style="fill:none;stroke:#ffffff;stroke-width:1.07;stroke-linecap:butt;stroke-linejoin:round;stroke-miterlimit:10;stroke-dasharray:none;stroke-opacity:1"
           d="M 181.31,31.35 V 326.77" /><path
           id="path78"
           style="fill:none;stroke:#ffffff;stroke-width:1.07;stroke-linecap:butt;stroke-linejoin:round;stroke-miterlimit:10;stroke-dasharray:none;stroke-opacity:1"
           d="M 241.46,31.35 V 326.77" /><path
           id="path80"
           style="fill:none;stroke:#f8766d;stroke-width:4.27;stroke-linecap:butt;stroke-linejoin:round;stroke-miterlimit:1;stroke-dasharray:none;stroke-opacity:1"
           d="m 68.24,64.23 2.74,0.02 2.74,0.01 2.74,0.03 2.74,0.02 2.74,0.03 2.74,0.03 2.74,0.03 2.74,0.04 2.74,0.04 2.74,0.05 2.75,0.05 2.74,0.05 2.74,0.06 2.74,0.06 2.74,0.06 2.74,0.07 2.74,0.07 2.74,0.07 2.74,0.08 2.74,0.08 2.74,0.09 2.74,0.1 2.75,0.1 2.74,0.1 2.74,0.1 2.74,0.1 2.74,0.1 2.74,0.1 2.74,0.11 2.74,0.11 2.74,0.11 2.74,0.12 2.74,0.11 2.74,0.11 2.75,0.11 2.74,0.1 2.74,0.1 2.74,0.1 2.74,0.1 2.74,0.1 2.74,0.1 2.74,0.1 2.74,0.09 2.74,0.1 2.74,0.1 2.74,0.09 2.75,0.1 2.74,0.09 2.74,0.09 2.74,0.1 2.74,0.09 2.74,0.1 2.74,0.1 2.74,0.1 2.74,0.11 2.74,0.1 2.74,0.11 2.74,0.1 2.75,0.11 2.74,0.11 2.74,0.11 2.74,0.12 2.74,0.12 2.74,0.11 2.74,0.12 2.74,0.12 2.74,0.12 2.74,0.13 2.74,0.12 2.74,0.13 2.75,0.13 2.74,0.13 2.74,0.13 2.74,0.13 2.74,0.13 2.74,0.14 2.74,0.14 2.74,0.14 2.74,0.14" /><path
           id="path82"
           style="fill:none;stroke:#cd9600;stroke-width:4.27;stroke-linecap:butt;stroke-linejoin:round;stroke-miterlimit:1;stroke-dasharray:8.54, 8.54;stroke-dashoffset:0;stroke-opacity:1"
           d="m 68.24,64.82 2.74,0.03 2.74,0.03 2.74,0.04 2.74,0.04 2.74,0.05 2.74,0.04 2.74,0.05 2.74,0.06 2.74,0.05 2.74,0.06 2.75,0.06 2.74,0.07 2.74,0.07 2.74,0.08 2.74,0.07 2.74,0.08 2.74,0.08 2.74,0.08 2.74,0.08 2.74,0.1 2.74,0.1 2.74,0.11 2.75,0.11 2.74,0.11 2.74,0.11 2.74,0.1 2.74,0.1 2.74,0.1 2.74,0.11 2.74,0.1 2.74,0.11 2.74,0.1 2.74,0.1 2.74,0.1 2.75,0.09 2.74,0.07 2.74,0.07 2.74,0.05 2.74,0.05 2.74,0.04 2.74,0.05 2.74,0.05 2.74,0.06 2.74,0.07 2.74,0.08 2.74,0.08 2.75,0.07 2.74,0.08 2.74,0.07 2.74,0.08 2.74,0.09 2.74,0.09 2.74,0.11 2.74,0.11 2.74,0.12 2.74,0.12 2.74,0.13 2.74,0.13 2.75,0.14 2.74,0.13 2.74,0.14 2.74,0.15 2.74,0.14 2.74,0.16 2.74,0.15 2.74,0.16 2.74,0.16 2.74,0.17 2.74,0.17 2.74,0.18 2.75,0.17 2.74,0.18 2.74,0.19 2.74,0.18 2.74,0.2 2.74,0.19 2.74,0.2 2.74,0.2 2.74,0.21" /><path
           id="path84"
           style="fill:none;stroke:#7cae00;stroke-width:4.27;stroke-linecap:butt;stroke-linejoin:round;stroke-miterlimit:1;stroke-dasharray:17.07, 8.54;stroke-dashoffset:0;stroke-opacity:1"
           d="m 68.24,77.72 2.74,0.97 2.74,0.99 2.74,1.02 2.74,1.05 2.74,1.07 2.74,1.1 2.74,1.12 2.74,1.15 2.74,1.16 2.74,1.2 2.75,1.23 2.74,1.26 2.74,1.28 2.74,1.31 2.74,1.32 2.74,1.35 2.74,1.36 2.74,1.38 2.74,1.45 2.74,1.52 2.74,1.58 2.74,1.6 2.75,1.63 2.74,1.62 2.74,1.61 2.74,1.57 2.74,1.54 2.74,1.53 2.74,1.53 2.74,1.53 2.74,1.53 2.74,1.53 2.74,1.53 2.74,1.54 2.75,1.53 2.74,1.55 2.74,1.55 2.74,1.56 2.74,1.57 2.74,1.56 2.74,1.56 2.74,1.56 2.74,1.55 2.74,1.53 2.74,1.49 2.74,1.42 2.75,1.39 2.74,1.37 2.74,1.38 2.74,1.41 2.74,1.45 2.74,1.53 2.74,1.61 2.74,1.7 2.74,1.78 2.74,1.82 2.74,1.85 2.74,1.85 2.75,1.83 2.74,1.79 2.74,1.73 2.74,1.66 2.74,1.65 2.74,1.66 2.74,1.66 2.74,1.65 2.74,1.65 2.74,1.65 2.74,1.63 2.74,1.62 2.75,1.61 2.74,1.61 2.74,1.6 2.74,1.59 2.74,1.59 2.74,1.58 2.74,1.57 2.74,1.57 2.74,1.55" /><path
           id="path86"
           style="fill:none;stroke:#00be67;stroke-width:4.27;stroke-linecap:butt;stroke-linejoin:round;stroke-miterlimit:1;stroke-dasharray:17.07, 17.07;stroke-dashoffset:0;stroke-opacity:1"
           d="m 68.24,87.62 2.74,0.51 2.74,0.55 2.74,0.58 2.74,0.63 2.74,0.67 2.74,0.7 2.74,0.74 2.74,0.78 2.74,0.82 2.74,0.86 2.75,0.91 2.74,0.96 2.74,0.99 2.74,1.03 2.74,1.06 2.74,1.09 2.74,1.11 2.74,1.14 2.74,1.25 2.74,1.33 2.74,1.41 2.74,1.47 2.75,1.49 2.74,1.49 2.74,1.48 2.74,1.45 2.74,1.4 2.74,1.41 2.74,1.42 2.74,1.43 2.74,1.43 2.74,1.44 2.74,1.44 2.74,1.44 2.75,1.44 2.74,1.42 2.74,1.41 2.74,1.4 2.74,1.4 2.74,1.39 2.74,1.41 2.74,1.42 2.74,1.44 2.74,1.47 2.74,1.5 2.74,1.51 2.75,1.53 2.74,1.54 2.74,1.55 2.74,1.55 2.74,1.56 2.74,1.55 2.74,1.55 2.74,1.56 2.74,1.56 2.74,1.57 2.74,1.57 2.74,1.58 2.75,1.58 2.74,1.58 2.74,1.58 2.74,1.59 2.74,1.59 2.74,1.59 2.74,1.59 2.74,1.61 2.74,1.6 2.74,1.61 2.74,1.61 2.74,1.61 2.75,1.62 2.74,1.62 2.74,1.62 2.74,1.63 2.74,1.63 2.74,1.63 2.74,1.64 2.74,1.64 2.74,1.64" /><path
           id="path88"
           style="fill:none;stroke:#00bfc4;stroke-width:4.27;stroke-linecap:butt;stroke-linejoin:round;stroke-miterlimit:1;stroke-dasharray:4.27, 12.8;stroke-dashoffset:0;stroke-opacity:1"
           d="m 68.24,73.51 2.74,0.64 2.74,0.67 2.74,0.7 2.74,0.71 2.74,0.74 2.74,0.76 2.74,0.78 2.74,0.81 2.74,0.82 2.74,0.85 2.75,0.88 2.74,0.9 2.74,0.92 2.74,0.95 2.74,0.96 2.74,0.99 2.74,1 2.74,1.03 2.74,1.07 2.74,1.11 2.74,1.15 2.74,1.17 2.75,1.19 2.74,1.2 2.74,1.21 2.74,1.21 2.74,1.21 2.74,1.26 2.74,1.31 2.74,1.33 2.74,1.35 2.74,1.34 2.74,1.32 2.74,1.29 2.75,1.24 2.74,1.2 2.74,1.18 2.74,1.17 2.74,1.17 2.74,1.16 2.74,1.16 2.74,1.16 2.74,1.16 2.74,1.18 2.74,1.16 2.74,1.14 2.75,1.13 2.74,1.11 2.74,1.12 2.74,1.11 2.74,1.14 2.74,1.15 2.74,1.17 2.74,1.16 2.74,1.16 2.74,1.16 2.74,1.16 2.74,1.17 2.75,1.19 2.74,1.22 2.74,1.26 2.74,1.29 2.74,1.31 2.74,1.32 2.74,1.34 2.74,1.35 2.74,1.37 2.74,1.38 2.74,1.4 2.74,1.42 2.75,1.44 2.74,1.45 2.74,1.47 2.74,1.48 2.74,1.5 2.74,1.51 2.74,1.53 2.74,1.55 2.74,1.56" /><path
           id="path90"
           style="fill:none;stroke:#00a9ff;stroke-width:4.27;stroke-linecap:butt;stroke-linejoin:round;stroke-miterlimit:1;stroke-dasharray:4.27, 12.8, 17.07, 12.8;stroke-dashoffset:0;stroke-opacity:1"
           d="m 68.24,81.01 2.74,0.4 2.74,0.43 2.74,0.46 2.74,0.49 2.74,0.52 2.74,0.55 2.74,0.57 2.74,0.61 2.74,0.63 2.74,0.66 2.75,0.7 2.74,0.74 2.74,0.76 2.74,0.79 2.74,0.81 2.74,0.83 2.74,0.85 2.74,0.88 2.74,0.96 2.74,1.04 2.74,1.09 2.74,1.14 2.75,1.15 2.74,1.16 2.74,1.14 2.74,1.1 2.74,1.05 2.74,1.04 2.74,1.02 2.74,1.01 2.74,1.02 2.74,1.02 2.74,1.03 2.74,1.05 2.75,1.08 2.74,1.11 2.74,1.12 2.74,1.13 2.74,1.14 2.74,1.15 2.74,1.16 2.74,1.16 2.74,1.16 2.74,1.16 2.74,1.17 2.74,1.17 2.75,1.18 2.74,1.19 2.74,1.19 2.74,1.2 2.74,1.2 2.74,1.21 2.74,1.21 2.74,1.2 2.74,1.2 2.74,1.2 2.74,1.2 2.74,1.21 2.75,1.23 2.74,1.25 2.74,1.28 2.74,1.32 2.74,1.32 2.74,1.33 2.74,1.34 2.74,1.36 2.74,1.36 2.74,1.39 2.74,1.39 2.74,1.42 2.75,1.42 2.74,1.45 2.74,1.45 2.74,1.47 2.74,1.48 2.74,1.5 2.74,1.51 2.74,1.52 2.74,1.54" /><path
           id="path92"
           style="fill:none;stroke:#c77cff;stroke-width:4.27;stroke-linecap:butt;stroke-linejoin:round;stroke-miterlimit:1;stroke-dasharray:29.88, 12.8;stroke-dashoffset:0;stroke-opacity:1"
           d="m 68.24,86.77 2.74,1.61 2.74,1.66 2.74,1.71 2.74,1.75 2.74,1.8 2.74,1.84 2.74,1.88 2.74,1.92 2.74,1.96 2.74,2.02 2.75,2.07 2.74,2.11 2.74,2.16 2.74,2.2 2.74,2.23 2.74,2.27 2.74,2.29 2.74,2.32 2.74,2.46 2.74,2.57 2.74,2.66 2.74,2.73 2.75,2.75 2.74,2.75 2.74,2.72 2.74,2.66 2.74,2.58 2.74,2.51 2.74,2.45 2.74,2.43 2.74,2.42 2.74,2.45 2.74,2.5 2.74,2.56 2.75,2.67 2.74,2.74 2.74,2.79 2.74,2.83 2.74,2.85 2.74,2.89 2.74,2.91 2.74,2.93 2.74,2.95 2.74,2.97 2.74,3.04 2.74,3.16 2.75,3.22 2.74,3.28 2.74,3.29 2.74,3.27 2.74,3.22 2.74,3.15 2.74,3.05 2.74,3 2.74,2.97 2.74,2.96 2.74,2.94 2.74,2.92 2.75,2.92 2.74,2.92 2.74,2.91 2.74,2.92 2.74,2.91 2.74,2.89 2.74,2.89 2.74,2.87 2.74,2.87 2.74,2.85 2.74,2.85 2.74,2.83 2.75,2.82 2.74,2.81 2.74,2.8 2.74,2.79 2.74,2.78 2.74,2.77 2.74,2.76 2.74,2.75 2.74,2.74" /><path
           id="path94"
           style="fill:none;stroke:#ff61cc;stroke-width:4.27;stroke-linecap:butt;stroke-linejoin:round;stroke-miterlimit:1;stroke-dasharray:8.54, 8.54, 25.61, 8.54;stroke-dashoffset:0;stroke-opacity:1"
           d="m 68.24,105.51 2.74,0.61 2.74,0.69 2.74,0.78 2.74,0.87 2.74,0.95 2.74,1.03 2.74,1.12 2.74,1.2 2.74,1.27 2.74,1.38 2.75,1.47 2.74,1.57 2.74,1.66 2.74,1.73 2.74,1.8 2.74,1.87 2.74,1.91 2.74,1.99 2.74,2.2 2.74,2.39 2.74,2.55 2.74,2.65 2.75,2.72 2.74,2.74 2.74,2.7 2.74,2.64 2.74,2.58 2.74,2.66 2.74,2.72 2.74,2.77 2.74,2.78 2.74,2.78 2.74,2.73 2.74,2.68 2.75,2.58 2.74,2.45 2.74,2.29 2.74,2.19 2.74,2.14 2.74,2.13 2.74,2.16 2.74,2.26 2.74,2.39 2.74,2.58 2.74,2.69 2.74,2.74 2.75,2.78 2.74,2.82 2.74,2.87 2.74,2.89 2.74,2.92 2.74,2.94 2.74,2.96 2.74,3.05 2.74,3.13 2.74,3.19 2.74,3.21 2.74,3.23 2.75,3.19 2.74,3.15 2.74,3.08 2.74,2.99 2.74,3.01 2.74,3.02 2.74,3.03 2.74,3.04 2.74,3.03 2.74,3.03 2.74,3.01 2.74,2.98 2.75,2.96 2.74,2.96 2.74,2.94 2.74,2.94 2.74,2.94 2.74,2.92 2.74,2.91 2.74,2.9 2.74,2.89" /></g></g><g
       id="g96" /><g
       id="g98" /><g
       id="g100" /><g
       id="g102" /><g
       id="g104" /><g
       id="g106"><text
         id="text110"
         style="font-variant:normal;font-weight:normal;font-size:9px;font-family:Helvetica;-inkscape-font-specification:Helvetica;writing-mode:lr-tb;fill:#4d4d4d;fill-opacity:1;fill-rule:nonzero;stroke:none"
         transform="matrix(1,0,0,-1,19.95,41.54)"><tspan
           id="tspan108"
           sodipodi:role="line"
           y="0"
           x="0 5.0040002 7.506 12.51 17.514 22.518 27.521999">0.00000</tspan></text><text
         id="text114"
         style="font-variant:normal;font-weight:normal;font-size:9px;font-family:Helvetica;-inkscape-font-specification:Helvetica;writing-mode:lr-tb;fill:#4d4d4d;fill-opacity:1;fill-rule:nonzero;stroke:none"
         transform="matrix(1,0,0,-1,19.95,122.93)"><tspan
           id="tspan112"
           sodipodi:role="line"
           y="0"
           x="0 5.0040002 7.506 12.51 17.514 22.518 27.521999">0.00005</tspan></text><text
         id="text118"
         style="font-variant:normal;font-weight:normal;font-size:9px;font-family:Helvetica;-inkscape-font-specification:Helvetica;writing-mode:lr-tb;fill:#4d4d4d;fill-opacity:1;fill-rule:nonzero;stroke:none"
         transform="matrix(1,0,0,-1,19.95,204.31)"><tspan
           id="tspan116"
           sodipodi:role="line"
           y="0"
           x="0 5.0040002 7.506 12.51 17.514 22.518 27.521999">0.00010</tspan></text><text
         id="text122"
         style="font-variant:normal;font-weight:normal;font-size:9px;font-family:Helvetica;-inkscape-font-specification:Helvetica;writing-mode:lr-tb;fill:#4d4d4d;fill-opacity:1;fill-rule:nonzero;stroke:none"
         transform="matrix(1,0,0,-1,19.95,285.7)"><tspan
           id="tspan120"
           sodipodi:role="line"
           y="0"
           x="0 5.0040002 7.506 12.51 17.514 22.518 27.521999">0.00015</tspan></text></g><g
       id="g124" /><g
       id="g126" /><g
       id="g128"><path
         id="path130"
         style="fill:none;stroke:#333333;stroke-width:1.07;stroke-linecap:butt;stroke-linejoin:round;stroke-miterlimit:10;stroke-dasharray:none;stroke-opacity:1"
         d="m 54.67,44.77 h 2.74" /><path
         id="path132"
         style="fill:none;stroke:#333333;stroke-width:1.07;stroke-linecap:butt;stroke-linejoin:round;stroke-miterlimit:10;stroke-dasharray:none;stroke-opacity:1"
         d="m 54.67,126.16 h 2.74" /><path
         id="path134"
         style="fill:none;stroke:#333333;stroke-width:1.07;stroke-linecap:butt;stroke-linejoin:round;stroke-miterlimit:10;stroke-dasharray:none;stroke-opacity:1"
         d="m 54.67,207.54 h 2.74" /><path
         id="path136"
         style="fill:none;stroke:#333333;stroke-width:1.07;stroke-linecap:butt;stroke-linejoin:round;stroke-miterlimit:10;stroke-dasharray:none;stroke-opacity:1"
         d="m 54.67,288.93 h 2.74" /></g><g
       id="g138" /><g
       id="g140" /><g
       id="g142" /><g
       id="g144" /><g
       id="g146" /><g
       id="g148" /><g
       id="g150" /><g
       id="g152" /><g
       id="g154"><path
         id="path156"
         style="fill:none;stroke:#333333;stroke-width:1.07;stroke-linecap:butt;stroke-linejoin:round;stroke-miterlimit:10;stroke-dasharray:none;stroke-opacity:1"
         d="m 61.02,28.61 v 2.74" /><path
         id="path158"
         style="fill:none;stroke:#333333;stroke-width:1.07;stroke-linecap:butt;stroke-linejoin:round;stroke-miterlimit:10;stroke-dasharray:none;stroke-opacity:1"
         d="m 121.17,28.61 v 2.74" /><path
         id="path160"
         style="fill:none;stroke:#333333;stroke-width:1.07;stroke-linecap:butt;stroke-linejoin:round;stroke-miterlimit:10;stroke-dasharray:none;stroke-opacity:1"
         d="m 181.31,28.61 v 2.74" /><path
         id="path162"
         style="fill:none;stroke:#333333;stroke-width:1.07;stroke-linecap:butt;stroke-linejoin:round;stroke-miterlimit:10;stroke-dasharray:none;stroke-opacity:1"
         d="m 241.46,28.61 v 2.74" /></g><g
       id="g164" /><g
       id="g166"><text
         id="text170"
         style="font-variant:normal;font-weight:normal;font-size:9px;font-family:Helvetica;-inkscape-font-specification:Helvetica;writing-mode:lr-tb;fill:#4d4d4d;fill-opacity:1;fill-rule:nonzero;stroke:none"
         transform="matrix(1,0,0,-1,58.52,19.95)"><tspan
           id="tspan168"
           y="0"
           x="0">0</tspan></text><text
         id="text174"
         style="font-variant:normal;font-weight:normal;font-size:9px;font-family:Helvetica;-inkscape-font-specification:Helvetica;writing-mode:lr-tb;fill:#4d4d4d;fill-opacity:1;fill-rule:nonzero;stroke:none"
         transform="matrix(1,0,0,-1,116.16,19.95)"><tspan
           id="tspan172"
           sodipodi:role="line"
           y="0"
           x="0 5.0040002">25</tspan></text><text
         id="text178"
         style="font-variant:normal;font-weight:normal;font-size:9px;font-family:Helvetica;-inkscape-font-specification:Helvetica;writing-mode:lr-tb;fill:#4d4d4d;fill-opacity:1;fill-rule:nonzero;stroke:none"
         transform="matrix(1,0,0,-1,176.31,19.95)"><tspan
           id="tspan176"
           sodipodi:role="line"
           y="0"
           x="0 5.0040002">50</tspan></text><text
         id="text182"
         style="font-variant:normal;font-weight:normal;font-size:9px;font-family:Helvetica;-inkscape-font-specification:Helvetica;writing-mode:lr-tb;fill:#4d4d4d;fill-opacity:1;fill-rule:nonzero;stroke:none"
         transform="matrix(1,0,0,-1,236.45,19.95)"><tspan
           id="tspan180"
           sodipodi:role="line"
           y="0"
           x="0 5.0040002">75</tspan></text></g><g
       id="g184" /><g
       id="g186" /><g
       id="g188" /><g
       id="g190" /><g
       id="g192" /><g
       id="g194"><text
         id="text198"
         style="font-variant:normal;font-weight:normal;font-size:11px;font-family:Helvetica;-inkscape-font-specification:Helvetica;writing-mode:lr-tb;fill:#000000;fill-opacity:1;fill-rule:nonzero;stroke:none"
         transform="matrix(1,0,0,-1,159.38,7.67)"><tspan
           id="tspan196"
           sodipodi:role="line"
           y="0"
           x="0 3.0580001 9.1739998 11.616 14.674 17.115999 23.232 25.674 28.732">Initial k</tspan></text></g><g
       id="g200" /><g
       id="g202" /><g
       id="g204"><text
         id="text208"
         style="font-variant:normal;font-weight:normal;font-size:11px;font-family:Helvetica;-inkscape-font-specification:Helvetica;writing-mode:lr-tb;fill:#000000;fill-opacity:1;fill-rule:nonzero;stroke:none"
         transform="matrix(0,1,1,0,15.57,141.16)"><tspan
           id="tspan206"
           sodipodi:role="line"
           y="0"
           x="0 6.7210002 9.1630001 18.326 24.441999 27.5 31.163 36.662998 42.778999 48.278999 54.395 60.511002 66.626999 72.126999">Time (seconds)</tspan></text></g><g
       id="g210" /><g
       id="g212" /><g
       id="g214" /><g
       id="g216" /><g
       id="g218" /><g
       id="g220" /><g
       id="g226" /><g
       id="g228"><text
         id="text232"
         style="font-variant:normal;font-weight:normal;font-size:11px;font-family:Helvetica;-inkscape-font-specification:Helvetica;writing-mode:lr-tb;fill:#000000;fill-opacity:1;fill-rule:nonzero;stroke:none"
         transform="matrix(1,0,0,-1,308.34,270.15)"><tspan
           id="tspan230"
           sodipodi:role="line"
           y="0"
           x="0 7.3369999 9.7790003 15.895 22.011 25.839001 28.281 31.339001 37.455002">Algorithm</tspan></text></g><g
       id="g234" /><g
       id="g236"><path
         id="path238"
         style="fill:#f2f2f2;fill-opacity:1;fill-rule:nonzero;stroke:#ffffff;stroke-width:1.07;stroke-linecap:round;stroke-linejoin:round;stroke-miterlimit:10;stroke-dasharray:none;stroke-opacity:1"
         d="m 308.34,241.3 h 23.04 v 23.04 h -23.04 z" /></g><g
       id="g240" /><g
       id="g242"><path
         id="path244"
         style="fill:none;stroke:#f8766d;stroke-width:4.27;stroke-linecap:butt;stroke-linejoin:round;stroke-miterlimit:10;stroke-dasharray:none;stroke-opacity:1"
         d="m 310.65,252.82 h 18.43" /></g><g
       id="g246" /><g
       id="g248"><path
         id="path250"
         style="fill:#f2f2f2;fill-opacity:1;fill-rule:nonzero;stroke:#ffffff;stroke-width:1.07;stroke-linecap:round;stroke-linejoin:round;stroke-miterlimit:10;stroke-dasharray:none;stroke-opacity:1"
         d="m 308.34,218.26 h 23.04 v 23.04 h -23.04 z" /></g><g
       id="g252" /><g
       id="g254"><path
         id="path256"
         style="fill:none;stroke:#cd9600;stroke-width:4.27;stroke-linecap:butt;stroke-linejoin:round;stroke-miterlimit:10;stroke-dasharray:8.54, 8.54;stroke-dashoffset:0;stroke-opacity:1"
         d="m 310.65,229.78 h 18.43" /></g><g
       id="g258" /><g
       id="g260"><path
         id="path262"
         style="fill:#f2f2f2;fill-opacity:1;fill-rule:nonzero;stroke:#ffffff;stroke-width:1.07;stroke-linecap:round;stroke-linejoin:round;stroke-miterlimit:10;stroke-dasharray:none;stroke-opacity:1"
         d="m 308.34,195.22 h 23.04 v 23.04 h -23.04 z" /></g><g
       id="g264" /><g
       id="g266"><path
         id="path268"
         style="fill:none;stroke:#7cae00;stroke-width:4.27;stroke-linecap:butt;stroke-linejoin:round;stroke-miterlimit:10;stroke-dasharray:17.07, 8.54;stroke-dashoffset:0;stroke-opacity:1"
         d="m 310.65,206.74 h 18.43" /></g><g
       id="g270" /><g
       id="g272"><path
         id="path274"
         style="fill:#f2f2f2;fill-opacity:1;fill-rule:nonzero;stroke:#ffffff;stroke-width:1.07;stroke-linecap:round;stroke-linejoin:round;stroke-miterlimit:10;stroke-dasharray:none;stroke-opacity:1"
         d="m 308.34,172.18 h 23.04 v 23.04 h -23.04 z" /></g><g
       id="g276" /><g
       id="g278"><path
         id="path280"
         style="fill:none;stroke:#00be67;stroke-width:4.27;stroke-linecap:butt;stroke-linejoin:round;stroke-miterlimit:10;stroke-dasharray:17.07, 17.07;stroke-dashoffset:0;stroke-opacity:1"
         d="m 310.65,183.7 h 18.43" /></g><g
       id="g282" /><g
       id="g284"><path
         id="path286"
         style="fill:#f2f2f2;fill-opacity:1;fill-rule:nonzero;stroke:#ffffff;stroke-width:1.07;stroke-linecap:round;stroke-linejoin:round;stroke-miterlimit:10;stroke-dasharray:none;stroke-opacity:1"
         d="m 308.34,149.14 h 23.04 v 23.04 h -23.04 z" /></g><g
       id="g288" /><g
       id="g290"><path
         id="path292"
         style="fill:none;stroke:#00bfc4;stroke-width:4.27;stroke-linecap:butt;stroke-linejoin:round;stroke-miterlimit:10;stroke-dasharray:4.27, 12.8;stroke-dashoffset:0;stroke-opacity:1"
         d="m 310.65,160.66 h 18.43" /></g><g
       id="g294" /><g
       id="g296"><path
         id="path298"
         style="fill:#f2f2f2;fill-opacity:1;fill-rule:nonzero;stroke:#ffffff;stroke-width:1.07;stroke-linecap:round;stroke-linejoin:round;stroke-miterlimit:10;stroke-dasharray:none;stroke-opacity:1"
         d="m 308.34,126.1 h 23.04 v 23.04 h -23.04 z" /></g><g
       id="g300" /><g
       id="g302"><path
         id="path304"
         style="fill:none;stroke:#00a9ff;stroke-width:4.27;stroke-linecap:butt;stroke-linejoin:round;stroke-miterlimit:10;stroke-dasharray:4.27, 12.8, 17.07, 12.8;stroke-dashoffset:0;stroke-opacity:1"
         d="m 310.65,137.62 h 18.43" /></g><g
       id="g306" /><g
       id="g308"><path
         id="path310"
         style="fill:#f2f2f2;fill-opacity:1;fill-rule:nonzero;stroke:#ffffff;stroke-width:1.07;stroke-linecap:round;stroke-linejoin:round;stroke-miterlimit:10;stroke-dasharray:none;stroke-opacity:1"
         d="m 308.34,103.06 h 23.04 v 23.04 h -23.04 z" /></g><g
       id="g312" /><g
       id="g314"><path
         id="path316"
         style="fill:none;stroke:#c77cff;stroke-width:4.27;stroke-linecap:butt;stroke-linejoin:round;stroke-miterlimit:10;stroke-dasharray:29.88, 12.8;stroke-dashoffset:0;stroke-opacity:1"
         d="m 310.65,114.58 h 18.43" /></g><g
       id="g318" /><g
       id="g320"><path
         id="path322"
         style="fill:#f2f2f2;fill-opacity:1;fill-rule:nonzero;stroke:#ffffff;stroke-width:1.07;stroke-linecap:round;stroke-linejoin:round;stroke-miterlimit:10;stroke-dasharray:none;stroke-opacity:1"
         d="m 308.34,80.02 h 23.04 v 23.04 h -23.04 z" /></g><g
       id="g324" /><g
       id="g326"><path
         id="path328"
         style="fill:none;stroke:#ff61cc;stroke-width:4.27;stroke-linecap:butt;stroke-linejoin:round;stroke-miterlimit:10;stroke-dasharray:8.54, 8.54, 25.61, 8.54;stroke-dashoffset:0;stroke-opacity:1"
         d="m 310.65,91.54 h 18.43" /></g><g
       id="g330" /><g
       id="g332"><text
         id="text336"
         style="font-variant:normal;font-weight:normal;font-size:9px;font-family:Helvetica;-inkscape-font-specification:Helvetica;writing-mode:lr-tb;fill:#000000;fill-opacity:1;fill-rule:nonzero;stroke:none"
         transform="matrix(1,0,0,-1,334.26,249.59)"><tspan
           id="tspan334"
           sodipodi:role="line"
           y="0"
           x="0 6.4980001 9.4949999 14.499">D(1)</tspan></text></g><g
       id="g338" /><g
       id="g340"><text
         id="text344"
         style="font-variant:normal;font-weight:normal;font-size:9px;font-family:Helvetica;-inkscape-font-specification:Helvetica;writing-mode:lr-tb;fill:#000000;fill-opacity:1;fill-rule:nonzero;stroke:none"
         transform="matrix(1,0,0,-1,334.26,226.55)"><tspan
           id="tspan342"
           sodipodi:role="line"
           y="0"
           x="0 6.4980001 9.4949999 14.499 17.496 22.752001">D(1)+T</tspan></text></g><g
       id="g346" /><g
       id="g348"><text
         id="text352"
         style="font-variant:normal;font-weight:normal;font-size:9px;font-family:Helvetica;-inkscape-font-specification:Helvetica;writing-mode:lr-tb;fill:#000000;fill-opacity:1;fill-rule:nonzero;stroke:none"
         transform="matrix(1,0,0,-1,334.26,203.51)"><tspan
           id="tspan350"
           sodipodi:role="line"
           y="0"
           x="0 6.4980001 9.4949999 14.499">D(2)</tspan></text></g><g
       id="g354" /><g
       id="g356"><text
         id="text360"
         style="font-variant:normal;font-weight:normal;font-size:9px;font-family:Helvetica;-inkscape-font-specification:Helvetica;writing-mode:lr-tb;fill:#000000;fill-opacity:1;fill-rule:nonzero;stroke:none"
         transform="matrix(1,0,0,-1,334.26,180.47)"><tspan
           id="tspan358"
           sodipodi:role="line"
           y="0"
           x="0 6.4980001 9.4949999 14.499 17.496 22.752001">D(2)+T</tspan></text></g><g
       id="g362" /><g
       id="g364"><text
         id="text368"
         style="font-variant:normal;font-weight:normal;font-size:9px;font-family:Helvetica;-inkscape-font-specification:Helvetica;writing-mode:lr-tb;fill:#000000;fill-opacity:1;fill-rule:nonzero;stroke:none"
         transform="matrix(1,0,0,-1,334.26,157.43)"><tspan
           id="tspan366"
           sodipodi:role="line"
           y="0"
           x="0 6.4980001 9.4949999 14.499">D(3)</tspan></text></g><g
       id="g370" /><g
       id="g372"><text
         id="text376"
         style="font-variant:normal;font-weight:normal;font-size:9px;font-family:Helvetica;-inkscape-font-specification:Helvetica;writing-mode:lr-tb;fill:#000000;fill-opacity:1;fill-rule:nonzero;stroke:none"
         transform="matrix(1,0,0,-1,334.26,134.39)"><tspan
           id="tspan374"
           sodipodi:role="line"
           y="0"
           x="0 6.4980001 9.4949999 14.499 17.496 22.752001">D(3)+T</tspan></text></g><g
       id="g378" /><g
       id="g380"><text
         id="text384"
         style="font-variant:normal;font-weight:normal;font-size:9px;font-family:Helvetica;-inkscape-font-specification:Helvetica;writing-mode:lr-tb;fill:#000000;fill-opacity:1;fill-rule:nonzero;stroke:none"
         transform="matrix(1,0,0,-1,334.26,111.35)"><tspan
           id="tspan382"
           sodipodi:role="line"
           y="0"
           x="0 6.4980001 9.4949999 14.499">D(4)</tspan></text></g><g
       id="g386" /><g
       id="g388"><text
         id="text392"
         style="font-variant:normal;font-weight:normal;font-size:9px;font-family:Helvetica;-inkscape-font-specification:Helvetica;writing-mode:lr-tb;fill:#000000;fill-opacity:1;fill-rule:nonzero;stroke:none"
         transform="matrix(1,0,0,-1,334.26,88.31)"><tspan
           id="tspan390"
           sodipodi:role="line"
           y="0"
           x="0 6.4980001 9.4949999 14.499 17.496 22.752001">D(4)+T</tspan></text></g><g
       id="g394" /><g
       id="g396" /><g
       id="g398" /><g
       id="g400" /><g
       id="g402" /><g
       id="g404" /><g
       id="g406" /><g
       id="g408" /><g
       id="g410" /><g
       id="g412" /><g
       id="g414" /><g
       id="g416" /></g></svg>
