<?xml version="1.0" encoding="UTF-8" standalone="no"?>
<svg
   xmlns:dc="http://purl.org/dc/elements/1.1/"
   xmlns:cc="http://creativecommons.org/ns#"
   xmlns:rdf="http://www.w3.org/1999/02/22-rdf-syntax-ns#"
   xmlns:svg="http://www.w3.org/2000/svg"
   xmlns="http://www.w3.org/2000/svg"
   xmlns:sodipodi="http://sodipodi.sourceforge.net/DTD/sodipodi-0.dtd"
   xmlns:inkscape="http://www.inkscape.org/namespaces/inkscape"
   inkscape:version="1.0 (6e3e5246a0, 2020-05-07)"
   sodipodi:docname="full_architecture.svg"
   viewBox="0 0 471.88809 474.16272"
   height="474.16272"
   width="471.88809"
   xml:space="preserve"
   id="svg2"
   version="1.1"><metadata
     id="metadata8"><rdf:RDF><cc:Work
         rdf:about=""><dc:format>image/svg+xml</dc:format><dc:type
           rdf:resource="http://purl.org/dc/dcmitype/StillImage" /><dc:title></dc:title></cc:Work></rdf:RDF></metadata><defs
     id="defs6"><clipPath
       id="clipPath216"
       clipPathUnits="userSpaceOnUse"><path
         id="path214"
         d="m 155,217.62204 h 72 v 50 h -72 z" /></clipPath><mask
       id="mask218"
       height="1"
       width="1"
       y="0"
       x="0"
       maskUnits="userSpaceOnUse"><g
         id="g224"><g
           id="g222"
           clip-path="url(#clipPath216)"><path
             id="path220"
             style="fill:#000000;fill-opacity:0.97;fill-rule:nonzero;stroke:none"
             d="m 155,217.62204 h 72 v 50 h -72 z" /></g></g></mask><clipPath
       id="clipPath232"
       clipPathUnits="userSpaceOnUse"><path
         id="path230"
         d="m 155,217.62204 h 72 v 50 h -72 z" /></clipPath><clipPath
       id="clipPath236"
       clipPathUnits="userSpaceOnUse"><path
         id="path234"
         d="m 155,218 h 72 v 50 h -72 z" /></clipPath><clipPath
       id="clipPath284"
       clipPathUnits="userSpaceOnUse"><path
         id="path282"
         d="m 154,82.62204 h 72 v 51 h -72 z" /></clipPath><mask
       id="mask286"
       height="1"
       width="1"
       y="0"
       x="0"
       maskUnits="userSpaceOnUse"><g
         id="g292"><g
           id="g290"
           clip-path="url(#clipPath284)"><path
             id="path288"
             style="fill:#000000;fill-opacity:0.97;fill-rule:nonzero;stroke:none"
             d="m 154,82.62204 h 72 v 51 h -72 z" /></g></g></mask><clipPath
       id="clipPath300"
       clipPathUnits="userSpaceOnUse"><path
         id="path298"
         d="m 154,82.62204 h 72 v 51 h -72 z" /></clipPath><clipPath
       id="clipPath304"
       clipPathUnits="userSpaceOnUse"><path
         id="path302"
         d="m 154,83 h 72 v 51 h -72 z" /></clipPath></defs><sodipodi:namedview
     inkscape:current-layer="g10"
     inkscape:window-maximized="1"
     inkscape:window-y="27"
     inkscape:window-x="0"
     inkscape:cy="237.08136"
     inkscape:cx="235.94405"
     inkscape:zoom="1.7694348"
     showgrid="false"
     id="namedview4"
     inkscape:window-height="1025"
     inkscape:window-width="1920"
     inkscape:pageshadow="2"
     inkscape:pageopacity="0"
     guidetolerance="10"
     gridtolerance="10"
     objecttolerance="10"
     borderopacity="1"
     bordercolor="#666666"
     pagecolor="#ffffff" /><g
     transform="matrix(1.3333333,0,0,-1.3333333,0,474.16272)"
     inkscape:label="full_architecture"
     inkscape:groupmode="layer"
     id="g10"><g
       id="g12"><text
         id="text16"
         style="font-variant:normal;font-weight:bold;font-size:15px;font-family:'DejaVu Sans';-inkscape-font-specification:DejaVuSans-Bold;writing-mode:lr-tb;fill:#000000;fill-opacity:1;fill-rule:nonzero;stroke:none"
         transform="matrix(1,0,0,-1,188.4025,321.82961)"><tspan
           id="tspan14"
           sodipodi:role="line"
           y="0"
           x="0 16.545 27.344999">WSE</tspan></text><g
         transform="matrix(1,0,0,-1,0,355.62204)"
         id="g18"><path
           id="path20"
           style="fill:#000000;fill-opacity:1;fill-rule:nonzero;stroke:#000000;stroke-width:0.57825;stroke-linecap:round;stroke-linejoin:round;stroke-miterlimit:4;stroke-dasharray:none;stroke-opacity:1"
           d="m 36.184,90.16 h 70.027 c 3.902,0 7.043,3.141 7.043,7.039 v 31.942 c 0,3.902 -3.141,7.043 -7.043,7.043 H 36.184 c -3.903,0 -7.043,-3.141 -7.043,-7.043 V 97.199 c 0,-3.898 3.14,-7.039 7.043,-7.039 z" /></g><text
         id="text24"
         style="font-variant:normal;font-weight:normal;font-size:11.1091px;font-family:'DejaVu Sans';-inkscape-font-specification:DejaVuSans;writing-mode:lr-tb;fill:#000000;fill-opacity:1;fill-rule:nonzero;stroke:none"
         transform="matrix(1,0,0,-1,40.236053,247.64681)"><tspan
           id="tspan22"
           y="0"
           x="0">C</tspan></text><g
         transform="matrix(1,0,0,-1,0,355.62204)"
         id="g26"><path
           id="path28"
           style="fill:none;stroke:#000000;stroke-width:0.57825;stroke-linecap:butt;stroke-linejoin:miter;stroke-miterlimit:4;stroke-dasharray:none;stroke-opacity:1"
           d="m 47.312,100.57 v 1.157 c -0.367,-0.344 -0.757,-0.598 -1.171,-0.766 -0.407,-0.164 -0.844,-0.25 -1.313,-0.25 -0.918,0 -1.621,0.281 -2.109,0.844 -0.481,0.554 -0.719,1.359 -0.719,2.422 0,1.054 0.238,1.859 0.719,2.421 0.488,0.563 1.191,0.844 2.109,0.844 0.469,0 0.906,-0.082 1.313,-0.25 0.414,-0.164 0.804,-0.422 1.171,-0.765 v 1.125 c -0.374,0.261 -0.777,0.46 -1.203,0.593 -0.418,0.125 -0.867,0.188 -1.343,0.188 -1.211,0 -2.164,-0.367 -2.86,-1.11 -0.699,-0.75 -1.047,-1.765 -1.047,-3.046 0,-1.289 0.348,-2.305 1.047,-3.047 0.696,-0.75 1.649,-1.125 2.86,-1.125 0.476,0 0.929,0.07 1.359,0.203 0.426,0.125 0.82,0.312 1.187,0.562 z" /></g><text
         id="text32"
         style="font-variant:normal;font-weight:normal;font-size:11.1091px;font-family:'DejaVu Sans';-inkscape-font-specification:DejaVuSans;writing-mode:lr-tb;fill:#000000;fill-opacity:1;fill-rule:nonzero;stroke:none"
         transform="matrix(1,0,0,-1,48.003717,247.64681)"><tspan
           id="tspan30"
           y="0"
           x="0">P</tspan></text><g
         transform="matrix(1,0,0,-1,0,355.62204)"
         id="g34"><path
           id="path36"
           style="fill:none;stroke:#000000;stroke-width:0.57825;stroke-linecap:butt;stroke-linejoin:miter;stroke-miterlimit:4;stroke-dasharray:none;stroke-opacity:1"
           d="m 50.176,100.852 v 3.015 h 1.359 c 0.5,0 0.883,-0.129 1.156,-0.39 0.282,-0.27 0.422,-0.645 0.422,-1.125 0,-0.477 -0.14,-0.848 -0.422,-1.11 -0.273,-0.258 -0.656,-0.39 -1.156,-0.39 z m -1.094,-0.891 h 2.453 c 0.895,0 1.57,0.203 2.031,0.609 0.457,0.407 0.688,1 0.688,1.782 0,0.793 -0.231,1.39 -0.688,1.796 -0.461,0.407 -1.136,0.61 -2.031,0.61 h -1.359 v 3.219 h -1.094 z" /></g><text
         id="text40"
         style="font-variant:normal;font-weight:normal;font-size:11.1091px;font-family:'DejaVu Sans';-inkscape-font-specification:DejaVuSans;writing-mode:lr-tb;fill:#000000;fill-opacity:1;fill-rule:nonzero;stroke:none"
         transform="matrix(1,0,0,-1,54.70821,247.64681)"><tspan
           id="tspan38"
           y="0"
           x="0">X</tspan></text><g
         transform="matrix(1,0,0,-1,0,355.62204)"
         id="g42"><path
           id="path44"
           style="fill:none;stroke:#000000;stroke-width:0.57825;stroke-linecap:butt;stroke-linejoin:miter;stroke-miterlimit:4;stroke-dasharray:none;stroke-opacity:1"
           d="m 55.395,99.961 h 1.171 l 1.985,2.984 2.015,-2.984 h 1.157 l -2.578,3.844 2.75,4.172 h -1.157 l -2.265,-3.407 -2.266,3.407 h -1.172 l 2.86,-4.282 z" /></g><text
         id="text48"
         style="font-variant:normal;font-weight:normal;font-size:11.1091px;font-family:'DejaVu Sans';-inkscape-font-specification:DejaVuSans;writing-mode:lr-tb;fill:#000000;fill-opacity:1;fill-rule:nonzero;stroke:none"
         transform="matrix(1,0,0,-1,65.845566,247.64681)"><tspan
           id="tspan46"
           y="0"
           x="0">P</tspan></text><g
         transform="matrix(1,0,0,-1,0,355.62204)"
         id="g50"><path
           id="path52"
           style="fill:none;stroke:#000000;stroke-width:0.57825;stroke-linecap:butt;stroke-linejoin:miter;stroke-miterlimit:4;stroke-dasharray:none;stroke-opacity:1"
           d="m 68.031,100.852 v 3.015 h 1.36 c 0.5,0 0.882,-0.129 1.156,-0.39 0.281,-0.27 0.422,-0.645 0.422,-1.125 0,-0.477 -0.141,-0.848 -0.422,-1.11 -0.274,-0.258 -0.656,-0.39 -1.156,-0.39 z m -1.093,-0.891 h 2.453 c 0.894,0 1.57,0.203 2.031,0.609 0.457,0.407 0.687,1 0.687,1.782 0,0.793 -0.23,1.39 -0.687,1.796 -0.461,0.407 -1.137,0.61 -2.031,0.61 h -1.36 v 3.219 h -1.093 z" /></g><text
         id="text56"
         style="font-variant:normal;font-weight:normal;font-size:11.1091px;font-family:'DejaVu Sans';-inkscape-font-specification:DejaVuSans;writing-mode:lr-tb;fill:#000000;fill-opacity:1;fill-rule:nonzero;stroke:none"
         transform="matrix(1,0,0,-1,72.369884,247.64681)"><tspan
           id="tspan54"
           y="0"
           x="0">r</tspan></text><g
         transform="matrix(1,0,0,-1,0,355.62204)"
         id="g58"><path
           id="path60"
           style="fill:none;stroke:#000000;stroke-width:0.57825;stroke-linecap:butt;stroke-linejoin:miter;stroke-miterlimit:4;stroke-dasharray:none;stroke-opacity:1"
           d="m 76.887,102.883 c -0.106,-0.063 -0.227,-0.11 -0.36,-0.141 -0.125,-0.031 -0.265,-0.047 -0.422,-0.047 -0.562,0 -0.996,0.184 -1.296,0.547 -0.293,0.367 -0.438,0.887 -0.438,1.563 v 3.172 h -1 v -6.016 h 1 v 0.937 c 0.195,-0.363 0.461,-0.632 0.797,-0.812 0.332,-0.176 0.738,-0.266 1.219,-0.266 0.07,0 0.144,0.008 0.218,0.016 0.083,0 0.176,0.012 0.282,0.031 z" /></g><text
         id="text64"
         style="font-variant:normal;font-weight:normal;font-size:11.1091px;font-family:'DejaVu Sans';-inkscape-font-specification:DejaVuSans;writing-mode:lr-tb;fill:#000000;fill-opacity:1;fill-rule:nonzero;stroke:none"
         transform="matrix(1,0,0,-1,76.709361,247.64681)"><tspan
           id="tspan62"
           y="0"
           x="0">o</tspan></text><g
         transform="matrix(1,0,0,-1,0,355.62204)"
         id="g66"><path
           id="path68"
           style="fill:none;stroke:#000000;stroke-width:0.57825;stroke-linecap:butt;stroke-linejoin:miter;stroke-miterlimit:4;stroke-dasharray:none;stroke-opacity:1"
           d="m 80.086,102.648 c -0.531,0 -0.953,0.211 -1.266,0.625 -0.304,0.418 -0.453,0.985 -0.453,1.704 0,0.718 0.149,1.289 0.453,1.703 0.301,0.406 0.723,0.609 1.266,0.609 0.519,0 0.93,-0.203 1.234,-0.609 0.313,-0.414 0.469,-0.985 0.469,-1.703 0,-0.719 -0.156,-1.286 -0.469,-1.704 -0.304,-0.414 -0.715,-0.625 -1.234,-0.625 z m 0,-0.828 c 0.852,0 1.523,0.282 2.016,0.844 0.488,0.555 0.734,1.324 0.734,2.313 0,0.98 -0.246,1.75 -0.734,2.312 -0.493,0.563 -1.164,0.844 -2.016,0.844 -0.867,0 -1.543,-0.281 -2.031,-0.844 -0.493,-0.562 -0.735,-1.332 -0.735,-2.312 0,-0.989 0.242,-1.758 0.735,-2.313 0.488,-0.562 1.164,-0.844 2.031,-0.844 z" /></g><text
         id="text72"
         style="font-variant:normal;font-weight:normal;font-size:11.1091px;font-family:'DejaVu Sans';-inkscape-font-specification:DejaVuSans;writing-mode:lr-tb;fill:#000000;fill-opacity:1;fill-rule:nonzero;stroke:none"
         transform="matrix(1,0,0,-1,83.500644,247.64681)"><tspan
           id="tspan70"
           y="0"
           x="0">v</tspan></text><g
         transform="matrix(1,0,0,-1,0,355.62204)"
         id="g74"><path
           id="path76"
           style="fill:none;stroke:#000000;stroke-width:0.57825;stroke-linecap:butt;stroke-linejoin:miter;stroke-miterlimit:4;stroke-dasharray:none;stroke-opacity:1"
           d="m 83.828,101.961 h 1.047 l 1.875,5.047 1.891,-5.047 h 1.047 l -2.266,6.016 h -1.344 z" /></g><text
         id="text80"
         style="font-variant:normal;font-weight:normal;font-size:11.1091px;font-family:'DejaVu Sans';-inkscape-font-specification:DejaVuSans;writing-mode:lr-tb;fill:#000000;fill-opacity:1;fill-rule:nonzero;stroke:none"
         transform="matrix(1,0,0,-1,90.074952,247.64681)"><tspan
           id="tspan78"
           y="0"
           x="0">e</tspan></text><g
         transform="matrix(1,0,0,-1,0,355.62204)"
         id="g82"><path
           id="path84"
           style="fill:none;stroke:#000000;stroke-width:0.57825;stroke-linecap:butt;stroke-linejoin:miter;stroke-miterlimit:4;stroke-dasharray:none;stroke-opacity:1"
           d="m 96.262,104.727 v 0.484 h -4.547 c 0.039,0.68 0.242,1.195 0.609,1.547 0.364,0.355 0.875,0.531 1.531,0.531 0.383,0 0.754,-0.047 1.11,-0.141 0.351,-0.093 0.707,-0.226 1.062,-0.406 v 0.922 c -0.355,0.156 -0.718,0.274 -1.093,0.344 -0.375,0.082 -0.75,0.125 -1.125,0.125 -0.969,0 -1.735,-0.274 -2.297,-0.828 -0.555,-0.563 -0.828,-1.321 -0.828,-2.282 0,-0.976 0.265,-1.753 0.796,-2.328 0.532,-0.582 1.25,-0.875 2.157,-0.875 0.801,0 1.437,0.262 1.906,0.782 0.477,0.523 0.719,1.23 0.719,2.125 z m -1,-0.297 c 0,-0.539 -0.153,-0.973 -0.453,-1.297 -0.293,-0.321 -0.684,-0.485 -1.172,-0.485 -0.555,0 -0.996,0.157 -1.328,0.469 -0.325,0.313 -0.512,0.75 -0.563,1.313 z" /></g><text
         id="text88"
         style="font-variant:normal;font-weight:normal;font-size:11.1091px;font-family:'DejaVu Sans';-inkscape-font-specification:DejaVuSans;writing-mode:lr-tb;fill:#000000;fill-opacity:1;fill-rule:nonzero;stroke:none"
         transform="matrix(1,0,0,-1,96.909629,247.64681)"><tspan
           id="tspan86"
           y="0"
           x="0">s</tspan></text><g
         transform="matrix(1,0,0,-1,0,355.62204)"
         id="g90"><path
           id="path92"
           style="fill:none;stroke:#000000;stroke-width:0.57825;stroke-linecap:butt;stroke-linejoin:miter;stroke-miterlimit:4;stroke-dasharray:none;stroke-opacity:1"
           d="m 101.785,102.133 v 0.937 c -0.281,-0.144 -0.574,-0.25 -0.875,-0.312 -0.305,-0.07 -0.617,-0.11 -0.937,-0.11 -0.493,0 -0.86,0.079 -1.11,0.235 -0.242,0.148 -0.359,0.367 -0.359,0.656 0,0.231 0.086,0.414 0.266,0.547 0.175,0.125 0.531,0.25 1.062,0.375 l 0.328,0.078 c 0.707,0.149 1.207,0.359 1.5,0.641 0.289,0.273 0.438,0.652 0.438,1.14 0,0.555 -0.219,0.996 -0.657,1.328 -0.437,0.325 -1.046,0.485 -1.828,0.485 -0.324,0 -0.664,-0.031 -1.015,-0.094 -0.344,-0.062 -0.711,-0.156 -1.094,-0.281 v -1.016 c 0.363,0.188 0.723,0.328 1.078,0.422 0.352,0.094 0.707,0.141 1.063,0.141 0.457,0 0.812,-0.078 1.062,-0.235 0.25,-0.164 0.375,-0.39 0.375,-0.672 0,-0.269 -0.09,-0.476 -0.266,-0.625 -0.179,-0.144 -0.574,-0.281 -1.187,-0.406 l -0.344,-0.094 c -0.617,-0.125 -1.058,-0.316 -1.328,-0.578 -0.273,-0.269 -0.406,-0.64 -0.406,-1.109 0,-0.563 0.195,-0.992 0.594,-1.297 0.406,-0.312 0.976,-0.469 1.718,-0.469 0.364,0 0.707,0.028 1.032,0.078 0.32,0.055 0.617,0.133 0.89,0.235 z" /></g><text
         id="text96"
         style="font-variant:normal;font-weight:normal;font-size:11.1091px;font-family:'DejaVu Sans';-inkscape-font-specification:DejaVuSans;writing-mode:lr-tb;fill:#000000;fill-opacity:1;fill-rule:nonzero;stroke:none"
         transform="matrix(1,0,0,-1,49.522537,233.76048)"><tspan
           id="tspan94"
           y="0"
           x="0">d</tspan></text><g
         transform="matrix(1,0,0,-1,0,355.62204)"
         id="g98"><path
           id="path100"
           style="fill:none;stroke:#000000;stroke-width:0.57825;stroke-linecap:butt;stroke-linejoin:miter;stroke-miterlimit:4;stroke-dasharray:none;stroke-opacity:1"
           d="m 54.523,116.754 v -3.25 h 0.985 v 8.359 h -0.985 v -0.906 c -0.211,0.367 -0.476,0.637 -0.796,0.813 -0.313,0.164 -0.696,0.25 -1.141,0.25 -0.719,0 -1.309,-0.286 -1.766,-0.86 -0.461,-0.582 -0.687,-1.348 -0.687,-2.297 0,-0.945 0.226,-1.707 0.687,-2.281 0.457,-0.582 1.047,-0.875 1.766,-0.875 0.445,0 0.828,0.09 1.141,0.266 0.32,0.168 0.585,0.429 0.796,0.781 z m -3.375,2.109 c 0,0.731 0.149,1.305 0.454,1.719 0.3,0.406 0.71,0.609 1.234,0.609 0.519,0 0.93,-0.203 1.234,-0.609 0.301,-0.414 0.453,-0.988 0.453,-1.719 0,-0.726 -0.152,-1.297 -0.453,-1.703 -0.304,-0.414 -0.715,-0.625 -1.234,-0.625 -0.524,0 -0.934,0.211 -1.234,0.625 -0.305,0.406 -0.454,0.977 -0.454,1.703 z" /></g><text
         id="text104"
         style="font-variant:normal;font-weight:normal;font-size:11.1091px;font-family:'DejaVu Sans';-inkscape-font-specification:DejaVuSans;writing-mode:lr-tb;fill:#000000;fill-opacity:1;fill-rule:nonzero;stroke:none"
         transform="matrix(1,0,0,-1,56.574185,233.76048)"><tspan
           id="tspan102"
           y="0"
           x="0">'</tspan></text><g
         transform="matrix(1,0,0,-1,0,355.62204)"
         id="g106"><path
           id="path108"
           style="fill:none;stroke:#000000;stroke-width:0.57825;stroke-linecap:butt;stroke-linejoin:miter;stroke-miterlimit:4;stroke-dasharray:none;stroke-opacity:1"
           d="m 57.637,113.848 h 0.906 v 2.984 h -0.906 z" /></g><text
         id="text112"
         style="font-variant:normal;font-weight:normal;font-size:11.1091px;font-family:'DejaVu Sans';-inkscape-font-specification:DejaVuSans;writing-mode:lr-tb;fill:#000000;fill-opacity:1;fill-rule:nonzero;stroke:none"
         transform="matrix(1,0,0,-1,59.633517,233.76048)"><tspan
           id="tspan110"
           y="0"
           x="0">e</tspan></text><g
         transform="matrix(1,0,0,-1,0,355.62204)"
         id="g114"><path
           id="path116"
           style="fill:none;stroke:#000000;stroke-width:0.57825;stroke-linecap:butt;stroke-linejoin:miter;stroke-miterlimit:4;stroke-dasharray:none;stroke-opacity:1"
           d="m 65.82,118.613 v 0.485 h -4.547 c 0.039,0.679 0.243,1.195 0.61,1.547 0.363,0.355 0.875,0.531 1.531,0.531 0.383,0 0.754,-0.047 1.109,-0.141 0.352,-0.094 0.707,-0.226 1.063,-0.406 v 0.922 c -0.356,0.156 -0.719,0.273 -1.094,0.344 -0.375,0.082 -0.75,0.125 -1.125,0.125 -0.969,0 -1.734,-0.274 -2.297,-0.829 -0.554,-0.562 -0.828,-1.32 -0.828,-2.281 0,-0.976 0.266,-1.754 0.797,-2.328 0.531,-0.582 1.25,-0.875 2.156,-0.875 0.801,0 1.438,0.262 1.907,0.781 0.476,0.524 0.718,1.231 0.718,2.125 z m -1,-0.297 c 0,-0.539 -0.152,-0.972 -0.453,-1.296 -0.293,-0.321 -0.683,-0.485 -1.172,-0.485 -0.554,0 -0.996,0.156 -1.328,0.469 -0.324,0.312 -0.512,0.75 -0.562,1.312 z" /></g><text
         id="text120"
         style="font-variant:normal;font-weight:normal;font-size:11.1091px;font-family:'DejaVu Sans';-inkscape-font-specification:DejaVuSans;writing-mode:lr-tb;fill:#000000;fill-opacity:1;fill-rule:nonzero;stroke:none"
         transform="matrix(1,0,0,-1,66.468194,233.76048)"><tspan
           id="tspan118"
           y="0"
           x="0">s</tspan></text><g
         transform="matrix(1,0,0,-1,0,355.62204)"
         id="g122"><path
           id="path124"
           style="fill:none;stroke:#000000;stroke-width:0.57825;stroke-linecap:butt;stroke-linejoin:miter;stroke-miterlimit:4;stroke-dasharray:none;stroke-opacity:1"
           d="m 71.344,116.02 v 0.937 c -0.282,-0.145 -0.574,-0.25 -0.875,-0.312 -0.305,-0.071 -0.617,-0.11 -0.938,-0.11 -0.492,0 -0.859,0.078 -1.109,0.235 -0.242,0.148 -0.36,0.367 -0.36,0.656 0,0.23 0.086,0.414 0.266,0.547 0.176,0.125 0.531,0.25 1.063,0.375 l 0.328,0.078 c 0.707,0.148 1.207,0.359 1.5,0.64 0.289,0.274 0.437,0.653 0.437,1.141 0,0.555 -0.218,0.996 -0.656,1.328 -0.438,0.324 -1.047,0.485 -1.828,0.485 -0.324,0 -0.664,-0.032 -1.016,-0.094 -0.344,-0.063 -0.711,-0.156 -1.094,-0.281 v -1.016 c 0.364,0.187 0.723,0.328 1.079,0.422 0.351,0.094 0.707,0.14 1.062,0.14 0.457,0 0.813,-0.078 1.063,-0.234 0.25,-0.164 0.375,-0.391 0.375,-0.672 0,-0.269 -0.09,-0.476 -0.266,-0.625 -0.18,-0.144 -0.574,-0.281 -1.187,-0.406 l -0.344,-0.094 c -0.617,-0.125 -1.059,-0.316 -1.328,-0.578 -0.274,-0.27 -0.407,-0.641 -0.407,-1.109 0,-0.563 0.196,-0.993 0.594,-1.297 0.406,-0.313 0.977,-0.469 1.719,-0.469 0.363,0 0.707,0.027 1.031,0.078 0.32,0.055 0.617,0.133 0.891,0.235 z" /></g><text
         id="text128"
         style="font-variant:normal;font-weight:normal;font-size:11.1091px;font-family:'DejaVu Sans';-inkscape-font-specification:DejaVuSans;writing-mode:lr-tb;fill:#000000;fill-opacity:1;fill-rule:nonzero;stroke:none"
         transform="matrix(1,0,0,-1,72.261397,233.76048)"><tspan
           id="tspan126"
           y="0"
           x="0">f</tspan></text><g
         transform="matrix(1,0,0,-1,0,355.62204)"
         id="g130"><path
           id="path132"
           style="fill:none;stroke:#000000;stroke-width:0.57825;stroke-linecap:butt;stroke-linejoin:miter;stroke-miterlimit:4;stroke-dasharray:none;stroke-opacity:1"
           d="m 76.34,113.504 v 0.828 h -0.938 c -0.355,0 -0.605,0.074 -0.75,0.219 -0.136,0.137 -0.203,0.39 -0.203,0.765 v 0.532 h 1.625 v 0.765 h -1.625 v 5.25 h -0.984 v -5.25 h -0.953 v -0.765 h 0.953 v -0.422 c 0,-0.664 0.148,-1.149 0.453,-1.453 0.312,-0.313 0.805,-0.469 1.484,-0.469 z" /></g><text
         id="text136"
         style="font-variant:normal;font-weight:normal;font-size:11.1091px;font-family:'DejaVu Sans';-inkscape-font-specification:DejaVuSans;writing-mode:lr-tb;fill:#000000;fill-opacity:1;fill-rule:nonzero;stroke:none"
         transform="matrix(1,0,0,-1,76.166927,233.76048)"><tspan
           id="tspan134"
           y="0"
           x="0">o</tspan></text><g
         transform="matrix(1,0,0,-1,0,355.62204)"
         id="g138"><path
           id="path140"
           style="fill:none;stroke:#000000;stroke-width:0.57825;stroke-linecap:butt;stroke-linejoin:miter;stroke-miterlimit:4;stroke-dasharray:none;stroke-opacity:1"
           d="m 79.543,116.535 c -0.531,0 -0.953,0.211 -1.266,0.625 -0.304,0.418 -0.453,0.985 -0.453,1.703 0,0.719 0.149,1.289 0.453,1.703 0.301,0.407 0.723,0.61 1.266,0.61 0.519,0 0.93,-0.203 1.234,-0.61 0.313,-0.414 0.469,-0.984 0.469,-1.703 0,-0.718 -0.156,-1.285 -0.469,-1.703 -0.304,-0.414 -0.715,-0.625 -1.234,-0.625 z m 0,-0.828 c 0.852,0 1.523,0.281 2.016,0.844 0.488,0.554 0.734,1.324 0.734,2.312 0,0.981 -0.246,1.75 -0.734,2.313 -0.493,0.562 -1.164,0.844 -2.016,0.844 -0.867,0 -1.543,-0.282 -2.031,-0.844 -0.492,-0.563 -0.735,-1.332 -0.735,-2.313 0,-0.988 0.243,-1.758 0.735,-2.312 0.488,-0.563 1.164,-0.844 2.031,-0.844 z" /></g><text
         id="text144"
         style="font-variant:normal;font-weight:normal;font-size:11.1091px;font-family:'DejaVu Sans';-inkscape-font-specification:DejaVuSans;writing-mode:lr-tb;fill:#000000;fill-opacity:1;fill-rule:nonzero;stroke:none"
         transform="matrix(1,0,0,-1,82.958209,233.76048)"><tspan
           id="tspan142"
           y="0"
           x="0">r</tspan></text><g
         transform="matrix(1,0,0,-1,0,355.62204)"
         id="g146"><path
           id="path148"
           style="fill:none;stroke:#000000;stroke-width:0.57825;stroke-linecap:butt;stroke-linejoin:miter;stroke-miterlimit:4;stroke-dasharray:none;stroke-opacity:1"
           d="m 87.473,116.77 c -0.106,-0.063 -0.227,-0.11 -0.36,-0.141 -0.125,-0.031 -0.265,-0.047 -0.422,-0.047 -0.562,0 -0.996,0.184 -1.296,0.547 -0.293,0.367 -0.438,0.887 -0.438,1.562 v 3.172 h -1 v -6.015 h 1 v 0.937 c 0.195,-0.363 0.461,-0.633 0.797,-0.812 0.332,-0.176 0.738,-0.266 1.219,-0.266 0.07,0 0.144,0.008 0.218,0.016 0.082,0 0.176,0.011 0.282,0.031 z" /></g><text
         id="text152"
         style="font-variant:normal;font-weight:normal;font-size:11.1091px;font-family:'DejaVu Sans';-inkscape-font-specification:DejaVuSans;writing-mode:lr-tb;fill:#000000;fill-opacity:1;fill-rule:nonzero;stroke:none"
         transform="matrix(1,0,0,-1,87.297686,233.76048)"><tspan
           id="tspan150"
           y="0"
           x="0">รง</tspan></text><g
         transform="matrix(1,0,0,-1,0,355.62204)"
         id="g154"><path
           id="path156"
           style="fill:none;stroke:#000000;stroke-width:0.57825;stroke-linecap:butt;stroke-linejoin:miter;stroke-miterlimit:4;stroke-dasharray:none;stroke-opacity:1"
           d="m 92.656,116.082 v 0.922 c -0.273,-0.156 -0.547,-0.27 -0.828,-0.344 -0.281,-0.082 -0.57,-0.125 -0.859,-0.125 -0.637,0 -1.133,0.203 -1.485,0.61 -0.355,0.406 -0.531,0.98 -0.531,1.718 0,0.731 0.176,1.297 0.531,1.703 0.352,0.407 0.848,0.61 1.485,0.61 0.289,0 0.578,-0.035 0.859,-0.11 0.281,-0.07 0.555,-0.187 0.828,-0.343 v 0.906 c -0.273,0.137 -0.558,0.234 -0.859,0.297 -0.293,0.062 -0.606,0.094 -0.938,0.094 -0.906,0 -1.625,-0.282 -2.156,-0.844 -0.531,-0.571 -0.797,-1.344 -0.797,-2.313 0,-0.976 0.266,-1.75 0.797,-2.312 0.539,-0.563 1.281,-0.844 2.219,-0.844 0.312,0 0.609,0.031 0.89,0.094 0.29,0.062 0.571,0.156 0.844,0.281 z m -1.156,5.781 c 0.195,0.219 0.344,0.422 0.438,0.61 0.093,0.187 0.14,0.367 0.14,0.547 0,0.32 -0.109,0.562 -0.328,0.718 -0.211,0.164 -0.523,0.25 -0.938,0.25 -0.167,0 -0.328,-0.011 -0.484,-0.031 -0.156,-0.023 -0.312,-0.055 -0.469,-0.094 v -0.703 c 0.125,0.051 0.25,0.094 0.375,0.125 0.133,0.031 0.286,0.047 0.454,0.047 0.218,0 0.378,-0.047 0.484,-0.141 0.101,-0.086 0.156,-0.211 0.156,-0.375 0,-0.105 -0.043,-0.234 -0.125,-0.39 -0.074,-0.156 -0.187,-0.344 -0.344,-0.563 z" /></g><g
         transform="matrix(1,0,0,-1,0,355.62204)"
         id="g158"><path
           id="path160"
           style="fill:#000000;fill-opacity:1;fill-rule:nonzero;stroke:#000000;stroke-width:0.57825;stroke-linecap:butt;stroke-linejoin:miter;stroke-miterlimit:4;stroke-dasharray:none;stroke-opacity:1"
           d="m 101.781,132.367 c -0.187,-0.027 -0.469,-0.137 -0.648,-0.254 -0.399,-0.258 -0.668,-0.664 -0.754,-1.133 -0.043,-0.25 -0.043,-5.179 0,-5.425 0.129,-0.711 0.672,-1.254 1.383,-1.383 0.246,-0.043 5.199,-0.043 5.445,0 0.711,0.129 1.254,0.672 1.379,1.383 0.047,0.246 0.047,5.175 0,5.425 -0.113,0.625 -0.535,1.11 -1.152,1.325 l -0.215,0.074 -2.657,0.004 c -1.46,0.004 -2.71,-0.004 -2.781,-0.016 z m 3.739,-3.086 0.007,-0.25 -0.086,-0.023 c -0.136,-0.039 -0.152,-0.067 -0.121,-0.25 0.032,-0.192 0.035,-1.133 0.004,-1.301 -0.074,-0.398 -0.328,-0.617 -0.742,-0.641 -0.504,-0.031 -0.809,0.196 -0.894,0.657 -0.016,0.082 -0.024,0.339 -0.016,0.691 0.008,0.516 0.012,0.574 0.062,0.715 0.063,0.191 0.184,0.328 0.352,0.41 0.121,0.059 0.148,0.066 0.41,0.066 0.246,0 0.293,-0.007 0.395,-0.054 l 0.117,-0.051 0.121,0.121 c 0.09,0.094 0.144,0.129 0.219,0.145 0.172,0.039 0.168,0.046 0.172,-0.235 z m -1.176,-0.386 c -0.125,-0.079 -0.145,-0.196 -0.137,-0.856 0.008,-0.492 0.012,-0.578 0.047,-0.641 0.051,-0.089 0.144,-0.14 0.262,-0.14 0.125,0 0.214,0.051 0.25,0.14 0.027,0.079 0.058,0.84 0.035,0.903 -0.012,0.031 -0.024,0.027 -0.09,-0.024 -0.043,-0.031 -0.106,-0.058 -0.141,-0.062 l -0.062,-0.004 -0.016,0.414 0.09,0.055 c 0.047,0.031 0.098,0.082 0.109,0.113 0.059,0.121 -0.191,0.195 -0.347,0.102 z m -1.653,0.437 c 0.149,-0.043 0.313,-0.156 0.395,-0.266 0.207,-0.285 0.156,-0.781 -0.102,-0.988 -0.113,-0.094 -0.25,-0.16 -0.546,-0.269 -0.129,-0.047 -0.258,-0.106 -0.29,-0.133 -0.066,-0.055 -0.125,-0.176 -0.105,-0.231 0.051,-0.156 0.125,-0.211 0.289,-0.211 0.121,0 0.242,0.059 0.348,0.168 0.039,0.043 0.082,0.078 0.093,0.078 0.032,0 0.356,-0.21 0.364,-0.242 0.008,-0.015 -0.047,-0.09 -0.125,-0.168 -0.172,-0.172 -0.328,-0.238 -0.586,-0.254 -0.391,-0.027 -0.672,0.11 -0.805,0.383 -0.082,0.176 -0.086,0.395 -0.016,0.586 0.086,0.227 0.274,0.363 0.778,0.559 0.09,0.035 0.199,0.097 0.242,0.133 0.07,0.058 0.082,0.082 0.082,0.171 0.004,0.125 -0.031,0.192 -0.125,0.247 -0.094,0.058 -0.285,0.058 -0.41,0 -0.082,-0.036 -0.11,-0.067 -0.227,-0.219 l -0.039,-0.051 -0.125,0.082 c -0.269,0.18 -0.273,0.18 -0.234,0.254 0.055,0.109 0.234,0.269 0.359,0.328 0.211,0.098 0.528,0.113 0.785,0.043 z m 4.805,-0.047 c 0.02,-0.008 0.024,-0.062 0.02,-0.219 l -0.004,-0.207 h -0.524 c -0.422,-0.004 -0.527,-0.007 -0.547,-0.035 -0.011,-0.019 -0.019,-0.437 -0.015,-0.996 l 0.004,-0.961 h -0.535 l -0.004,1.199 c -0.004,0.657 -0.004,1.207 0.004,1.219 0.007,0.024 1.535,0.024 1.601,0 z" /></g><g
         transform="matrix(1,0,0,-1,0,355.62204)"
         id="g162"><path
           id="path164"
           style="fill:#e8f6f2;fill-opacity:1;fill-rule:nonzero;stroke:#9dddc8;stroke-width:1.11075;stroke-linecap:round;stroke-linejoin:round;stroke-miterlimit:4;stroke-dasharray:none;stroke-opacity:1"
           d="m 34.684,88.66 h 70.027 c 3.902,0 7.043,3.141 7.043,7.039 v 31.942 c 0,3.902 -3.141,7.043 -7.043,7.043 H 34.684 c -3.903,0 -7.043,-3.141 -7.043,-7.043 V 95.699 c 0,-3.898 3.14,-7.039 7.043,-7.039 z" /></g><text
         id="text170"
         style="font-variant:normal;font-weight:normal;font-size:11.1091px;font-family:'DejaVu Sans';-inkscape-font-specification:DejaVuSans;writing-mode:lr-tb;fill:#000000;fill-opacity:1;fill-rule:nonzero;stroke:none"
         transform="matrix(1,0,0,-1,57.439158,249.14658)"><tspan
           id="tspan166"
           sodipodi:role="line"
           y="0"
           x="0 10.975753 18.018898">WSE</tspan><tspan
           id="tspan168"
           sodipodi:role="line"
           y="13.88635"
           x="-20.579971 -12.981372 -5.9493361 0.83830094 7.870337 14.435793 25.25602 28.333229 34.154377 40.98645">Anonymizer</tspan></text><g
         transform="matrix(0.583032,0.727691,1,-0.424267,0,355.62204)"
         id="g172"><path
           id="path174"
           style="fill:#000000;fill-opacity:1;fill-rule:nonzero;stroke:#000000;stroke-width:1.11004;stroke-linecap:butt;stroke-linejoin:miter;stroke-miterlimit:4;stroke-dasharray:none;stroke-opacity:1"
           d="m 19.022,100.003 -35.176,0.001 -35.172,0.311 17.582,-30.462 17.32,-30.617 17.588,30.46 z" /></g><g
         transform="matrix(0.583032,0.708333,1,-0.412981,0,355.62204)"
         id="g176"><path
           id="path178"
           style="fill:#e8f6f2;fill-opacity:1;fill-rule:nonzero;stroke:#9dddc8;stroke-width:1.14014;stroke-linecap:butt;stroke-linejoin:miter;stroke-miterlimit:4;stroke-dasharray:none;stroke-opacity:1"
           d="m 19.785,99.219 -36.129,0.005 -36.129,0.319 18.066,-31.291 17.788,-31.445 18.063,31.285 z" /></g><text
         id="text184"
         style="font-variant:normal;font-weight:normal;font-size:11.1091px;font-family:'DejaVu Sans';-inkscape-font-specification:DejaVuSans;writing-mode:lr-tb;fill:#000000;fill-opacity:1;fill-rule:nonzero;stroke:none"
         transform="matrix(1,0,0,-1,52.160788,315.78351)"><tspan
           id="tspan180"
           sodipodi:role="line"
           y="0"
           x="0 8.7428322 15.77487 22.606943 27.172768">Query</tspan><tspan
           id="tspan182"
           sodipodi:role="line"
           y="13.886329"
           x="5.5328355 8.6100464 15.397683 22.44083">logs</tspan></text><g
         transform="matrix(0.583032,0.727691,1,-0.424267,0,355.62204)"
         id="g186"><path
           id="path188"
           style="fill:#000000;fill-opacity:1;fill-rule:nonzero;stroke:#000000;stroke-width:1.11004;stroke-linecap:butt;stroke-linejoin:miter;stroke-miterlimit:4;stroke-dasharray:none;stroke-opacity:1"
           d="m -109.601,177.194 -35.176,0.001 -35.173,0.311 17.583,-30.462 17.32,-30.618 17.588,30.461 z" /></g><g
         transform="matrix(0.583032,0.708333,1,-0.412981,0,355.62204)"
         id="g190"><path
           id="path192"
           style="fill:#e8f6f2;fill-opacity:1;fill-rule:nonzero;stroke:#9dddc8;stroke-width:1.14014;stroke-linecap:butt;stroke-linejoin:miter;stroke-miterlimit:4;stroke-dasharray:none;stroke-opacity:1"
           d="m -112.382,178.479 -36.127,10e-4 -36.129,0.318 18.062,-31.288 17.788,-31.445 18.069,31.285 z" /></g><text
         id="text196"
         style="font-variant:normal;font-weight:normal;font-size:9.75px;font-family:'DejaVu Sans';-inkscape-font-specification:DejaVuSans;writing-mode:lr-tb;fill:#000000;fill-opacity:1;fill-rule:nonzero;stroke:none"
         transform="matrix(1,0,0,-1,41.106785,190.63751)"><tspan
           id="tspan194"
           sodipodi:role="line"
           y="0"
           x="0 6.6690001 12.84075 18.798 24.969749 30.732 40.2285 42.929249 48.03825 54.0345">Anonymized</tspan></text><text
         id="text200"
         style="font-variant:normal;font-weight:normal;font-size:11.1091px;font-family:'DejaVu Sans';-inkscape-font-specification:DejaVuSans;writing-mode:lr-tb;fill:#000000;fill-opacity:1;fill-rule:nonzero;stroke:none"
         transform="matrix(1,0,0,-1,59.893222,177.24756)"><tspan
           id="tspan198"
           sodipodi:role="line"
           y="0"
           x="0 3.0772104 9.8648481 16.907993">logs</tspan></text><g
         transform="matrix(1,0,0,-1,0,355.62204)"
         id="g202"><path
           id="path204"
           style="fill:none;stroke:#000000;stroke-width:0.56925;stroke-linecap:butt;stroke-linejoin:miter;stroke-miterlimit:4;stroke-dasharray:none;stroke-opacity:1"
           d="m 109.457,102.586 38.781,0.016" /></g><g
         transform="matrix(-1,4.06129e-4,4.06129e-4,1,0,355.62204)"
         id="g206"><path
           id="path208"
           style="fill:#000000;fill-opacity:1;fill-rule:evenodd;stroke:#000000;stroke-width:0.6072;stroke-linecap:butt;stroke-linejoin:miter;stroke-miterlimit:4;stroke-dasharray:none;stroke-opacity:1"
           d="m -142.589,-102.544 2.281,-2.274 -7.972,2.277 7.97,2.274 z" /></g><g
         id="g210"><g
           id="g212" /><g
           mask="url(#mask218)"
           id="g226"><g
             id="g228" /><g
             id="g256"><g
               id="g254"
               clip-path="url(#clipPath232)"><g
                 id="g252"
                 transform="translate(0,-0.37796)"><g
                   id="g250"><g
                     id="g248"
                     clip-path="url(#clipPath236)"><g
                       id="g246"><g
                         id="g240"
                         transform="matrix(1,0,0,-0.564513,0,356)"><path
                           id="path238"
                           style="fill:#000000;fill-opacity:1;fill-rule:nonzero;stroke:#000000;stroke-width:0.931335;stroke-linecap:butt;stroke-linejoin:miter;stroke-miterlimit:4;stroke-dasharray:none;stroke-opacity:1"
                           d="m 156.031,174.888 v 50.7 c -0.047,0.367 -0.086,0.727 -0.086,1.101 0,9.514 15.625,17.223 34.907,17.223 19.277,0 34.906,-7.709 34.906,-17.223 0,-0.146 0.008,-0.284 0,-0.436 v -51.365 z" /></g><g
                         id="g244"
                         transform="matrix(1,0,0,-0.564513,0,356)"><path
                           id="path242"
                           style="fill:#000000;fill-opacity:1;fill-rule:nonzero;stroke:#000000;stroke-width:0.931335;stroke-linecap:butt;stroke-linejoin:miter;stroke-miterlimit:4;stroke-dasharray:none;stroke-opacity:1"
                           d="m 225.762,174.563 c 0,9.514 -15.629,17.223 -34.907,17.223 -19.277,0 -34.906,-7.709 -34.906,-17.223 0,-9.508 15.629,-17.216 34.906,-17.216 19.278,0 34.907,7.708 34.907,17.216 z" /></g></g></g></g></g></g></g></g></g><g
         transform="matrix(1,0,0,-0.564513,0,355.62204)"
         id="g258"><path
           id="path260"
           style="fill:#e8f6f2;fill-opacity:1;fill-rule:nonzero;stroke:#9dddc8;stroke-width:1.37858;stroke-linecap:butt;stroke-linejoin:miter;stroke-miterlimit:4;stroke-dasharray:none;stroke-opacity:1"
           d="m 154.531,172.231 v 50.7 c -0.047,0.367 -0.086,0.727 -0.086,1.107 0,9.508 15.625,17.217 34.907,17.217 19.277,0 34.906,-7.709 34.906,-17.217 0,-0.152 0.008,-0.29 0,-0.442 v -51.365 z" /></g><g
         transform="matrix(1,0,0,-0.564513,0,355.62204)"
         id="g262"><path
           id="path264"
           style="fill:#e8f6f2;fill-opacity:1;fill-rule:nonzero;stroke:#9dddc8;stroke-width:1.37858;stroke-linecap:butt;stroke-linejoin:miter;stroke-miterlimit:4;stroke-dasharray:none;stroke-opacity:1"
           d="m 224.262,171.906 c 0,9.514 -15.629,17.223 -34.907,17.223 -19.277,0 -34.906,-7.709 -34.906,-17.223 0,-9.508 15.629,-17.217 34.906,-17.217 19.278,0 34.907,7.709 34.907,17.217 z" /></g><text
         id="text268"
         style="font-variant:normal;font-weight:normal;font-size:11.1091px;font-family:'DejaVu Sans';-inkscape-font-specification:DejaVuSans;writing-mode:lr-tb;fill:#000000;fill-opacity:1;fill-rule:nonzero;stroke:none"
         transform="matrix(1,0,0,-1,169.34146,234.37191)"><tspan
           id="tspan266"
           sodipodi:role="line"
           y="0"
           x="0 6.5099111 10.842445 17.630083 21.540474 24.617683 27.694895 34.526966">Profiles</tspan></text><g
         transform="matrix(1,0,0,-1,0,355.62204)"
         id="g270"><path
           id="path272"
           style="fill:none;stroke:#000000;stroke-width:0.56925;stroke-linecap:butt;stroke-linejoin:miter;stroke-miterlimit:4;stroke-dasharray:none;stroke-opacity:1"
           d="m 107.512,244.328 38.781,0.016" /></g><g
         transform="matrix(-1,4.06129e-4,4.06129e-4,1,0,355.62204)"
         id="g274"><path
           id="path276"
           style="fill:#000000;fill-opacity:1;fill-rule:evenodd;stroke:#000000;stroke-width:0.6072;stroke-linecap:butt;stroke-linejoin:miter;stroke-miterlimit:4;stroke-dasharray:none;stroke-opacity:1"
           d="m -140.697,-244.287 2.277,-2.274 -7.972,2.277 7.969,2.278 z" /></g><g
         id="g278"><g
           id="g280" /><g
           mask="url(#mask286)"
           id="g294"><g
             id="g296" /><g
             id="g324"><g
               id="g322"
               clip-path="url(#clipPath300)"><g
                 id="g320"
                 transform="translate(0,-0.37796)"><g
                   id="g318"><g
                     id="g316"
                     clip-path="url(#clipPath304)"><g
                       id="g314"><g
                         id="g308"
                         transform="matrix(1,0,0,-0.564513,0,356)"><path
                           id="path306"
                           style="fill:#000000;fill-opacity:1;fill-rule:nonzero;stroke:#000000;stroke-width:0.931335;stroke-linecap:butt;stroke-linejoin:miter;stroke-miterlimit:4;stroke-dasharray:none;stroke-opacity:1"
                           d="m 154.836,412.683 v 50.707 c -0.047,0.367 -0.086,0.727 -0.086,1.1 0,9.515 15.625,17.223 34.906,17.223 19.278,0 34.906,-7.708 34.906,-17.223 0,-0.145 0.008,-0.283 0,-0.436 v -51.371 z" /></g><g
                         id="g312"
                         transform="matrix(1,0,0,-0.564513,0,356)"><path
                           id="path310"
                           style="fill:#000000;fill-opacity:1;fill-rule:nonzero;stroke:#000000;stroke-width:0.931335;stroke-linecap:butt;stroke-linejoin:miter;stroke-miterlimit:4;stroke-dasharray:none;stroke-opacity:1"
                           d="m 224.566,412.364 c 0,9.515 -15.628,17.223 -34.906,17.223 -19.277,0 -34.906,-7.708 -34.906,-17.223 0,-9.507 15.629,-17.216 34.906,-17.216 19.278,0 34.906,7.709 34.906,17.216 z" /></g></g></g></g></g></g></g></g></g><g
         transform="matrix(1,0,0,-0.564513,0,355.62204)"
         id="g326"><path
           id="path328"
           style="fill:#f7af63;fill-opacity:1;fill-rule:nonzero;stroke:#ea7e0c;stroke-width:1.37858;stroke-linecap:butt;stroke-linejoin:miter;stroke-miterlimit:4;stroke-dasharray:none;stroke-opacity:1"
           d="m 153.336,410.025 v 50.708 c -0.047,0.367 -0.086,0.726 -0.086,1.1 0,9.515 15.625,17.223 34.906,17.223 19.278,0 34.906,-7.708 34.906,-17.223 0,-0.145 0.008,-0.284 0,-0.436 v -51.372 z" /></g><g
         transform="matrix(1,0,0,-0.564513,0,355.62204)"
         id="g330"><path
           id="path332"
           style="fill:#f7af63;fill-opacity:1;fill-rule:nonzero;stroke:#ea7e0c;stroke-width:1.37858;stroke-linecap:butt;stroke-linejoin:miter;stroke-miterlimit:4;stroke-dasharray:none;stroke-opacity:1"
           d="m 223.066,409.707 c 0,9.515 -15.628,17.223 -34.906,17.223 -19.277,0 -34.906,-7.708 -34.906,-17.223 0,-9.508 15.629,-17.216 34.906,-17.216 19.278,0 34.906,7.708 34.906,17.216 z" /></g><text
         id="text336"
         style="font-variant:normal;font-weight:normal;font-size:11.1091px;font-family:'DejaVu Sans';-inkscape-font-specification:DejaVuSans;writing-mode:lr-tb;fill:#000000;fill-opacity:1;fill-rule:nonzero;stroke:none"
         transform="matrix(1,0,0,-1,166.61622,100.13001)"><tspan
           id="tspan334"
           sodipodi:role="line"
           y="0"
           x="0 6.5099111 10.842445 17.630083 21.540474 24.617683 27.694895 34.526966 40.30368">Profiles'</tspan></text><g
         transform="matrix(1,0,0,-1,0,355.62204)"
         id="g338"><path
           id="path340"
           style="fill:none;stroke:#000000;stroke-width:0.56925;stroke-linecap:butt;stroke-linejoin:miter;stroke-miterlimit:4;stroke-dasharray:none;stroke-opacity:1"
           d="m 222.367,126.195 29.215,25.508" /></g><g
         transform="matrix(-1,0.87316,0.87316,1,0,355.62204)"
         id="g342"><path
           id="path344"
           style="fill:#000000;fill-opacity:1;fill-rule:evenodd;stroke:#000000;stroke-width:0.457382;stroke-linecap:butt;stroke-linejoin:miter;stroke-miterlimit:4;stroke-dasharray:none;stroke-opacity:1"
           d="m -213.619,38.566 1.714,-1.715 -6.003,1.714 6.004,1.715 z" /></g><g
         transform="matrix(1,0,0,-1,0,355.62204)"
         id="g346"><path
           id="path348"
           style="fill:none;stroke:#000000;stroke-width:0.56925;stroke-linecap:butt;stroke-linejoin:miter;stroke-miterlimit:4;stroke-dasharray:none;stroke-opacity:1"
           d="m 220.84,232.109 27.785,-27.054" /></g><g
         transform="matrix(-1,-0.973685,-0.973685,1,0,355.62204)"
         id="g350"><path
           id="path352"
           style="fill:#000000;fill-opacity:1;fill-rule:evenodd;stroke:#000000;stroke-width:0.435041;stroke-linecap:butt;stroke-linejoin:miter;stroke-miterlimit:4;stroke-dasharray:none;stroke-opacity:1"
           d="m -21.057,-229.53 1.631,-1.631 -5.71,1.632 5.712,1.632 z" /></g><g
         transform="matrix(1,0,0,-1,0,355.62204)"
         id="g354"><path
           id="path356"
           style="fill:none;stroke:#000000;stroke-width:0.56925;stroke-linecap:butt;stroke-linejoin:miter;stroke-miterlimit:4;stroke-dasharray:none;stroke-opacity:1"
           d="m 290.062,200.57 -0.015,38.782" /></g><g
         transform="matrix(4.09997e-4,1,1,-4.09997e-4,0,355.62204)"
         id="g358"><path
           id="path360"
           style="fill:#000000;fill-opacity:1;fill-rule:evenodd;stroke:#000000;stroke-width:0.6072;stroke-linecap:butt;stroke-linejoin:miter;stroke-miterlimit:4;stroke-dasharray:none;stroke-opacity:1"
           d="m -233.541,290.143 2.276,-2.275 -7.968,2.277 7.97,2.278 z" /></g><g
         transform="matrix(0.583032,0.727691,1,-0.424267,0,355.62204)"
         id="g362"><path
           id="path364"
           style="fill:#000000;fill-opacity:1;fill-rule:nonzero;stroke:#000000;stroke-width:1.11004;stroke-linecap:butt;stroke-linejoin:miter;stroke-miterlimit:4;stroke-dasharray:none;stroke-opacity:1"
           d="m -241.523,254.16 -35.176,0.001 -35.173,0.311 17.583,-30.462 17.32,-30.618 17.588,30.461 z" /></g><g
         transform="matrix(0.583032,0.708333,1,-0.412981,0,355.62204)"
         id="g366"><path
           id="path368"
           style="fill:#f7af63;fill-opacity:1;fill-rule:nonzero;stroke:#ea7e0c;stroke-width:1.14014;stroke-linecap:butt;stroke-linejoin:miter;stroke-miterlimit:4;stroke-dasharray:none;stroke-opacity:1"
           d="m -247.908,257.542 -36.129,0.006 -36.129,0.318 18.066,-31.291 17.786,-31.448 18.065,31.288 z" /></g><text
         id="text374"
         style="font-variant:normal;font-weight:normal;font-size:11.1091px;font-family:'DejaVu Sans';-inkscape-font-specification:DejaVuSans;writing-mode:lr-tb;fill:#000000;fill-opacity:1;fill-rule:nonzero;stroke:none"
         transform="matrix(1,0,0,-1,54.410751,60.783482)"><tspan
           id="tspan370"
           sodipodi:role="line"
           y="0"
           x="0 8.7428322 15.77487 22.606943 27.172768">Query</tspan><tspan
           id="tspan372"
           sodipodi:role="line"
           y="13.886329"
           x="4.0031729 7.0803833 13.868021 20.911167 26.68788">logs'</tspan></text><g
         transform="matrix(1,0,0,-1,0,355.62204)"
         id="g376"><path
           id="path378"
           style="fill:#000000;fill-opacity:1;fill-rule:nonzero;stroke:#000000;stroke-width:0.57825;stroke-linecap:round;stroke-linejoin:round;stroke-miterlimit:4;stroke-dasharray:none;stroke-opacity:1"
           d="m 36.934,223.66 h 70.027 c 3.902,0 7.043,3.141 7.043,7.039 v 31.942 c 0,3.902 -3.141,7.043 -7.043,7.043 H 36.934 c -3.903,0 -7.043,-3.141 -7.043,-7.043 v -31.942 c 0,-3.898 3.14,-7.039 7.043,-7.039 z" /></g><text
         id="text382"
         style="font-variant:normal;font-weight:normal;font-size:11.1091px;font-family:'DejaVu Sans';-inkscape-font-specification:DejaVuSans;writing-mode:lr-tb;fill:#000000;fill-opacity:1;fill-rule:nonzero;stroke:none"
         transform="matrix(1,0,0,-1,40.986015,114.14681)"><tspan
           id="tspan380"
           y="0"
           x="0">C</tspan></text><g
         transform="matrix(1,0,0,-1,0,355.62204)"
         id="g384"><path
           id="path386"
           style="fill:none;stroke:#000000;stroke-width:0.57825;stroke-linecap:butt;stroke-linejoin:miter;stroke-miterlimit:4;stroke-dasharray:none;stroke-opacity:1"
           d="m 48.062,234.07 v 1.157 c -0.367,-0.344 -0.757,-0.598 -1.171,-0.766 -0.407,-0.164 -0.844,-0.25 -1.313,-0.25 -0.918,0 -1.621,0.281 -2.109,0.844 -0.481,0.554 -0.719,1.359 -0.719,2.422 0,1.054 0.238,1.859 0.719,2.421 0.488,0.563 1.191,0.844 2.109,0.844 0.469,0 0.906,-0.082 1.313,-0.25 0.414,-0.164 0.804,-0.422 1.171,-0.765 v 1.125 c -0.374,0.261 -0.777,0.46 -1.203,0.593 -0.418,0.125 -0.867,0.188 -1.343,0.188 -1.211,0 -2.164,-0.367 -2.86,-1.11 -0.699,-0.75 -1.047,-1.765 -1.047,-3.046 0,-1.289 0.348,-2.305 1.047,-3.047 0.696,-0.75 1.649,-1.125 2.86,-1.125 0.476,0 0.929,0.07 1.359,0.203 0.426,0.125 0.82,0.312 1.187,0.562 z" /></g><text
         id="text390"
         style="font-variant:normal;font-weight:normal;font-size:11.1091px;font-family:'DejaVu Sans';-inkscape-font-specification:DejaVuSans;writing-mode:lr-tb;fill:#000000;fill-opacity:1;fill-rule:nonzero;stroke:none"
         transform="matrix(1,0,0,-1,48.75368,114.14681)"><tspan
           id="tspan388"
           y="0"
           x="0">P</tspan></text><g
         transform="matrix(1,0,0,-1,0,355.62204)"
         id="g392"><path
           id="path394"
           style="fill:none;stroke:#000000;stroke-width:0.57825;stroke-linecap:butt;stroke-linejoin:miter;stroke-miterlimit:4;stroke-dasharray:none;stroke-opacity:1"
           d="m 50.926,234.352 v 3.015 h 1.359 c 0.5,0 0.883,-0.129 1.156,-0.39 0.282,-0.27 0.422,-0.645 0.422,-1.125 0,-0.477 -0.14,-0.848 -0.422,-1.11 -0.273,-0.258 -0.656,-0.39 -1.156,-0.39 z m -1.094,-0.891 h 2.453 c 0.895,0 1.57,0.203 2.031,0.609 0.457,0.407 0.688,1 0.688,1.782 0,0.793 -0.231,1.39 -0.688,1.796 -0.461,0.407 -1.136,0.61 -2.031,0.61 h -1.359 v 3.219 h -1.094 z" /></g><text
         id="text398"
         style="font-variant:normal;font-weight:normal;font-size:11.1091px;font-family:'DejaVu Sans';-inkscape-font-specification:DejaVuSans;writing-mode:lr-tb;fill:#000000;fill-opacity:1;fill-rule:nonzero;stroke:none"
         transform="matrix(1,0,0,-1,55.458173,114.14681)"><tspan
           id="tspan396"
           y="0"
           x="0">X</tspan></text><g
         transform="matrix(1,0,0,-1,0,355.62204)"
         id="g400"><path
           id="path402"
           style="fill:none;stroke:#000000;stroke-width:0.57825;stroke-linecap:butt;stroke-linejoin:miter;stroke-miterlimit:4;stroke-dasharray:none;stroke-opacity:1"
           d="m 56.145,233.461 h 1.171 l 1.985,2.984 2.015,-2.984 h 1.157 l -2.578,3.844 2.75,4.172 h -1.157 l -2.265,-3.407 -2.266,3.407 h -1.172 l 2.86,-4.282 z" /></g><text
         id="text406"
         style="font-variant:normal;font-weight:normal;font-size:11.1091px;font-family:'DejaVu Sans';-inkscape-font-specification:DejaVuSans;writing-mode:lr-tb;fill:#000000;fill-opacity:1;fill-rule:nonzero;stroke:none"
         transform="matrix(1,0,0,-1,66.595529,114.14681)"><tspan
           id="tspan404"
           y="0"
           x="0">P</tspan></text><g
         transform="matrix(1,0,0,-1,0,355.62204)"
         id="g408"><path
           id="path410"
           style="fill:none;stroke:#000000;stroke-width:0.57825;stroke-linecap:butt;stroke-linejoin:miter;stroke-miterlimit:4;stroke-dasharray:none;stroke-opacity:1"
           d="m 68.781,234.352 v 3.015 h 1.36 c 0.5,0 0.882,-0.129 1.156,-0.39 0.281,-0.27 0.422,-0.645 0.422,-1.125 0,-0.477 -0.141,-0.848 -0.422,-1.11 -0.274,-0.258 -0.656,-0.39 -1.156,-0.39 z m -1.093,-0.891 h 2.453 c 0.894,0 1.57,0.203 2.031,0.609 0.457,0.407 0.687,1 0.687,1.782 0,0.793 -0.23,1.39 -0.687,1.796 -0.461,0.407 -1.137,0.61 -2.031,0.61 h -1.36 v 3.219 h -1.093 z" /></g><text
         id="text414"
         style="font-variant:normal;font-weight:normal;font-size:11.1091px;font-family:'DejaVu Sans';-inkscape-font-specification:DejaVuSans;writing-mode:lr-tb;fill:#000000;fill-opacity:1;fill-rule:nonzero;stroke:none"
         transform="matrix(1,0,0,-1,73.119846,114.14681)"><tspan
           id="tspan412"
           y="0"
           x="0">r</tspan></text><g
         transform="matrix(1,0,0,-1,0,355.62204)"
         id="g416"><path
           id="path418"
           style="fill:none;stroke:#000000;stroke-width:0.57825;stroke-linecap:butt;stroke-linejoin:miter;stroke-miterlimit:4;stroke-dasharray:none;stroke-opacity:1"
           d="m 77.637,236.383 c -0.106,-0.063 -0.227,-0.11 -0.36,-0.141 -0.125,-0.031 -0.265,-0.047 -0.422,-0.047 -0.562,0 -0.996,0.184 -1.296,0.547 -0.293,0.367 -0.438,0.887 -0.438,1.563 v 3.172 h -1 v -6.016 h 1 v 0.937 c 0.195,-0.363 0.461,-0.632 0.797,-0.812 0.332,-0.176 0.738,-0.266 1.219,-0.266 0.07,0 0.144,0.008 0.218,0.016 0.083,0 0.176,0.012 0.282,0.031 z" /></g><text
         id="text422"
         style="font-variant:normal;font-weight:normal;font-size:11.1091px;font-family:'DejaVu Sans';-inkscape-font-specification:DejaVuSans;writing-mode:lr-tb;fill:#000000;fill-opacity:1;fill-rule:nonzero;stroke:none"
         transform="matrix(1,0,0,-1,77.459324,114.14681)"><tspan
           id="tspan420"
           y="0"
           x="0">o</tspan></text><g
         transform="matrix(1,0,0,-1,0,355.62204)"
         id="g424"><path
           id="path426"
           style="fill:none;stroke:#000000;stroke-width:0.57825;stroke-linecap:butt;stroke-linejoin:miter;stroke-miterlimit:4;stroke-dasharray:none;stroke-opacity:1"
           d="m 80.836,236.148 c -0.531,0 -0.953,0.211 -1.266,0.625 -0.304,0.418 -0.453,0.985 -0.453,1.704 0,0.718 0.149,1.289 0.453,1.703 0.301,0.406 0.723,0.609 1.266,0.609 0.519,0 0.93,-0.203 1.234,-0.609 0.313,-0.414 0.469,-0.985 0.469,-1.703 0,-0.719 -0.156,-1.286 -0.469,-1.704 -0.304,-0.414 -0.715,-0.625 -1.234,-0.625 z m 0,-0.828 c 0.852,0 1.523,0.282 2.016,0.844 0.488,0.555 0.734,1.324 0.734,2.313 0,0.98 -0.246,1.75 -0.734,2.312 -0.493,0.563 -1.164,0.844 -2.016,0.844 -0.867,0 -1.543,-0.281 -2.031,-0.844 -0.493,-0.562 -0.735,-1.332 -0.735,-2.312 0,-0.989 0.242,-1.758 0.735,-2.313 0.488,-0.562 1.164,-0.844 2.031,-0.844 z" /></g><text
         id="text430"
         style="font-variant:normal;font-weight:normal;font-size:11.1091px;font-family:'DejaVu Sans';-inkscape-font-specification:DejaVuSans;writing-mode:lr-tb;fill:#000000;fill-opacity:1;fill-rule:nonzero;stroke:none"
         transform="matrix(1,0,0,-1,84.250606,114.14681)"><tspan
           id="tspan428"
           y="0"
           x="0">v</tspan></text><g
         transform="matrix(1,0,0,-1,0,355.62204)"
         id="g432"><path
           id="path434"
           style="fill:none;stroke:#000000;stroke-width:0.57825;stroke-linecap:butt;stroke-linejoin:miter;stroke-miterlimit:4;stroke-dasharray:none;stroke-opacity:1"
           d="m 84.578,235.461 h 1.047 l 1.875,5.047 1.891,-5.047 h 1.047 l -2.266,6.016 h -1.344 z" /></g><text
         id="text438"
         style="font-variant:normal;font-weight:normal;font-size:11.1091px;font-family:'DejaVu Sans';-inkscape-font-specification:DejaVuSans;writing-mode:lr-tb;fill:#000000;fill-opacity:1;fill-rule:nonzero;stroke:none"
         transform="matrix(1,0,0,-1,90.824915,114.14681)"><tspan
           id="tspan436"
           y="0"
           x="0">e</tspan></text><g
         transform="matrix(1,0,0,-1,0,355.62204)"
         id="g440"><path
           id="path442"
           style="fill:none;stroke:#000000;stroke-width:0.57825;stroke-linecap:butt;stroke-linejoin:miter;stroke-miterlimit:4;stroke-dasharray:none;stroke-opacity:1"
           d="m 97.012,238.227 v 0.484 h -4.547 c 0.039,0.68 0.242,1.195 0.609,1.547 0.364,0.355 0.875,0.531 1.531,0.531 0.383,0 0.754,-0.047 1.11,-0.141 0.351,-0.093 0.707,-0.226 1.062,-0.406 v 0.922 c -0.355,0.156 -0.718,0.274 -1.093,0.344 -0.375,0.082 -0.75,0.125 -1.125,0.125 -0.969,0 -1.735,-0.274 -2.297,-0.828 -0.555,-0.563 -0.828,-1.321 -0.828,-2.282 0,-0.976 0.265,-1.753 0.796,-2.328 0.532,-0.582 1.25,-0.875 2.157,-0.875 0.801,0 1.437,0.262 1.906,0.782 0.477,0.523 0.719,1.23 0.719,2.125 z m -1,-0.297 c 0,-0.539 -0.153,-0.973 -0.453,-1.297 -0.293,-0.321 -0.684,-0.485 -1.172,-0.485 -0.555,0 -0.996,0.157 -1.328,0.469 -0.325,0.313 -0.512,0.75 -0.563,1.313 z" /></g><text
         id="text446"
         style="font-variant:normal;font-weight:normal;font-size:11.1091px;font-family:'DejaVu Sans';-inkscape-font-specification:DejaVuSans;writing-mode:lr-tb;fill:#000000;fill-opacity:1;fill-rule:nonzero;stroke:none"
         transform="matrix(1,0,0,-1,97.659592,114.14681)"><tspan
           id="tspan444"
           y="0"
           x="0">s</tspan></text><g
         transform="matrix(1,0,0,-1,0,355.62204)"
         id="g448"><path
           id="path450"
           style="fill:none;stroke:#000000;stroke-width:0.57825;stroke-linecap:butt;stroke-linejoin:miter;stroke-miterlimit:4;stroke-dasharray:none;stroke-opacity:1"
           d="m 102.535,235.633 v 0.937 c -0.281,-0.144 -0.574,-0.25 -0.875,-0.312 -0.305,-0.07 -0.617,-0.11 -0.937,-0.11 -0.493,0 -0.86,0.079 -1.11,0.235 -0.242,0.148 -0.359,0.367 -0.359,0.656 0,0.231 0.086,0.414 0.266,0.547 0.175,0.125 0.531,0.25 1.062,0.375 l 0.328,0.078 c 0.707,0.149 1.207,0.359 1.5,0.641 0.289,0.273 0.438,0.652 0.438,1.14 0,0.555 -0.219,0.996 -0.657,1.328 -0.437,0.325 -1.046,0.485 -1.828,0.485 -0.324,0 -0.664,-0.031 -1.015,-0.094 -0.344,-0.062 -0.711,-0.156 -1.094,-0.281 v -1.016 c 0.363,0.188 0.723,0.328 1.078,0.422 0.352,0.094 0.707,0.141 1.063,0.141 0.457,0 0.812,-0.078 1.062,-0.235 0.25,-0.164 0.375,-0.39 0.375,-0.672 0,-0.269 -0.09,-0.476 -0.266,-0.625 -0.179,-0.144 -0.574,-0.281 -1.187,-0.406 l -0.344,-0.094 c -0.617,-0.125 -1.058,-0.316 -1.328,-0.578 -0.273,-0.269 -0.406,-0.64 -0.406,-1.109 0,-0.563 0.195,-0.992 0.594,-1.297 0.406,-0.312 0.976,-0.469 1.718,-0.469 0.364,0 0.707,0.028 1.032,0.078 0.32,0.055 0.617,0.133 0.89,0.235 z" /></g><text
         id="text454"
         style="font-variant:normal;font-weight:normal;font-size:11.1091px;font-family:'DejaVu Sans';-inkscape-font-specification:DejaVuSans;writing-mode:lr-tb;fill:#000000;fill-opacity:1;fill-rule:nonzero;stroke:none"
         transform="matrix(1,0,0,-1,50.272499,100.26048)"><tspan
           id="tspan452"
           y="0"
           x="0">d</tspan></text><g
         transform="matrix(1,0,0,-1,0,355.62204)"
         id="g456"><path
           id="path458"
           style="fill:none;stroke:#000000;stroke-width:0.57825;stroke-linecap:butt;stroke-linejoin:miter;stroke-miterlimit:4;stroke-dasharray:none;stroke-opacity:1"
           d="m 55.273,250.254 v -3.25 h 0.985 v 8.359 h -0.985 v -0.906 c -0.211,0.367 -0.476,0.637 -0.796,0.813 -0.313,0.164 -0.696,0.25 -1.141,0.25 -0.719,0 -1.309,-0.286 -1.766,-0.86 -0.461,-0.582 -0.687,-1.348 -0.687,-2.297 0,-0.945 0.226,-1.707 0.687,-2.281 0.457,-0.582 1.047,-0.875 1.766,-0.875 0.445,0 0.828,0.09 1.141,0.266 0.32,0.168 0.585,0.429 0.796,0.781 z m -3.375,2.109 c 0,0.731 0.149,1.305 0.454,1.719 0.3,0.406 0.71,0.609 1.234,0.609 0.519,0 0.93,-0.203 1.234,-0.609 0.301,-0.414 0.453,-0.988 0.453,-1.719 0,-0.726 -0.152,-1.297 -0.453,-1.703 -0.304,-0.414 -0.715,-0.625 -1.234,-0.625 -0.524,0 -0.934,0.211 -1.234,0.625 -0.305,0.406 -0.454,0.977 -0.454,1.703 z" /></g><text
         id="text462"
         style="font-variant:normal;font-weight:normal;font-size:11.1091px;font-family:'DejaVu Sans';-inkscape-font-specification:DejaVuSans;writing-mode:lr-tb;fill:#000000;fill-opacity:1;fill-rule:nonzero;stroke:none"
         transform="matrix(1,0,0,-1,57.324148,100.26048)"><tspan
           id="tspan460"
           y="0"
           x="0">'</tspan></text><g
         transform="matrix(1,0,0,-1,0,355.62204)"
         id="g464"><path
           id="path466"
           style="fill:none;stroke:#000000;stroke-width:0.57825;stroke-linecap:butt;stroke-linejoin:miter;stroke-miterlimit:4;stroke-dasharray:none;stroke-opacity:1"
           d="m 58.387,247.348 h 0.906 v 2.984 h -0.906 z" /></g><text
         id="text470"
         style="font-variant:normal;font-weight:normal;font-size:11.1091px;font-family:'DejaVu Sans';-inkscape-font-specification:DejaVuSans;writing-mode:lr-tb;fill:#000000;fill-opacity:1;fill-rule:nonzero;stroke:none"
         transform="matrix(1,0,0,-1,60.38348,100.26048)"><tspan
           id="tspan468"
           y="0"
           x="0">e</tspan></text><g
         transform="matrix(1,0,0,-1,0,355.62204)"
         id="g472"><path
           id="path474"
           style="fill:none;stroke:#000000;stroke-width:0.57825;stroke-linecap:butt;stroke-linejoin:miter;stroke-miterlimit:4;stroke-dasharray:none;stroke-opacity:1"
           d="m 66.57,252.113 v 0.485 h -4.547 c 0.039,0.679 0.243,1.195 0.61,1.547 0.363,0.355 0.875,0.531 1.531,0.531 0.383,0 0.754,-0.047 1.109,-0.141 0.352,-0.094 0.707,-0.226 1.063,-0.406 v 0.922 c -0.356,0.156 -0.719,0.273 -1.094,0.344 -0.375,0.082 -0.75,0.125 -1.125,0.125 -0.969,0 -1.734,-0.274 -2.297,-0.829 -0.554,-0.562 -0.828,-1.32 -0.828,-2.281 0,-0.976 0.266,-1.754 0.797,-2.328 0.531,-0.582 1.25,-0.875 2.156,-0.875 0.801,0 1.438,0.262 1.907,0.781 0.476,0.524 0.718,1.231 0.718,2.125 z m -1,-0.297 c 0,-0.539 -0.152,-0.972 -0.453,-1.296 -0.293,-0.321 -0.683,-0.485 -1.172,-0.485 -0.554,0 -0.996,0.156 -1.328,0.469 -0.324,0.312 -0.512,0.75 -0.562,1.312 z" /></g><text
         id="text478"
         style="font-variant:normal;font-weight:normal;font-size:11.1091px;font-family:'DejaVu Sans';-inkscape-font-specification:DejaVuSans;writing-mode:lr-tb;fill:#000000;fill-opacity:1;fill-rule:nonzero;stroke:none"
         transform="matrix(1,0,0,-1,67.218157,100.26048)"><tspan
           id="tspan476"
           y="0"
           x="0">s</tspan></text><g
         transform="matrix(1,0,0,-1,0,355.62204)"
         id="g480"><path
           id="path482"
           style="fill:none;stroke:#000000;stroke-width:0.57825;stroke-linecap:butt;stroke-linejoin:miter;stroke-miterlimit:4;stroke-dasharray:none;stroke-opacity:1"
           d="m 72.094,249.52 v 0.937 c -0.282,-0.145 -0.574,-0.25 -0.875,-0.312 -0.305,-0.071 -0.617,-0.11 -0.938,-0.11 -0.492,0 -0.859,0.078 -1.109,0.235 -0.242,0.148 -0.36,0.367 -0.36,0.656 0,0.23 0.086,0.414 0.266,0.547 0.176,0.125 0.531,0.25 1.063,0.375 l 0.328,0.078 c 0.707,0.148 1.207,0.359 1.5,0.64 0.289,0.274 0.437,0.653 0.437,1.141 0,0.555 -0.218,0.996 -0.656,1.328 -0.438,0.324 -1.047,0.485 -1.828,0.485 -0.324,0 -0.664,-0.032 -1.016,-0.094 -0.344,-0.063 -0.711,-0.156 -1.094,-0.281 v -1.016 c 0.364,0.187 0.723,0.328 1.079,0.422 0.351,0.094 0.707,0.14 1.062,0.14 0.457,0 0.813,-0.078 1.063,-0.234 0.25,-0.164 0.375,-0.391 0.375,-0.672 0,-0.269 -0.09,-0.476 -0.266,-0.625 -0.18,-0.144 -0.574,-0.281 -1.187,-0.406 l -0.344,-0.094 c -0.617,-0.125 -1.059,-0.316 -1.328,-0.578 -0.274,-0.27 -0.407,-0.641 -0.407,-1.109 0,-0.563 0.196,-0.993 0.594,-1.297 0.406,-0.313 0.977,-0.469 1.719,-0.469 0.363,0 0.707,0.027 1.031,0.078 0.32,0.055 0.617,0.133 0.891,0.235 z" /></g><text
         id="text486"
         style="font-variant:normal;font-weight:normal;font-size:11.1091px;font-family:'DejaVu Sans';-inkscape-font-specification:DejaVuSans;writing-mode:lr-tb;fill:#000000;fill-opacity:1;fill-rule:nonzero;stroke:none"
         transform="matrix(1,0,0,-1,73.011359,100.26048)"><tspan
           id="tspan484"
           y="0"
           x="0">f</tspan></text><g
         transform="matrix(1,0,0,-1,0,355.62204)"
         id="g488"><path
           id="path490"
           style="fill:none;stroke:#000000;stroke-width:0.57825;stroke-linecap:butt;stroke-linejoin:miter;stroke-miterlimit:4;stroke-dasharray:none;stroke-opacity:1"
           d="m 77.09,247.004 v 0.828 h -0.938 c -0.355,0 -0.605,0.074 -0.75,0.219 -0.136,0.137 -0.203,0.39 -0.203,0.765 v 0.532 h 1.625 v 0.765 h -1.625 v 5.25 h -0.984 v -5.25 h -0.953 v -0.765 h 0.953 v -0.422 c 0,-0.664 0.148,-1.149 0.453,-1.453 0.312,-0.313 0.805,-0.469 1.484,-0.469 z" /></g><text
         id="text494"
         style="font-variant:normal;font-weight:normal;font-size:11.1091px;font-family:'DejaVu Sans';-inkscape-font-specification:DejaVuSans;writing-mode:lr-tb;fill:#000000;fill-opacity:1;fill-rule:nonzero;stroke:none"
         transform="matrix(1,0,0,-1,76.916889,100.26048)"><tspan
           id="tspan492"
           y="0"
           x="0">o</tspan></text><g
         transform="matrix(1,0,0,-1,0,355.62204)"
         id="g496"><path
           id="path498"
           style="fill:none;stroke:#000000;stroke-width:0.57825;stroke-linecap:butt;stroke-linejoin:miter;stroke-miterlimit:4;stroke-dasharray:none;stroke-opacity:1"
           d="m 80.293,250.035 c -0.531,0 -0.953,0.211 -1.266,0.625 -0.304,0.418 -0.453,0.985 -0.453,1.703 0,0.719 0.149,1.289 0.453,1.703 0.301,0.407 0.723,0.61 1.266,0.61 0.519,0 0.93,-0.203 1.234,-0.61 0.313,-0.414 0.469,-0.984 0.469,-1.703 0,-0.718 -0.156,-1.285 -0.469,-1.703 -0.304,-0.414 -0.715,-0.625 -1.234,-0.625 z m 0,-0.828 c 0.852,0 1.523,0.281 2.016,0.844 0.488,0.554 0.734,1.324 0.734,2.312 0,0.981 -0.246,1.75 -0.734,2.313 -0.493,0.562 -1.164,0.844 -2.016,0.844 -0.867,0 -1.543,-0.282 -2.031,-0.844 -0.492,-0.563 -0.735,-1.332 -0.735,-2.313 0,-0.988 0.243,-1.758 0.735,-2.312 0.488,-0.563 1.164,-0.844 2.031,-0.844 z" /></g><text
         id="text502"
         style="font-variant:normal;font-weight:normal;font-size:11.1091px;font-family:'DejaVu Sans';-inkscape-font-specification:DejaVuSans;writing-mode:lr-tb;fill:#000000;fill-opacity:1;fill-rule:nonzero;stroke:none"
         transform="matrix(1,0,0,-1,83.708171,100.26048)"><tspan
           id="tspan500"
           y="0"
           x="0">r</tspan></text><g
         transform="matrix(1,0,0,-1,0,355.62204)"
         id="g504"><path
           id="path506"
           style="fill:none;stroke:#000000;stroke-width:0.57825;stroke-linecap:butt;stroke-linejoin:miter;stroke-miterlimit:4;stroke-dasharray:none;stroke-opacity:1"
           d="m 88.223,250.27 c -0.106,-0.063 -0.227,-0.11 -0.36,-0.141 -0.125,-0.031 -0.265,-0.047 -0.422,-0.047 -0.562,0 -0.996,0.184 -1.296,0.547 -0.293,0.367 -0.438,0.887 -0.438,1.562 v 3.172 h -1 v -6.015 h 1 v 0.937 c 0.195,-0.363 0.461,-0.633 0.797,-0.812 0.332,-0.176 0.738,-0.266 1.219,-0.266 0.07,0 0.144,0.008 0.218,0.016 0.082,0 0.176,0.011 0.282,0.031 z" /></g><text
         id="text510"
         style="font-variant:normal;font-weight:normal;font-size:11.1091px;font-family:'DejaVu Sans';-inkscape-font-specification:DejaVuSans;writing-mode:lr-tb;fill:#000000;fill-opacity:1;fill-rule:nonzero;stroke:none"
         transform="matrix(1,0,0,-1,88.047649,100.26048)"><tspan
           id="tspan508"
           y="0"
           x="0">รง</tspan></text><g
         transform="matrix(1,0,0,-1,0,355.62204)"
         id="g512"><path
           id="path514"
           style="fill:none;stroke:#000000;stroke-width:0.57825;stroke-linecap:butt;stroke-linejoin:miter;stroke-miterlimit:4;stroke-dasharray:none;stroke-opacity:1"
           d="m 93.406,249.582 v 0.922 c -0.273,-0.156 -0.547,-0.27 -0.828,-0.344 -0.281,-0.082 -0.57,-0.125 -0.859,-0.125 -0.637,0 -1.133,0.203 -1.485,0.61 -0.355,0.406 -0.531,0.98 -0.531,1.718 0,0.731 0.176,1.297 0.531,1.703 0.352,0.407 0.848,0.61 1.485,0.61 0.289,0 0.578,-0.035 0.859,-0.11 0.281,-0.07 0.555,-0.187 0.828,-0.343 v 0.906 c -0.273,0.137 -0.558,0.234 -0.859,0.297 -0.293,0.062 -0.606,0.094 -0.938,0.094 -0.906,0 -1.625,-0.282 -2.156,-0.844 -0.531,-0.571 -0.797,-1.344 -0.797,-2.313 0,-0.976 0.266,-1.75 0.797,-2.312 0.539,-0.563 1.281,-0.844 2.219,-0.844 0.312,0 0.609,0.031 0.89,0.094 0.29,0.062 0.571,0.156 0.844,0.281 z m -1.156,5.781 c 0.195,0.219 0.344,0.422 0.438,0.61 0.093,0.187 0.14,0.367 0.14,0.547 0,0.32 -0.109,0.562 -0.328,0.718 -0.211,0.164 -0.523,0.25 -0.938,0.25 -0.167,0 -0.328,-0.011 -0.484,-0.031 -0.156,-0.023 -0.312,-0.055 -0.469,-0.094 v -0.703 c 0.125,0.051 0.25,0.094 0.375,0.125 0.133,0.031 0.286,0.047 0.454,0.047 0.218,0 0.378,-0.047 0.484,-0.141 0.101,-0.086 0.156,-0.211 0.156,-0.375 0,-0.105 -0.043,-0.234 -0.125,-0.39 -0.074,-0.156 -0.187,-0.344 -0.344,-0.563 z" /></g><g
         transform="matrix(1,0,0,-1,0,355.62204)"
         id="g516"><path
           id="path518"
           style="fill:#000000;fill-opacity:1;fill-rule:nonzero;stroke:#000000;stroke-width:0.57825;stroke-linecap:butt;stroke-linejoin:miter;stroke-miterlimit:4;stroke-dasharray:none;stroke-opacity:1"
           d="m 102.531,265.867 c -0.187,-0.027 -0.469,-0.137 -0.648,-0.254 -0.399,-0.258 -0.668,-0.664 -0.754,-1.133 -0.043,-0.25 -0.043,-5.179 0,-5.425 0.129,-0.711 0.672,-1.254 1.383,-1.383 0.246,-0.043 5.199,-0.043 5.445,0 0.711,0.129 1.254,0.672 1.379,1.383 0.047,0.246 0.047,5.175 0,5.425 -0.113,0.625 -0.535,1.11 -1.152,1.325 l -0.215,0.074 -2.657,0.004 c -1.46,0.004 -2.71,-0.004 -2.781,-0.016 z m 3.739,-3.086 0.007,-0.25 -0.086,-0.023 c -0.136,-0.039 -0.152,-0.067 -0.121,-0.25 0.032,-0.192 0.035,-1.133 0.004,-1.301 -0.074,-0.398 -0.328,-0.617 -0.742,-0.641 -0.504,-0.031 -0.809,0.196 -0.894,0.657 -0.016,0.082 -0.024,0.339 -0.016,0.691 0.008,0.516 0.012,0.574 0.062,0.715 0.063,0.191 0.184,0.328 0.352,0.41 0.121,0.059 0.148,0.066 0.41,0.066 0.246,0 0.293,-0.007 0.395,-0.054 l 0.117,-0.051 0.121,0.121 c 0.09,0.094 0.144,0.129 0.219,0.145 0.172,0.039 0.168,0.046 0.172,-0.235 z m -1.176,-0.386 c -0.125,-0.079 -0.145,-0.196 -0.137,-0.856 0.008,-0.492 0.012,-0.578 0.047,-0.641 0.051,-0.089 0.144,-0.14 0.262,-0.14 0.125,0 0.214,0.051 0.25,0.14 0.027,0.079 0.058,0.84 0.035,0.903 -0.012,0.031 -0.024,0.027 -0.09,-0.024 -0.043,-0.031 -0.106,-0.058 -0.141,-0.062 l -0.062,-0.004 -0.016,0.414 0.09,0.055 c 0.047,0.031 0.098,0.082 0.109,0.113 0.059,0.121 -0.191,0.195 -0.347,0.102 z m -1.653,0.437 c 0.149,-0.043 0.313,-0.156 0.395,-0.266 0.207,-0.285 0.156,-0.781 -0.102,-0.988 -0.113,-0.094 -0.25,-0.16 -0.546,-0.269 -0.129,-0.047 -0.258,-0.106 -0.29,-0.133 -0.066,-0.055 -0.125,-0.176 -0.105,-0.231 0.051,-0.156 0.125,-0.211 0.289,-0.211 0.121,0 0.242,0.059 0.348,0.168 0.039,0.043 0.082,0.078 0.093,0.078 0.032,0 0.356,-0.21 0.364,-0.242 0.008,-0.015 -0.047,-0.09 -0.125,-0.168 -0.172,-0.172 -0.328,-0.238 -0.586,-0.254 -0.391,-0.027 -0.672,0.11 -0.805,0.383 -0.082,0.176 -0.086,0.395 -0.016,0.586 0.086,0.227 0.274,0.363 0.778,0.559 0.09,0.035 0.199,0.097 0.242,0.133 0.07,0.058 0.082,0.082 0.082,0.171 0.004,0.125 -0.031,0.192 -0.125,0.247 -0.094,0.058 -0.285,0.058 -0.41,0 -0.082,-0.036 -0.11,-0.067 -0.227,-0.219 l -0.039,-0.051 -0.125,0.082 c -0.269,0.18 -0.273,0.18 -0.234,0.254 0.055,0.109 0.234,0.269 0.359,0.328 0.211,0.098 0.528,0.113 0.785,0.043 z m 4.805,-0.047 c 0.02,-0.008 0.024,-0.062 0.02,-0.219 l -0.004,-0.207 h -0.524 c -0.422,-0.004 -0.527,-0.007 -0.547,-0.035 -0.011,-0.019 -0.019,-0.437 -0.015,-0.996 l 0.004,-0.961 h -0.535 l -0.004,1.199 c -0.004,0.657 -0.004,1.207 0.004,1.219 0.007,0.024 1.535,0.024 1.601,0 z" /></g><g
         transform="matrix(1,0,0,-1,0,355.62204)"
         id="g520"><path
           id="path522"
           style="fill:#f7af63;fill-opacity:1;fill-rule:nonzero;stroke:#ea7e0c;stroke-width:1.11075;stroke-linecap:round;stroke-linejoin:round;stroke-miterlimit:4;stroke-dasharray:none;stroke-opacity:1"
           d="m 35.434,222.16 h 70.027 c 3.902,0 7.043,3.141 7.043,7.039 v 31.942 c 0,3.902 -3.141,7.043 -7.043,7.043 H 35.434 c -3.903,0 -7.043,-3.141 -7.043,-7.043 v -31.942 c 0,-3.898 3.14,-7.039 7.043,-7.039 z" /></g><text
         id="text528"
         style="font-variant:normal;font-weight:normal;font-size:11.1091px;font-family:'DejaVu Sans';-inkscape-font-specification:DejaVuSans;writing-mode:lr-tb;fill:#000000;fill-opacity:1;fill-rule:nonzero;stroke:none"
         transform="matrix(1,0,0,-1,61.140647,115.64678)"><tspan
           id="tspan524"
           sodipodi:role="line"
           y="0"
           x="0 8.553978 15.386051">De-</tspan><tspan
           id="tspan526"
           sodipodi:role="line"
           y="13.886305"
           x="-23.530815 -15.932217 -8.9001808 -2.1125436 4.9194927 11.484948 22.305174 25.382385 31.203533 38.035606">Anonymizer</tspan></text><g
         transform="matrix(1,0,0,-1,0,355.62204)"
         id="g530"><path
           id="path532"
           style="fill:#000000;fill-opacity:1;fill-rule:nonzero;stroke:#000000;stroke-width:0.57825;stroke-linecap:round;stroke-linejoin:round;stroke-miterlimit:4;stroke-dasharray:none;stroke-opacity:1"
           d="m 257.867,159.219 h 70.028 c 3.902,0 7.043,3.14 7.043,7.043 v 31.937 c 0,3.903 -3.141,7.043 -7.043,7.043 h -70.028 c -3.902,0 -7.043,-3.14 -7.043,-7.043 v -31.937 c 0,-3.903 3.141,-7.043 7.043,-7.043 z" /></g><text
         id="text536"
         style="font-variant:normal;font-weight:normal;font-size:11.1091px;font-family:'DejaVu Sans';-inkscape-font-specification:DejaVuSans;writing-mode:lr-tb;fill:#000000;fill-opacity:1;fill-rule:nonzero;stroke:none"
         transform="matrix(1,0,0,-1,261.91893,178.58593)"><tspan
           id="tspan534"
           y="0"
           x="0">C</tspan></text><g
         transform="matrix(1,0,0,-1,0,355.62204)"
         id="g538"><path
           id="path540"
           style="fill:none;stroke:#000000;stroke-width:0.57825;stroke-linecap:butt;stroke-linejoin:miter;stroke-miterlimit:4;stroke-dasharray:none;stroke-opacity:1"
           d="m 268.996,169.629 v 1.156 c -0.367,-0.344 -0.758,-0.597 -1.172,-0.765 -0.406,-0.165 -0.844,-0.25 -1.312,-0.25 -0.918,0 -1.621,0.281 -2.11,0.843 -0.48,0.555 -0.718,1.36 -0.718,2.422 0,1.055 0.238,1.86 0.718,2.422 0.489,0.563 1.192,0.844 2.11,0.844 0.468,0 0.906,-0.082 1.312,-0.25 0.414,-0.164 0.805,-0.422 1.172,-0.766 v 1.125 c -0.375,0.262 -0.777,0.461 -1.203,0.594 -0.418,0.125 -0.867,0.187 -1.344,0.187 -1.211,0 -2.164,-0.367 -2.859,-1.109 -0.699,-0.75 -1.047,-1.766 -1.047,-3.047 0,-1.289 0.348,-2.305 1.047,-3.047 0.695,-0.75 1.648,-1.125 2.859,-1.125 0.477,0 0.93,0.071 1.36,0.203 0.425,0.125 0.82,0.313 1.187,0.563 z" /></g><text
         id="text544"
         style="font-variant:normal;font-weight:normal;font-size:11.1091px;font-family:'DejaVu Sans';-inkscape-font-specification:DejaVuSans;writing-mode:lr-tb;fill:#000000;fill-opacity:1;fill-rule:nonzero;stroke:none"
         transform="matrix(1,0,0,-1,269.68659,178.58593)"><tspan
           id="tspan542"
           y="0"
           x="0">P</tspan></text><g
         transform="matrix(1,0,0,-1,0,355.62204)"
         id="g546"><path
           id="path548"
           style="fill:none;stroke:#000000;stroke-width:0.57825;stroke-linecap:butt;stroke-linejoin:miter;stroke-miterlimit:4;stroke-dasharray:none;stroke-opacity:1"
           d="m 271.859,169.91 v 3.016 h 1.36 c 0.5,0 0.883,-0.129 1.156,-0.391 0.281,-0.269 0.422,-0.644 0.422,-1.125 0,-0.476 -0.141,-0.848 -0.422,-1.109 -0.273,-0.258 -0.656,-0.391 -1.156,-0.391 z m -1.093,-0.89 h 2.453 c 0.894,0 1.57,0.203 2.031,0.609 0.457,0.406 0.688,1 0.688,1.781 0,0.793 -0.231,1.391 -0.688,1.797 -0.461,0.406 -1.137,0.609 -2.031,0.609 h -1.36 v 3.219 h -1.093 z" /></g><text
         id="text552"
         style="font-variant:normal;font-weight:normal;font-size:11.1091px;font-family:'DejaVu Sans';-inkscape-font-specification:DejaVuSans;writing-mode:lr-tb;fill:#000000;fill-opacity:1;fill-rule:nonzero;stroke:none"
         transform="matrix(1,0,0,-1,276.39109,178.58593)"><tspan
           id="tspan550"
           y="0"
           x="0">X</tspan></text><g
         transform="matrix(1,0,0,-1,0,355.62204)"
         id="g554"><path
           id="path556"
           style="fill:none;stroke:#000000;stroke-width:0.57825;stroke-linecap:butt;stroke-linejoin:miter;stroke-miterlimit:4;stroke-dasharray:none;stroke-opacity:1"
           d="m 277.078,169.02 h 1.172 l 1.984,2.984 2.016,-2.984 h 1.156 l -2.578,3.843 2.75,4.172 h -1.156 l -2.266,-3.406 -2.265,3.406 h -1.172 l 2.859,-4.281 z" /></g><text
         id="text560"
         style="font-variant:normal;font-weight:normal;font-size:11.1091px;font-family:'DejaVu Sans';-inkscape-font-specification:DejaVuSans;writing-mode:lr-tb;fill:#000000;fill-opacity:1;fill-rule:nonzero;stroke:none"
         transform="matrix(1,0,0,-1,287.52844,178.58593)"><tspan
           id="tspan558"
           y="0"
           x="0">P</tspan></text><g
         transform="matrix(1,0,0,-1,0,355.62204)"
         id="g562"><path
           id="path564"
           style="fill:none;stroke:#000000;stroke-width:0.57825;stroke-linecap:butt;stroke-linejoin:miter;stroke-miterlimit:4;stroke-dasharray:none;stroke-opacity:1"
           d="m 289.715,169.91 v 3.016 h 1.359 c 0.5,0 0.883,-0.129 1.156,-0.391 0.282,-0.269 0.422,-0.644 0.422,-1.125 0,-0.476 -0.14,-0.848 -0.422,-1.109 -0.273,-0.258 -0.656,-0.391 -1.156,-0.391 z m -1.094,-0.89 h 2.453 c 0.895,0 1.571,0.203 2.031,0.609 0.457,0.406 0.688,1 0.688,1.781 0,0.793 -0.231,1.391 -0.688,1.797 -0.46,0.406 -1.136,0.609 -2.031,0.609 h -1.359 v 3.219 h -1.094 z" /></g><text
         id="text568"
         style="font-variant:normal;font-weight:normal;font-size:11.1091px;font-family:'DejaVu Sans';-inkscape-font-specification:DejaVuSans;writing-mode:lr-tb;fill:#000000;fill-opacity:1;fill-rule:nonzero;stroke:none"
         transform="matrix(1,0,0,-1,294.05276,178.58593)"><tspan
           id="tspan566"
           y="0"
           x="0">r</tspan></text><g
         transform="matrix(1,0,0,-1,0,355.62204)"
         id="g570"><path
           id="path572"
           style="fill:none;stroke:#000000;stroke-width:0.57825;stroke-linecap:butt;stroke-linejoin:miter;stroke-miterlimit:4;stroke-dasharray:none;stroke-opacity:1"
           d="m 298.57,171.941 c -0.105,-0.062 -0.226,-0.109 -0.359,-0.14 -0.125,-0.031 -0.266,-0.047 -0.422,-0.047 -0.562,0 -0.996,0.184 -1.297,0.547 -0.293,0.367 -0.437,0.887 -0.437,1.562 v 3.172 h -1 v -6.015 h 1 v 0.937 c 0.195,-0.363 0.461,-0.633 0.797,-0.812 0.332,-0.176 0.738,-0.266 1.218,-0.266 0.071,0 0.145,0.008 0.219,0.016 0.082,0 0.176,0.011 0.281,0.031 z" /></g><text
         id="text576"
         style="font-variant:normal;font-weight:normal;font-size:11.1091px;font-family:'DejaVu Sans';-inkscape-font-specification:DejaVuSans;writing-mode:lr-tb;fill:#000000;fill-opacity:1;fill-rule:nonzero;stroke:none"
         transform="matrix(1,0,0,-1,298.39224,178.58593)"><tspan
           id="tspan574"
           y="0"
           x="0">o</tspan></text><g
         transform="matrix(1,0,0,-1,0,355.62204)"
         id="g578"><path
           id="path580"
           style="fill:none;stroke:#000000;stroke-width:0.57825;stroke-linecap:butt;stroke-linejoin:miter;stroke-miterlimit:4;stroke-dasharray:none;stroke-opacity:1"
           d="m 301.766,171.707 c -0.532,0 -0.954,0.211 -1.266,0.625 -0.305,0.418 -0.453,0.984 -0.453,1.703 0,0.719 0.148,1.289 0.453,1.703 0.301,0.407 0.723,0.61 1.266,0.61 0.519,0 0.929,-0.203 1.234,-0.61 0.312,-0.414 0.469,-0.984 0.469,-1.703 0,-0.719 -0.157,-1.285 -0.469,-1.703 -0.305,-0.414 -0.715,-0.625 -1.234,-0.625 z m 0,-0.828 c 0.851,0 1.523,0.281 2.015,0.844 0.489,0.554 0.735,1.324 0.735,2.312 0,0.981 -0.246,1.75 -0.735,2.313 -0.492,0.562 -1.164,0.843 -2.015,0.843 -0.868,0 -1.543,-0.281 -2.032,-0.843 -0.492,-0.563 -0.734,-1.332 -0.734,-2.313 0,-0.988 0.242,-1.758 0.734,-2.312 0.489,-0.563 1.164,-0.844 2.032,-0.844 z" /></g><text
         id="text584"
         style="font-variant:normal;font-weight:normal;font-size:11.1091px;font-family:'DejaVu Sans';-inkscape-font-specification:DejaVuSans;writing-mode:lr-tb;fill:#000000;fill-opacity:1;fill-rule:nonzero;stroke:none"
         transform="matrix(1,0,0,-1,305.18352,178.58593)"><tspan
           id="tspan582"
           y="0"
           x="0">v</tspan></text><g
         transform="matrix(1,0,0,-1,0,355.62204)"
         id="g586"><path
           id="path588"
           style="fill:none;stroke:#000000;stroke-width:0.57825;stroke-linecap:butt;stroke-linejoin:miter;stroke-miterlimit:4;stroke-dasharray:none;stroke-opacity:1"
           d="m 305.512,171.02 h 1.047 l 1.875,5.046 1.89,-5.046 h 1.047 l -2.266,6.015 h -1.343 z" /></g><text
         id="text592"
         style="font-variant:normal;font-weight:normal;font-size:11.1091px;font-family:'DejaVu Sans';-inkscape-font-specification:DejaVuSans;writing-mode:lr-tb;fill:#000000;fill-opacity:1;fill-rule:nonzero;stroke:none"
         transform="matrix(1,0,0,-1,311.75783,178.58593)"><tspan
           id="tspan590"
           y="0"
           x="0">e</tspan></text><g
         transform="matrix(1,0,0,-1,0,355.62204)"
         id="g594"><path
           id="path596"
           style="fill:none;stroke:#000000;stroke-width:0.57825;stroke-linecap:butt;stroke-linejoin:miter;stroke-miterlimit:4;stroke-dasharray:none;stroke-opacity:1"
           d="m 317.945,173.785 v 0.485 h -4.547 c 0.04,0.679 0.243,1.195 0.61,1.546 0.363,0.356 0.875,0.532 1.531,0.532 0.383,0 0.754,-0.047 1.109,-0.141 0.352,-0.094 0.707,-0.227 1.063,-0.406 v 0.922 c -0.356,0.156 -0.719,0.273 -1.094,0.343 -0.375,0.082 -0.75,0.125 -1.125,0.125 -0.969,0 -1.734,-0.273 -2.297,-0.828 -0.554,-0.562 -0.828,-1.32 -0.828,-2.281 0,-0.977 0.266,-1.754 0.797,-2.328 0.531,-0.582 1.25,-0.875 2.156,-0.875 0.801,0 1.438,0.262 1.907,0.781 0.476,0.524 0.718,1.231 0.718,2.125 z m -1,-0.297 c 0,-0.539 -0.152,-0.972 -0.453,-1.297 -0.293,-0.32 -0.683,-0.484 -1.172,-0.484 -0.554,0 -0.996,0.156 -1.328,0.469 -0.324,0.312 -0.512,0.75 -0.562,1.312 z" /></g><text
         id="text600"
         style="font-variant:normal;font-weight:normal;font-size:11.1091px;font-family:'DejaVu Sans';-inkscape-font-specification:DejaVuSans;writing-mode:lr-tb;fill:#000000;fill-opacity:1;fill-rule:nonzero;stroke:none"
         transform="matrix(1,0,0,-1,318.59251,178.58593)"><tspan
           id="tspan598"
           y="0"
           x="0">s</tspan></text><g
         transform="matrix(1,0,0,-1,0,355.62204)"
         id="g602"><path
           id="path604"
           style="fill:none;stroke:#000000;stroke-width:0.57825;stroke-linecap:butt;stroke-linejoin:miter;stroke-miterlimit:4;stroke-dasharray:none;stroke-opacity:1"
           d="m 323.469,171.191 v 0.938 c -0.281,-0.145 -0.574,-0.25 -0.875,-0.313 -0.305,-0.07 -0.617,-0.109 -0.938,-0.109 -0.492,0 -0.859,0.078 -1.109,0.234 -0.242,0.149 -0.359,0.368 -0.359,0.657 0,0.23 0.085,0.414 0.265,0.547 0.176,0.125 0.531,0.25 1.063,0.375 l 0.328,0.078 c 0.707,0.148 1.207,0.359 1.5,0.64 0.289,0.274 0.437,0.653 0.437,1.141 0,0.555 -0.219,0.996 -0.656,1.328 -0.437,0.324 -1.047,0.484 -1.828,0.484 -0.324,0 -0.664,-0.031 -1.016,-0.093 -0.343,-0.063 -0.711,-0.157 -1.093,-0.282 v -1.015 c 0.363,0.187 0.722,0.328 1.078,0.422 0.351,0.093 0.707,0.14 1.062,0.14 0.457,0 0.813,-0.078 1.063,-0.234 0.25,-0.164 0.375,-0.391 0.375,-0.672 0,-0.269 -0.09,-0.477 -0.266,-0.625 -0.18,-0.144 -0.574,-0.281 -1.188,-0.406 l -0.343,-0.094 c -0.617,-0.125 -1.059,-0.316 -1.328,-0.578 -0.274,-0.27 -0.407,-0.641 -0.407,-1.109 0,-0.563 0.196,-0.993 0.594,-1.297 0.406,-0.313 0.977,-0.469 1.719,-0.469 0.363,0 0.707,0.027 1.031,0.078 0.32,0.055 0.617,0.133 0.891,0.234 z" /></g><text
         id="text608"
         style="font-variant:normal;font-weight:normal;font-size:11.1091px;font-family:'DejaVu Sans';-inkscape-font-specification:DejaVuSans;writing-mode:lr-tb;fill:#000000;fill-opacity:1;fill-rule:nonzero;stroke:none"
         transform="matrix(1,0,0,-1,271.20541,164.6996)"><tspan
           id="tspan606"
           y="0"
           x="0">d</tspan></text><g
         transform="matrix(1,0,0,-1,0,355.62204)"
         id="g610"><path
           id="path612"
           style="fill:none;stroke:#000000;stroke-width:0.57825;stroke-linecap:butt;stroke-linejoin:miter;stroke-miterlimit:4;stroke-dasharray:none;stroke-opacity:1"
           d="m 276.207,185.812 v -3.25 h 0.984 v 8.36 h -0.984 v -0.906 c -0.211,0.367 -0.477,0.636 -0.797,0.812 -0.312,0.164 -0.695,0.25 -1.14,0.25 -0.719,0 -1.309,-0.285 -1.766,-0.859 -0.461,-0.582 -0.688,-1.348 -0.688,-2.297 0,-0.945 0.227,-1.707 0.688,-2.281 0.457,-0.582 1.047,-0.875 1.766,-0.875 0.445,0 0.828,0.089 1.14,0.265 0.32,0.168 0.586,0.43 0.797,0.781 z m -3.375,2.11 c 0,0.73 0.148,1.305 0.453,1.719 0.301,0.406 0.711,0.609 1.235,0.609 0.519,0 0.929,-0.203 1.234,-0.609 0.301,-0.414 0.453,-0.989 0.453,-1.719 0,-0.727 -0.152,-1.297 -0.453,-1.703 -0.305,-0.414 -0.715,-0.625 -1.234,-0.625 -0.524,0 -0.934,0.211 -1.235,0.625 -0.305,0.406 -0.453,0.976 -0.453,1.703 z" /></g><text
         id="text616"
         style="font-variant:normal;font-weight:normal;font-size:11.1091px;font-family:'DejaVu Sans';-inkscape-font-specification:DejaVuSans;writing-mode:lr-tb;fill:#000000;fill-opacity:1;fill-rule:nonzero;stroke:none"
         transform="matrix(1,0,0,-1,278.25706,164.6996)"><tspan
           id="tspan614"
           y="0"
           x="0">'</tspan></text><g
         transform="matrix(1,0,0,-1,0,355.62204)"
         id="g618"><path
           id="path620"
           style="fill:none;stroke:#000000;stroke-width:0.57825;stroke-linecap:butt;stroke-linejoin:miter;stroke-miterlimit:4;stroke-dasharray:none;stroke-opacity:1"
           d="m 279.32,182.906 h 0.906 v 2.984 h -0.906 z" /></g><text
         id="text624"
         style="font-variant:normal;font-weight:normal;font-size:11.1091px;font-family:'DejaVu Sans';-inkscape-font-specification:DejaVuSans;writing-mode:lr-tb;fill:#000000;fill-opacity:1;fill-rule:nonzero;stroke:none"
         transform="matrix(1,0,0,-1,281.31639,164.6996)"><tspan
           id="tspan622"
           y="0"
           x="0">e</tspan></text><g
         transform="matrix(1,0,0,-1,0,355.62204)"
         id="g626"><path
           id="path628"
           style="fill:none;stroke:#000000;stroke-width:0.57825;stroke-linecap:butt;stroke-linejoin:miter;stroke-miterlimit:4;stroke-dasharray:none;stroke-opacity:1"
           d="m 287.504,187.672 v 0.484 h -4.547 c 0.039,0.68 0.242,1.196 0.609,1.547 0.364,0.356 0.875,0.531 1.532,0.531 0.382,0 0.754,-0.046 1.109,-0.14 0.352,-0.094 0.707,-0.227 1.063,-0.406 v 0.921 c -0.356,0.157 -0.719,0.274 -1.094,0.344 -0.375,0.082 -0.75,0.125 -1.125,0.125 -0.969,0 -1.735,-0.273 -2.297,-0.828 -0.555,-0.562 -0.828,-1.32 -0.828,-2.281 0,-0.977 0.265,-1.754 0.797,-2.328 0.531,-0.582 1.25,-0.875 2.156,-0.875 0.801,0 1.437,0.261 1.906,0.781 0.477,0.523 0.719,1.23 0.719,2.125 z m -1,-0.297 c 0,-0.539 -0.152,-0.973 -0.453,-1.297 -0.293,-0.32 -0.684,-0.484 -1.172,-0.484 -0.555,0 -0.996,0.156 -1.328,0.468 -0.324,0.313 -0.512,0.75 -0.563,1.313 z" /></g><text
         id="text632"
         style="font-variant:normal;font-weight:normal;font-size:11.1091px;font-family:'DejaVu Sans';-inkscape-font-specification:DejaVuSans;writing-mode:lr-tb;fill:#000000;fill-opacity:1;fill-rule:nonzero;stroke:none"
         transform="matrix(1,0,0,-1,288.15107,164.6996)"><tspan
           id="tspan630"
           y="0"
           x="0">s</tspan></text><g
         transform="matrix(1,0,0,-1,0,355.62204)"
         id="g634"><path
           id="path636"
           style="fill:none;stroke:#000000;stroke-width:0.57825;stroke-linecap:butt;stroke-linejoin:miter;stroke-miterlimit:4;stroke-dasharray:none;stroke-opacity:1"
           d="m 293.027,185.078 v 0.938 c -0.281,-0.145 -0.574,-0.25 -0.875,-0.313 -0.304,-0.07 -0.617,-0.109 -0.937,-0.109 -0.492,0 -0.86,0.078 -1.11,0.234 -0.242,0.149 -0.359,0.367 -0.359,0.656 0,0.231 0.086,0.414 0.266,0.547 0.176,0.125 0.531,0.25 1.062,0.375 l 0.328,0.078 c 0.707,0.149 1.207,0.36 1.5,0.641 0.289,0.273 0.438,0.652 0.438,1.141 0,0.554 -0.219,0.996 -0.656,1.328 -0.438,0.324 -1.047,0.484 -1.829,0.484 -0.324,0 -0.664,-0.031 -1.015,-0.094 -0.344,-0.062 -0.711,-0.156 -1.094,-0.281 v -1.015 c 0.363,0.187 0.723,0.328 1.078,0.421 0.352,0.094 0.707,0.141 1.063,0.141 0.457,0 0.812,-0.078 1.062,-0.234 0.25,-0.164 0.375,-0.391 0.375,-0.672 0,-0.27 -0.09,-0.477 -0.265,-0.625 -0.18,-0.145 -0.575,-0.281 -1.188,-0.407 l -0.344,-0.093 c -0.617,-0.125 -1.058,-0.317 -1.328,-0.578 -0.273,-0.27 -0.406,-0.641 -0.406,-1.11 0,-0.562 0.195,-0.992 0.594,-1.297 0.406,-0.312 0.976,-0.468 1.718,-0.468 0.364,0 0.707,0.027 1.032,0.078 0.32,0.054 0.617,0.133 0.89,0.234 z" /></g><text
         id="text640"
         style="font-variant:normal;font-weight:normal;font-size:11.1091px;font-family:'DejaVu Sans';-inkscape-font-specification:DejaVuSans;writing-mode:lr-tb;fill:#000000;fill-opacity:1;fill-rule:nonzero;stroke:none"
         transform="matrix(1,0,0,-1,293.94427,164.6996)"><tspan
           id="tspan638"
           y="0"
           x="0">f</tspan></text><g
         transform="matrix(1,0,0,-1,0,355.62204)"
         id="g642"><path
           id="path644"
           style="fill:none;stroke:#000000;stroke-width:0.57825;stroke-linecap:butt;stroke-linejoin:miter;stroke-miterlimit:4;stroke-dasharray:none;stroke-opacity:1"
           d="m 298.023,182.562 v 0.829 h -0.937 c -0.356,0 -0.606,0.074 -0.75,0.218 -0.137,0.137 -0.203,0.391 -0.203,0.766 v 0.531 h 1.625 v 0.766 h -1.625 v 5.25 h -0.985 v -5.25 h -0.953 v -0.766 h 0.953 v -0.422 c 0,-0.664 0.149,-1.148 0.454,-1.453 0.312,-0.312 0.804,-0.469 1.484,-0.469 z" /></g><text
         id="text648"
         style="font-variant:normal;font-weight:normal;font-size:11.1091px;font-family:'DejaVu Sans';-inkscape-font-specification:DejaVuSans;writing-mode:lr-tb;fill:#000000;fill-opacity:1;fill-rule:nonzero;stroke:none"
         transform="matrix(1,0,0,-1,297.8498,164.6996)"><tspan
           id="tspan646"
           y="0"
           x="0">o</tspan></text><g
         transform="matrix(1,0,0,-1,0,355.62204)"
         id="g650"><path
           id="path652"
           style="fill:none;stroke:#000000;stroke-width:0.57825;stroke-linecap:butt;stroke-linejoin:miter;stroke-miterlimit:4;stroke-dasharray:none;stroke-opacity:1"
           d="m 301.227,185.594 c -0.532,0 -0.954,0.211 -1.266,0.625 -0.305,0.418 -0.453,0.984 -0.453,1.703 0,0.719 0.148,1.289 0.453,1.703 0.301,0.406 0.723,0.609 1.266,0.609 0.519,0 0.929,-0.203 1.234,-0.609 0.312,-0.414 0.469,-0.984 0.469,-1.703 0,-0.719 -0.157,-1.285 -0.469,-1.703 -0.305,-0.414 -0.715,-0.625 -1.234,-0.625 z m 0,-0.828 c 0.851,0 1.523,0.281 2.015,0.843 0.488,0.555 0.735,1.325 0.735,2.313 0,0.98 -0.247,1.75 -0.735,2.312 -0.492,0.563 -1.164,0.844 -2.015,0.844 -0.868,0 -1.543,-0.281 -2.032,-0.844 -0.492,-0.562 -0.734,-1.332 -0.734,-2.312 0,-0.988 0.242,-1.758 0.734,-2.313 0.489,-0.562 1.164,-0.843 2.032,-0.843 z" /></g><text
         id="text656"
         style="font-variant:normal;font-weight:normal;font-size:11.1091px;font-family:'DejaVu Sans';-inkscape-font-specification:DejaVuSans;writing-mode:lr-tb;fill:#000000;fill-opacity:1;fill-rule:nonzero;stroke:none"
         transform="matrix(1,0,0,-1,304.64109,164.6996)"><tspan
           id="tspan654"
           y="0"
           x="0">r</tspan></text><g
         transform="matrix(1,0,0,-1,0,355.62204)"
         id="g658"><path
           id="path660"
           style="fill:none;stroke:#000000;stroke-width:0.57825;stroke-linecap:butt;stroke-linejoin:miter;stroke-miterlimit:4;stroke-dasharray:none;stroke-opacity:1"
           d="m 309.156,185.828 c -0.105,-0.062 -0.226,-0.109 -0.359,-0.14 -0.125,-0.032 -0.266,-0.047 -0.422,-0.047 -0.563,0 -0.996,0.183 -1.297,0.547 -0.293,0.367 -0.437,0.886 -0.437,1.562 v 3.172 h -1 v -6.016 h 1 v 0.938 c 0.195,-0.364 0.461,-0.633 0.797,-0.813 0.332,-0.176 0.738,-0.265 1.218,-0.265 0.071,0 0.145,0.007 0.219,0.015 0.082,0 0.176,0.012 0.281,0.031 z" /></g><text
         id="text664"
         style="font-variant:normal;font-weight:normal;font-size:11.1091px;font-family:'DejaVu Sans';-inkscape-font-specification:DejaVuSans;writing-mode:lr-tb;fill:#000000;fill-opacity:1;fill-rule:nonzero;stroke:none"
         transform="matrix(1,0,0,-1,308.98056,164.6996)"><tspan
           id="tspan662"
           y="0"
           x="0">รง</tspan></text><g
         transform="matrix(1,0,0,-1,0,355.62204)"
         id="g666"><path
           id="path668"
           style="fill:none;stroke:#000000;stroke-width:0.57825;stroke-linecap:butt;stroke-linejoin:miter;stroke-miterlimit:4;stroke-dasharray:none;stroke-opacity:1"
           d="m 314.34,185.141 v 0.921 c -0.274,-0.156 -0.547,-0.269 -0.828,-0.343 -0.282,-0.082 -0.571,-0.125 -0.86,-0.125 -0.636,0 -1.132,0.203 -1.484,0.609 -0.356,0.406 -0.531,0.981 -0.531,1.719 0,0.73 0.175,1.297 0.531,1.703 0.352,0.406 0.848,0.609 1.484,0.609 0.289,0 0.578,-0.035 0.86,-0.109 0.281,-0.07 0.554,-0.187 0.828,-0.344 v 0.907 c -0.274,0.136 -0.559,0.234 -0.86,0.296 -0.292,0.063 -0.605,0.094 -0.937,0.094 -0.906,0 -1.625,-0.281 -2.156,-0.844 -0.532,-0.57 -0.797,-1.343 -0.797,-2.312 0,-0.977 0.265,-1.75 0.797,-2.313 0.539,-0.562 1.281,-0.843 2.218,-0.843 0.313,0 0.61,0.031 0.891,0.093 0.289,0.063 0.57,0.157 0.844,0.282 z m -1.156,5.781 c 0.195,0.219 0.343,0.422 0.437,0.609 0.094,0.188 0.141,0.367 0.141,0.547 0,0.32 -0.11,0.563 -0.328,0.719 -0.211,0.164 -0.524,0.25 -0.938,0.25 -0.168,0 -0.328,-0.012 -0.484,-0.031 -0.157,-0.024 -0.313,-0.055 -0.469,-0.094 v -0.703 c 0.125,0.051 0.25,0.093 0.375,0.125 0.133,0.031 0.285,0.047 0.453,0.047 0.219,0 0.379,-0.047 0.484,-0.141 0.102,-0.086 0.157,-0.211 0.157,-0.375 0,-0.105 -0.043,-0.234 -0.125,-0.391 -0.075,-0.156 -0.188,-0.343 -0.344,-0.562 z" /></g><g
         transform="matrix(1,0,0,-1,0,355.62204)"
         id="g670"><path
           id="path672"
           style="fill:#000000;fill-opacity:1;fill-rule:nonzero;stroke:#000000;stroke-width:0.57825;stroke-linecap:butt;stroke-linejoin:miter;stroke-miterlimit:4;stroke-dasharray:none;stroke-opacity:1"
           d="m 323.465,201.43 c -0.188,-0.032 -0.469,-0.141 -0.653,-0.258 -0.394,-0.258 -0.664,-0.66 -0.75,-1.133 -0.042,-0.246 -0.042,-5.176 0,-5.426 0.129,-0.707 0.672,-1.25 1.379,-1.379 0.25,-0.043 5.204,-0.043 5.45,0 0.707,0.129 1.25,0.672 1.379,1.379 0.046,0.25 0.046,5.18 0,5.426 -0.114,0.625 -0.536,1.113 -1.157,1.328 l -0.211,0.074 -2.656,0.004 c -1.461,0 -2.715,-0.007 -2.781,-0.015 z m 3.738,-3.086 0.008,-0.254 -0.09,-0.024 c -0.133,-0.035 -0.148,-0.066 -0.117,-0.25 0.031,-0.187 0.035,-1.128 0.004,-1.296 -0.074,-0.403 -0.328,-0.622 -0.742,-0.645 -0.504,-0.027 -0.813,0.195 -0.899,0.66 -0.015,0.082 -0.019,0.336 -0.012,0.692 0.008,0.511 0.012,0.574 0.059,0.711 0.066,0.191 0.188,0.332 0.356,0.414 0.121,0.058 0.148,0.062 0.41,0.062 0.246,0 0.293,-0.008 0.394,-0.051 l 0.117,-0.054 0.121,0.125 c 0.09,0.093 0.145,0.128 0.219,0.144 0.172,0.039 0.164,0.043 0.172,-0.234 z m -1.176,-0.387 c -0.125,-0.078 -0.144,-0.199 -0.136,-0.859 0.007,-0.493 0.011,-0.575 0.047,-0.641 0.05,-0.09 0.144,-0.137 0.261,-0.137 0.125,0 0.215,0.047 0.25,0.137 0.028,0.078 0.059,0.844 0.035,0.902 -0.011,0.032 -0.027,0.032 -0.089,-0.019 -0.043,-0.035 -0.106,-0.063 -0.141,-0.063 l -0.066,-0.007 -0.004,0.207 -0.008,0.207 0.086,0.058 c 0.05,0.031 0.101,0.082 0.113,0.113 0.059,0.122 -0.191,0.196 -0.348,0.102 z m -1.652,0.434 c 0.145,-0.039 0.313,-0.153 0.395,-0.266 0.207,-0.285 0.156,-0.777 -0.102,-0.984 -0.117,-0.094 -0.25,-0.164 -0.547,-0.274 -0.129,-0.047 -0.258,-0.105 -0.289,-0.129 -0.07,-0.054 -0.125,-0.176 -0.105,-0.234 0.046,-0.152 0.125,-0.207 0.289,-0.207 0.121,0 0.238,0.055 0.343,0.164 0.043,0.047 0.086,0.082 0.098,0.082 0.031,0 0.352,-0.215 0.363,-0.242 0.008,-0.02 -0.047,-0.09 -0.129,-0.172 -0.168,-0.168 -0.324,-0.238 -0.582,-0.254 -0.39,-0.023 -0.671,0.109 -0.804,0.387 -0.082,0.172 -0.086,0.394 -0.016,0.582 0.086,0.23 0.273,0.367 0.777,0.562 0.09,0.035 0.2,0.094 0.243,0.133 0.07,0.059 0.082,0.082 0.082,0.168 0,0.125 -0.032,0.191 -0.125,0.25 -0.094,0.055 -0.286,0.055 -0.411,0 -0.082,-0.039 -0.113,-0.066 -0.226,-0.223 l -0.039,-0.05 -0.125,0.082 c -0.27,0.179 -0.274,0.183 -0.235,0.254 0.055,0.109 0.235,0.273 0.36,0.332 0.211,0.093 0.527,0.113 0.785,0.039 z m 4.801,-0.043 c 0.023,-0.008 0.027,-0.067 0.023,-0.219 l -0.008,-0.207 -0.523,-0.004 c -0.422,0 -0.527,-0.008 -0.543,-0.031 -0.012,-0.02 -0.02,-0.438 -0.016,-0.996 l 0.004,-0.965 h -0.535 l -0.004,1.199 c -0.004,0.66 -0.004,1.211 0,1.223 0.012,0.023 1.539,0.019 1.602,0 z" /></g><g
         transform="matrix(1,0,0,-1,0,355.62204)"
         id="g674"><path
           id="path676"
           style="fill:#ddd9ab;fill-opacity:1;fill-rule:nonzero;stroke:#c0b964;stroke-width:1.11075;stroke-linecap:round;stroke-linejoin:round;stroke-miterlimit:4;stroke-dasharray:none;stroke-opacity:1"
           d="m 256.367,157.719 h 70.028 c 3.902,0 7.043,3.14 7.043,7.043 v 31.937 c 0,3.903 -3.141,7.043 -7.043,7.043 h -70.028 c -3.902,0 -7.043,-3.14 -7.043,-7.043 v -31.937 c 0,-3.903 3.141,-7.043 7.043,-7.043 z" /></g><text
         id="text682"
         style="font-variant:normal;font-weight:normal;font-size:11.1091px;font-family:'DejaVu Sans';-inkscape-font-specification:DejaVuSans;writing-mode:lr-tb;fill:#000000;fill-opacity:1;fill-rule:nonzero;stroke:none"
         transform="matrix(1,0,0,-1,274.38187,180.08652)"><tspan
           id="tspan678"
           sodipodi:role="line"
           y="0"
           x="0 6.5099101 10.842444 17.630081 21.540472 24.617682 27.694891">Profile</tspan><tspan
           id="tspan680"
           sodipodi:role="line"
           y="13.88635"
           x="-6.0210228 4.7992039 11.59795 15.952702 22.051577 29.11694 35.949013">matcher</tspan></text><g
         transform="matrix(0.583032,0.727691,1,-0.424267,0,355.62204)"
         id="g684"><path
           id="path686"
           style="fill:#000000;fill-opacity:1;fill-rule:nonzero;stroke:#000000;stroke-width:1.11004;stroke-linecap:butt;stroke-linejoin:miter;stroke-miterlimit:4;stroke-dasharray:none;stroke-opacity:1"
           d="m -106.076,397.139 -35.176,10e-4 -35.172,0.311 17.582,-30.462 17.32,-30.618 17.588,30.461 z" /></g><g
         transform="matrix(0.583032,0.708333,1,-0.412981,0,355.62204)"
         id="g688"><path
           id="path690"
           style="fill:#ddd9ab;fill-opacity:1;fill-rule:nonzero;stroke:#c0b964;stroke-width:1.14014;stroke-linecap:butt;stroke-linejoin:miter;stroke-miterlimit:4;stroke-dasharray:none;stroke-opacity:1"
           d="m -111.401,399.907 -36.126,0.001 -36.129,0.318 18.061,-31.288 17.788,-31.446 18.07,31.286 z" /></g><text
         id="text696"
         style="font-variant:normal;font-weight:normal;font-size:11.1091px;font-family:'DejaVu Sans';-inkscape-font-specification:DejaVuSans;writing-mode:lr-tb;fill:#000000;fill-opacity:1;fill-rule:nonzero;stroke:none"
         transform="matrix(1,0,0,-1,275.98064,98.685062)"><tspan
           id="tspan692"
           sodipodi:role="line"
           y="0"
           x="0 6.5099111 10.842445 17.630083 21.540474 24.617683 27.694895">Profile</tspan><tspan
           id="tspan694"
           sodipodi:role="line"
           y="13.886329"
           x="1.4754169 8.5074539 12.862206 15.939417 19.016628 22.093838 26.448591">utility</tspan></text><g
         transform="matrix(1,0,0,-1,0,355.62204)"
         id="g698"><path
           id="path700"
           style="fill:none;stroke:#9edfdf;stroke-width:3.26283;stroke-linecap:butt;stroke-linejoin:round;stroke-miterlimit:1;stroke-dasharray:6.52566, 6.52566;stroke-dashoffset:9.78849;stroke-opacity:1"
           d="m 24.383,15.738 h 203.144 c 4.618,0 8.34,3.719 8.34,8.34 v 179.281 c 0,4.618 -3.722,8.34 -8.34,8.34 H 24.383 c -4.621,0 -8.34,-3.722 -8.34,-8.34 V 24.078 c 0,-4.621 3.719,-8.34 8.34,-8.34 z" /></g><g
         transform="matrix(1,0,0,-1,0,355.62204)"
         id="g702"><path
           id="path704"
           style="fill:none;stroke:#ffbd22;stroke-width:3;stroke-linecap:butt;stroke-linejoin:round;stroke-miterlimit:1;stroke-dasharray:3, 3;stroke-dashoffset:0;stroke-opacity:1"
           d="m 30.43,145.199 h 203.047 c 4.644,0 8.382,3.739 8.382,8.383 v 180.242 c 0,4.645 -3.738,8.387 -8.382,8.387 H 30.43 c -4.645,0 -8.383,-3.742 -8.383,-8.387 V 153.582 c 0,-4.644 3.738,-8.383 8.383,-8.383 z" /></g><g
         transform="matrix(1,0,0,-1,0,355.62204)"
         id="g706"><path
           id="path708"
           style="fill:none;stroke:#c5ddab;stroke-width:3;stroke-linecap:butt;stroke-linejoin:round;stroke-miterlimit:1;stroke-dasharray:6, 3, 1.5, 3;stroke-dashoffset:5.53245;stroke-opacity:1"
           d="m 23.152,9.957 h 308.321 c 7.972,0 14.39,6.418 14.39,14.395 V 333.73 c 0,7.973 -6.418,14.391 -14.39,14.391 H 23.152 c -7.972,0 -14.39,-6.418 -14.39,-14.391 V 24.352 c 0,-7.977 6.418,-14.395 14.39,-14.395 z" /></g><text
         id="text712"
         style="font-variant:normal;font-weight:bold;font-size:15px;font-family:'DejaVu Sans';-inkscape-font-specification:DejaVuSans-Bold;writing-mode:lr-tb;fill:#000000;fill-opacity:1;fill-rule:nonzero;stroke:none"
         transform="matrix(1,0,0,-1,248.52109,328.25483)"><tspan
           id="tspan710"
           sodipodi:role="line"
           y="0"
           x="0 11.55 21.719999 30.645 40.814999 50.924999 58.32 67.199997 77.910004 88.080002">Researcher</tspan></text><text
         id="text716"
         style="font-variant:normal;font-weight:bold;font-size:15px;font-family:'DejaVu Sans';-inkscape-font-specification:DejaVuSans-Bold;writing-mode:lr-tb;fill:#7daf47;fill-opacity:1;fill-rule:nonzero;stroke:none"
         transform="matrix(1,0,0,-1,248.10731,328.78986)"><tspan
           id="tspan714"
           sodipodi:role="line"
           y="0"
           x="0 11.55 21.719999 30.645 40.814999 50.924999 58.32 67.199997 77.910004 88.080002">Researcher</tspan></text><text
         id="text720"
         style="font-variant:normal;font-weight:bold;font-size:15px;font-family:'DejaVu Sans';-inkscape-font-specification:DejaVuSans-Bold;writing-mode:lr-tb;fill:#3fc0c0;fill-opacity:1;fill-rule:nonzero;stroke:none"
         transform="matrix(1,0,0,-1,187.81727,322.41486)"><tspan
           id="tspan718"
           sodipodi:role="line"
           y="0"
           x="0 16.545 27.344999">WSE</tspan></text><text
         id="text724"
         style="font-variant:normal;font-weight:bold;font-size:15px;font-family:'DejaVu Sans';-inkscape-font-specification:DejaVuSans-Bold;writing-mode:lr-tb;fill:#000000;fill-opacity:1;fill-rule:nonzero;stroke:none"
         transform="matrix(1,0,0,-1,163.63199,24.829613)"><tspan
           id="tspan722"
           sodipodi:role="line"
           y="0"
           x="0 11.595 18.764999 25.934999 36.044998 44.924999 54.540001 64.709999">Attacker</tspan></text><text
         id="text728"
         style="font-variant:normal;font-weight:bold;font-size:15px;font-family:'DejaVu Sans';-inkscape-font-specification:DejaVuSans-Bold;writing-mode:lr-tb;fill:#cb8e00;fill-opacity:1;fill-rule:nonzero;stroke:none"
         transform="matrix(1,0,0,-1,163.12439,25.337198)"><tspan
           id="tspan726"
           sodipodi:role="line"
           y="0"
           x="0 11.595 18.764999 25.934999 36.044998 44.924999 54.540001 64.709999">Attacker</tspan></text></g></g></svg>
