<?xml version="1.0" encoding="UTF-8" standalone="no"?>
<svg
   xmlns:dc="http://purl.org/dc/elements/1.1/"
   xmlns:cc="http://creativecommons.org/ns#"
   xmlns:rdf="http://www.w3.org/1999/02/22-rdf-syntax-ns#"
   xmlns:svg="http://www.w3.org/2000/svg"
   xmlns="http://www.w3.org/2000/svg"
   xmlns:sodipodi="http://sodipodi.sourceforge.net/DTD/sodipodi-0.dtd"
   xmlns:inkscape="http://www.inkscape.org/namespaces/inkscape"
   version="1.1"
   id="svg2"
   xml:space="preserve"
   width="454.66666"
   height="416"
   viewBox="0 0 454.66666 416"
   sodipodi:docname="ks.svg"
   inkscape:version="1.0 (6e3e5246a0, 2020-05-07)"><metadata
     id="metadata8"><rdf:RDF><cc:Work
         rdf:about=""><dc:format>image/svg+xml</dc:format><dc:type
           rdf:resource="http://purl.org/dc/dcmitype/StillImage" /><dc:title /></cc:Work></rdf:RDF></metadata><defs
     id="defs6"><clipPath
       clipPathUnits="userSpaceOnUse"
       id="clipPath36"><path
         d="M 0,0 H 341.25 V 312.75 H 0 Z"
         id="path34" /></clipPath><clipPath
       clipPathUnits="userSpaceOnUse"
       id="clipPath48"><path
         d="M 41.56,32.76 H 335.77 V 307.27 H 41.56 Z"
         id="path46" /></clipPath></defs><sodipodi:namedview
     inkscape:document-rotation="0"
     pagecolor="#ffffff"
     bordercolor="#666666"
     borderopacity="1"
     objecttolerance="10"
     gridtolerance="10"
     guidetolerance="10"
     inkscape:pageopacity="0"
     inkscape:pageshadow="2"
     inkscape:window-width="1920"
     inkscape:window-height="1025"
     id="namedview4"
     showgrid="false"
     inkscape:zoom="2.0168269"
     inkscape:cx="227.33333"
     inkscape:cy="208"
     inkscape:window-x="0"
     inkscape:window-y="27"
     inkscape:window-maximized="1"
     inkscape:current-layer="g44" /><g
     id="g10"
     inkscape:groupmode="layer"
     inkscape:label="ks"
     transform="matrix(1.3333333,0,0,-1.3333333,0,416)"><g
       id="g12" /><g
       id="g14" /><g
       id="g16" /><g
       id="g18" /><g
       id="g20" /><g
       id="g22" /><g
       id="g24" /><g
       id="g26" /><g
       id="g28" /><g
       id="g40" /><g
       id="g42"><g
         id="g44"
         clip-path="url(#clipPath48)"><path
           d="M 41.56,32.76 H 335.77 V 307.27 H 41.56 Z"
           style="fill:#ebebeb;fill-opacity:1;fill-rule:nonzero;stroke:none"
           id="path50" /><path
           d="M 41.56,76.43 H 335.77"
           style="fill:none;stroke:#ffffff;stroke-width:0.53;stroke-linecap:butt;stroke-linejoin:round;stroke-miterlimit:10;stroke-dasharray:none;stroke-opacity:1"
           id="path52" /><path
           d="M 41.56,138.82 H 335.77"
           style="fill:none;stroke:#ffffff;stroke-width:0.53;stroke-linecap:butt;stroke-linejoin:round;stroke-miterlimit:10;stroke-dasharray:none;stroke-opacity:1"
           id="path54" /><path
           d="M 41.56,201.21 H 335.77"
           style="fill:none;stroke:#ffffff;stroke-width:0.53;stroke-linecap:butt;stroke-linejoin:round;stroke-miterlimit:10;stroke-dasharray:none;stroke-opacity:1"
           id="path56" /><path
           d="M 41.56,263.6 H 335.77"
           style="fill:none;stroke:#ffffff;stroke-width:0.53;stroke-linecap:butt;stroke-linejoin:round;stroke-miterlimit:10;stroke-dasharray:none;stroke-opacity:1"
           id="path58" /><path
           d="M 93.14,32.76 V 307.27"
           style="fill:none;stroke:#ffffff;stroke-width:0.53;stroke-linecap:butt;stroke-linejoin:round;stroke-miterlimit:10;stroke-dasharray:none;stroke-opacity:1"
           id="path60" /><path
           d="M 169.56,32.76 V 307.27"
           style="fill:none;stroke:#ffffff;stroke-width:0.53;stroke-linecap:butt;stroke-linejoin:round;stroke-miterlimit:10;stroke-dasharray:none;stroke-opacity:1"
           id="path62" /><path
           d="M 245.98,32.76 V 307.27"
           style="fill:none;stroke:#ffffff;stroke-width:0.53;stroke-linecap:butt;stroke-linejoin:round;stroke-miterlimit:10;stroke-dasharray:none;stroke-opacity:1"
           id="path64" /><path
           d="M 322.4,32.76 V 307.27"
           style="fill:none;stroke:#ffffff;stroke-width:0.53;stroke-linecap:butt;stroke-linejoin:round;stroke-miterlimit:10;stroke-dasharray:none;stroke-opacity:1"
           id="path66" /><path
           d="M 41.56,45.24 H 335.77"
           style="fill:none;stroke:#ffffff;stroke-width:1.07;stroke-linecap:butt;stroke-linejoin:round;stroke-miterlimit:10;stroke-dasharray:none;stroke-opacity:1"
           id="path68" /><path
           d="M 41.56,107.63 H 335.77"
           style="fill:none;stroke:#ffffff;stroke-width:1.07;stroke-linecap:butt;stroke-linejoin:round;stroke-miterlimit:10;stroke-dasharray:none;stroke-opacity:1"
           id="path70" /><path
           d="M 41.56,170.02 H 335.77"
           style="fill:none;stroke:#ffffff;stroke-width:1.07;stroke-linecap:butt;stroke-linejoin:round;stroke-miterlimit:10;stroke-dasharray:none;stroke-opacity:1"
           id="path72" /><path
           d="M 41.56,232.4 H 335.77"
           style="fill:none;stroke:#ffffff;stroke-width:1.07;stroke-linecap:butt;stroke-linejoin:round;stroke-miterlimit:10;stroke-dasharray:none;stroke-opacity:1"
           id="path74" /><path
           d="M 41.56,294.79 H 335.77"
           style="fill:none;stroke:#ffffff;stroke-width:1.07;stroke-linecap:butt;stroke-linejoin:round;stroke-miterlimit:10;stroke-dasharray:none;stroke-opacity:1"
           id="path76" /><path
           d="M 54.94,32.76 V 307.27"
           style="fill:none;stroke:#ffffff;stroke-width:1.07;stroke-linecap:butt;stroke-linejoin:round;stroke-miterlimit:10;stroke-dasharray:none;stroke-opacity:1"
           id="path78" /><path
           d="M 131.35,32.76 V 307.27"
           style="fill:none;stroke:#ffffff;stroke-width:1.07;stroke-linecap:butt;stroke-linejoin:round;stroke-miterlimit:10;stroke-dasharray:none;stroke-opacity:1"
           id="path80" /><path
           d="M 207.77,32.76 V 307.27"
           style="fill:none;stroke:#ffffff;stroke-width:1.07;stroke-linecap:butt;stroke-linejoin:round;stroke-miterlimit:10;stroke-dasharray:none;stroke-opacity:1"
           id="path82" /><path
           d="M 284.19,32.76 V 307.27"
           style="fill:none;stroke:#ffffff;stroke-width:1.07;stroke-linecap:butt;stroke-linejoin:round;stroke-miterlimit:10;stroke-dasharray:none;stroke-opacity:1"
           id="path84" /><path
           d="m 54.94,45.24 h 2.67 v 0 h 2.67 v 64.88 h 2.68 V 180 h 2.67 v 34.94 h 2.68 v 19.96 h 2.67 v 14.97 h 2.68 v 9.99 h 2.67 v 0 h 2.68 v 4.99 h 2.67 v 4.99 h 2.68 v 0 h 2.67 v 4.99 h 2.68 v 0 h 2.67 v 4.99 h 2.67 v 4.99 h 2.68 v 0 h 2.67 v 0 h 2.68 v 0 h 2.67 v 0 h 2.68 v 0 h 2.67 v 0 h 2.68 v 0 h 2.67 v 0 h 2.68 v 0 h 2.67 v 0 h 2.68 v 4.99 h 2.67 v 0 h 2.67 v 0 h 2.68 v 0 h 2.67 v 0 h 2.68 v 0 h 2.67 v 0 h 2.68 v 0 h 2.67 v 0 h 2.68 v 0 h 2.67 v 0 h 2.68 v 0 h 2.67 v 4.99 h 2.68 v 0 h 2.67 v 0 h 2.67 v 0 h 2.68 v 0 h 2.67 v 0 h 2.68 v 0 h 2.67 v 0 h 2.68 v 0 h 2.67 v 0 h 2.68 v 0 h 2.67 v 0 h 2.68 v 0 h 2.67 v 0 h 2.68 v 0 h 2.67 v 0 h 2.67 v 0 h 2.68 v 0 h 2.67 v 0 h 2.68 v 0 h 2.67 v 0 h 2.68 v 0 h 2.67 v 0 h 2.68 v 0 h 2.67 v 0 h 2.68 v 0 h 2.67 v 0 h 2.68 v 0 h 2.67 v 0 h 2.67 v 0 h 2.68 v 0 h 2.67 v 0 h 2.68 v 0 h 2.67 v 0 h 2.68 v 0 h 2.67 v 0 h 2.68 v 0 h 2.67 v 0 h 2.68 v 0 h 2.67 v 0 h 2.68 v 0 h 2.67 v 0 h 2.67 v 0 h 2.68 v 0 h 2.67 v 0 h 2.68 v 0 h 2.67 v 0 h 2.68 v 0 h 2.67 v 0 h 2.68 v 0 h 2.67 v 0 h 2.68 v 0 h 2.67 v 0 h 2.68 v 0 H 301 v 0 h 2.67 v 0 h 2.68 v 0 h 2.67 v 0 h 2.68 v 0 h 2.67 v 0 h 2.68 v 0 h 2.67 v 0 h 2.68 v 0"
           style="fill:none;stroke:#f8766d;stroke-width:2.13;stroke-linecap:butt;stroke-linejoin:round;stroke-miterlimit:10;stroke-dasharray:none;stroke-opacity:1"
           id="path86" /><path
           d="m 54.94,45.24 h 2.67 v 0 h 2.67 v 64.88 h 2.68 V 180 h 2.67 v 34.94 h 2.68 v 19.96 h 2.67 v 14.97 h 2.68 v 9.99 h 2.67 v 0 h 2.68 v 4.99 h 2.67 v 4.99 h 2.68 v 0 h 2.67 v 4.99 h 2.68 v 0 h 2.67 v 4.99 h 2.67 v 4.99 h 2.68 v 0 h 2.67 v 0 h 2.68 v 0 h 2.67 v 0 h 2.68 v 0 h 2.67 v 0 h 2.68 v 0 h 2.67 v 0 h 2.68 v 0 h 2.67 v 0 h 2.68 v 4.99 h 2.67 v 0 h 2.67 v 0 h 2.68 v 0 h 2.67 v 0 h 2.68 v 0 h 2.67 v 0 h 2.68 v 0 h 2.67 v 0 h 2.68 v 0 h 2.67 v 0 h 2.68 v 0 h 2.67 v 4.99 h 2.68 v 0 h 2.67 v 0 h 2.67 v 0 h 2.68 v 0 h 2.67 v 0 h 2.68 v 0 h 2.67 v 0 h 2.68 v 0 h 2.67 v 0 h 2.68 v 0 h 2.67 v 0 h 2.68 v 0 h 2.67 v 0 h 2.68 v 0 h 2.67 v 0 h 2.67 v 0 h 2.68 v 0 h 2.67 v 0 h 2.68 v 0 h 2.67 v 0 h 2.68 v 0 h 2.67 v 0 h 2.68 v 0 h 2.67 v 0 h 2.68 v 0 h 2.67 v 0 h 2.68 v 0 h 2.67 v 0 h 2.67 v 0 h 2.68 v 0 h 2.67 v 0 h 2.68 v 0 h 2.67 v 0 h 2.68 v 0 h 2.67 v 0 h 2.68 v 0 h 2.67 v 0 h 2.68 v 0 h 2.67 v 0 h 2.68 v 0 h 2.67 v 0 h 2.67 v 0 h 2.68 v 0 h 2.67 v 0 h 2.68 v 0 h 2.67 v 0 h 2.68 v 0 h 2.67 v 0 h 2.68 v 0 h 2.67 v 0 h 2.68 v 0 h 2.67 v 0 h 2.68 v 0 H 301 v 0 h 2.67 v 0 h 2.68 v 0 h 2.67 v 0 h 2.68 v 0 h 2.67 v 0 h 2.68 v 0 h 2.67 v 0 h 2.68 v 0"
           style="fill:none;stroke:#f8766d;stroke-width:2.13;stroke-linecap:butt;stroke-linejoin:round;stroke-miterlimit:10;stroke-dasharray:none;stroke-opacity:1"
           id="path88" /><path
           d="m 54.94,45.24 h 2.67 v 0 h 2.67 v 64.88 h 2.68 v 59.9 h 2.67 v 34.93 h 2.68 v 14.98 h 2.67 v 14.97 h 2.68 v 9.98 h 2.67 v 4.99 h 2.68 v 4.99 h 2.67 v 5 h 2.68 v 0 h 2.67 v 4.99 h 2.68 v 4.99 h 2.67 v 0 h 2.67 v 0 h 2.68 v 4.99 h 2.67 v 0 h 2.68 v 0 h 2.67 v 0 h 2.68 v 4.99 h 2.67 v 0 h 2.68 v 0 h 2.67 v 0 h 2.68 v 0 h 2.67 v 0 h 2.68 v 0 h 2.67 v 4.99 h 2.67 v 0 h 2.68 v 0 h 2.67 v 0 h 2.68 v 0 h 2.67 v 0 h 2.68 v 0 h 2.67 v 0 h 2.68 v 0 h 2.67 v 0 h 2.68 v 0 h 2.67 v 0 h 2.68 v 0 h 2.67 v 0 h 2.67 v 0 h 2.68 v 4.99 h 2.67 v 0 h 2.68 v 0 h 2.67 v 0 h 2.68 v 0 h 2.67 v 0 h 2.68 v 0 h 2.67 v 0 h 2.68 v 0 h 2.67 v 0 h 2.68 v 0 h 2.67 v 0 h 2.67 v 0 h 2.68 v 0 h 2.67 v 0 h 2.68 v 0 h 2.67 v 0 h 2.68 v 0 h 2.67 v 0 h 2.68 v 0 h 2.67 v 0 h 2.68 v 0 h 2.67 v 0 h 2.68 v 0 h 2.67 v 0 h 2.67 v 0 h 2.68 v 0 h 2.67 v 0 h 2.68 v 0 h 2.67 v 0 h 2.68 v 0 h 2.67 v 0 h 2.68 v 0 h 2.67 v 0 h 2.68 v 0 h 2.67 v 0 h 2.68 v 0 h 2.67 v 0 h 2.67 v 0 h 2.68 v 0 h 2.67 v 0 h 2.68 v 0 h 2.67 v 0 h 2.68 v 0 h 2.67 v 0 h 2.68 v 0 h 2.67 v 0 h 2.68 v 0 h 2.67 v 0 h 2.68 v 0 H 301 v 0 h 2.67 v 0 h 2.68 v 0 h 2.67 v 0 h 2.68 v 4.99 h 2.67 v 0 h 2.68 v 0 h 2.67 v 0 h 2.68 v 0"
           style="fill:none;stroke:#000000;stroke-width:2.13;stroke-linecap:butt;stroke-linejoin:round;stroke-miterlimit:10;stroke-dasharray:8.54, 8.54;stroke-dashoffset:0;stroke-opacity:1"
           id="path90" /><path
           d="m 54.94,45.24 h 2.67 v 0 h 2.67 v 64.88 h 2.68 v 59.9 h 2.67 v 34.93 h 2.68 v 14.98 h 2.67 v 14.97 h 2.68 v 9.98 h 2.67 v 4.99 h 2.68 v 4.99 h 2.67 v 5 h 2.68 v 0 h 2.67 v 4.99 h 2.68 v 4.99 h 2.67 v 0 h 2.67 v 0 h 2.68 v 4.99 h 2.67 v 0 h 2.68 v 0 h 2.67 v 0 h 2.68 v 4.99 h 2.67 v 0 h 2.68 v 0 h 2.67 v 0 h 2.68 v 0 h 2.67 v 0 h 2.68 v 0 h 2.67 v 4.99 h 2.67 v 0 h 2.68 v 0 h 2.67 v 0 h 2.68 v 0 h 2.67 v 0 h 2.68 v 0 h 2.67 v 0 h 2.68 v 0 h 2.67 v 0 h 2.68 v 0 h 2.67 v 0 h 2.68 v 0 h 2.67 v 0 h 2.67 v 0 h 2.68 v 4.99 h 2.67 v 0 h 2.68 v 0 h 2.67 v 0 h 2.68 v 0 h 2.67 v 0 h 2.68 v 0 h 2.67 v 0 h 2.68 v 0 h 2.67 v 0 h 2.68 v 0 h 2.67 v 0 h 2.67 v 0 h 2.68 v 0 h 2.67 v 0 h 2.68 v 0 h 2.67 v 0 h 2.68 v 0 h 2.67 v 0 h 2.68 v 0 h 2.67 v 0 h 2.68 v 0 h 2.67 v 0 h 2.68 v 0 h 2.67 v 0 h 2.67 v 0 h 2.68 v 0 h 2.67 v 0 h 2.68 v 0 h 2.67 v 0 h 2.68 v 0 h 2.67 v 0 h 2.68 v 0 h 2.67 v 0 h 2.68 v 0 h 2.67 v 0 h 2.68 v 0 h 2.67 v 0 h 2.67 v 0 h 2.68 v 0 h 2.67 v 0 h 2.68 v 0 h 2.67 v 0 h 2.68 v 0 h 2.67 v 0 h 2.68 v 0 h 2.67 v 0 h 2.68 v 0 h 2.67 v 0 h 2.68 v 0 H 301 v 0 h 2.67 v 0 h 2.68 v 0 h 2.67 v 0 h 2.68 v 4.99 h 2.67 v 0 h 2.68 v 0 h 2.67 v 0 h 2.68 v 0"
           style="fill:none;stroke:#000000;stroke-width:2.13;stroke-linecap:butt;stroke-linejoin:round;stroke-miterlimit:10;stroke-dasharray:8.54, 8.54;stroke-dashoffset:0;stroke-opacity:1"
           id="path92" /></g></g><g
       id="g94" /><g
       id="g96" /><g
       id="g98" /><g
       id="g100" /><g
       id="g102" /><g
       id="g104" /><g
       id="g106" /><g
       id="g108" /><g
       id="g110" /><g
       id="g112" /><g
       id="g114" /><g
       id="g116" /><g
       id="g118" /><g
       id="g120" /><g
       id="g122" /><g
       id="g124"><text
         transform="matrix(1,0,0,-1,19.12,42.01)"
         style="font-variant:normal;font-weight:normal;font-size:9px;font-family:Helvetica;-inkscape-font-specification:Helvetica;writing-mode:lr-tb;fill:#4d4d4d;fill-opacity:1;fill-rule:nonzero;stroke:none"
         id="text128"><tspan
           x="0 5.0040002 7.506 12.51"
           y="0"
           sodipodi:role="line"
           id="tspan126">0.00</tspan></text><text
         transform="matrix(1,0,0,-1,19.12,104.4)"
         style="font-variant:normal;font-weight:normal;font-size:9px;font-family:Helvetica;-inkscape-font-specification:Helvetica;writing-mode:lr-tb;fill:#4d4d4d;fill-opacity:1;fill-rule:nonzero;stroke:none"
         id="text132"><tspan
           x="0 5.0040002 7.506 12.51"
           y="0"
           sodipodi:role="line"
           id="tspan130">0.25</tspan></text><text
         transform="matrix(1,0,0,-1,19.12,166.78)"
         style="font-variant:normal;font-weight:normal;font-size:9px;font-family:Helvetica;-inkscape-font-specification:Helvetica;writing-mode:lr-tb;fill:#4d4d4d;fill-opacity:1;fill-rule:nonzero;stroke:none"
         id="text136"><tspan
           x="0 5.0040002 7.506 12.51"
           y="0"
           sodipodi:role="line"
           id="tspan134">0.50</tspan></text><text
         transform="matrix(1,0,0,-1,19.12,229.17)"
         style="font-variant:normal;font-weight:normal;font-size:9px;font-family:Helvetica;-inkscape-font-specification:Helvetica;writing-mode:lr-tb;fill:#4d4d4d;fill-opacity:1;fill-rule:nonzero;stroke:none"
         id="text140"><tspan
           x="0 5.0040002 7.506 12.51"
           y="0"
           sodipodi:role="line"
           id="tspan138">0.75</tspan></text><text
         transform="matrix(1,0,0,-1,19.12,291.56)"
         style="font-variant:normal;font-weight:normal;font-size:9px;font-family:Helvetica;-inkscape-font-specification:Helvetica;writing-mode:lr-tb;fill:#4d4d4d;fill-opacity:1;fill-rule:nonzero;stroke:none"
         id="text144"><tspan
           x="0 5.0040002 7.506 12.51"
           y="0"
           sodipodi:role="line"
           id="tspan142">1.00</tspan></text></g><g
       id="g146" /><g
       id="g148"><path
         d="m 38.82,45.24 h 2.74"
         style="fill:none;stroke:#333333;stroke-width:1.07;stroke-linecap:butt;stroke-linejoin:round;stroke-miterlimit:10;stroke-dasharray:none;stroke-opacity:1"
         id="path150" /><path
         d="m 38.82,107.63 h 2.74"
         style="fill:none;stroke:#333333;stroke-width:1.07;stroke-linecap:butt;stroke-linejoin:round;stroke-miterlimit:10;stroke-dasharray:none;stroke-opacity:1"
         id="path152" /><path
         d="m 38.82,170.02 h 2.74"
         style="fill:none;stroke:#333333;stroke-width:1.07;stroke-linecap:butt;stroke-linejoin:round;stroke-miterlimit:10;stroke-dasharray:none;stroke-opacity:1"
         id="path154" /><path
         d="m 38.82,232.4 h 2.74"
         style="fill:none;stroke:#333333;stroke-width:1.07;stroke-linecap:butt;stroke-linejoin:round;stroke-miterlimit:10;stroke-dasharray:none;stroke-opacity:1"
         id="path156" /><path
         d="m 38.82,294.79 h 2.74"
         style="fill:none;stroke:#333333;stroke-width:1.07;stroke-linecap:butt;stroke-linejoin:round;stroke-miterlimit:10;stroke-dasharray:none;stroke-opacity:1"
         id="path158" /></g><g
       id="g160" /><g
       id="g162" /><g
       id="g164" /><g
       id="g166" /><g
       id="g168" /><g
       id="g170" /><g
       id="g172" /><g
       id="g174" /><g
       id="g176" /><g
       id="g178"><path
         d="m 54.94,30.02 v 2.74"
         style="fill:none;stroke:#333333;stroke-width:1.07;stroke-linecap:butt;stroke-linejoin:round;stroke-miterlimit:10;stroke-dasharray:none;stroke-opacity:1"
         id="path180" /><path
         d="m 131.35,30.02 v 2.74"
         style="fill:none;stroke:#333333;stroke-width:1.07;stroke-linecap:butt;stroke-linejoin:round;stroke-miterlimit:10;stroke-dasharray:none;stroke-opacity:1"
         id="path182" /><path
         d="m 207.77,30.02 v 2.74"
         style="fill:none;stroke:#333333;stroke-width:1.07;stroke-linecap:butt;stroke-linejoin:round;stroke-miterlimit:10;stroke-dasharray:none;stroke-opacity:1"
         id="path184" /><path
         d="m 284.19,30.02 v 2.74"
         style="fill:none;stroke:#333333;stroke-width:1.07;stroke-linecap:butt;stroke-linejoin:round;stroke-miterlimit:10;stroke-dasharray:none;stroke-opacity:1"
         id="path186" /></g><g
       id="g188" /><g
       id="g190"><text
         transform="matrix(1,0,0,-1,52.43,21.37)"
         style="font-variant:normal;font-weight:normal;font-size:9px;font-family:Helvetica;-inkscape-font-specification:Helvetica;writing-mode:lr-tb;fill:#4d4d4d;fill-opacity:1;fill-rule:nonzero;stroke:none"
         id="text194"><tspan
           x="0"
           y="0"
           id="tspan192">0</tspan></text><text
         transform="matrix(1,0,0,-1,126.35,21.37)"
         style="font-variant:normal;font-weight:normal;font-size:9px;font-family:Helvetica;-inkscape-font-specification:Helvetica;writing-mode:lr-tb;fill:#4d4d4d;fill-opacity:1;fill-rule:nonzero;stroke:none"
         id="text198"><tspan
           x="0 5.0040002"
           y="0"
           sodipodi:role="line"
           id="tspan196">10</tspan></text><text
         transform="matrix(1,0,0,-1,202.77,21.37)"
         style="font-variant:normal;font-weight:normal;font-size:9px;font-family:Helvetica;-inkscape-font-specification:Helvetica;writing-mode:lr-tb;fill:#4d4d4d;fill-opacity:1;fill-rule:nonzero;stroke:none"
         id="text202"><tspan
           x="0 5.0040002"
           y="0"
           sodipodi:role="line"
           id="tspan200">20</tspan></text><text
         transform="matrix(1,0,0,-1,279.18,21.37)"
         style="font-variant:normal;font-weight:normal;font-size:9px;font-family:Helvetica;-inkscape-font-specification:Helvetica;writing-mode:lr-tb;fill:#4d4d4d;fill-opacity:1;fill-rule:nonzero;stroke:none"
         id="text206"><tspan
           x="0 5.0040002"
           y="0"
           sodipodi:role="line"
           id="tspan204">30</tspan></text></g><g
       id="g208" /><g
       id="g210" /><g
       id="g212" /><g
       id="g214" /><g
       id="g216" /><g
       id="g218"><text
         transform="matrix(1,0,0,-1,163.61,8.48)"
         style="font-variant:normal;font-weight:normal;font-size:11px;font-family:Helvetica;-inkscape-font-specification:Helvetica;writing-mode:lr-tb;fill:#000000;fill-opacity:1;fill-rule:nonzero;stroke:none"
         id="text222"><tspan
           x="0 9.1630001 15.279 18.337 23.837 29.952999 33.011002 36.674 46.452999"
           y="0"
           sodipodi:role="line"
           id="tspan220">Match (%)</tspan></text></g><g
       id="g224" /><g
       id="g226"><text
         transform="matrix(0,1,1,0,13.38,113.42)"
         style="font-variant:normal;font-weight:normal;font-size:11px;font-family:Helvetica;-inkscape-font-specification:Helvetica;writing-mode:lr-tb;fill:#000000;fill-opacity:1;fill-rule:nonzero;stroke:none"
         id="text230"><tspan
           x="0 7.9419999 14.058 23.111 29.226999 31.669001 37.785 40.842999 43.285 48.509998 54.625999 57.683998 64.404999 67.958 74.073997 79.573997 82.632004 85.073997 91.190002 97.306 100.364 104.027 109.527"
           y="0"
           sodipodi:role="line"
           id="tspan228">Cumulative Fraction (k)</tspan></text></g><g
       id="g232" /><g
       id="g234" /><g
       id="g236" /><g
       id="g238" /><g
       id="g240" /><g
       id="g242" /><g
       id="g244" /><g
       id="g246" /><g
       id="g248" /><g
       id="g250" /><g
       id="g252" /><g
       id="g254" /></g></svg>
