<?xml version="1.0" encoding="UTF-8" standalone="no"?>
<svg
   xmlns:dc="http://purl.org/dc/elements/1.1/"
   xmlns:cc="http://creativecommons.org/ns#"
   xmlns:rdf="http://www.w3.org/1999/02/22-rdf-syntax-ns#"
   xmlns:svg="http://www.w3.org/2000/svg"
   xmlns="http://www.w3.org/2000/svg"
   xmlns:sodipodi="http://sodipodi.sourceforge.net/DTD/sodipodi-0.dtd"
   xmlns:inkscape="http://www.inkscape.org/namespaces/inkscape"
   version="1.1"
   id="svg2"
   xml:space="preserve"
   width="498.66666"
   height="437.33334"
   viewBox="0 0 498.66666 437.33334"
   sodipodi:docname="queries_delay.svg"
   inkscape:version="1.0 (6e3e5246a0, 2020-05-07)"><metadata
     id="metadata8"><rdf:RDF><cc:Work
         rdf:about=""><dc:format>image/svg+xml</dc:format><dc:type
           rdf:resource="http://purl.org/dc/dcmitype/StillImage" /><dc:title /></cc:Work></rdf:RDF></metadata><defs
     id="defs6"><clipPath
       clipPathUnits="userSpaceOnUse"
       id="clipPath26"><path
         d="M 50.152,5.48 H 314 V 294 H 50.152 Z"
         id="path24" /></clipPath><clipPath
       clipPathUnits="userSpaceOnUse"
       id="clipPath36"><path
         d="M 50.152,237 H 314 v 1 H 50.152 Z"
         id="path34" /></clipPath><clipPath
       clipPathUnits="userSpaceOnUse"
       id="clipPath46"><path
         d="M 50.152,149 H 314 v 2 H 50.152 Z"
         id="path44" /></clipPath><clipPath
       clipPathUnits="userSpaceOnUse"
       id="clipPath56"><path
         d="M 50.152,62 H 314 v 2 H 50.152 Z"
         id="path54" /></clipPath><clipPath
       clipPathUnits="userSpaceOnUse"
       id="clipPath66"><path
         d="m 105,5.48 h 2 V 294 h -2 z"
         id="path64" /></clipPath><clipPath
       clipPathUnits="userSpaceOnUse"
       id="clipPath76"><path
         d="m 194,5.48 h 1 V 294 h -1 z"
         id="path74" /></clipPath><clipPath
       clipPathUnits="userSpaceOnUse"
       id="clipPath86"><path
         d="m 282,5.48 h 2 V 294 h -2 z"
         id="path84" /></clipPath><clipPath
       clipPathUnits="userSpaceOnUse"
       id="clipPath96"><path
         d="M 50.152,280 H 314 v 2 H 50.152 Z"
         id="path94" /></clipPath><clipPath
       clipPathUnits="userSpaceOnUse"
       id="clipPath106"><path
         d="M 50.152,193 H 314 v 2 H 50.152 Z"
         id="path104" /></clipPath><clipPath
       clipPathUnits="userSpaceOnUse"
       id="clipPath116"><path
         d="M 50.152,105 H 314 v 2 H 50.152 Z"
         id="path114" /></clipPath><clipPath
       clipPathUnits="userSpaceOnUse"
       id="clipPath126"><path
         d="M 50.152,18 H 314 v 2 H 50.152 Z"
         id="path124" /></clipPath><clipPath
       clipPathUnits="userSpaceOnUse"
       id="clipPath136"><path
         d="m 61,5.48 h 2 V 294 h -2 z"
         id="path134" /></clipPath><clipPath
       clipPathUnits="userSpaceOnUse"
       id="clipPath146"><path
         d="m 149,5.48 h 2 V 294 h -2 z"
         id="path144" /></clipPath><clipPath
       clipPathUnits="userSpaceOnUse"
       id="clipPath156"><path
         d="m 238,5.48 h 2 V 294 h -2 z"
         id="path154" /></clipPath></defs><sodipodi:namedview
     inkscape:document-rotation="0"
     pagecolor="#ffffff"
     bordercolor="#666666"
     borderopacity="1"
     objecttolerance="10"
     gridtolerance="10"
     guidetolerance="10"
     inkscape:pageopacity="0"
     inkscape:pageshadow="2"
     inkscape:window-width="1920"
     inkscape:window-height="1025"
     id="namedview4"
     showgrid="false"
     inkscape:zoom="1.9184451"
     inkscape:cx="249.33333"
     inkscape:cy="218.66667"
     inkscape:window-x="0"
     inkscape:window-y="27"
     inkscape:window-maximized="1"
     inkscape:current-layer="g160" /><g
     id="g10"
     inkscape:groupmode="layer"
     inkscape:label="queries_delay"
     transform="matrix(1.3333333,0,0,1.3333333,0,7.5999999e-6)"><g
       id="g20"><g
         id="g22"
         clip-path="url(#clipPath26)"><path
           d="M 50.152,5.477 H 313.843 V 293.848 H 50.152 Z"
           style="fill:#ebebeb;fill-opacity:1;fill-rule:nonzero;stroke:none"
           id="path28" /></g></g><g
       id="g30"><g
         id="g32"
         clip-path="url(#clipPath36)"><path
           d="M 50.152,237.281 H 313.844"
           style="fill:none;stroke:#ffffff;stroke-width:0.533489;stroke-linecap:butt;stroke-linejoin:round;stroke-miterlimit:10;stroke-dasharray:none;stroke-opacity:1"
           id="path38" /></g></g><g
       id="g40"><g
         id="g42"
         clip-path="url(#clipPath46)"><path
           d="M 50.152,150.066 H 313.844"
           style="fill:none;stroke:#ffffff;stroke-width:0.533489;stroke-linecap:butt;stroke-linejoin:round;stroke-miterlimit:10;stroke-dasharray:none;stroke-opacity:1"
           id="path48" /></g></g><g
       id="g50"><g
         id="g52"
         clip-path="url(#clipPath56)"><path
           d="M 50.152,62.855 H 313.844"
           style="fill:none;stroke:#ffffff;stroke-width:0.533489;stroke-linecap:butt;stroke-linejoin:round;stroke-miterlimit:10;stroke-dasharray:none;stroke-opacity:1"
           id="path58" /></g></g><g
       id="g60"><g
         id="g62"
         clip-path="url(#clipPath66)"><path
           d="M 106.008,293.848 V 5.48"
           style="fill:none;stroke:#ffffff;stroke-width:0.533489;stroke-linecap:butt;stroke-linejoin:round;stroke-miterlimit:10;stroke-dasharray:none;stroke-opacity:1"
           id="path68" /></g></g><g
       id="g70"><g
         id="g72"
         clip-path="url(#clipPath76)"><path
           d="M 194.531,293.848 V 5.48"
           style="fill:none;stroke:#ffffff;stroke-width:0.533489;stroke-linecap:butt;stroke-linejoin:round;stroke-miterlimit:10;stroke-dasharray:none;stroke-opacity:1"
           id="path78" /></g></g><g
       id="g80"><g
         id="g82"
         clip-path="url(#clipPath86)"><path
           d="M 283.059,293.848 V 5.48"
           style="fill:none;stroke:#ffffff;stroke-width:0.533489;stroke-linecap:butt;stroke-linejoin:round;stroke-miterlimit:10;stroke-dasharray:none;stroke-opacity:1"
           id="path88" /></g></g><g
       id="g90"><g
         id="g92"
         clip-path="url(#clipPath96)"><path
           d="M 50.152,280.887 H 313.844"
           style="fill:none;stroke:#ffffff;stroke-width:1.06698;stroke-linecap:butt;stroke-linejoin:round;stroke-miterlimit:10;stroke-dasharray:none;stroke-opacity:1"
           id="path98" /></g></g><g
       id="g100"><g
         id="g102"
         clip-path="url(#clipPath106)"><path
           d="M 50.152,193.672 H 313.844"
           style="fill:none;stroke:#ffffff;stroke-width:1.06698;stroke-linecap:butt;stroke-linejoin:round;stroke-miterlimit:10;stroke-dasharray:none;stroke-opacity:1"
           id="path108" /></g></g><g
       id="g110"><g
         id="g112"
         clip-path="url(#clipPath116)"><path
           d="M 50.152,106.461 H 313.844"
           style="fill:none;stroke:#ffffff;stroke-width:1.06698;stroke-linecap:butt;stroke-linejoin:round;stroke-miterlimit:10;stroke-dasharray:none;stroke-opacity:1"
           id="path118" /></g></g><g
       id="g120"><g
         id="g122"
         clip-path="url(#clipPath126)"><path
           d="M 50.152,19.25 H 313.844"
           style="fill:none;stroke:#ffffff;stroke-width:1.06698;stroke-linecap:butt;stroke-linejoin:round;stroke-miterlimit:10;stroke-dasharray:none;stroke-opacity:1"
           id="path128" /></g></g><g
       id="g130"><g
         id="g132"
         clip-path="url(#clipPath136)"><path
           d="M 61.746,293.848 V 5.48"
           style="fill:none;stroke:#ffffff;stroke-width:1.06698;stroke-linecap:butt;stroke-linejoin:round;stroke-miterlimit:10;stroke-dasharray:none;stroke-opacity:1"
           id="path138" /></g></g><g
       id="g140"><g
         id="g142"
         clip-path="url(#clipPath146)"><path
           d="M 150.27,293.848 V 5.48"
           style="fill:none;stroke:#ffffff;stroke-width:1.06698;stroke-linecap:butt;stroke-linejoin:round;stroke-miterlimit:10;stroke-dasharray:none;stroke-opacity:1"
           id="path148" /></g></g><g
       id="g150"><g
         id="g152"
         clip-path="url(#clipPath156)"><path
           d="M 238.797,293.848 V 5.48"
           style="fill:none;stroke:#ffffff;stroke-width:1.06698;stroke-linecap:butt;stroke-linejoin:round;stroke-miterlimit:10;stroke-dasharray:none;stroke-opacity:1"
           id="path158" /></g></g><g
       id="g160"><path
         d="M 62.137,280.742 H 301.855"
         style="fill:none;stroke:#f8766d;stroke-width:2.13396;stroke-linecap:butt;stroke-linejoin:round;stroke-miterlimit:10;stroke-dasharray:none;stroke-opacity:1"
         id="path162" /><path
         d="m 62.137,246.059 1.019,-31.61 1.676,-25.176 0.398,-4.316 1.094,-9.984 1.68,-11.914 0.402,-2.61 1.02,-6.383 1.449,-6.867 0.43,-1.898 1.234,-5.09 1.477,-5.578 0.429,-1.422 1.328,-4.211 2.09,-6.227 1.067,-3.019 1.742,-4.617 0.406,-0.836 1.035,-2.031 1.723,-3.579 0.379,-0.738 1.023,-1.664 1.653,-2.902 1.418,-2.399 1.625,-2.797 0.394,-0.656 0.973,-1.492 1.402,-2.035 0.426,-0.485 1.16,-1.621 1.406,-1.91 1.696,-1.875 1.687,-1.758 0.379,-0.293 1.082,-1.164 1.734,-2.004 0.387,-0.359 1.094,-1.203 1.664,-1.66 0.391,-0.364 1.078,-0.878 1.64,-1.305 1.414,-1.051 1.579,-1.148 0.398,-0.231 1.008,-0.676 1.375,-0.968 0.402,-0.184 1.195,-0.863 1.418,-1.024 0.422,-0.246 1.293,-0.89 2.035,-1.371 1.11,-0.747 1.75,-0.964 0.336,-0.246 1.078,-0.672 1.711,-1.164 1.465,-0.899 1.644,-1.012 0.395,-0.23 1.035,-0.504 1.578,-0.723 0.391,-0.269 1.003,-0.488 1.387,-0.7 1.602,-0.879 1.41,-0.539 0.418,-0.195 1.281,-0.703 1.672,-0.988 0.367,-0.157 1.059,-0.609 1.664,-0.668 0.394,-0.269 1.059,-0.571 1.668,-0.957 0.395,-0.078 1.019,-0.406 1.563,-0.656 0.382,-0.122 0.946,-0.347 1.48,-0.512 0.387,-0.176 0.918,-0.343 1.262,-0.352 0.394,-0.086 1.09,-0.351 1.305,-0.481 0.363,-0.105 0.996,-0.301 1.477,-0.633 0.39,-0.16 0.957,-0.328 1.637,-0.52 0.391,-0.109 0.73,-0.274 1.211,-0.39 0.34,-0.051 0.82,-0.234 1.332,-0.489 0.363,-0.078 0.829,-0.39 1.312,-0.532 1.156,-0.422 1.153,-0.359 1.394,-0.383 1.215,-0.367 0.379,-0.133 0.98,-0.261 1.391,-0.45 0.297,-0.086 0.742,-0.199 1.191,-0.363 1.02,-0.274 1.172,-0.394 0.293,-0.063 0.703,-0.14 0.746,-0.238 0.609,-0.168 0.789,-0.266 0.297,-0.094 0.766,-0.18 0.965,-0.238 1.062,-0.18 0.899,-0.25 0.293,-0.05 0.707,-0.117 1.07,-0.297 0.274,-0.09 0.812,-0.16 1.52,-0.457 0.765,-0.231 1.121,-0.281 0.289,-0.074 0.743,-0.211 1.14,-0.309 1.051,-0.215 1.098,-0.367 0.289,-0.043 0.722,-0.183 0.989,-0.235 0.308,-0.066 0.863,-0.172 1.364,-0.297 0.894,-0.266 1.481,-0.339 0.765,-0.172 1.227,-0.215 0.297,-0.059 0.734,-0.113 1.215,-0.234 0.281,-0.071 0.731,-0.105 1.156,-0.215 0.957,-0.199 1.094,-0.262 0.929,-0.137 0.95,-0.238 0.297,-0.082 1.761,-0.324 0.297,-0.102 0.844,-0.164 1.18,-0.234 0.277,-0.047 0.746,-0.207 1.195,-0.203 1.035,-0.289 1.196,-0.207 1.066,-0.176 1.5,-0.301 0.387,-0.062 0.898,-0.149 1.446,-0.359 0.383,-0.055 0.874,-0.137 1.258,-0.207 0.399,-0.066 1,-0.125 1.258,-0.238 1.519,-0.293 1.535,-0.243 1.379,-0.214 1.602,-0.211 1.371,-0.297 1.555,-0.235 0.398,-0.054 0.976,-0.199 1.528,-0.231 1.367,-0.183 1.547,-0.313 0.457,-0.035 0.918,-0.152 1.277,-0.18 0.395,-0.047 1.023,-0.141 1.278,-0.261 0.398,-0.067 1.031,-0.187 1.449,-0.192 1.403,-0.258 1.633,-0.242 1.129,-0.14 1.273,-0.219 0.371,-0.047 0.879,-0.148 1.332,-0.168 1.219,-0.129 1.187,-0.157 1.321,-0.21 1.484,-0.317 1.008,-0.101 1.441,-0.184 0.363,-0.027 0.942,-0.121 1.496,-0.2 0.465,-0.023 0.894,-0.078 1.407,-0.211 0.367,-0.016 0.851,-0.148 1.289,-0.239 1.215,-0.168 1.246,-0.171 1.18,-0.207 1.125,-0.184 2.301,-0.25 0.336,-0.055 0.797,-0.074 1.043,-0.133 0.359,-0.05 1.008,-0.118 1.301,-0.191 0.347,-0.012 0.93,-0.101 1.383,-0.184 0.371,-0.02 0.679,-0.101"
         style="fill:none;stroke:#de8c00;stroke-width:2.13396;stroke-linecap:butt;stroke-linejoin:round;stroke-miterlimit:10;stroke-dasharray:4.26791, 4.26791;stroke-dashoffset:0;stroke-opacity:1"
         id="path164" /><path
         d="m 62.137,246.062 1.019,-31.609 1.676,-25.074 0.398,-4.195 1.094,-9.973 1.68,-11.93 0.402,-2.57 1.02,-6.219 1.449,-6.851 0.43,-1.829 1.234,-5.039 1.477,-5.753 0.429,-1.543 1.328,-4.289 2.09,-6.192 1.067,-2.973 1.742,-4.566 0.406,-0.824 1.035,-2.113 1.723,-3.668 0.379,-0.75 1.023,-1.719 1.653,-2.813 1.418,-2.285 1.625,-2.629 0.394,-0.652 0.973,-1.371 1.402,-1.985 0.426,-0.445 1.16,-1.609 1.406,-1.844 1.696,-1.871 1.687,-1.82 0.379,-0.321 1.082,-1.179 1.734,-2.063 0.387,-0.406 1.094,-1.164 1.664,-1.692 0.391,-0.382 1.078,-0.918 1.64,-1.34 1.414,-1.121 1.579,-1.293 0.398,-0.25 1.008,-0.664 1.375,-0.969 0.402,-0.207 1.195,-0.86 1.418,-1.007 0.422,-0.207 1.293,-0.93 2.035,-1.375 1.11,-0.762 1.75,-0.949 0.336,-0.285 1.078,-0.766 1.711,-1.207 1.465,-0.875 1.644,-1.086 0.395,-0.215 1.035,-0.504 1.578,-0.722 0.391,-0.301 1.003,-0.527 1.387,-0.657 1.602,-0.851 1.41,-0.582 0.418,-0.223 1.281,-0.707 1.672,-0.961 0.367,-0.187 1.059,-0.602 1.664,-0.703 0.394,-0.285 1.059,-0.609 1.668,-0.938 0.395,-0.078 1.019,-0.414 1.563,-0.66 0.382,-0.172 0.946,-0.324 1.48,-0.571 0.387,-0.156 0.918,-0.289 1.262,-0.391 0.394,-0.09 1.09,-0.335 1.305,-0.446 0.363,-0.156 0.996,-0.289 1.477,-0.555 0.39,-0.109 0.957,-0.317 1.637,-0.601 0.391,-0.09 0.73,-0.269 1.211,-0.395 0.34,-0.07 0.82,-0.239 1.332,-0.484 0.363,-0.051 0.829,-0.437 1.312,-0.535 1.156,-0.364 1.153,-0.363 1.394,-0.387 1.215,-0.363 0.379,-0.113 0.98,-0.309 1.391,-0.476 0.297,-0.075 0.742,-0.222 1.191,-0.403 1.02,-0.324 1.172,-0.367 0.293,-0.063 0.703,-0.121 0.746,-0.234 0.609,-0.195 0.789,-0.348 0.297,-0.062 0.766,-0.2 0.965,-0.242 1.062,-0.148 0.899,-0.282 0.293,-0.027 0.707,-0.133 1.07,-0.281 0.274,-0.086 0.812,-0.168 1.52,-0.441 0.765,-0.192 1.121,-0.312 0.289,-0.094 0.743,-0.246 1.14,-0.324 1.051,-0.266 1.098,-0.328 0.289,-0.043 0.722,-0.23 0.989,-0.243 0.308,-0.066 0.863,-0.211 1.364,-0.246 0.894,-0.219 1.481,-0.32 0.765,-0.16 1.227,-0.231 0.297,-0.066 0.734,-0.152 1.215,-0.239 0.281,-0.074 0.731,-0.129 1.156,-0.172 0.957,-0.191 1.094,-0.246 0.929,-0.176 0.95,-0.238 0.297,-0.067 1.761,-0.312 0.297,-0.094 0.844,-0.148 1.18,-0.278 0.277,-0.054 0.746,-0.239 1.195,-0.258 1.035,-0.3 1.196,-0.274 1.066,-0.191 1.5,-0.281 0.387,-0.075 0.898,-0.14 1.446,-0.317 0.383,-0.058 0.874,-0.153 1.258,-0.191 0.399,-0.07 1,-0.118 1.258,-0.273 1.519,-0.301 1.535,-0.234 1.379,-0.235 1.602,-0.226 1.371,-0.305 1.555,-0.269 0.398,-0.074 0.976,-0.157 1.528,-0.222 1.367,-0.239 1.547,-0.297 0.457,-0.035 0.918,-0.172 1.277,-0.183 0.395,-0.035 1.023,-0.176 1.278,-0.242 0.398,-0.078 1.031,-0.204 1.449,-0.203 1.403,-0.293 1.633,-0.277 1.129,-0.129 1.273,-0.215 0.371,-0.058 0.879,-0.153 1.332,-0.148 1.219,-0.121 1.187,-0.16 1.321,-0.219 1.484,-0.297 1.008,-0.102 1.441,-0.148 0.363,-0.039 0.942,-0.133 1.496,-0.183 0.465,-0.024 0.894,-0.086 1.407,-0.234 0.367,-0.055 0.851,-0.125 1.289,-0.242 1.215,-0.137 1.246,-0.121 1.18,-0.203 1.125,-0.152 2.301,-0.301 0.336,-0.055 0.797,-0.094 1.043,-0.086 0.359,-0.046 1.008,-0.086 1.301,-0.207 0.347,-0.016 0.93,-0.059 1.383,-0.187 0.371,-0.043 0.679,-0.125"
         style="fill:none;stroke:#b79f00;stroke-width:2.13396;stroke-linecap:butt;stroke-linejoin:round;stroke-miterlimit:10;stroke-dasharray:8.53583, 4.26791;stroke-dashoffset:0;stroke-opacity:1"
         id="path166" /><path
         d="m 62.137,245.43 1.019,-31.489 1.676,-25.113 0.398,-4.285 1.094,-9.867 1.68,-12.133 0.402,-2.633 1.02,-6.18 1.449,-7.003 0.43,-1.942 1.234,-4.957 1.477,-5.672 0.429,-1.492 1.328,-4.277 2.09,-6.039 1.067,-2.961 1.742,-4.563 0.406,-0.785 1.035,-2.09 1.723,-3.769 0.379,-0.707 1.023,-1.785 1.653,-2.918 1.418,-2.176 1.625,-2.715 0.394,-0.609 0.973,-1.422 1.402,-2.051 0.426,-0.449 1.16,-1.567 1.406,-1.828 1.696,-2.004 1.687,-1.801 0.379,-0.304 1.082,-1.156 1.734,-1.954 0.387,-0.371 1.094,-1.133 1.664,-1.726 0.391,-0.371 1.078,-0.906 1.64,-1.301 1.414,-1.071 1.579,-1.183 0.398,-0.25 1.008,-0.684 1.375,-1.011 0.402,-0.227 1.195,-0.812 1.418,-1.032 0.422,-0.234 1.293,-0.93 2.035,-1.496 1.11,-0.699 1.75,-0.938 0.336,-0.273 1.078,-0.66 1.711,-1.297 1.465,-0.945 1.644,-1.079 0.395,-0.226 1.035,-0.527 1.578,-0.754 0.391,-0.305 1.003,-0.492 1.387,-0.672 1.602,-0.856 1.41,-0.566 0.418,-0.207 1.281,-0.715 1.672,-0.914 0.367,-0.168 1.059,-0.605 1.664,-0.723 0.394,-0.313 1.059,-0.558 1.668,-1.051 0.395,-0.066 1.019,-0.399 1.563,-0.707 0.382,-0.136 0.946,-0.368 1.48,-0.547 0.387,-0.136 0.918,-0.336 1.262,-0.41 0.394,-0.098 1.09,-0.383 1.305,-0.453 0.363,-0.117 0.996,-0.301 1.477,-0.582 0.39,-0.168 0.957,-0.293 1.637,-0.527 0.391,-0.106 0.73,-0.25 1.211,-0.418 0.34,-0.054 0.82,-0.254 1.332,-0.496 0.363,-0.063 0.829,-0.422 1.312,-0.551 1.156,-0.382 1.153,-0.368 1.394,-0.367 1.215,-0.336 0.379,-0.129 0.98,-0.289 1.391,-0.484 0.297,-0.066 0.742,-0.196 1.191,-0.402 1.02,-0.281 1.172,-0.375 0.293,-0.055 0.703,-0.141 0.746,-0.25 0.609,-0.121 0.789,-0.304 0.297,-0.082 0.766,-0.184 0.965,-0.246 1.062,-0.145 0.899,-0.32 0.293,-0.035 0.707,-0.141 1.07,-0.281 0.274,-0.098 0.812,-0.168 1.52,-0.457 0.765,-0.203 1.121,-0.308 0.289,-0.067 0.743,-0.258 1.14,-0.339 1.051,-0.2 1.098,-0.32 0.289,-0.039 0.722,-0.184 0.989,-0.261 0.308,-0.063 0.863,-0.179 1.364,-0.27 0.894,-0.238 1.481,-0.325 0.765,-0.183 1.227,-0.215 0.297,-0.043 0.734,-0.117 1.215,-0.254 0.281,-0.047 0.731,-0.121 1.156,-0.145 0.957,-0.21 1.094,-0.254 0.929,-0.168 0.95,-0.207 0.297,-0.059 1.761,-0.316 0.297,-0.082 0.844,-0.133 1.18,-0.274 0.277,-0.07 0.746,-0.207 1.195,-0.246 1.035,-0.313 1.196,-0.234 1.066,-0.16 1.5,-0.277 0.387,-0.079 0.898,-0.156 1.446,-0.371 0.383,-0.059 0.874,-0.171 1.258,-0.223 0.399,-0.047 1,-0.105 1.258,-0.254 1.519,-0.285 1.535,-0.235 1.379,-0.226 1.602,-0.239 1.371,-0.316 1.555,-0.27 0.398,-0.07 0.976,-0.207 1.528,-0.242 1.367,-0.18 1.547,-0.312 0.457,-0.047 0.918,-0.172 1.277,-0.203 0.395,-0.039 1.023,-0.137 1.278,-0.277 0.398,-0.075 1.031,-0.203 1.449,-0.164 1.403,-0.293 1.633,-0.226 1.129,-0.172 1.273,-0.262 0.371,-0.019 0.879,-0.137 1.332,-0.168 1.219,-0.141 1.187,-0.179 1.321,-0.204 1.484,-0.335 1.008,-0.118 1.441,-0.172 0.363,-0.035 0.942,-0.136 1.496,-0.207 0.465,-0.028 0.894,-0.113 1.407,-0.234 0.367,-0.032 0.851,-0.156 1.289,-0.227 1.215,-0.156 1.246,-0.14 1.18,-0.192 1.125,-0.176 2.301,-0.285 0.336,-0.031 0.797,-0.102 1.043,-0.109 0.359,-0.051 1.008,-0.097 1.301,-0.196 0.347,-0.027 0.93,-0.082 1.383,-0.168 0.371,-0.035 0.679,-0.129"
         style="fill:none;stroke:#7cae00;stroke-width:2.13396;stroke-linecap:butt;stroke-linejoin:round;stroke-miterlimit:10;stroke-dasharray:8.53583, 8.53583;stroke-dashoffset:0;stroke-opacity:1"
         id="path168" /><path
         d="m 62.137,279.105 1.019,-0.058 1.676,-0.008 h 237.023"
         style="fill:none;stroke:#00ba38;stroke-width:2.13396;stroke-linecap:butt;stroke-linejoin:round;stroke-miterlimit:10;stroke-dasharray:2.13396, 6.40187;stroke-dashoffset:0;stroke-opacity:1"
         id="path170" /><path
         d="m 62.137,272.676 1.019,-2.617 1.676,-0.809 0.398,-0.078 1.094,-0.203 1.68,-0.157 0.402,-0.015 1.02,-0.031 1.449,-0.086 0.43,-0.032 1.234,-0.035 1.477,-0.039 0.429,-0.004 1.328,-0.015 2.09,-0.051 1.067,-0.016 1.742,-0.07 h 4.566 l 1.653,-0.008 h 3.437 l 0.973,-0.004 1.402,-0.015 h 2.992 l 1.696,-0.004 h 14.129 l 0.398,-0.004 h 13.422 l 1.711,-0.004 h 4.539 l 1.578,-0.008 h 1.394 l 1.387,-0.004 1.602,-0.004 h 6.207 l 1.664,-0.011 h 25.269 l 0.829,-0.004 h 2.468 l 1.153,-0.004 h 11.523 l 0.609,-0.004 h 9.454 l 0.765,-0.004 h 10.871 l 1.481,-0.004 h 92.011"
         style="fill:none;stroke:#00c08b;stroke-width:2.13396;stroke-linecap:butt;stroke-linejoin:round;stroke-miterlimit:10;stroke-dasharray:2.13396, 6.40187, 8.53583, 6.40187;stroke-dashoffset:0;stroke-opacity:1"
         id="path172" /><path
         d="m 62.137,259.969 1.019,-13.157 1.676,-7.46 0.398,-0.907 1.094,-1.98 1.68,-2.356 0.402,-0.398 1.02,-0.981 1.449,-1.035 0.43,-0.398 1.234,-0.609 1.477,-0.657 0.429,-0.179 1.328,-0.387 2.09,-0.688 1.067,-0.308 1.742,-0.461 0.406,-0.082 1.035,-0.094 1.723,-0.242 0.379,-0.031 1.023,-0.145 1.653,-0.269 1.418,-0.145 1.625,-0.211 0.394,-0.023 0.973,-0.106 1.402,-0.148 0.426,-0.028 1.16,-0.054 1.406,-0.09 1.696,-0.078 1.687,-0.098 0.379,-0.012 1.082,-0.05 1.734,-0.141 0.387,-0.031 1.094,-0.059 1.664,-0.148 0.391,-0.043 1.078,-0.043 1.64,-0.039 1.414,-0.067 1.579,-0.086 0.398,-0.027 1.008,-0.055 1.375,-0.058 0.402,-0.016 1.195,-0.051 1.418,-0.039 0.422,-0.008 1.293,-0.043 2.035,-0.062 1.11,-0.012 1.75,-0.027 0.336,-0.008 1.078,-0.027 1.711,-0.125 1.465,-0.035 1.644,-0.047 0.395,-0.004 1.035,-0.035 1.578,-0.067 0.391,-0.008 1.003,-0.015 1.387,-0.024 1.602,-0.023 1.41,-0.059 0.418,-0.011 1.281,-0.016 1.672,-0.031 0.367,-0.004 1.059,-0.024 1.664,-0.031 0.394,-0.012 1.059,-0.043 1.668,-0.05 h 0.395 l 1.019,-0.008 1.563,-0.039 h 0.382 l 0.946,-0.012 1.48,-0.039 h 0.387 l 0.918,-0.016 1.262,-0.015 0.394,-0.008 h 1.09 l 1.305,-0.008 h 0.363 l 0.996,-0.019 1.477,-0.036 0.39,-0.027 0.957,-0.008 1.637,-0.027 0.391,-0.008 0.73,-0.004 1.211,-0.035 h 1.16 l 1.332,-0.004 0.363,-0.004 0.829,-0.019 1.312,-0.004 1.156,-0.02 1.153,-0.035 1.394,-0.004 h 1.215 l 0.379,-0.004 0.98,-0.031 1.391,-0.008 0.297,-0.004 0.742,-0.011 1.191,-0.016 1.02,-0.008 1.465,-0.019 h 0.703 l 0.746,-0.012 0.609,-0.004 0.789,-0.02 0.297,-0.003 0.766,-0.008 h 3.219 l 0.707,-0.004 1.07,-0.004 h 0.274 l 0.812,-0.004 1.52,-0.012 0.765,-0.011 1.121,-0.008 h 0.289 l 0.743,-0.035 1.14,-0.02 1.051,-0.004 1.098,-0.019 h 1.011 l 0.989,-0.008 h 1.171 l 1.364,-0.012 0.894,-0.004 1.481,-0.004 0.765,-0.004 1.227,-0.003 h 1.031 l 1.215,-0.008 h 0.281 l 0.731,-0.012 1.156,-0.008 h 0.957 l 1.094,-0.004 0.929,-0.008 0.95,-0.003 h 0.297 l 1.761,-0.004 h 0.297 l 0.844,-0.012 1.18,-0.008 0.277,-0.004 h 0.746 l 1.195,-0.004 1.035,-0.008 1.196,-0.011 1.066,-0.004 1.5,-0.004 h 1.285 l 1.446,-0.008 h 2.515 l 0.399,-0.004 h 2.258 l 1.519,-0.004 1.535,-0.004 h 1.379 l 1.602,-0.027 1.371,-0.004 1.555,-0.019 h 0.398 l 0.976,-0.004 1.528,-0.016 h 1.367 l 1.547,-0.004 h 0.457 l 0.918,-0.004 h 1.277 l 0.395,-0.007 h 1.023 l 1.278,-0.004 H 260 l 1.031,-0.004 1.449,-0.004 h 5.438 l 0.371,-0.004 h 0.879 l 1.332,-0.008 h 1.219 l 1.187,-0.004 h 3.813 l 1.441,-0.008 h 0.363 l 0.942,-0.004 1.496,-0.003 h 1.359 l 1.407,-0.004 h 3.722 l 1.246,-0.004 1.18,-0.008 H 291 l 2.301,-0.008 h 1.133 l 1.043,-0.008 h 6.378"
         style="fill:none;stroke:#00bfc4;stroke-width:2.13396;stroke-linecap:butt;stroke-linejoin:round;stroke-miterlimit:10;stroke-dasharray:14.9377, 6.40187;stroke-dashoffset:0;stroke-opacity:1"
         id="path174" /><path
         d="m 62.137,251.293 1.019,-24.055 1.676,-16.117 0.398,-2.238 1.094,-4.809 1.68,-5.828 0.402,-1.246 1.02,-2.82 1.449,-2.618 0.43,-0.757 1.234,-1.782 1.477,-1.738 0.429,-0.449 1.328,-1.328 2.09,-2.188 1.067,-0.894 1.742,-1.36 0.406,-0.199 1.035,-0.617 1.723,-1.086 0.379,-0.195 1.023,-0.512 1.653,-0.871 1.418,-0.645 1.625,-0.683 0.394,-0.078 0.973,-0.305 1.402,-0.492 0.426,-0.106 1.16,-0.41 1.406,-0.562 1.696,-0.457 1.687,-0.325 0.379,-0.05 1.082,-0.25 1.734,-0.512 0.387,-0.102 1.094,-0.261 1.664,-0.45 0.391,-0.101 1.078,-0.152 1.64,-0.286 1.414,-0.261 1.579,-0.289 0.398,-0.055 1.008,-0.168 1.375,-0.152 0.402,-0.036 1.195,-0.148 1.418,-0.234 0.422,-0.051 1.293,-0.231 2.035,-0.355 1.11,-0.152 1.75,-0.207 0.336,-0.036 1.078,-0.14 1.711,-0.332 1.465,-0.2 1.644,-0.171 0.395,-0.032 1.035,-0.089 1.578,-0.172 0.391,-0.067 1.003,-0.097 1.387,-0.157 1.602,-0.187 1.41,-0.09 0.418,-0.047 1.281,-0.133 1.672,-0.211 0.367,-0.035 1.059,-0.101 1.664,-0.121 0.394,-0.055 1.059,-0.125 1.668,-0.215 0.395,-0.023 1.019,-0.047 1.563,-0.106 0.382,-0.019 0.946,-0.094 1.48,-0.121 0.387,-0.043 0.918,-0.106 1.262,-0.066 0.394,-0.027 1.09,-0.039 1.305,-0.059 0.363,-0.016 0.996,-0.031 1.477,-0.137 0.39,-0.062 0.957,-0.047 1.637,-0.105 0.391,-0.02 0.73,-0.027 1.211,-0.067 0.34,-0.011 0.82,-0.036 1.332,-0.105 h 0.363 l 0.829,-0.109 1.312,-0.047 1.156,-0.071 1.153,-0.101 1.394,-0.035 1.215,-0.028 0.379,-0.011 0.98,-0.051 1.391,-0.063 0.297,-0.011 0.742,-0.024 1.191,-0.043 1.02,-0.039 1.172,-0.039 0.293,-0.008 0.703,-0.039 0.746,-0.039 0.609,-0.008 0.789,-0.035 0.297,-0.027 0.766,-0.051 0.965,-0.047 1.062,-0.019 0.899,-0.043 0.293,-0.02 0.707,-0.019 1.07,-0.024 h 0.274 l 0.812,-0.019 1.52,-0.098 0.765,-0.035 1.121,-0.035 0.289,-0.012 0.743,-0.023 1.14,-0.047 1.051,-0.028 1.098,-0.043 h 0.289 l 0.722,-0.039 0.989,-0.023 0.308,-0.012 0.863,-0.016 1.364,-0.05 0.894,-0.035 1.481,-0.036 0.765,-0.027 1.227,-0.031 0.297,-0.016 0.734,-0.004 1.215,-0.035 0.281,-0.004 0.731,-0.012 1.156,-0.023 0.957,-0.055 1.094,-0.035 0.929,-0.031 0.95,-0.027 0.297,-0.02 1.761,-0.023 0.297,-0.036 0.844,-0.015 1.18,-0.063 h 0.277 l 0.746,-0.019 1.195,-0.027 1.035,-0.051 1.196,-0.035 1.066,-0.012 1.5,-0.039 0.387,-0.008 0.898,-0.008 1.446,-0.047 0.383,-0.047 0.874,-0.023 1.258,-0.016 0.399,-0.011 1,-0.024 1.258,-0.012 1.519,-0.039 1.535,-0.023 1.379,-0.063 1.602,-0.07 1.371,-0.043 1.555,-0.058 0.398,-0.004 0.976,-0.016 1.528,-0.027 1.367,-0.02 1.547,-0.008 0.457,-0.011 0.918,-0.024 1.277,-0.019 0.395,-0.012 1.023,-0.012 1.278,-0.051 0.398,-0.003 1.031,-0.024 1.449,-0.016 1.403,-0.046 1.633,-0.059 1.129,-0.035 1.273,-0.016 0.371,-0.008 0.879,-0.007 1.332,-0.008 1.219,-0.039 1.187,-0.004 1.321,-0.059 1.484,-0.015 1.008,-0.02 1.441,-0.008 0.363,-0.004 0.942,-0.019 1.496,-0.02 h 0.465 l 0.894,-0.007 1.407,-0.02 0.367,-0.004 0.851,-0.023 1.289,-0.012 1.215,-0.024 1.246,-0.003 1.18,-0.051 1.125,-0.028 2.301,-0.007 0.336,-0.004 0.797,-0.008 1.043,-0.02 h 1.367 l 1.301,-0.031 0.347,-0.004 0.93,-0.008 1.383,-0.011 h 0.371 l 0.679,-0.016"
         style="fill:none;stroke:#00b4f0;stroke-width:2.13396;stroke-linecap:butt;stroke-linejoin:round;stroke-miterlimit:10;stroke-dasharray:4.26791, 4.26791, 12.8037, 4.26791;stroke-dashoffset:0;stroke-opacity:1"
         id="path176" /><path
         d="m 62.137,246.961 1.019,-29.723 1.676,-21.746 0.398,-3.32 1.094,-7.453 1.68,-8.34 0.402,-1.738 1.02,-4.282 1.449,-4.382 0.43,-1.231 1.234,-3.41 1.477,-3.457 0.429,-0.875 1.328,-2.527 2.09,-3.641 1.067,-1.648 1.742,-2.387 0.406,-0.496 1.035,-1.114 1.723,-1.972 0.379,-0.387 1.023,-0.871 1.653,-1.527 1.418,-1.172 1.625,-1.246 0.394,-0.289 0.973,-0.661 1.402,-0.945 0.426,-0.25 1.16,-0.797 1.406,-1.051 1.696,-0.839 1.687,-0.809 0.379,-0.156 1.082,-0.571 1.734,-0.964 0.387,-0.188 1.094,-0.504 1.664,-0.765 0.391,-0.168 1.078,-0.403 1.64,-0.578 1.414,-0.516 1.579,-0.519 0.398,-0.105 1.008,-0.329 1.375,-0.398 0.402,-0.102 1.195,-0.336 1.418,-0.39 0.422,-0.102 1.293,-0.453 2.035,-0.57 1.11,-0.309 1.75,-0.472 0.336,-0.114 1.078,-0.258 1.711,-0.574 1.465,-0.422 1.644,-0.316 0.395,-0.066 1.035,-0.2 1.578,-0.297 0.391,-0.132 1.003,-0.2 1.387,-0.347 1.602,-0.375 1.41,-0.223 0.418,-0.086 1.281,-0.293 1.672,-0.422 0.367,-0.058 1.059,-0.336 1.664,-0.281 0.394,-0.145 1.059,-0.172 1.668,-0.336 0.395,-0.043 1.019,-0.133 1.563,-0.398 0.382,-0.078 0.946,-0.168 1.48,-0.242 0.387,-0.063 0.918,-0.137 1.262,-0.136 0.394,-0.047 1.09,-0.117 1.305,-0.184 0.363,-0.039 0.996,-0.101 1.477,-0.297 0.39,-0.075 0.957,-0.128 1.637,-0.223 0.391,-0.035 0.73,-0.09 1.211,-0.117 0.34,-0.039 0.82,-0.071 1.332,-0.156 0.363,-0.008 0.829,-0.144 1.312,-0.137 1.156,-0.18 1.153,-0.164 1.394,-0.152 1.215,-0.16 0.379,-0.047 0.98,-0.059 1.391,-0.144 0.297,-0.016 0.742,-0.062 1.191,-0.18 1.02,-0.098 1.172,-0.129 0.293,-0.011 0.703,-0.047 0.746,-0.074 0.609,-0.075 0.789,-0.07 0.297,-0.027 0.766,-0.086 0.965,-0.098 1.062,-0.055 0.899,-0.129 0.293,-0.011 0.707,-0.039 1.07,-0.078 0.274,-0.024 0.812,-0.055 1.52,-0.156 0.765,-0.035 1.121,-0.062 0.289,-0.043 0.743,-0.102 1.14,-0.102 1.051,-0.082 1.098,-0.105 0.289,-0.023 0.722,-0.098 0.989,-0.074 0.308,-0.036 0.863,-0.058 1.364,-0.082 0.894,-0.086 1.481,-0.102 0.765,-0.074 1.227,-0.137 0.297,-0.011 0.734,-0.028 1.215,-0.086 0.281,-0.023 0.731,-0.043 1.156,-0.062 0.957,-0.086 1.094,-0.051 0.929,-0.059 0.95,-0.094 0.297,-0.019 1.761,-0.117 0.297,-0.039 0.844,-0.032 1.18,-0.109 0.277,-0.012 0.746,-0.09 1.195,-0.054 1.035,-0.114 1.196,-0.117 1.066,-0.043 1.5,-0.066 0.387,-0.047 0.898,-0.051 1.446,-0.054 0.383,-0.02 0.874,-0.043 1.258,-0.078 0.399,-0.016 1,-0.062 1.258,-0.078 1.519,-0.047 1.535,-0.078 1.379,-0.063 1.602,-0.125 1.371,-0.094 1.555,-0.082 0.398,-0.023 0.976,-0.074 1.528,-0.063 1.367,-0.039 1.547,-0.066 0.457,-0.008 0.918,-0.066 1.277,-0.063 0.395,-0.004 1.023,-0.074 1.278,-0.109 0.398,-0.028 1.031,-0.078 1.449,-0.055 1.403,-0.109 1.633,-0.074 1.129,-0.047 1.273,-0.066 0.371,-0.004 0.879,-0.036 1.332,-0.078 1.219,-0.062 1.187,-0.02 1.321,-0.07 1.484,-0.055 1.008,-0.027 1.441,-0.047 0.363,-0.019 0.942,-0.032 1.496,-0.035 0.465,-0.008 0.894,-0.027 1.407,-0.055 0.367,-0.007 0.851,-0.055 1.289,-0.039 1.215,-0.039 1.246,-0.055 1.18,-0.082 1.125,-0.055 2.301,-0.062 0.336,-0.012 0.797,-0.019 1.043,-0.016 0.359,-0.004 1.008,-0.055 1.301,-0.05 0.347,-0.004 0.93,-0.02 1.383,-0.047 0.371,-0.008 0.679,-0.031"
         style="fill:none;stroke:#619cff;stroke-width:2.13396;stroke-linecap:butt;stroke-linejoin:round;stroke-miterlimit:10;stroke-dasharray:2.13396, 4.26791, 4.26791, 4.26791, 6.40187, 4.26791, 8.53583, 4.26791;stroke-dashoffset:0;stroke-opacity:1"
         id="path178" /><path
         d="m 62.137,246.68 1.019,-31.196 1.676,-24.043 0.398,-3.89 1.094,-9.223 1.68,-10.66 0.402,-2.332 1.02,-5.66 1.449,-5.996 0.43,-1.68 1.234,-4.375 1.477,-4.789 0.429,-1.258 1.328,-3.437 2.09,-5.176 1.067,-2.363 1.742,-3.52 0.406,-0.625 1.035,-1.805 1.723,-3.019 0.379,-0.508 1.023,-1.453 1.653,-2.36 1.418,-1.91 1.625,-1.98 0.394,-0.524 0.973,-1.168 1.402,-1.648 0.426,-0.391 1.16,-1.25 1.406,-1.488 1.696,-1.367 1.687,-1.379 0.379,-0.234 1.082,-0.926 1.734,-1.512 0.387,-0.246 1.094,-0.824 1.664,-1.25 0.391,-0.262 1.078,-0.66 1.64,-0.848 1.414,-0.781 1.579,-0.816 0.398,-0.168 1.008,-0.477 1.375,-0.629 0.402,-0.129 1.195,-0.562 1.418,-0.688 0.422,-0.179 1.293,-0.735 2.035,-0.933 1.11,-0.602 1.75,-0.687 0.336,-0.188 1.078,-0.523 1.711,-0.852 1.465,-0.492 1.644,-0.664 0.395,-0.156 1.035,-0.422 1.578,-0.602 0.391,-0.199 1.003,-0.414 1.387,-0.508 1.602,-0.629 1.41,-0.406 0.418,-0.152 1.281,-0.446 1.672,-0.57 0.367,-0.09 1.059,-0.414 1.664,-0.406 0.394,-0.227 1.059,-0.39 1.668,-0.723 0.395,-0.086 1.019,-0.23 1.563,-0.442 0.382,-0.105 0.946,-0.274 1.48,-0.371 0.387,-0.129 0.918,-0.242 1.262,-0.23 0.394,-0.063 1.09,-0.199 1.305,-0.332 0.363,-0.082 0.996,-0.156 1.477,-0.348 0.39,-0.098 0.957,-0.226 1.637,-0.414 0.391,-0.055 0.73,-0.16 1.211,-0.25 0.34,-0.039 0.82,-0.153 1.332,-0.316 0.363,-0.055 0.829,-0.242 1.312,-0.32 1.156,-0.196 1.153,-0.257 1.394,-0.164 1.215,-0.239 0.379,-0.097 0.98,-0.153 1.391,-0.261 0.297,-0.04 0.742,-0.113 1.191,-0.289 1.02,-0.183 1.172,-0.258 0.293,-0.024 0.703,-0.136 0.746,-0.145 0.609,-0.105 0.789,-0.204 0.297,-0.035 0.766,-0.097 0.965,-0.192 1.062,-0.09 0.899,-0.164 0.293,-0.019 0.707,-0.067 1.07,-0.164 0.274,-0.043 0.812,-0.121 1.52,-0.285 0.765,-0.133 1.121,-0.16 0.289,-0.043 0.743,-0.176 1.14,-0.265 1.051,-0.141 1.098,-0.187 0.289,-0.039 0.722,-0.122 0.989,-0.136 0.308,-0.028 0.863,-0.113 1.364,-0.183 0.894,-0.145 1.481,-0.184 0.765,-0.14 1.227,-0.156 0.297,-0.024 0.734,-0.062 1.215,-0.133 0.281,-0.059 0.731,-0.07 1.156,-0.078 0.957,-0.141 1.094,-0.101 0.929,-0.082 0.95,-0.149 0.297,-0.035 1.761,-0.188 0.297,-0.078 0.844,-0.082 1.18,-0.172 0.277,-0.035 0.746,-0.14 1.195,-0.114 1.035,-0.187 1.196,-0.16 1.066,-0.102 1.5,-0.14 0.387,-0.071 0.898,-0.07 1.446,-0.184 0.383,-0.047 0.874,-0.066 1.258,-0.133 0.399,-0.039 1,-0.09 1.258,-0.097 1.519,-0.121 1.535,-0.176 1.379,-0.11 1.602,-0.179 1.371,-0.164 1.555,-0.129 0.398,-0.039 0.976,-0.118 1.528,-0.101 1.367,-0.106 1.547,-0.179 0.457,-0.024 0.918,-0.086 1.277,-0.156 0.395,-0.012 1.023,-0.082 1.278,-0.14 0.398,-0.039 1.031,-0.137 1.449,-0.09 1.403,-0.191 1.633,-0.117 1.129,-0.071 1.273,-0.144 0.371,-0.024 0.879,-0.066 1.332,-0.109 1.219,-0.083 1.187,-0.082 1.321,-0.156 1.484,-0.148 1.008,-0.063 1.441,-0.094 0.363,-0.023 0.942,-0.055 1.496,-0.097 0.465,-0.016 0.894,-0.055 1.407,-0.14 0.367,-0.012 0.851,-0.094 1.289,-0.16 1.215,-0.086 1.246,-0.082 1.18,-0.152 1.125,-0.09 2.301,-0.164 0.336,-0.043 0.797,-0.086 1.043,-0.055 0.359,-0.015 1.008,-0.071 1.301,-0.136 0.347,-0.02 0.93,-0.039 1.383,-0.082 0.371,-0.004 0.679,-0.058"
         style="fill:none;stroke:#c77cff;stroke-width:2.13396;stroke-linecap:butt;stroke-linejoin:round;stroke-miterlimit:10;stroke-dasharray:32.0093, 4.26791, 17.0717, 4.26791;stroke-dashoffset:0;stroke-opacity:1"
         id="path180" /><path
         d="m 62.137,245.992 1.019,-31.898 1.676,-24.621 0.398,-4.098 1.094,-9.941 1.68,-11.809 0.402,-2.531 1.02,-6.168 1.449,-6.844 0.43,-1.785 1.234,-4.852 1.477,-5.218 0.429,-1.426 1.328,-3.883 2.09,-5.98 1.067,-2.766 1.742,-4.262 0.406,-0.824 1.035,-2.024 1.723,-3.371 0.379,-0.539 1.023,-1.66 1.653,-2.621 1.418,-2.137 1.625,-2.457 0.394,-0.601 0.973,-1.324 1.402,-1.758 0.426,-0.438 1.16,-1.476 1.406,-1.696 1.696,-1.629 1.687,-1.57 0.379,-0.25 1.082,-1.207 1.734,-1.828 0.387,-0.355 1.094,-0.977 1.664,-1.523 0.391,-0.344 1.078,-0.914 1.64,-1.063 1.414,-0.937 1.579,-1.137 0.398,-0.223 1.008,-0.554 1.375,-0.887 0.402,-0.16 1.195,-0.723 1.418,-0.941 0.422,-0.2 1.293,-0.785 2.035,-1.285 1.11,-0.726 1.75,-0.875 0.336,-0.231 1.078,-0.711 1.711,-1.019 1.465,-0.801 1.644,-0.863 0.395,-0.231 1.035,-0.519 1.578,-0.668 0.391,-0.274 1.003,-0.429 1.387,-0.559 1.602,-0.715 1.41,-0.527 0.418,-0.156 1.281,-0.59 1.672,-0.68 0.367,-0.133 1.059,-0.547 1.664,-0.636 0.394,-0.258 1.059,-0.426 1.668,-0.887 0.395,-0.078 1.019,-0.328 1.563,-0.578 0.382,-0.117 0.946,-0.34 1.48,-0.473 0.387,-0.156 0.918,-0.289 1.262,-0.301 0.394,-0.082 1.09,-0.312 1.305,-0.332 0.363,-0.09 0.996,-0.215 1.477,-0.449 0.39,-0.137 0.957,-0.27 1.637,-0.48 0.391,-0.086 0.73,-0.223 1.211,-0.336 0.34,-0.047 0.82,-0.203 1.332,-0.386 0.363,-0.043 0.829,-0.297 1.312,-0.473 1.156,-0.308 1.153,-0.321 1.394,-0.336 1.215,-0.3 0.379,-0.102 0.98,-0.203 1.391,-0.418 0.297,-0.055 0.742,-0.172 1.191,-0.308 1.02,-0.215 1.172,-0.348 0.293,-0.035 0.703,-0.098 0.746,-0.14 0.609,-0.133 0.789,-0.191 0.297,-0.043 0.766,-0.184 0.965,-0.23 1.062,-0.114 0.899,-0.273 0.293,-0.028 0.707,-0.125 1.07,-0.253 0.274,-0.047 0.812,-0.121 1.52,-0.379 0.765,-0.164 1.121,-0.243 0.289,-0.054 0.743,-0.199 1.14,-0.254 1.051,-0.2 1.098,-0.234 0.289,-0.062 0.722,-0.176 0.989,-0.172 0.308,-0.051 0.863,-0.176 1.364,-0.234 0.894,-0.195 1.481,-0.289 0.765,-0.192 1.227,-0.183 0.297,-0.036 0.734,-0.093 1.215,-0.2 0.281,-0.058 0.731,-0.09 1.156,-0.141 0.957,-0.179 1.094,-0.239 0.929,-0.125 0.95,-0.207 0.297,-0.054 1.761,-0.258 0.297,-0.082 0.844,-0.117 1.18,-0.223 0.277,-0.035 0.746,-0.18 1.195,-0.152 1.035,-0.266 1.196,-0.156 1.066,-0.152 1.5,-0.227 0.387,-0.062 0.898,-0.082 1.446,-0.286 0.383,-0.058 0.874,-0.121 1.258,-0.153 0.399,-0.035 1,-0.105 1.258,-0.2 1.519,-0.222 1.535,-0.172 1.379,-0.184 1.602,-0.175 1.371,-0.305 1.555,-0.176 0.398,-0.055 0.976,-0.144 1.528,-0.168 1.367,-0.156 1.547,-0.325 0.457,-0.039 0.918,-0.109 1.277,-0.133 0.395,-0.043 1.023,-0.101 1.278,-0.172 0.398,-0.059 1.031,-0.152 1.449,-0.121 1.403,-0.192 1.633,-0.172 1.129,-0.125 1.273,-0.16 0.371,-0.019 0.879,-0.117 1.332,-0.125 1.219,-0.11 1.187,-0.133 1.321,-0.152 1.484,-0.191 1.008,-0.09 1.441,-0.16 0.363,-0.032 0.942,-0.109 1.496,-0.144 0.465,-0.028 0.894,-0.078 1.407,-0.152 0.367,-0.004 0.851,-0.133 1.289,-0.16 1.215,-0.121 1.246,-0.125 1.18,-0.153 1.125,-0.136 2.301,-0.231 0.336,-0.031 0.797,-0.094 1.043,-0.097 0.359,-0.024 1.008,-0.074 1.301,-0.176 0.347,-0.019 0.93,-0.067 1.383,-0.152 0.371,-0.035 0.679,-0.075"
         style="fill:none;stroke:#f564e3;stroke-width:2.13396;stroke-linecap:butt;stroke-linejoin:round;stroke-miterlimit:10;stroke-dasharray:32.0093, 8.53583, 8.53583, 8.53583, 17.0717, 8.53583, 8.53583, 8.53583;stroke-dashoffset:0;stroke-opacity:1"
         id="path182" /><path
         d="m 62.137,245.879 1.019,-31.672 1.676,-25.059 0.398,-4.203 1.094,-10.027 1.68,-11.754 0.402,-2.484 1.02,-6.207 1.449,-6.868 0.43,-1.835 1.234,-5.055 1.477,-5.699 0.429,-1.559 1.328,-4.047 2.09,-6.09 1.067,-3 1.742,-4.48 0.406,-0.801 1.035,-2.035 1.723,-3.621 0.379,-0.676 1.023,-1.609 1.653,-2.883 1.418,-2.281 1.625,-2.684 0.394,-0.68 0.973,-1.48 1.402,-1.848 0.426,-0.492 1.16,-1.562 1.406,-1.739 1.696,-1.902 1.687,-1.656 0.379,-0.282 1.082,-1.168 1.734,-1.91 0.387,-0.363 1.094,-0.965 1.664,-1.641 0.391,-0.371 1.078,-0.91 1.64,-1.375 1.414,-1.011 1.579,-1.137 0.398,-0.254 1.008,-0.633 1.375,-0.988 0.402,-0.195 1.195,-0.848 1.418,-0.965 0.422,-0.227 1.293,-0.878 2.035,-1.254 1.11,-0.641 1.75,-0.91 0.336,-0.266 1.078,-0.707 1.711,-1.156 1.465,-0.977 1.644,-0.988 0.395,-0.266 1.035,-0.519 1.578,-0.758 0.391,-0.277 1.003,-0.512 1.387,-0.687 1.602,-0.774 1.41,-0.582 0.418,-0.219 1.281,-0.765 1.672,-0.864 0.367,-0.132 1.059,-0.618 1.664,-0.66 0.394,-0.258 1.059,-0.507 1.668,-0.973 0.395,-0.082 1.019,-0.426 1.563,-0.656 0.382,-0.16 0.946,-0.344 1.48,-0.543 0.387,-0.18 0.918,-0.3 1.262,-0.391 0.394,-0.098 1.09,-0.332 1.305,-0.437 0.363,-0.098 0.996,-0.305 1.477,-0.558 0.39,-0.133 0.957,-0.273 1.637,-0.539 0.391,-0.125 0.73,-0.266 1.211,-0.359 0.34,-0.043 0.82,-0.258 1.332,-0.481 0.363,-0.07 0.829,-0.402 1.312,-0.477 1.156,-0.367 1.153,-0.344 1.394,-0.375 1.215,-0.348 0.379,-0.136 0.98,-0.246 1.391,-0.457 0.297,-0.075 0.742,-0.214 1.191,-0.317 1.02,-0.262 1.172,-0.355 0.293,-0.059 0.703,-0.113 0.746,-0.191 0.609,-0.16 0.789,-0.231 0.297,-0.078 0.766,-0.16 0.965,-0.192 1.062,-0.152 0.899,-0.281 0.293,-0.047 0.707,-0.121 1.07,-0.293 0.274,-0.074 0.812,-0.153 1.52,-0.433 0.765,-0.2 1.121,-0.261 0.289,-0.114 0.743,-0.21 1.14,-0.329 1.051,-0.246 1.098,-0.273 0.289,-0.055 0.722,-0.219 0.989,-0.211 0.308,-0.07 0.863,-0.176 1.364,-0.246 0.894,-0.238 1.481,-0.363 0.765,-0.188 1.227,-0.222 0.297,-0.036 0.734,-0.113 1.215,-0.226 0.281,-0.055 0.731,-0.109 1.156,-0.165 0.957,-0.199 1.094,-0.277 0.929,-0.129 0.95,-0.207 0.297,-0.055 1.761,-0.32 0.297,-0.078 0.844,-0.125 1.18,-0.219 0.277,-0.031 0.746,-0.207 1.195,-0.207 1.035,-0.301 1.196,-0.199 1.066,-0.145 1.5,-0.301 0.387,-0.093 0.898,-0.117 1.446,-0.333 0.383,-0.046 0.874,-0.149 1.258,-0.207 0.399,-0.051 1,-0.074 1.258,-0.211 1.519,-0.277 1.535,-0.262 1.379,-0.172 1.602,-0.207 1.371,-0.265 1.555,-0.196 0.398,-0.074 0.976,-0.183 1.528,-0.227 1.367,-0.152 1.547,-0.289 0.457,-0.04 0.918,-0.171 1.277,-0.184 0.395,-0.051 1.023,-0.133 1.278,-0.257 0.398,-0.051 1.031,-0.176 1.449,-0.191 1.403,-0.243 1.633,-0.199 1.129,-0.14 1.273,-0.231 0.371,-0.039 0.879,-0.129 1.332,-0.172 1.219,-0.144 1.187,-0.153 1.321,-0.187 1.484,-0.289 1.008,-0.121 1.441,-0.168 0.363,-0.028 0.942,-0.128 1.496,-0.165 0.465,-0.035 0.894,-0.09 1.407,-0.191 0.367,-0.023 0.851,-0.141 1.289,-0.238 1.215,-0.157 1.246,-0.16 1.18,-0.164 1.125,-0.16 2.301,-0.219 0.336,-0.05 0.797,-0.071 1.043,-0.117 0.359,-0.059 1.008,-0.082 1.301,-0.175 0.347,-0.012 0.93,-0.059 1.383,-0.152 0.371,-0.027 0.679,-0.094"
         style="fill:none;stroke:#ff64b0;stroke-width:2.13396;stroke-linecap:butt;stroke-linejoin:round;stroke-miterlimit:10;stroke-dasharray:4.26791, 4.26791, 8.53583, 4.26791, 17.0717, 4.26791, 32.0093, 4.26791;stroke-dashoffset:0;stroke-opacity:1"
         id="path184" /><text
         transform="translate(40.21875,283.48926)"
         style="font-variant:normal;font-weight:normal;font-size:8.7998px;font-family:TeXGyreHeros;-inkscape-font-specification:TeXGyreHeros-Regular;writing-mode:lr-tb;fill:#4d4d4d;fill-opacity:1;fill-rule:nonzero;stroke:none"
         id="text194"><tspan
           x="0"
           y="0"
           id="tspan186">0</tspan><tspan
           x="-20.000004 -15.107311 -10.21462 -5.3219285 -0.42923689"
           y="-87.214851"
           sodipodi:role="line"
           id="tspan188">20000</tspan><tspan
           x="-20.000004 -15.107311 -10.21462 -5.3219285 -0.42923689"
           y="-174.4258"
           sodipodi:role="line"
           id="tspan190">40000</tspan><tspan
           x="-20.000004 -15.107311 -10.21462 -5.3219285 -0.42923689"
           y="-261.63675"
           sodipodi:role="line"
           id="tspan192">60000</tspan></text><path
         d="m 47.41,280.887 h 2.742"
         style="fill:none;stroke:#333333;stroke-width:1.06698;stroke-linecap:butt;stroke-linejoin:round;stroke-miterlimit:10;stroke-dasharray:none;stroke-opacity:1"
         id="path196" /><path
         d="m 47.41,193.672 h 2.742"
         style="fill:none;stroke:#333333;stroke-width:1.06698;stroke-linecap:butt;stroke-linejoin:round;stroke-miterlimit:10;stroke-dasharray:none;stroke-opacity:1"
         id="path198" /><path
         d="m 47.41,106.461 h 2.742"
         style="fill:none;stroke:#333333;stroke-width:1.06698;stroke-linecap:butt;stroke-linejoin:round;stroke-miterlimit:10;stroke-dasharray:none;stroke-opacity:1"
         id="path200" /><path
         d="m 47.41,19.25 h 2.742"
         style="fill:none;stroke:#333333;stroke-width:1.06698;stroke-linecap:butt;stroke-linejoin:round;stroke-miterlimit:10;stroke-dasharray:none;stroke-opacity:1"
         id="path202" /><path
         d="m 61.746,296.59 v -2.742"
         style="fill:none;stroke:#333333;stroke-width:1.06698;stroke-linecap:butt;stroke-linejoin:round;stroke-miterlimit:10;stroke-dasharray:none;stroke-opacity:1"
         id="path204" /><path
         d="m 150.27,296.59 v -2.742"
         style="fill:none;stroke:#333333;stroke-width:1.06698;stroke-linecap:butt;stroke-linejoin:round;stroke-miterlimit:10;stroke-dasharray:none;stroke-opacity:1"
         id="path206" /><path
         d="m 238.797,296.59 v -2.742"
         style="fill:none;stroke:#333333;stroke-width:1.06698;stroke-linecap:butt;stroke-linejoin:round;stroke-miterlimit:10;stroke-dasharray:none;stroke-opacity:1"
         id="path208" /><text
         transform="translate(59.246094,304.88379)"
         style="font-variant:normal;font-weight:normal;font-size:8.7998px;font-family:TeXGyreHeros;-inkscape-font-specification:TeXGyreHeros-Regular;writing-mode:lr-tb;fill:#4d4d4d;fill-opacity:1;fill-rule:nonzero;stroke:none"
         id="text212"><tspan
           x="0 86.026894 90.919586 174.55078 179.44348"
           y="0"
           sodipodi:role="line"
           id="tspan210">01020</tspan></text><text
         transform="translate(138.99609,319.14746)"
         style="font-variant:normal;font-weight:normal;font-size:11px;font-family:TeXGyreHeros;-inkscape-font-specification:TeXGyreHeros-Regular;writing-mode:lr-tb;fill:#000000;fill-opacity:1;fill-rule:nonzero;stroke:none"
         id="text216"><tspan
           x="0 8.5579996 14.674 20.790001 24.452999 26.895 33.011002 38.511002 41.569 45.231998 54.395 56.837002 59.278999 61.721001 64.163002 70.278999 76.394997 81.894997"
           y="0"
           sodipodi:role="line"
           id="tspan214">Queries (millions)</tspan></text><text
         transform="rotate(-90,100.63623,86.527832)"
         style="font-variant:normal;font-weight:normal;font-size:11px;font-family:TeXGyreHeros;-inkscape-font-specification:TeXGyreHeros-Regular;writing-mode:lr-tb;fill:#000000;fill-opacity:1;fill-rule:nonzero;stroke:none"
         id="text220"><tspan
           x="0 7.9419999 14.058 16.5 22.341 27.841 30.899 34.562 40.733002 46.848999 52.965 56.627998 59.07 65.185997 70.685997"
           y="0"
           sodipodi:role="line"
           id="tspan218">Delay (queries)</tspan></text><text
         transform="translate(330.28125,47.374023)"
         style="font-variant:normal;font-weight:normal;font-size:11px;font-family:TeXGyreHeros;-inkscape-font-specification:TeXGyreHeros-Regular;writing-mode:lr-tb;fill:#000000;fill-opacity:1;fill-rule:nonzero;stroke:none"
         id="text226"><tspan
           x="0"
           y="0"
           id="tspan224">ℓ</tspan></text><path
         d="m 330.281,54.723 h 17.281 v 17.281 h -17.281 z"
         style="fill:#f2f2f2;fill-opacity:1;fill-rule:nonzero;stroke:#ffffff;stroke-width:1.06698;stroke-linecap:round;stroke-linejoin:round;stroke-miterlimit:10;stroke-dasharray:none;stroke-opacity:1"
         id="path228" /><path
         d="m 332.008,63.363 h 13.824"
         style="fill:none;stroke:#f8766d;stroke-width:2.13396;stroke-linecap:butt;stroke-linejoin:round;stroke-miterlimit:10;stroke-dasharray:none;stroke-opacity:1"
         id="path230" /><path
         d="m 330.281,72.004 h 17.281 v 17.281 h -17.281 z"
         style="fill:#f2f2f2;fill-opacity:1;fill-rule:nonzero;stroke:#ffffff;stroke-width:1.06698;stroke-linecap:round;stroke-linejoin:round;stroke-miterlimit:10;stroke-dasharray:none;stroke-opacity:1"
         id="path232" /><path
         d="m 332.008,80.645 h 13.824"
         style="fill:none;stroke:#00ba38;stroke-width:2.13396;stroke-linecap:butt;stroke-linejoin:round;stroke-miterlimit:10;stroke-dasharray:2.13396, 6.40187;stroke-dashoffset:0;stroke-opacity:1"
         id="path234" /><path
         d="m 330.281,89.281 h 17.281 v 17.281 h -17.281 z"
         style="fill:#f2f2f2;fill-opacity:1;fill-rule:nonzero;stroke:#ffffff;stroke-width:1.06698;stroke-linecap:round;stroke-linejoin:round;stroke-miterlimit:10;stroke-dasharray:none;stroke-opacity:1"
         id="path236" /><path
         d="m 332.008,97.926 h 13.824"
         style="fill:none;stroke:#00c08b;stroke-width:2.13396;stroke-linecap:butt;stroke-linejoin:round;stroke-miterlimit:10;stroke-dasharray:2.13396, 6.40187, 8.53583, 6.40187;stroke-dashoffset:0;stroke-opacity:1"
         id="path238" /><path
         d="m 330.281,106.562 h 17.281 v 17.281 h -17.281 z"
         style="fill:#f2f2f2;fill-opacity:1;fill-rule:nonzero;stroke:#ffffff;stroke-width:1.06698;stroke-linecap:round;stroke-linejoin:round;stroke-miterlimit:10;stroke-dasharray:none;stroke-opacity:1"
         id="path240" /><path
         d="m 332.008,115.203 h 13.824"
         style="fill:none;stroke:#00bfc4;stroke-width:2.13396;stroke-linecap:butt;stroke-linejoin:round;stroke-miterlimit:10;stroke-dasharray:14.9377, 6.40187;stroke-dashoffset:0;stroke-opacity:1"
         id="path242" /><path
         d="m 330.281,123.844 h 17.281 v 17.281 h -17.281 z"
         style="fill:#f2f2f2;fill-opacity:1;fill-rule:nonzero;stroke:#ffffff;stroke-width:1.06698;stroke-linecap:round;stroke-linejoin:round;stroke-miterlimit:10;stroke-dasharray:none;stroke-opacity:1"
         id="path244" /><path
         d="m 332.008,132.484 h 13.824"
         style="fill:none;stroke:#00b4f0;stroke-width:2.13396;stroke-linecap:butt;stroke-linejoin:round;stroke-miterlimit:10;stroke-dasharray:4.26791, 4.26791, 12.8037, 4.26791;stroke-dashoffset:0;stroke-opacity:1"
         id="path246" /><path
         d="m 330.281,141.121 h 17.281 v 17.281 h -17.281 z"
         style="fill:#f2f2f2;fill-opacity:1;fill-rule:nonzero;stroke:#ffffff;stroke-width:1.06698;stroke-linecap:round;stroke-linejoin:round;stroke-miterlimit:10;stroke-dasharray:none;stroke-opacity:1"
         id="path248" /><path
         d="m 332.008,149.766 h 13.824"
         style="fill:none;stroke:#619cff;stroke-width:2.13396;stroke-linecap:butt;stroke-linejoin:round;stroke-miterlimit:10;stroke-dasharray:2.13396, 4.26791, 4.26791, 4.26791, 6.40187, 4.26791, 8.53583, 4.26791;stroke-dashoffset:0;stroke-opacity:1"
         id="path250" /><path
         d="m 330.281,158.402 h 17.281 v 17.281 h -17.281 z"
         style="fill:#f2f2f2;fill-opacity:1;fill-rule:nonzero;stroke:#ffffff;stroke-width:1.06698;stroke-linecap:round;stroke-linejoin:round;stroke-miterlimit:10;stroke-dasharray:none;stroke-opacity:1"
         id="path252" /><path
         d="m 332.008,167.043 h 13.824"
         style="fill:none;stroke:#c77cff;stroke-width:2.13396;stroke-linecap:butt;stroke-linejoin:round;stroke-miterlimit:10;stroke-dasharray:32.0093, 4.26791, 17.0717, 4.26791;stroke-dashoffset:0;stroke-opacity:1"
         id="path254" /><path
         d="m 330.281,175.684 h 17.281 v 17.281 h -17.281 z"
         style="fill:#f2f2f2;fill-opacity:1;fill-rule:nonzero;stroke:#ffffff;stroke-width:1.06698;stroke-linecap:round;stroke-linejoin:round;stroke-miterlimit:10;stroke-dasharray:none;stroke-opacity:1"
         id="path256" /><path
         d="m 332.008,184.324 h 13.824"
         style="fill:none;stroke:#f564e3;stroke-width:2.13396;stroke-linecap:butt;stroke-linejoin:round;stroke-miterlimit:10;stroke-dasharray:32.0093, 8.53583, 8.53583, 8.53583, 17.0717, 8.53583, 8.53583, 8.53583;stroke-dashoffset:0;stroke-opacity:1"
         id="path258" /><path
         d="m 330.281,192.961 h 17.281 v 17.281 h -17.281 z"
         style="fill:#f2f2f2;fill-opacity:1;fill-rule:nonzero;stroke:#ffffff;stroke-width:1.06698;stroke-linecap:round;stroke-linejoin:round;stroke-miterlimit:10;stroke-dasharray:none;stroke-opacity:1"
         id="path260" /><path
         d="m 332.008,201.605 h 13.824"
         style="fill:none;stroke:#ff64b0;stroke-width:2.13396;stroke-linecap:butt;stroke-linejoin:round;stroke-miterlimit:10;stroke-dasharray:4.26791, 4.26791, 8.53583, 4.26791, 17.0717, 4.26791, 32.0093, 4.26791;stroke-dashoffset:0;stroke-opacity:1"
         id="path262" /><path
         d="m 330.281,210.242 h 17.281 v 17.281 h -17.281 z"
         style="fill:#f2f2f2;fill-opacity:1;fill-rule:nonzero;stroke:#ffffff;stroke-width:1.06698;stroke-linecap:round;stroke-linejoin:round;stroke-miterlimit:10;stroke-dasharray:none;stroke-opacity:1"
         id="path264" /><path
         d="m 332.008,218.883 h 13.824"
         style="fill:none;stroke:#de8c00;stroke-width:2.13396;stroke-linecap:butt;stroke-linejoin:round;stroke-miterlimit:10;stroke-dasharray:4.26791, 4.26791;stroke-dashoffset:0;stroke-opacity:1"
         id="path266" /><path
         d="m 330.281,227.523 h 17.281 v 17.281 h -17.281 z"
         style="fill:#f2f2f2;fill-opacity:1;fill-rule:nonzero;stroke:#ffffff;stroke-width:1.06698;stroke-linecap:round;stroke-linejoin:round;stroke-miterlimit:10;stroke-dasharray:none;stroke-opacity:1"
         id="path268" /><path
         d="m 332.008,236.164 h 13.824"
         style="fill:none;stroke:#b79f00;stroke-width:2.13396;stroke-linecap:butt;stroke-linejoin:round;stroke-miterlimit:10;stroke-dasharray:8.53583, 4.26791;stroke-dashoffset:0;stroke-opacity:1"
         id="path270" /><path
         d="m 330.281,244.805 h 17.281 v 17.281 h -17.281 z"
         style="fill:#f2f2f2;fill-opacity:1;fill-rule:nonzero;stroke:#ffffff;stroke-width:1.06698;stroke-linecap:round;stroke-linejoin:round;stroke-miterlimit:10;stroke-dasharray:none;stroke-opacity:1"
         id="path272" /><path
         d="m 332.008,253.445 h 13.824"
         style="fill:none;stroke:#7cae00;stroke-width:2.13396;stroke-linecap:butt;stroke-linejoin:round;stroke-miterlimit:10;stroke-dasharray:8.53583, 8.53583;stroke-dashoffset:0;stroke-opacity:1"
         id="path274" /><text
         transform="translate(353.04297,65.96582)"
         style="font-variant:normal;font-weight:normal;font-size:8.7998px;font-family:TeXGyreHeros;-inkscape-font-specification:TeXGyreHeros-Regular;writing-mode:lr-tb;fill:#000000;fill-opacity:1;fill-rule:nonzero;stroke:none"
         id="text300"><tspan
           x="0"
           y="0"
           id="tspan276">1</tspan><tspan
           x="0"
           y="17.281252"
           id="tspan278">2</tspan><tspan
           x="0"
           y="34.5625"
           id="tspan280">3</tspan><tspan
           x="0"
           y="51.839844"
           id="tspan282">4</tspan><tspan
           x="0"
           y="69.121094"
           id="tspan284">5</tspan><tspan
           x="0"
           y="86.402344"
           id="tspan286">6</tspan><tspan
           x="0"
           y="103.67969"
           id="tspan288">7</tspan><tspan
           x="0"
           y="120.96094"
           id="tspan290">8</tspan><tspan
           x="0"
           y="138.24219"
           id="tspan292">9</tspan><tspan
           x="0 4.8926916"
           y="155.51953"
           sodipodi:role="line"
           id="tspan294">10</tspan><tspan
           x="0 4.8926916"
           y="172.8008"
           sodipodi:role="line"
           id="tspan296">11</tspan><tspan
           x="0 4.8926916"
           y="190.08205"
           sodipodi:role="line"
           id="tspan298">12</tspan></text></g></g></svg>
