<?xml version="1.0" encoding="UTF-8" standalone="no"?>
<svg
   xmlns:dc="http://purl.org/dc/elements/1.1/"
   xmlns:cc="http://creativecommons.org/ns#"
   xmlns:rdf="http://www.w3.org/1999/02/22-rdf-syntax-ns#"
   xmlns:svg="http://www.w3.org/2000/svg"
   xmlns="http://www.w3.org/2000/svg"
   xmlns:sodipodi="http://sodipodi.sourceforge.net/DTD/sodipodi-0.dtd"
   xmlns:inkscape="http://www.inkscape.org/namespaces/inkscape"
   inkscape:version="1.0 (6e3e5246a0, 2020-05-07)"
   sodipodi:docname="tpc_out.svg"
   viewBox="0 0 498.66666 437.33334"
   height="437.33334"
   width="498.66666"
   xml:space="preserve"
   id="svg2"
   version="1.1"><metadata
     id="metadata8"><rdf:RDF><cc:Work
         rdf:about=""><dc:format>image/svg+xml</dc:format><dc:type
           rdf:resource="http://purl.org/dc/dcmitype/StillImage" /><dc:title></dc:title></cc:Work></rdf:RDF></metadata><defs
     id="defs6"><clipPath
       id="clipPath26"
       clipPathUnits="userSpaceOnUse"><path
         id="path24"
         d="M 40.152,5.48 H 314 V 294 H 40.152 Z" /></clipPath><clipPath
       id="clipPath36"
       clipPathUnits="userSpaceOnUse"><path
         id="path34"
         d="M 40.152,247 H 314 v 2 H 40.152 Z" /></clipPath><clipPath
       id="clipPath46"
       clipPathUnits="userSpaceOnUse"><path
         id="path44"
         d="M 40.152,182 H 314 v 1 H 40.152 Z" /></clipPath><clipPath
       id="clipPath56"
       clipPathUnits="userSpaceOnUse"><path
         id="path54"
         d="M 40.152,116 H 314 v 2 H 40.152 Z" /></clipPath><clipPath
       id="clipPath66"
       clipPathUnits="userSpaceOnUse"><path
         id="path64"
         d="M 40.152,51 H 314 v 1 H 40.152 Z" /></clipPath><clipPath
       id="clipPath76"
       clipPathUnits="userSpaceOnUse"><path
         id="path74"
         d="m 97,5.48 h 2 V 294 h -2 z" /></clipPath><clipPath
       id="clipPath86"
       clipPathUnits="userSpaceOnUse"><path
         id="path84"
         d="m 189,5.48 h 2 V 294 h -2 z" /></clipPath><clipPath
       id="clipPath96"
       clipPathUnits="userSpaceOnUse"><path
         id="path94"
         d="m 281,5.48 h 2 V 294 h -2 z" /></clipPath><clipPath
       id="clipPath106"
       clipPathUnits="userSpaceOnUse"><path
         id="path104"
         d="M 40.152,280 H 314 v 2 H 40.152 Z" /></clipPath><clipPath
       id="clipPath116"
       clipPathUnits="userSpaceOnUse"><path
         id="path114"
         d="M 40.152,214 H 314 v 2 H 40.152 Z" /></clipPath><clipPath
       id="clipPath126"
       clipPathUnits="userSpaceOnUse"><path
         id="path124"
         d="M 40.152,149 H 314 v 2 H 40.152 Z" /></clipPath><clipPath
       id="clipPath136"
       clipPathUnits="userSpaceOnUse"><path
         id="path134"
         d="M 40.152,83 H 314 v 2 H 40.152 Z" /></clipPath><clipPath
       id="clipPath146"
       clipPathUnits="userSpaceOnUse"><path
         id="path144"
         d="M 40.152,18 H 314 v 2 H 40.152 Z" /></clipPath><clipPath
       id="clipPath156"
       clipPathUnits="userSpaceOnUse"><path
         id="path154"
         d="m 51,5.48 h 2 V 294 h -2 z" /></clipPath><clipPath
       id="clipPath166"
       clipPathUnits="userSpaceOnUse"><path
         id="path164"
         d="m 143,5.48 h 2 V 294 h -2 z" /></clipPath><clipPath
       id="clipPath176"
       clipPathUnits="userSpaceOnUse"><path
         id="path174"
         d="m 235,5.48 h 2 V 294 h -2 z" /></clipPath></defs><sodipodi:namedview
     inkscape:current-layer="g180"
     inkscape:window-maximized="1"
     inkscape:window-y="27"
     inkscape:window-x="0"
     inkscape:cy="218.66667"
     inkscape:cx="249.33333"
     inkscape:zoom="1.9184451"
     showgrid="false"
     id="namedview4"
     inkscape:window-height="1025"
     inkscape:window-width="1920"
     inkscape:pageshadow="2"
     inkscape:pageopacity="0"
     guidetolerance="10"
     gridtolerance="10"
     objecttolerance="10"
     borderopacity="1"
     bordercolor="#666666"
     pagecolor="#ffffff" /><g
     transform="matrix(1.3333333,0,0,1.3333333,0,7.5999999e-6)"
     inkscape:label="tpc_out"
     inkscape:groupmode="layer"
     id="g10"><g
       id="g20"><g
         clip-path="url(#clipPath26)"
         id="g22"><path
           id="path28"
           style="fill:#ebebeb;fill-opacity:1;fill-rule:nonzero;stroke:none"
           d="M 40.152,5.477 H 313.843 V 293.848 H 40.152 Z" /></g></g><g
       id="g30"><g
         clip-path="url(#clipPath36)"
         id="g32"><path
           id="path38"
           style="fill:none;stroke:#ffffff;stroke-width:0.533489;stroke-linecap:butt;stroke-linejoin:round;stroke-miterlimit:10;stroke-dasharray:none;stroke-opacity:1"
           d="M 40.152,247.973 H 313.844" /></g></g><g
       id="g40"><g
         clip-path="url(#clipPath46)"
         id="g42"><path
           id="path48"
           style="fill:none;stroke:#ffffff;stroke-width:0.533489;stroke-linecap:butt;stroke-linejoin:round;stroke-miterlimit:10;stroke-dasharray:none;stroke-opacity:1"
           d="M 40.152,182.434 H 313.844" /></g></g><g
       id="g50"><g
         clip-path="url(#clipPath56)"
         id="g52"><path
           id="path58"
           style="fill:none;stroke:#ffffff;stroke-width:0.533489;stroke-linecap:butt;stroke-linejoin:round;stroke-miterlimit:10;stroke-dasharray:none;stroke-opacity:1"
           d="M 40.152,116.895 H 313.844" /></g></g><g
       id="g60"><g
         clip-path="url(#clipPath66)"
         id="g62"><path
           id="path68"
           style="fill:none;stroke:#ffffff;stroke-width:0.533489;stroke-linecap:butt;stroke-linejoin:round;stroke-miterlimit:10;stroke-dasharray:none;stroke-opacity:1"
           d="M 40.152,51.355 H 313.844" /></g></g><g
       id="g70"><g
         clip-path="url(#clipPath76)"
         id="g72"><path
           id="path78"
           style="fill:none;stroke:#ffffff;stroke-width:0.533489;stroke-linecap:butt;stroke-linejoin:round;stroke-miterlimit:10;stroke-dasharray:none;stroke-opacity:1"
           d="M 98.125,293.848 V 5.48" /></g></g><g
       id="g80"><g
         clip-path="url(#clipPath86)"
         id="g82"><path
           id="path88"
           style="fill:none;stroke:#ffffff;stroke-width:0.533489;stroke-linecap:butt;stroke-linejoin:round;stroke-miterlimit:10;stroke-dasharray:none;stroke-opacity:1"
           d="M 190.008,293.848 V 5.48" /></g></g><g
       id="g90"><g
         clip-path="url(#clipPath96)"
         id="g92"><path
           id="path98"
           style="fill:none;stroke:#ffffff;stroke-width:0.533489;stroke-linecap:butt;stroke-linejoin:round;stroke-miterlimit:10;stroke-dasharray:none;stroke-opacity:1"
           d="M 281.891,293.848 V 5.48" /></g></g><g
       id="g100"><g
         clip-path="url(#clipPath106)"
         id="g102"><path
           id="path108"
           style="fill:none;stroke:#ffffff;stroke-width:1.06698;stroke-linecap:butt;stroke-linejoin:round;stroke-miterlimit:10;stroke-dasharray:none;stroke-opacity:1"
           d="M 40.152,280.742 H 313.844" /></g></g><g
       id="g110"><g
         clip-path="url(#clipPath116)"
         id="g112"><path
           id="path118"
           style="fill:none;stroke:#ffffff;stroke-width:1.06698;stroke-linecap:butt;stroke-linejoin:round;stroke-miterlimit:10;stroke-dasharray:none;stroke-opacity:1"
           d="M 40.152,215.203 H 313.844" /></g></g><g
       id="g120"><g
         clip-path="url(#clipPath126)"
         id="g122"><path
           id="path128"
           style="fill:none;stroke:#ffffff;stroke-width:1.06698;stroke-linecap:butt;stroke-linejoin:round;stroke-miterlimit:10;stroke-dasharray:none;stroke-opacity:1"
           d="M 40.152,149.664 H 313.844" /></g></g><g
       id="g130"><g
         clip-path="url(#clipPath136)"
         id="g132"><path
           id="path138"
           style="fill:none;stroke:#ffffff;stroke-width:1.06698;stroke-linecap:butt;stroke-linejoin:round;stroke-miterlimit:10;stroke-dasharray:none;stroke-opacity:1"
           d="M 40.152,84.125 H 313.844" /></g></g><g
       id="g140"><g
         clip-path="url(#clipPath146)"
         id="g142"><path
           id="path148"
           style="fill:none;stroke:#ffffff;stroke-width:1.06698;stroke-linecap:butt;stroke-linejoin:round;stroke-miterlimit:10;stroke-dasharray:none;stroke-opacity:1"
           d="M 40.152,18.586 H 313.844" /></g></g><g
       id="g150"><g
         clip-path="url(#clipPath156)"
         id="g152"><path
           id="path158"
           style="fill:none;stroke:#ffffff;stroke-width:1.06698;stroke-linecap:butt;stroke-linejoin:round;stroke-miterlimit:10;stroke-dasharray:none;stroke-opacity:1"
           d="M 52.188,293.848 V 5.48" /></g></g><g
       id="g160"><g
         clip-path="url(#clipPath166)"
         id="g162"><path
           id="path168"
           style="fill:none;stroke:#ffffff;stroke-width:1.06698;stroke-linecap:butt;stroke-linejoin:round;stroke-miterlimit:10;stroke-dasharray:none;stroke-opacity:1"
           d="M 144.066,293.848 V 5.48" /></g></g><g
       id="g170"><g
         clip-path="url(#clipPath176)"
         id="g172"><path
           id="path178"
           style="fill:none;stroke:#ffffff;stroke-width:1.06698;stroke-linecap:butt;stroke-linejoin:round;stroke-miterlimit:10;stroke-dasharray:none;stroke-opacity:1"
           d="M 235.949,293.848 V 5.48" /></g></g><g
       id="g180"><path
         id="path182"
         style="fill:none;stroke:#f8766d;stroke-width:2.13396;stroke-linecap:butt;stroke-linejoin:round;stroke-miterlimit:10;stroke-dasharray:none;stroke-opacity:1"
         d="m 52.59,18.777 1.058,-0.136 1.743,-0.028 0.414,-0.004 1.133,-0.007 1.742,-0.004 h 2.984 l 0.441,-0.004 h 7.915 l 1.808,-0.004 h 54.891 l 1.047,-0.004 1.437,0.004 1.664,-0.004 h 1.461 l 0.434,0.004 h 3.066 l 0.379,-0.004 1.098,0.004 1.73,-0.004 h 162.367" /><path
         id="path184"
         style="fill:none;stroke:#de8c00;stroke-width:2.13396;stroke-linecap:butt;stroke-linejoin:round;stroke-miterlimit:10;stroke-dasharray:4.26791, 4.26791;stroke-dashoffset:0;stroke-opacity:1"
         d="m 52.59,155.492 1.058,-50.953 1.743,-21.859 0.414,-3.106 1.133,-7.012 1.742,-6.746 0.418,-0.957 1.058,-2.929 1.508,-3.149 0.441,-0.738 1.286,-2.629 1.531,-2.066 0.445,-0.356 1.379,-1.922 2.168,-2.086 1.106,-1.121 1.808,-1.355 0.422,-0.168 1.078,-0.875 1.785,-1.117 0.395,-0.192 1.062,-0.695 1.715,-0.805 1.469,-0.738 1.687,-0.695 0.411,-0.133 1.011,-0.508 1.453,-0.523 0.442,-0.118 1.207,-0.507 1.461,-0.379 1.758,-0.582 1.75,-0.504 0.39,-0.082 1.125,-0.395 1.801,-0.418 0.402,-0.051 1.133,-0.3 1.727,-0.375 0.406,-0.043 1.121,-0.274 1.703,-0.355 1.465,-0.313 1.641,-0.23 0.414,-0.059 1.047,-0.238 1.425,-0.168 0.418,-0.035 1.243,-0.266 1.468,-0.191 0.438,-0.043 1.34,-0.262 2.113,-0.23 1.152,-0.188 1.817,-0.223 0.351,-0.042 1.117,-0.188 1.774,-0.191 1.523,-0.196 1.703,-0.148 0.411,0.008 1.074,-0.18 1.64,-0.191 0.403,-0.024 1.047,-0.144 1.437,-0.125 1.664,-0.184 1.461,-0.094 h 0.434 l 1.328,-0.16 1.738,-0.148 0.379,-0.008 1.098,-0.145 1.73,-0.136 0.41,-0.004 1.098,-0.121 1.73,-0.118 0.411,-0.019 1.058,-0.117 1.621,-0.117 0.399,-0.016 0.98,-0.106 1.539,-0.082 0.399,-0.015 0.953,-0.071 1.308,-0.109 0.411,-0.004 1.132,-0.121 1.356,-0.059 0.375,0.016 1.031,-0.101 1.535,-0.114 h 0.403 l 0.996,-0.086 1.699,-0.105 h 0.406 l 0.754,-0.055 1.258,-0.074 0.351,-0.004 0.856,-0.059 1.379,-0.093 h 0.379 l 0.859,-0.059 1.363,-0.07 1.204,-0.071 1.191,-0.046 1.449,-0.067 1.262,-0.051 h 0.39 l 1.02,-0.062 1.445,-0.055 0.305,-0.015 0.77,-0.079 1.238,-0.078 1.058,-0.047 1.215,-0.054 0.309,-0.012 0.726,-0.043 0.774,-0.035 0.637,-0.094 0.816,-0.058 0.309,0.015 0.793,-0.031 1,-0.031 1.105,-0.028 0.93,-0.031 0.304,0.008 0.735,-0.047 1.113,-0.027 0.281,-0.004 0.844,-0.047 1.578,-0.047 0.793,-0.047 1.168,-0.047 0.301,0.004 0.765,-0.047 1.184,-0.027 1.094,-0.043 1.14,-0.039 0.297,-0.008 0.75,-0.035 1.028,-0.02 0.32,-0.003 0.895,-0.051 1.414,-0.02 0.929,-0.058 1.535,-0.039 0.797,-0.047 1.274,-0.035 h 0.308 l 0.762,-0.043 1.258,-0.036 h 0.293 l 0.758,-0.039 1.199,-0.031 0.996,-0.027 1.133,-0.024 0.965,-0.039 0.988,-0.019 h 0.305 l 1.832,-0.051 0.308,0.004 0.875,-0.031 1.223,-0.036 0.289,-0.003 0.773,-0.039 1.243,-0.04 1.074,-0.039 1.238,-0.023 1.109,-0.043 1.559,-0.031 0.398,0.004 0.934,-0.051 1.5,-0.047 0.399,0.004 0.906,-0.051 1.304,-0.023 0.414,0.004 1.036,-0.047 1.308,-0.02 1.578,-0.039 1.594,-0.035 1.43,-0.047 1.664,-0.027 1.422,-0.039 1.613,-0.028 0.414,-0.004 1.012,-0.043 1.586,-0.035 1.418,-0.047 1.605,-0.027 0.477,-0.004 0.949,-0.039 1.328,-0.019 h 0.41 l 1.063,-0.036 1.324,-0.015 0.414,0.004 1.07,-0.043 1.504,-0.028 1.457,-0.05 1.696,-0.024 1.171,-0.074 1.321,-0.051 0.383,0.02 0.918,-0.008 1.382,-0.016 1.262,-0.008 1.231,-0.011 1.371,-0.016 1.543,-0.004 1.043,-0.035 1.5,-0.012 h 0.375 l 0.976,-0.031 1.551,-0.027 0.484,0.004 0.93,-0.028 1.457,-0.027 0.383,0.008 0.883,-0.032 1.34,-0.019 1.261,-0.02 1.293,-0.023 1.223,-0.023 1.172,-0.016 2.383,-0.031 0.351,-0.004 0.828,-0.02 1.082,-0.019 0.371,0.008 1.047,-0.028 1.352,-0.015 0.359,0.003 0.965,-0.031 1.434,-0.019 0.386,0.007 0.707,-0.007" /><path
         id="path186"
         style="fill:none;stroke:#b79f00;stroke-width:2.13396;stroke-linecap:butt;stroke-linejoin:round;stroke-miterlimit:10;stroke-dasharray:8.53583, 4.26791;stroke-dashoffset:0;stroke-opacity:1"
         d="m 52.59,155.551 1.058,-51 1.743,-21.809 0.414,-3.097 1.133,-7.004 1.742,-6.739 0.418,-0.949 1.058,-2.937 1.508,-3.18 0.441,-0.727 1.286,-2.621 1.531,-2.082 0.445,-0.355 1.379,-1.91 2.168,-2.09 1.106,-1.113 1.808,-1.356 0.422,-0.168 1.078,-0.863 1.785,-1.125 0.395,-0.192 1.062,-0.695 1.715,-0.812 1.469,-0.735 1.687,-0.687 0.411,-0.133 1.011,-0.512 1.453,-0.527 0.442,-0.113 1.207,-0.504 1.461,-0.387 1.758,-0.574 1.75,-0.508 0.39,-0.082 1.125,-0.395 1.801,-0.425 0.402,-0.047 1.133,-0.305 1.727,-0.379 0.406,-0.039 1.121,-0.273 1.703,-0.356 1.465,-0.308 1.641,-0.235 0.414,-0.058 1.047,-0.235 1.425,-0.168 0.418,-0.035 1.243,-0.266 1.468,-0.191 0.438,-0.039 1.34,-0.266 2.113,-0.226 1.152,-0.184 1.817,-0.226 0.351,-0.043 1.117,-0.188 1.774,-0.195 1.523,-0.199 1.703,-0.145 0.411,0.008 1.074,-0.18 1.64,-0.191 0.403,-0.02 1.047,-0.148 1.437,-0.117 1.664,-0.184 1.461,-0.098 0.434,-0.007 1.328,-0.161 1.738,-0.148 0.379,-0.008 1.098,-0.144 1.73,-0.133 0.41,-0.004 1.098,-0.129 1.73,-0.117 0.411,-0.016 1.058,-0.125 1.621,-0.113 0.399,-0.016 0.98,-0.109 1.539,-0.074 0.399,-0.016 0.953,-0.074 1.308,-0.11 0.411,-0.003 1.132,-0.122 1.356,-0.058 0.375,0.016 1.031,-0.102 1.535,-0.109 0.403,-0.004 0.996,-0.086 1.699,-0.106 h 0.406 l 0.754,-0.058 1.258,-0.071 0.351,-0.004 0.856,-0.058 1.379,-0.094 0.379,0.004 0.859,-0.062 1.363,-0.067 1.204,-0.074 1.191,-0.047 1.449,-0.066 1.262,-0.051 h 0.39 l 1.02,-0.063 1.445,-0.054 0.305,-0.016 0.77,-0.078 1.238,-0.082 1.058,-0.047 1.215,-0.055 0.309,-0.008 0.726,-0.046 0.774,-0.036 0.637,-0.089 0.816,-0.063 0.309,0.02 0.793,-0.032 1,-0.031 1.105,-0.027 0.93,-0.031 0.304,0.007 0.735,-0.047 1.113,-0.027 0.281,-0.008 0.844,-0.047 1.578,-0.046 0.793,-0.047 1.168,-0.043 0.301,0.004 0.765,-0.047 1.184,-0.032 1.094,-0.042 1.14,-0.04 0.297,-0.007 0.75,-0.035 1.028,-0.02 0.32,-0.004 0.895,-0.051 1.414,-0.023 0.929,-0.055 1.535,-0.039 0.797,-0.047 1.274,-0.035 h 0.308 l 0.762,-0.043 1.258,-0.039 0.293,0.004 0.758,-0.043 1.199,-0.027 0.996,-0.028 1.133,-0.023 0.965,-0.039 0.988,-0.02 h 0.305 l 1.832,-0.051 0.308,0.004 0.875,-0.031 1.223,-0.039 h 0.289 l 0.773,-0.043 1.243,-0.035 1.074,-0.039 1.238,-0.027 1.109,-0.043 1.559,-0.032 0.398,0.008 0.934,-0.055 1.5,-0.043 0.399,0.004 0.906,-0.05 1.304,-0.024 h 0.414 l 1.036,-0.047 1.308,-0.015 1.578,-0.039 1.594,-0.036 1.43,-0.046 1.664,-0.032 1.422,-0.043 1.613,-0.023 0.414,-0.004 1.012,-0.039 1.586,-0.035 1.418,-0.047 1.605,-0.031 0.477,-0.004 0.949,-0.039 1.328,-0.02 0.41,0.004 1.063,-0.039 1.324,-0.016 0.414,0.004 1.07,-0.043 1.504,-0.027 1.457,-0.051 1.696,-0.023 1.171,-0.078 1.321,-0.047 0.383,0.019 0.918,-0.008 1.382,-0.015 1.262,-0.008 1.231,-0.012 1.371,-0.015 1.543,-0.008 1.043,-0.035 1.5,-0.012 0.375,0.004 0.976,-0.031 1.551,-0.032 0.484,0.008 0.93,-0.031 1.457,-0.023 0.383,0.003 0.883,-0.031 1.34,-0.015 1.261,-0.024 1.293,-0.019 1.223,-0.028 1.172,-0.015 2.383,-0.032 0.351,-0.004 0.828,-0.019 1.082,-0.02 0.371,0.008 1.047,-0.027 1.352,-0.016 0.359,0.004 0.965,-0.031 1.434,-0.02 0.386,0.008 0.707,-0.008" /><path
         id="path188"
         style="fill:none;stroke:#7cae00;stroke-width:2.13396;stroke-linecap:butt;stroke-linejoin:round;stroke-miterlimit:10;stroke-dasharray:8.53583, 8.53583;stroke-dashoffset:0;stroke-opacity:1"
         d="m 52.59,155.527 1.058,-50.953 1.743,-21.808 0.414,-3.098 1.133,-7.008 1.742,-6.765 0.418,-0.942 1.058,-2.91 1.508,-3.184 0.441,-0.726 1.286,-2.621 1.531,-2.074 0.445,-0.364 1.379,-1.918 2.168,-2.07 1.106,-1.121 1.808,-1.36 0.422,-0.167 1.078,-0.868 1.785,-1.121 0.395,-0.191 1.062,-0.692 1.715,-0.812 1.469,-0.738 1.687,-0.688 0.411,-0.137 1.011,-0.515 1.453,-0.524 0.442,-0.113 1.207,-0.508 1.461,-0.383 1.758,-0.578 1.75,-0.511 0.39,-0.079 1.125,-0.398 1.801,-0.422 0.402,-0.051 1.133,-0.304 1.727,-0.371 0.406,-0.039 1.121,-0.278 1.703,-0.359 1.465,-0.309 1.641,-0.23 0.414,-0.055 1.047,-0.238 1.425,-0.168 0.418,-0.031 1.243,-0.27 1.468,-0.195 0.438,-0.035 1.34,-0.266 2.113,-0.231 1.152,-0.183 1.817,-0.227 0.351,-0.043 1.117,-0.187 1.774,-0.195 1.523,-0.196 1.703,-0.148 0.411,0.008 1.074,-0.18 1.64,-0.195 0.403,-0.02 1.047,-0.144 1.437,-0.125 1.664,-0.184 1.461,-0.094 0.434,-0.004 1.328,-0.16 1.738,-0.144 0.379,-0.012 1.098,-0.141 1.73,-0.136 0.41,-0.004 1.098,-0.125 1.73,-0.118 0.411,-0.019 1.058,-0.121 1.621,-0.113 0.399,-0.016 0.98,-0.106 1.539,-0.078 0.399,-0.015 0.953,-0.075 1.308,-0.109 0.411,-0.008 1.132,-0.117 1.356,-0.062 0.375,0.015 1.031,-0.101 1.535,-0.11 0.403,-0.004 0.996,-0.086 1.699,-0.105 0.406,-0.004 0.754,-0.055 1.258,-0.074 h 0.351 l 0.856,-0.058 1.379,-0.094 0.379,0.004 0.859,-0.063 1.363,-0.066 1.204,-0.074 1.191,-0.047 1.449,-0.067 1.262,-0.047 h 0.39 l 1.02,-0.062 1.445,-0.055 0.305,-0.015 0.77,-0.082 1.238,-0.079 1.058,-0.046 1.215,-0.055 0.309,-0.012 0.726,-0.043 0.774,-0.035 0.637,-0.09 0.816,-0.062 0.309,0.015 0.793,-0.035 1,-0.027 1.105,-0.027 0.93,-0.032 0.304,0.008 0.735,-0.047 1.113,-0.027 0.281,-0.004 0.844,-0.051 1.578,-0.043 0.793,-0.051 1.168,-0.043 0.301,0.004 0.765,-0.047 1.184,-0.027 1.094,-0.043 1.14,-0.043 0.297,-0.008 0.75,-0.031 1.028,-0.023 h 0.32 l 0.895,-0.051 1.414,-0.024 0.929,-0.058 1.535,-0.039 0.797,-0.043 1.274,-0.039 h 0.308 l 0.762,-0.043 1.258,-0.039 0.293,0.004 0.758,-0.043 1.199,-0.032 0.996,-0.023 1.133,-0.023 0.965,-0.039 0.988,-0.02 h 0.305 l 1.832,-0.051 0.308,0.004 0.875,-0.031 1.223,-0.039 h 0.289 l 0.773,-0.043 1.243,-0.039 1.074,-0.035 1.238,-0.028 1.109,-0.043 1.559,-0.031 0.398,0.008 0.934,-0.055 1.5,-0.039 h 0.399 l 0.906,-0.051 1.304,-0.023 h 0.414 l 1.036,-0.043 1.308,-0.024 1.578,-0.035 1.594,-0.039 1.43,-0.043 1.664,-0.031 1.422,-0.039 1.613,-0.027 0.414,-0.004 1.012,-0.039 1.586,-0.036 1.418,-0.046 1.605,-0.032 0.477,-0.004 0.949,-0.039 1.328,-0.019 h 0.41 l 1.063,-0.035 1.324,-0.02 0.414,0.004 1.07,-0.039 1.504,-0.031 1.457,-0.047 1.696,-0.027 1.171,-0.075 1.321,-0.05 0.383,0.023 0.918,-0.012 1.382,-0.015 1.262,-0.008 1.231,-0.012 1.371,-0.012 1.543,-0.007 1.043,-0.036 1.5,-0.011 h 0.375 l 0.976,-0.032 1.551,-0.031 0.484,0.008 0.93,-0.031 1.457,-0.024 0.383,0.004 0.883,-0.027 1.34,-0.02 1.261,-0.023 1.293,-0.02 1.223,-0.027 1.172,-0.016 2.383,-0.031 0.351,-0.004 0.828,-0.019 1.082,-0.016 0.371,0.004 1.047,-0.023 1.352,-0.016 h 0.359 l 0.965,-0.027 1.434,-0.024 0.386,0.008 0.707,-0.008" /><path
         id="path190"
         style="fill:none;stroke:#00ba38;stroke-width:2.13396;stroke-linecap:butt;stroke-linejoin:round;stroke-miterlimit:10;stroke-dasharray:2.13396, 6.40187;stroke-dashoffset:0;stroke-opacity:1"
         d="m 52.59,27.168 1.058,-6.363 1.743,-1.043 0.414,-0.051 1.133,-0.301 1.742,-0.265 0.418,0.035 1.058,-0.129 1.508,-0.039 0.441,-0.063 1.286,-0.023 1.531,-0.024 0.445,0.039 1.379,-0.086 h 2.168 l 1.106,-0.031 1.808,-0.039 0.422,0.024 1.078,-0.016 h 1.785 l 0.395,-0.012 1.062,-0.015 1.715,-0.024 1.469,-0.023 h 1.687 l 0.411,0.015 1.011,-0.011 1.453,-0.004 0.442,-0.008 1.207,-0.008 1.461,0.004 1.758,-0.004 1.75,-0.012 0.39,0.016 1.125,-0.019 1.801,0.003 0.402,0.008 1.133,-0.011 h 1.727 l 0.406,0.007 1.121,-0.019 1.703,0.004 1.465,-0.008 1.641,0.019 0.414,-0.011 1.047,-0.004 1.425,0.004 h 0.418 l 1.243,-0.012 1.468,0.004 0.438,0.008 1.34,-0.02 2.113,0.008 1.152,-0.012 h 2.168 l 1.117,-0.008 h 3.297 l 1.703,0.012 h 0.411 l 1.074,-0.008 1.64,-0.004 0.403,0.004 1.047,-0.004 h 1.437 l 1.664,-0.007 1.461,0.015 h 0.434 l 1.328,-0.008 1.738,-0.007 0.379,0.004 1.098,-0.008 1.73,0.008 h 0.41 l 1.098,-0.004 1.73,0.004 h 0.411 l 1.058,-0.004 1.621,-0.004 h 5.578 l 0.411,-0.004 h 1.132 l 1.356,0.008 0.375,0.007 1.031,-0.011 h 1.535 l 0.403,0.004 0.996,-0.004 1.699,-0.004 0.406,0.008 0.754,-0.008 1.258,0.004 0.351,0.004 0.856,-0.008 h 1.379 l 0.379,0.004 0.859,-0.004 1.363,0.004 1.204,-0.004 1.191,0.004 h 3.101 L 174,18.633 h 1.75 l 0.77,-0.004 h 2.296 l 1.215,0.004 h 1.809 l 0.637,-0.008 h 0.816 l 0.309,0.004 0.793,-0.004 1,0.004 1.105,0.004 h 1.234 l 0.735,-0.004 1.113,0.004 h 0.281 l 0.844,-0.004 1.578,0.008 0.793,-0.004 1.168,-0.004 0.301,0.004 0.765,-0.004 1.184,0.004 1.094,-0.004 h 1.437 l 0.75,0.004 1.028,0.008 h 2.629 l 0.929,-0.008 h 1.535 l 0.797,-0.004 h 1.274 l 0.308,0.004 0.762,-0.008 1.258,0.004 h 1.051 l 1.199,0.004 0.996,-0.004 1.133,0.004 0.965,-0.004 0.988,0.004 0.305,0.004 1.832,-0.008 0.308,0.004 0.875,-0.004 h 1.512 l 0.773,-0.004 h 2.317 l 1.238,0.004 1.109,-0.004 1.559,0.004 h 2.832 l 0.399,0.004 0.906,-0.008 1.304,0.004 h 0.414 l 1.036,-0.004 1.308,0.004 h 1.578 l 1.594,-0.004 1.43,-0.004 1.664,0.004 h 3.449 l 1.012,-0.004 1.586,0.004 1.418,-0.004 h 1.605 l 0.477,0.004 h 2.277 l 0.41,0.004 1.063,-0.008 h 1.324 l 0.414,0.004 1.07,-0.004 1.504,0.004 1.457,-0.004 h 4.188 l 0.383,0.004 0.918,-0.004 1.382,0.004 1.262,-0.004 1.231,0.004 1.371,-0.004 1.543,0.004 1.043,-0.004 1.5,0.004 0.375,-0.004 h 2.527 l 0.484,0.004 0.93,-0.008 h 2.723 l 1.34,0.004 1.261,-0.004 1.293,0.004 h 5.129 l 0.828,-0.004 h 1.082 l 0.371,0.004 1.047,-0.004 1.352,0.004 h 0.359 l 0.965,-0.004 h 1.434 l 0.386,0.004 0.707,-0.004" /><path
         id="path192"
         style="fill:none;stroke:#00c08b;stroke-width:2.13396;stroke-linecap:butt;stroke-linejoin:round;stroke-miterlimit:10;stroke-dasharray:2.13396, 6.40187, 8.53583, 6.40187;stroke-dashoffset:0;stroke-opacity:1"
         d="m 52.59,60.918 1.058,-26.426 1.743,-6.683 0.414,-0.676 1.133,-1.801 1.742,-1.523 0.418,-0.055 1.058,-0.762 1.508,-0.265 0.441,-0.215 1.286,-0.52 1.531,-0.258 0.445,0.024 1.379,-0.457 2.168,-0.203 1.106,-0.246 1.808,-0.145 0.422,0.039 1.078,-0.129 1.785,-0.137 0.395,-0.035 1.062,-0.133 1.715,-0.042 1.469,-0.122 1.687,-0.074 0.411,0.004 1.011,-0.098 1.453,-0.019 h 0.442 l 1.207,-0.078 1.461,-0.02 1.758,-0.043 1.75,-0.039 0.39,0.028 1.125,-0.086 1.801,-0.035 0.402,0.011 1.133,-0.047 1.727,-0.007 0.406,0.015 1.121,-0.051 1.703,-0.05 1.465,-0.024 1.641,0.016 0.414,-0.004 1.047,-0.039 1.425,0.019 0.418,0.004 1.243,-0.062 1.468,-0.008 0.438,0.016 1.34,-0.043 2.113,-0.012 1.152,-0.051 1.817,-0.008 0.351,-0.004 1.117,-0.031 1.774,0.008 1.523,-0.027 1.703,0.023 0.411,0.008 1.074,-0.039 1.64,-0.028 0.403,0.016 1.047,-0.031 1.437,0.008 1.664,-0.039 1.461,0.015 0.434,0.012 1.328,-0.024 1.738,-0.023 h 0.379 l 1.098,-0.027 1.73,0.004 0.41,0.011 1.098,-0.015 1.73,0.011 0.411,-0.007 1.058,-0.028 1.621,-0.004 0.399,-0.004 0.98,-0.011 1.539,0.004 h 0.399 l 0.953,-0.02 1.308,0.004 h 0.411 l 1.132,-0.023 1.356,0.007 0.375,0.024 1.031,-0.031 1.535,-0.016 0.403,0.019 0.996,-0.023 1.699,-0.004 0.406,0.012 0.754,-0.016 1.258,0.004 0.351,0.008 0.856,-0.016 1.379,-0.008 0.379,0.012 0.859,-0.004 1.363,-0.004 1.204,-0.007 1.191,0.003 1.449,0.004 1.262,-0.007 0.39,0.015 1.02,-0.008 h 1.445 l 0.305,-0.004 0.77,-0.019 1.238,-0.012 1.058,-0.008 1.215,-0.003 0.309,0.003 0.726,-0.007 0.774,0.007 0.637,-0.027 0.816,-0.004 0.309,0.02 0.793,-0.008 h 1 L 186.5,19 l 0.93,0.008 0.304,0.004 0.735,-0.012 1.113,0.008 0.281,0.012 0.844,-0.012 1.578,0.008 0.793,-0.012 1.168,-0.008 0.301,0.008 0.765,-0.012 1.184,0.008 1.094,-0.012 1.14,-0.008 h 1.047 l 1.028,0.008 0.32,0.004 0.895,-0.004 1.414,0.008 0.929,-0.012 h 1.535 l 0.797,-0.011 1.274,-0.004 0.308,0.008 0.762,-0.012 1.258,-0.008 0.293,0.008 0.758,-0.008 1.199,0.004 0.996,-0.004 1.133,0.004 0.965,-0.012 0.988,0.004 0.305,0.008 1.832,-0.012 0.308,0.008 0.875,-0.012 h 1.223 l 0.289,0.004 0.773,-0.015 1.243,0.004 1.074,-0.008 h 1.238 l 1.109,-0.008 1.559,0.004 0.398,0.008 0.934,-0.016 1.5,0.004 0.399,0.004 0.906,-0.02 1.304,0.012 0.414,0.008 1.036,-0.012 1.308,0.004 1.578,-0.004 1.594,-0.004 1.43,-0.012 1.664,0.004 1.422,-0.011 1.613,0.007 h 0.414 l 1.012,-0.011 h 1.586 l 1.418,-0.008 1.605,0.012 0.477,0.007 0.949,-0.011 1.328,0.004 0.41,0.007 1.063,-0.007 h 1.324 l 0.414,0.004 1.07,-0.012 h 1.504 l 1.457,-0.008 1.696,0.004 1.171,-0.02 1.321,-0.004 0.383,0.016 h 2.3 l 1.262,0.004 h 1.231 l 1.371,0.004 h 1.543 l 1.043,-0.016 1.5,0.004 0.375,0.004 0.976,-0.008 1.551,-0.008 0.484,0.012 0.93,-0.012 1.457,-0.003 0.383,0.003 0.883,-0.003 1.34,0.003 1.261,-0.003 1.293,-0.004 1.223,-0.004 1.172,0.004 2.383,0.004 h 0.351 l 0.828,-0.008 1.082,-0.004 0.371,0.008 1.047,-0.012 h 1.352 l 0.359,0.004 0.965,-0.008 h 1.434 l 0.386,0.008 0.707,-0.004" /><path
         id="path194"
         style="fill:none;stroke:#00bfc4;stroke-width:2.13396;stroke-linecap:butt;stroke-linejoin:round;stroke-miterlimit:10;stroke-dasharray:14.9377, 6.40187;stroke-dashoffset:0;stroke-opacity:1"
         d="m 52.59,105.961 1.058,-45.313 1.743,-14.839 0.414,-1.887 1.133,-4.5 1.742,-3.629 0.418,-0.438 1.058,-1.757 1.508,-1.438 0.441,-0.34 1.286,-1.429 1.531,-0.981 0.445,-0.051 1.379,-1.066 2.168,-0.731 1.106,-0.597 1.808,-0.527 0.422,-0.004 1.078,-0.387 1.785,-0.367 0.395,-0.075 1.062,-0.339 1.715,-0.27 1.469,-0.324 1.687,-0.192 0.411,-0.023 1.011,-0.258 1.453,-0.125 0.442,-0.035 1.207,-0.176 1.461,-0.121 1.758,-0.195 1.75,-0.215 0.39,-0.012 1.125,-0.183 1.801,-0.117 0.402,0.015 1.133,-0.14 1.727,-0.098 0.406,-0.008 1.121,-0.094 1.703,-0.109 1.465,-0.125 1.641,-0.031 0.414,-0.02 1.047,-0.105 1.425,-0.016 h 0.418 l 1.243,-0.121 1.468,-0.039 0.438,0.004 1.34,-0.113 2.113,-0.059 1.152,-0.074 1.817,-0.067 0.351,-0.011 1.117,-0.086 1.774,-0.035 1.523,-0.067 1.703,-0.008 0.411,0.024 1.074,-0.082 1.64,-0.059 0.403,0.008 1.047,-0.063 1.437,-0.027 1.664,-0.09 1.461,-0.008 0.434,0.024 1.328,-0.063 1.738,-0.05 0.379,0.007 1.098,-0.066 1.73,-0.039 0.41,0.012 1.098,-0.047 1.73,-0.012 0.411,-0.004 1.058,-0.058 1.621,-0.024 0.399,-0.008 0.98,-0.043 1.539,0.004 h 0.399 l 0.953,-0.035 1.308,-0.035 0.411,0.012 1.132,-0.047 h 1.356 l 0.375,0.031 1.031,-0.07 1.535,-0.035 0.403,0.011 0.996,-0.035 1.699,-0.019 0.406,0.007 0.754,-0.023 1.258,-0.016 0.351,0.008 0.856,-0.019 1.379,-0.028 0.379,0.016 0.859,-0.016 1.363,-0.011 1.204,-0.02 1.191,-0.004 1.449,-0.012 1.262,-0.004 0.39,0.012 1.02,-0.019 1.445,-0.004 0.305,-0.008 0.77,-0.039 1.238,-0.024 1.058,-0.015 1.215,-0.016 0.309,-0.004 0.726,-0.015 0.774,-0.012 0.637,-0.051 0.816,-0.019 0.309,0.027 0.793,-0.012 1,-0.008 h 2.035 l 0.304,0.008 0.735,-0.019 1.113,0.008 0.281,0.007 0.844,-0.023 h 1.578 l 0.793,-0.016 1.168,-0.008 0.301,0.012 0.765,-0.019 1.184,0.004 1.094,-0.02 1.14,-0.012 h 0.297 l 0.75,-0.011 1.028,0.011 0.32,0.004 0.895,-0.023 1.414,0.008 0.929,-0.024 1.535,-0.008 0.797,-0.023 1.274,-0.004 0.308,0.008 0.762,-0.028 1.258,-0.011 0.293,0.004 0.758,-0.016 1.199,0.004 0.996,-0.008 1.133,-0.004 0.965,-0.023 0.988,0.008 h 0.305 l 1.832,-0.012 0.308,0.008 0.875,-0.02 1.223,-0.008 0.289,0.004 0.773,-0.027 1.243,-0.008 1.074,-0.008 1.238,-0.008 1.109,-0.011 h 1.559 l 0.398,0.011 0.934,-0.027 1.5,-0.004 0.399,0.008 0.906,-0.027 h 1.304 l 0.414,0.011 1.036,-0.019 1.308,0.008 1.578,-0.012 1.594,-0.012 1.43,-0.019 1.664,-0.004 1.422,-0.02 1.613,0.008 h 0.414 l 1.012,-0.019 1.586,-0.008 1.418,-0.016 1.605,0.004 0.477,0.008 0.949,-0.024 h 1.328 l 0.41,0.008 1.063,-0.015 1.324,0.004 0.414,0.011 1.07,-0.023 1.504,-0.004 1.457,-0.027 h 1.696 l 1.171,-0.04 1.321,-0.019 0.383,0.019 h 2.3 l 1.262,0.004 1.231,-0.004 h 1.371 l 1.543,0.008 1.043,-0.019 1.5,0.004 0.375,0.004 0.976,-0.016 1.551,-0.008 0.484,0.008 0.93,-0.016 1.457,-0.004 0.383,0.004 0.883,-0.015 1.34,0.004 1.261,-0.008 1.293,-0.004 1.223,-0.008 1.172,0.004 2.383,0.004 0.351,0.004 0.828,-0.012 h 1.082 l 0.371,0.012 1.047,-0.02 h 1.352 l 0.359,0.004 0.965,-0.015 1.434,-0.008 0.386,0.008 0.707,-0.004" /><path
         id="path196"
         style="fill:none;stroke:#00b4f0;stroke-width:2.13396;stroke-linecap:butt;stroke-linejoin:round;stroke-miterlimit:10;stroke-dasharray:4.26791, 4.26791, 12.8037, 4.26791;stroke-dashoffset:0;stroke-opacity:1"
         d="m 52.59,133.574 1.058,-51.742 1.743,-19.492 0.414,-2.516 1.133,-6.09 1.742,-5.39 0.418,-0.715 1.058,-2.621 1.508,-2.383 0.441,-0.488 1.286,-2.094 1.531,-1.551 0.445,-0.203 1.379,-1.535 2.168,-1.348 1.106,-0.867 1.808,-0.926 0.422,-0.097 1.078,-0.633 1.785,-0.762 0.395,-0.129 1.062,-0.508 1.715,-0.433 1.469,-0.52 1.687,-0.394 0.411,-0.067 1.011,-0.386 1.453,-0.278 0.442,-0.054 1.207,-0.325 1.461,-0.203 1.758,-0.363 1.75,-0.309 0.39,-0.047 1.125,-0.296 1.801,-0.243 0.402,-0.015 1.133,-0.215 1.727,-0.203 0.406,-0.012 1.121,-0.176 1.703,-0.215 1.465,-0.199 1.641,-0.125 0.414,-0.027 1.047,-0.16 1.425,-0.067 0.418,-0.007 1.243,-0.184 1.468,-0.106 0.438,-0.015 1.34,-0.192 2.113,-0.117 1.152,-0.133 1.817,-0.125 0.351,-0.019 1.117,-0.125 1.774,-0.09 1.523,-0.109 1.703,-0.059 0.411,0.024 1.074,-0.118 1.64,-0.109 h 0.403 l 1.047,-0.094 1.437,-0.07 1.664,-0.113 1.461,-0.039 0.434,0.011 1.328,-0.093 1.738,-0.079 0.379,0.004 1.098,-0.101 1.73,-0.078 0.41,0.007 1.098,-0.085 1.73,-0.059 0.411,-0.004 1.058,-0.086 1.621,-0.055 0.399,-0.007 0.98,-0.071 1.539,-0.039 0.399,-0.008 0.953,-0.047 1.308,-0.054 h 0.411 l 1.132,-0.082 1.356,-0.024 0.375,0.028 1.031,-0.075 1.535,-0.062 0.403,0.004 0.996,-0.051 1.699,-0.051 0.406,0.012 0.754,-0.043 1.258,-0.031 0.351,0.008 0.856,-0.032 1.379,-0.047 0.379,0.012 0.859,-0.031 1.363,-0.031 1.204,-0.035 1.191,-0.012 1.449,-0.031 1.262,-0.016 0.39,0.004 1.02,-0.039 1.445,-0.016 0.305,-0.008 0.77,-0.058 1.238,-0.043 1.058,-0.028 1.215,-0.023 h 0.309 l 0.726,-0.027 0.774,-0.024 0.637,-0.07 0.816,-0.035 0.309,0.027 0.793,-0.016 1,-0.011 h 1.105 l 0.93,-0.008 0.304,0.012 0.735,-0.032 1.113,-0.007 0.281,0.004 0.844,-0.028 1.578,-0.015 0.793,-0.028 1.168,-0.027 0.301,0.012 0.765,-0.028 1.184,-0.004 1.094,-0.027 1.14,-0.02 0.297,-0.003 0.75,-0.016 h 1.028 l 0.32,0.004 0.895,-0.035 1.414,0.004 0.929,-0.039 1.535,-0.016 0.797,-0.031 1.274,-0.012 0.308,0.004 0.762,-0.035 1.258,-0.016 0.293,0.004 0.758,-0.027 1.199,-0.012 0.996,-0.008 1.133,-0.012 0.965,-0.023 0.988,-0.004 0.305,0.004 1.832,-0.024 0.308,0.008 0.875,-0.019 1.223,-0.02 0.289,0.004 0.773,-0.035 1.243,-0.02 1.074,-0.023 1.238,-0.012 1.109,-0.023 1.559,-0.008 0.398,0.008 0.934,-0.035 1.5,-0.02 0.399,0.008 0.906,-0.039 1.304,-0.012 0.414,0.008 1.036,-0.027 h 1.308 l 1.578,-0.02 1.594,-0.019 1.43,-0.032 1.664,-0.011 1.422,-0.028 1.613,-0.004 0.414,0.004 1.012,-0.027 1.586,-0.016 1.418,-0.027 1.605,-0.004 0.477,0.004 0.949,-0.027 1.328,-0.004 0.41,0.004 1.063,-0.02 h 1.324 l 0.414,0.008 1.07,-0.027 1.504,-0.016 1.457,-0.031 1.696,-0.008 1.171,-0.063 1.321,-0.027 0.383,0.024 h 0.918 l 1.382,-0.004 h 1.262 l 1.231,-0.004 1.371,-0.004 1.543,0.008 1.043,-0.024 1.5,0.008 h 0.375 l 0.976,-0.02 1.551,-0.019 0.484,0.012 0.93,-0.024 1.457,-0.004 0.383,0.008 0.883,-0.023 1.34,-0.008 1.261,-0.008 1.293,-0.008 1.223,-0.015 1.172,-0.008 2.383,-0.008 0.351,0.004 0.828,-0.016 1.082,-0.004 0.371,0.008 1.047,-0.015 1.352,-0.004 0.359,0.007 0.965,-0.023 1.434,-0.004 0.386,0.008 0.707,-0.004" /><path
         id="path198"
         style="fill:none;stroke:#619cff;stroke-width:2.13396;stroke-linecap:butt;stroke-linejoin:round;stroke-miterlimit:10;stroke-dasharray:2.13396, 4.26791, 4.26791, 4.26791, 6.40187, 4.26791, 8.53583, 4.26791;stroke-dashoffset:0;stroke-opacity:1"
         d="m 52.59,147.84 1.058,-53.75 1.743,-21.945 0.414,-2.887 1.133,-6.817 1.742,-6.257 0.418,-0.832 1.058,-2.891 1.508,-2.906 0.441,-0.625 1.286,-2.442 1.531,-1.859 0.445,-0.246 1.379,-1.746 2.168,-1.754 1.106,-1.012 1.808,-1.148 0.422,-0.121 1.078,-0.778 1.785,-0.937 0.395,-0.168 1.062,-0.625 1.715,-0.602 1.469,-0.617 1.687,-0.547 0.411,-0.101 1.011,-0.446 1.453,-0.394 0.442,-0.078 1.207,-0.414 1.461,-0.278 1.758,-0.453 1.75,-0.418 0.39,-0.058 1.125,-0.352 1.801,-0.316 0.402,-0.032 1.133,-0.258 1.727,-0.277 0.406,-0.015 1.121,-0.223 1.703,-0.274 1.465,-0.242 1.641,-0.168 0.414,-0.043 1.047,-0.195 1.425,-0.109 0.418,-0.016 1.243,-0.223 1.468,-0.144 0.438,-0.012 1.34,-0.227 2.113,-0.171 1.152,-0.149 1.817,-0.168 0.351,-0.027 1.117,-0.16 1.774,-0.137 1.523,-0.145 1.703,-0.093 0.411,0.015 1.074,-0.14 1.64,-0.141 0.403,-0.008 1.047,-0.125 1.437,-0.082 1.664,-0.144 1.461,-0.067 0.434,0.008 1.328,-0.129 1.738,-0.105 h 0.379 l 1.098,-0.121 1.73,-0.102 0.41,0.004 1.098,-0.098 1.73,-0.078 0.411,-0.004 1.058,-0.097 1.621,-0.082 0.399,-0.012 0.98,-0.086 1.539,-0.047 0.399,-0.012 0.953,-0.054 1.308,-0.078 0.411,0.003 1.132,-0.097 1.356,-0.031 0.375,0.019 1.031,-0.082 1.535,-0.09 0.403,0.004 0.996,-0.066 1.699,-0.075 0.406,0.004 0.754,-0.043 1.258,-0.05 0.351,0.007 0.856,-0.042 1.379,-0.075 0.379,0.012 0.859,-0.039 1.363,-0.047 1.204,-0.051 1.191,-0.027 1.449,-0.039 1.262,-0.027 0.39,0.003 1.02,-0.05 1.445,-0.032 0.305,-0.007 0.77,-0.071 1.238,-0.062 1.058,-0.039 1.215,-0.035 h 0.309 l 0.726,-0.036 0.774,-0.023 0.637,-0.082 0.816,-0.047 0.309,0.02 0.793,-0.02 1,-0.016 1.105,-0.011 0.93,-0.016 0.304,0.008 0.735,-0.039 1.113,-0.012 h 0.281 l 0.844,-0.039 1.578,-0.023 0.793,-0.036 1.168,-0.035 0.301,0.008 0.765,-0.035 1.184,-0.016 1.094,-0.031 1.14,-0.027 0.297,-0.004 0.75,-0.028 1.028,-0.007 0.32,0.004 0.895,-0.043 1.414,-0.004 0.929,-0.051 1.535,-0.023 0.797,-0.036 1.274,-0.027 0.308,0.004 0.762,-0.039 1.258,-0.024 0.293,0.004 0.758,-0.035 1.199,-0.012 0.996,-0.019 1.133,-0.016 0.965,-0.027 0.988,-0.012 0.305,0.004 1.832,-0.035 0.308,0.004 0.875,-0.024 1.223,-0.023 0.289,0.004 0.773,-0.035 1.243,-0.032 1.074,-0.023 1.238,-0.016 1.109,-0.035 1.559,-0.015 0.398,0.007 0.934,-0.042 1.5,-0.024 0.399,0.004 0.906,-0.043 1.304,-0.012 0.414,0.004 1.036,-0.035 1.308,-0.008 1.578,-0.027 1.594,-0.031 1.43,-0.036 1.664,-0.015 1.422,-0.031 1.613,-0.012 0.414,0.004 1.012,-0.035 1.586,-0.02 1.418,-0.035 1.605,-0.016 0.477,0.004 0.949,-0.035 1.328,-0.008 0.41,0.004 1.063,-0.031 1.324,-0.008 0.414,0.008 1.07,-0.031 1.504,-0.024 1.457,-0.035 1.696,-0.016 1.171,-0.066 1.321,-0.039 0.383,0.023 h 0.918 l 1.382,-0.007 1.262,-0.004 1.231,-0.008 1.371,-0.004 1.543,0.004 1.043,-0.031 1.5,-0.004 0.375,0.004 0.976,-0.028 1.551,-0.023 0.484,0.012 0.93,-0.028 1.457,-0.011 0.383,0.007 0.883,-0.023 1.34,-0.012 1.261,-0.012 1.293,-0.011 1.223,-0.02 1.172,-0.008 2.383,-0.019 0.351,0.004 0.828,-0.016 1.082,-0.012 0.371,0.012 1.047,-0.019 1.352,-0.008 0.359,0.004 0.965,-0.024 1.434,-0.011 0.386,0.007 0.707,-0.004" /><path
         id="path200"
         style="fill:none;stroke:#c77cff;stroke-width:2.13396;stroke-linecap:butt;stroke-linejoin:round;stroke-miterlimit:10;stroke-dasharray:32.0093, 4.26791, 17.0717, 4.26791;stroke-dashoffset:0;stroke-opacity:1"
         d="m 52.59,152.996 1.058,-51.91 1.743,-22.176 0.414,-3.023 1.133,-7.086 1.742,-6.707 0.418,-0.93 1.058,-2.949 1.508,-3.129 0.441,-0.715 1.286,-2.582 1.531,-2.055 0.445,-0.324 1.379,-1.902 2.168,-2.008 1.106,-1.09 1.808,-1.308 0.422,-0.153 1.078,-0.844 1.785,-1.062 0.395,-0.184 1.062,-0.66 1.715,-0.734 1.469,-0.699 1.687,-0.649 0.411,-0.129 1.011,-0.5 1.453,-0.476 0.442,-0.094 1.207,-0.484 1.461,-0.336 1.758,-0.539 1.75,-0.473 0.39,-0.074 1.125,-0.387 1.801,-0.387 0.402,-0.047 1.133,-0.285 1.727,-0.344 0.406,-0.031 1.121,-0.254 1.703,-0.328 1.465,-0.277 1.641,-0.211 0.414,-0.051 1.047,-0.219 1.425,-0.152 0.418,-0.023 1.243,-0.258 1.468,-0.172 0.438,-0.035 1.34,-0.246 2.113,-0.207 1.152,-0.168 1.817,-0.203 0.351,-0.039 1.117,-0.18 1.774,-0.168 1.523,-0.18 1.703,-0.117 0.411,0.016 1.074,-0.164 1.64,-0.176 0.403,-0.016 1.047,-0.137 1.437,-0.101 1.664,-0.168 1.461,-0.074 h 0.434 l 1.328,-0.145 1.738,-0.125 0.379,-0.008 1.098,-0.136 1.73,-0.125 0.41,0.004 1.098,-0.118 1.73,-0.101 0.411,-0.016 1.058,-0.117 1.621,-0.102 0.399,-0.011 0.98,-0.098 1.539,-0.066 0.399,-0.016 0.953,-0.066 1.308,-0.098 0.411,-0.004 1.132,-0.113 1.356,-0.051 0.375,0.019 1.031,-0.093 1.535,-0.098 0.403,-0.004 0.996,-0.074 1.699,-0.094 h 0.406 l 0.754,-0.055 1.258,-0.066 0.351,0.004 0.856,-0.051 1.379,-0.082 0.379,0.008 0.859,-0.055 1.363,-0.054 1.204,-0.063 1.191,-0.039 1.449,-0.051 1.262,-0.039 0.39,0.004 1.02,-0.058 1.445,-0.043 0.305,-0.012 0.77,-0.074 1.238,-0.071 1.058,-0.047 1.215,-0.046 0.309,-0.004 0.726,-0.043 0.774,-0.032 0.637,-0.086 0.816,-0.054 0.309,0.019 0.793,-0.027 1,-0.023 1.105,-0.02 0.93,-0.027 0.304,0.011 0.735,-0.043 1.113,-0.019 0.281,-0.004 0.844,-0.047 1.578,-0.031 0.793,-0.043 1.168,-0.043 0.301,0.008 0.765,-0.043 1.184,-0.02 1.094,-0.039 1.14,-0.039 0.297,-0.004 0.75,-0.031 1.028,-0.012 h 0.32 l 0.895,-0.051 1.414,-0.011 0.929,-0.051 1.535,-0.035 0.797,-0.043 1.274,-0.031 h 0.308 l 0.762,-0.039 1.258,-0.032 0.293,0.004 0.758,-0.039 1.199,-0.023 0.996,-0.02 1.133,-0.019 0.965,-0.036 0.988,-0.015 h 0.305 l 1.832,-0.039 0.308,0.004 0.875,-0.028 1.223,-0.031 h 0.289 l 0.773,-0.039 1.243,-0.035 1.074,-0.031 1.238,-0.024 1.109,-0.039 1.559,-0.023 0.398,0.007 0.934,-0.05 1.5,-0.035 0.399,0.003 0.906,-0.046 1.304,-0.016 h 0.414 l 1.036,-0.039 1.308,-0.016 1.578,-0.031 1.594,-0.035 1.43,-0.039 1.664,-0.028 1.422,-0.035 1.613,-0.019 h 0.414 l 1.012,-0.039 1.586,-0.035 1.418,-0.043 1.605,-0.024 h 0.477 l 0.949,-0.035 1.328,-0.016 0.41,0.004 1.063,-0.035 1.324,-0.012 0.414,0.008 1.07,-0.035 1.504,-0.027 1.457,-0.047 1.696,-0.02 1.171,-0.07 1.321,-0.043 0.383,0.023 0.918,-0.007 1.382,-0.012 1.262,-0.004 1.231,-0.012 1.371,-0.007 1.543,-0.004 1.043,-0.032 1.5,-0.011 0.375,0.004 0.976,-0.028 1.551,-0.031 0.484,0.012 0.93,-0.028 1.457,-0.019 0.383,0.004 0.883,-0.024 1.34,-0.015 1.261,-0.02 1.293,-0.016 1.223,-0.023 1.172,-0.012 2.383,-0.023 h 0.351 l 0.828,-0.02 1.082,-0.011 0.371,0.007 1.047,-0.027 1.352,-0.012 0.359,0.004 0.965,-0.027 1.434,-0.016 0.386,0.008 0.707,-0.008" /><path
         id="path202"
         style="fill:none;stroke:#f564e3;stroke-width:2.13396;stroke-linecap:butt;stroke-linejoin:round;stroke-miterlimit:10;stroke-dasharray:32.0093, 8.53583, 8.53583, 8.53583, 17.0717, 8.53583, 8.53583, 8.53583;stroke-dashoffset:0;stroke-opacity:1"
         d="m 52.59,155.125 1.058,-51.48 1.743,-22.106 0.414,-3.105 1.133,-7.102 1.742,-6.801 0.418,-0.953 1.058,-2.969 1.508,-3.203 0.441,-0.726 1.286,-2.633 1.531,-2.09 0.445,-0.348 1.379,-1.918 2.168,-2.093 1.106,-1.118 1.808,-1.339 0.422,-0.161 1.078,-0.867 1.785,-1.105 0.395,-0.18 1.062,-0.691 1.715,-0.782 1.469,-0.726 1.687,-0.676 0.411,-0.133 1.011,-0.515 1.453,-0.512 0.442,-0.113 1.207,-0.496 1.461,-0.36 1.758,-0.562 1.75,-0.492 0.39,-0.079 1.125,-0.39 1.801,-0.418 0.402,-0.047 1.133,-0.301 1.727,-0.367 0.406,-0.043 1.121,-0.266 1.703,-0.347 1.465,-0.301 1.641,-0.227 0.414,-0.058 1.047,-0.231 1.425,-0.16 0.418,-0.031 1.243,-0.258 1.468,-0.187 0.438,-0.036 1.34,-0.261 2.113,-0.215 1.152,-0.18 1.817,-0.215 0.351,-0.039 1.117,-0.183 1.774,-0.184 1.523,-0.199 1.703,-0.133 0.411,0.012 1.074,-0.176 1.64,-0.184 0.403,-0.015 1.047,-0.141 1.437,-0.117 1.664,-0.18 1.461,-0.09 h 0.434 l 1.328,-0.16 1.738,-0.14 0.379,-0.008 1.098,-0.137 1.73,-0.133 h 0.41 l 1.098,-0.121 1.73,-0.109 0.411,-0.02 1.058,-0.121 1.621,-0.109 0.399,-0.016 0.98,-0.101 1.539,-0.075 0.399,-0.015 0.953,-0.07 1.308,-0.106 0.411,-0.004 1.132,-0.117 1.356,-0.059 0.375,0.02 1.031,-0.098 1.535,-0.105 0.403,-0.004 0.996,-0.078 1.699,-0.102 h 0.406 l 0.754,-0.058 1.258,-0.067 h 0.351 l 0.856,-0.055 1.379,-0.089 0.379,0.004 0.859,-0.059 1.363,-0.066 1.204,-0.067 1.191,-0.047 1.449,-0.058 1.262,-0.047 0.39,0.004 1.02,-0.063 1.445,-0.047 0.305,-0.011 0.77,-0.082 1.238,-0.075 1.058,-0.047 1.215,-0.05 0.309,-0.008 0.726,-0.039 0.774,-0.035 0.637,-0.09 0.816,-0.059 0.309,0.016 0.793,-0.031 1,-0.024 1.105,-0.027 0.93,-0.028 0.304,0.008 0.735,-0.047 1.113,-0.023 0.281,-0.004 0.844,-0.047 1.578,-0.043 0.793,-0.043 1.168,-0.043 0.301,0.004 0.765,-0.047 1.184,-0.023 1.094,-0.043 1.14,-0.039 0.297,-0.004 0.75,-0.031 1.028,-0.02 0.32,-0.004 0.895,-0.047 1.414,-0.015 0.929,-0.059 1.535,-0.035 0.797,-0.043 1.274,-0.035 h 0.308 l 0.762,-0.043 1.258,-0.035 0.293,0.004 0.758,-0.039 1.199,-0.028 0.996,-0.019 1.133,-0.02 0.965,-0.039 0.988,-0.019 h 0.305 l 1.832,-0.047 0.308,0.004 0.875,-0.032 1.223,-0.035 h 0.289 l 0.773,-0.039 1.243,-0.039 1.074,-0.035 1.238,-0.024 1.109,-0.039 1.559,-0.031 0.398,0.008 0.934,-0.051 1.5,-0.039 0.399,0.004 0.906,-0.051 1.304,-0.019 0.414,0.004 1.036,-0.047 1.308,-0.016 1.578,-0.035 1.594,-0.035 1.43,-0.043 1.664,-0.031 1.422,-0.036 1.613,-0.023 0.414,-0.004 1.012,-0.039 1.586,-0.035 1.418,-0.043 1.605,-0.027 h 0.477 l 0.949,-0.039 1.328,-0.02 0.41,0.004 1.063,-0.035 1.324,-0.016 0.414,0.008 1.07,-0.043 1.504,-0.023 1.457,-0.047 1.696,-0.024 1.171,-0.078 1.321,-0.047 0.383,0.024 0.918,-0.008 1.382,-0.016 1.262,-0.008 1.231,-0.011 1.371,-0.016 1.543,-0.004 1.043,-0.035 1.5,-0.008 h 0.375 l 0.976,-0.027 1.551,-0.031 0.484,0.007 0.93,-0.031 1.457,-0.019 0.383,0.004 0.883,-0.028 1.34,-0.015 1.261,-0.024 1.293,-0.019 1.223,-0.024 1.172,-0.015 2.383,-0.028 h 0.351 l 0.828,-0.023 1.082,-0.016 0.371,0.008 1.047,-0.027 1.352,-0.012 0.359,0.004 0.965,-0.031 1.434,-0.02 0.386,0.008 0.707,-0.004" /><path
         id="path204"
         style="fill:none;stroke:#ff64b0;stroke-width:2.13396;stroke-linecap:butt;stroke-linejoin:round;stroke-miterlimit:10;stroke-dasharray:4.26791, 4.26791, 8.53583, 4.26791, 17.0717, 4.26791, 32.0093, 4.26791;stroke-dashoffset:0;stroke-opacity:1"
         d="m 52.59,155.387 1.058,-51.059 1.743,-21.918 0.414,-3.086 1.133,-7.027 1.742,-6.809 0.418,-0.929 1.058,-2.942 1.508,-3.172 0.441,-0.738 1.286,-2.625 1.531,-2.082 0.445,-0.355 1.379,-1.911 2.168,-2.082 1.106,-1.125 1.808,-1.367 0.422,-0.168 1.078,-0.863 1.785,-1.121 0.395,-0.188 1.062,-0.691 1.715,-0.809 1.469,-0.734 1.687,-0.684 0.411,-0.129 1.011,-0.519 1.453,-0.524 0.442,-0.117 1.207,-0.508 1.461,-0.371 1.758,-0.582 1.75,-0.504 0.39,-0.078 1.125,-0.394 1.801,-0.422 0.402,-0.051 1.133,-0.297 1.727,-0.375 0.406,-0.043 1.121,-0.269 1.703,-0.356 1.465,-0.304 1.641,-0.235 0.414,-0.054 1.047,-0.239 1.425,-0.172 0.418,-0.031 1.243,-0.266 1.468,-0.195 0.438,-0.039 1.34,-0.266 2.113,-0.222 1.152,-0.18 1.817,-0.226 0.351,-0.043 1.117,-0.184 1.774,-0.191 1.523,-0.2 1.703,-0.144 0.411,0.008 1.074,-0.18 1.64,-0.188 0.403,-0.019 1.047,-0.145 1.437,-0.125 1.664,-0.183 1.461,-0.094 0.434,-0.004 1.328,-0.16 1.738,-0.141 0.379,-0.007 1.098,-0.141 1.73,-0.133 0.41,-0.004 1.098,-0.125 1.73,-0.113 0.411,-0.02 1.058,-0.125 1.621,-0.113 0.399,-0.015 0.98,-0.106 1.539,-0.078 0.399,-0.012 0.953,-0.078 1.308,-0.105 0.411,-0.004 1.132,-0.117 1.356,-0.063 0.375,0.016 1.031,-0.098 1.535,-0.109 0.403,-0.004 0.996,-0.086 1.699,-0.102 0.406,-0.004 0.754,-0.054 1.258,-0.075 h 0.351 l 0.856,-0.058 1.379,-0.094 h 0.379 l 0.859,-0.059 1.363,-0.07 1.204,-0.066 1.191,-0.047 1.449,-0.067 1.262,-0.05 h 0.39 l 1.02,-0.063 1.445,-0.051 0.305,-0.015 0.77,-0.078 1.238,-0.078 1.058,-0.047 1.215,-0.055 0.309,-0.008 0.726,-0.043 0.774,-0.035 0.637,-0.094 0.816,-0.058 0.309,0.015 0.793,-0.031 1,-0.031 1.105,-0.028 0.93,-0.027 0.304,0.004 0.735,-0.043 1.113,-0.031 0.281,-0.004 0.844,-0.047 1.578,-0.043 0.793,-0.047 1.168,-0.047 0.301,0.004 0.765,-0.047 1.184,-0.027 1.094,-0.043 1.14,-0.039 0.297,-0.008 0.75,-0.031 1.028,-0.02 0.32,-0.004 0.895,-0.05 1.414,-0.02 0.929,-0.058 1.535,-0.036 0.797,-0.046 1.274,-0.036 h 0.308 l 0.762,-0.043 1.258,-0.035 h 0.293 l 0.758,-0.039 1.199,-0.031 0.996,-0.02 1.133,-0.027 0.965,-0.039 0.988,-0.02 h 0.305 l 1.832,-0.046 h 0.308 l 0.875,-0.028 1.223,-0.039 h 0.289 l 0.773,-0.039 1.243,-0.039 1.074,-0.035 1.238,-0.027 1.109,-0.043 1.559,-0.032 0.398,0.008 0.934,-0.051 1.5,-0.039 h 0.399 l 0.906,-0.05 1.304,-0.024 0.414,0.004 1.036,-0.047 1.308,-0.019 1.578,-0.036 1.594,-0.035 1.43,-0.047 1.664,-0.031 1.422,-0.039 1.613,-0.023 0.414,-0.004 1.012,-0.039 1.586,-0.035 1.418,-0.047 1.605,-0.028 0.477,-0.004 0.949,-0.039 1.328,-0.019 h 0.41 l 1.063,-0.035 1.324,-0.016 0.414,0.008 1.07,-0.043 1.504,-0.027 1.457,-0.051 1.696,-0.024 1.171,-0.078 1.321,-0.047 0.383,0.02 0.918,-0.008 1.382,-0.016 1.262,-0.007 1.231,-0.012 1.371,-0.012 1.543,-0.008 1.043,-0.035 1.5,-0.012 h 0.375 l 0.976,-0.027 1.551,-0.031 0.484,0.008 0.93,-0.032 1.457,-0.023 0.383,0.004 0.883,-0.027 1.34,-0.02 1.261,-0.02 1.293,-0.019 1.223,-0.027 1.172,-0.016 2.383,-0.031 h 0.351 l 0.828,-0.024 1.082,-0.015 0.371,0.008 1.047,-0.028 1.352,-0.015 0.359,0.003 0.965,-0.027 1.434,-0.019 0.386,0.007 0.707,-0.011" /><text
         id="text216"
         style="font-variant:normal;font-weight:normal;font-size:8.7998px;font-family:TeXGyreHeros;-inkscape-font-specification:TeXGyreHeros-Regular;writing-mode:lr-tb;fill:#4d4d4d;fill-opacity:1;fill-rule:nonzero;stroke:none"
         transform="translate(30.21875,283.34473)"><tspan
           id="tspan206"
           y="0"
           x="0">0</tspan><tspan
           id="tspan208"
           sodipodi:role="line"
           y="-65.539062"
           x="-4.9999962 -0.10730482">25</tspan><tspan
           id="tspan210"
           sodipodi:role="line"
           y="-131.07812"
           x="-4.9999962 -0.10730482">50</tspan><tspan
           id="tspan212"
           sodipodi:role="line"
           y="-196.61719"
           x="-4.9999962 -0.10730482">75</tspan><tspan
           id="tspan214"
           sodipodi:role="line"
           y="-262.15625"
           x="-9.9999924 -5.1073012 -0.21460964">100</tspan></text><path
         id="path218"
         style="fill:none;stroke:#333333;stroke-width:1.06698;stroke-linecap:butt;stroke-linejoin:round;stroke-miterlimit:10;stroke-dasharray:none;stroke-opacity:1"
         d="m 37.41,280.742 h 2.742" /><path
         id="path220"
         style="fill:none;stroke:#333333;stroke-width:1.06698;stroke-linecap:butt;stroke-linejoin:round;stroke-miterlimit:10;stroke-dasharray:none;stroke-opacity:1"
         d="m 37.41,215.203 h 2.742" /><path
         id="path222"
         style="fill:none;stroke:#333333;stroke-width:1.06698;stroke-linecap:butt;stroke-linejoin:round;stroke-miterlimit:10;stroke-dasharray:none;stroke-opacity:1"
         d="m 37.41,149.664 h 2.742" /><path
         id="path224"
         style="fill:none;stroke:#333333;stroke-width:1.06698;stroke-linecap:butt;stroke-linejoin:round;stroke-miterlimit:10;stroke-dasharray:none;stroke-opacity:1"
         d="m 37.41,84.125 h 2.742" /><path
         id="path226"
         style="fill:none;stroke:#333333;stroke-width:1.06698;stroke-linecap:butt;stroke-linejoin:round;stroke-miterlimit:10;stroke-dasharray:none;stroke-opacity:1"
         d="m 37.41,18.586 h 2.742" /><path
         id="path228"
         style="fill:none;stroke:#333333;stroke-width:1.06698;stroke-linecap:butt;stroke-linejoin:round;stroke-miterlimit:10;stroke-dasharray:none;stroke-opacity:1"
         d="m 52.188,296.59 v -2.742" /><path
         id="path230"
         style="fill:none;stroke:#333333;stroke-width:1.06698;stroke-linecap:butt;stroke-linejoin:round;stroke-miterlimit:10;stroke-dasharray:none;stroke-opacity:1"
         d="m 144.066,296.59 v -2.742" /><path
         id="path232"
         style="fill:none;stroke:#333333;stroke-width:1.06698;stroke-linecap:butt;stroke-linejoin:round;stroke-miterlimit:10;stroke-dasharray:none;stroke-opacity:1"
         d="m 235.949,296.59 v -2.742" /><text
         id="text236"
         style="font-variant:normal;font-weight:normal;font-size:8.7998px;font-family:TeXGyreHeros;-inkscape-font-specification:TeXGyreHeros-Regular;writing-mode:lr-tb;fill:#4d4d4d;fill-opacity:1;fill-rule:nonzero;stroke:none"
         transform="translate(49.6875,304.88379)"><tspan
           id="tspan234"
           sodipodi:role="line"
           y="0"
           x="0 89.379616 94.272308 181.26173 186.15442">01020</tspan></text><text
         id="text240"
         style="font-variant:normal;font-weight:normal;font-size:11px;font-family:TeXGyreHeros;-inkscape-font-specification:TeXGyreHeros-Regular;writing-mode:lr-tb;fill:#000000;fill-opacity:1;fill-rule:nonzero;stroke:none"
         transform="translate(133.99609,319.14746)"><tspan
           id="tspan238"
           sodipodi:role="line"
           y="0"
           x="0 8.5579996 14.674 20.790001 24.452999 26.895 33.011002 38.511002 41.569 45.231998 54.395 56.837002 59.278999 61.721001 64.163002 70.278999 76.394997 81.894997">Queries (millions)</tspan></text><text
         id="text244"
         style="font-variant:normal;font-weight:normal;font-size:11px;font-family:TeXGyreHeros;-inkscape-font-specification:TeXGyreHeros-Regular;writing-mode:lr-tb;fill:#000000;fill-opacity:1;fill-rule:nonzero;stroke:none"
         transform="rotate(-90,89.63623,75.527832)"><tspan
           id="tspan242"
           sodipodi:role="line"
           y="0"
           x="0 9.7790003 12.837 21.395 27.511">% Out</tspan></text><text
         id="text250"
         style="font-variant:normal;font-weight:normal;font-size:11px;font-family:TeXGyreHeros;-inkscape-font-specification:TeXGyreHeros-Regular;writing-mode:lr-tb;fill:#000000;fill-opacity:1;fill-rule:nonzero;stroke:none"
         transform="translate(330.28125,47.374023)"><tspan
           id="tspan248"
           y="0"
           x="0">ℓ</tspan></text><path
         id="path252"
         style="fill:#f2f2f2;fill-opacity:1;fill-rule:nonzero;stroke:#ffffff;stroke-width:1.06698;stroke-linecap:round;stroke-linejoin:round;stroke-miterlimit:10;stroke-dasharray:none;stroke-opacity:1"
         d="m 330.281,54.723 h 17.281 v 17.281 h -17.281 z" /><path
         id="path254"
         style="fill:none;stroke:#f8766d;stroke-width:2.13396;stroke-linecap:butt;stroke-linejoin:round;stroke-miterlimit:10;stroke-dasharray:none;stroke-opacity:1"
         d="m 332.008,63.363 h 13.824" /><path
         id="path256"
         style="fill:#f2f2f2;fill-opacity:1;fill-rule:nonzero;stroke:#ffffff;stroke-width:1.06698;stroke-linecap:round;stroke-linejoin:round;stroke-miterlimit:10;stroke-dasharray:none;stroke-opacity:1"
         d="m 330.281,72.004 h 17.281 v 17.281 h -17.281 z" /><path
         id="path258"
         style="fill:none;stroke:#00ba38;stroke-width:2.13396;stroke-linecap:butt;stroke-linejoin:round;stroke-miterlimit:10;stroke-dasharray:2.13396, 6.40187;stroke-dashoffset:0;stroke-opacity:1"
         d="m 332.008,80.645 h 13.824" /><path
         id="path260"
         style="fill:#f2f2f2;fill-opacity:1;fill-rule:nonzero;stroke:#ffffff;stroke-width:1.06698;stroke-linecap:round;stroke-linejoin:round;stroke-miterlimit:10;stroke-dasharray:none;stroke-opacity:1"
         d="m 330.281,89.281 h 17.281 v 17.281 h -17.281 z" /><path
         id="path262"
         style="fill:none;stroke:#00c08b;stroke-width:2.13396;stroke-linecap:butt;stroke-linejoin:round;stroke-miterlimit:10;stroke-dasharray:2.13396, 6.40187, 8.53583, 6.40187;stroke-dashoffset:0;stroke-opacity:1"
         d="m 332.008,97.926 h 13.824" /><path
         id="path264"
         style="fill:#f2f2f2;fill-opacity:1;fill-rule:nonzero;stroke:#ffffff;stroke-width:1.06698;stroke-linecap:round;stroke-linejoin:round;stroke-miterlimit:10;stroke-dasharray:none;stroke-opacity:1"
         d="m 330.281,106.562 h 17.281 v 17.281 h -17.281 z" /><path
         id="path266"
         style="fill:none;stroke:#00bfc4;stroke-width:2.13396;stroke-linecap:butt;stroke-linejoin:round;stroke-miterlimit:10;stroke-dasharray:14.9377, 6.40187;stroke-dashoffset:0;stroke-opacity:1"
         d="m 332.008,115.203 h 13.824" /><path
         id="path268"
         style="fill:#f2f2f2;fill-opacity:1;fill-rule:nonzero;stroke:#ffffff;stroke-width:1.06698;stroke-linecap:round;stroke-linejoin:round;stroke-miterlimit:10;stroke-dasharray:none;stroke-opacity:1"
         d="m 330.281,123.844 h 17.281 v 17.281 h -17.281 z" /><path
         id="path270"
         style="fill:none;stroke:#00b4f0;stroke-width:2.13396;stroke-linecap:butt;stroke-linejoin:round;stroke-miterlimit:10;stroke-dasharray:4.26791, 4.26791, 12.8037, 4.26791;stroke-dashoffset:0;stroke-opacity:1"
         d="m 332.008,132.484 h 13.824" /><path
         id="path272"
         style="fill:#f2f2f2;fill-opacity:1;fill-rule:nonzero;stroke:#ffffff;stroke-width:1.06698;stroke-linecap:round;stroke-linejoin:round;stroke-miterlimit:10;stroke-dasharray:none;stroke-opacity:1"
         d="m 330.281,141.121 h 17.281 v 17.281 h -17.281 z" /><path
         id="path274"
         style="fill:none;stroke:#619cff;stroke-width:2.13396;stroke-linecap:butt;stroke-linejoin:round;stroke-miterlimit:10;stroke-dasharray:2.13396, 4.26791, 4.26791, 4.26791, 6.40187, 4.26791, 8.53583, 4.26791;stroke-dashoffset:0;stroke-opacity:1"
         d="m 332.008,149.766 h 13.824" /><path
         id="path276"
         style="fill:#f2f2f2;fill-opacity:1;fill-rule:nonzero;stroke:#ffffff;stroke-width:1.06698;stroke-linecap:round;stroke-linejoin:round;stroke-miterlimit:10;stroke-dasharray:none;stroke-opacity:1"
         d="m 330.281,158.402 h 17.281 v 17.281 h -17.281 z" /><path
         id="path278"
         style="fill:none;stroke:#c77cff;stroke-width:2.13396;stroke-linecap:butt;stroke-linejoin:round;stroke-miterlimit:10;stroke-dasharray:32.0093, 4.26791, 17.0717, 4.26791;stroke-dashoffset:0;stroke-opacity:1"
         d="m 332.008,167.043 h 13.824" /><path
         id="path280"
         style="fill:#f2f2f2;fill-opacity:1;fill-rule:nonzero;stroke:#ffffff;stroke-width:1.06698;stroke-linecap:round;stroke-linejoin:round;stroke-miterlimit:10;stroke-dasharray:none;stroke-opacity:1"
         d="m 330.281,175.684 h 17.281 v 17.281 h -17.281 z" /><path
         id="path282"
         style="fill:none;stroke:#f564e3;stroke-width:2.13396;stroke-linecap:butt;stroke-linejoin:round;stroke-miterlimit:10;stroke-dasharray:32.0093, 8.53583, 8.53583, 8.53583, 17.0717, 8.53583, 8.53583, 8.53583;stroke-dashoffset:0;stroke-opacity:1"
         d="m 332.008,184.324 h 13.824" /><path
         id="path284"
         style="fill:#f2f2f2;fill-opacity:1;fill-rule:nonzero;stroke:#ffffff;stroke-width:1.06698;stroke-linecap:round;stroke-linejoin:round;stroke-miterlimit:10;stroke-dasharray:none;stroke-opacity:1"
         d="m 330.281,192.961 h 17.281 v 17.281 h -17.281 z" /><path
         id="path286"
         style="fill:none;stroke:#ff64b0;stroke-width:2.13396;stroke-linecap:butt;stroke-linejoin:round;stroke-miterlimit:10;stroke-dasharray:4.26791, 4.26791, 8.53583, 4.26791, 17.0717, 4.26791, 32.0093, 4.26791;stroke-dashoffset:0;stroke-opacity:1"
         d="m 332.008,201.605 h 13.824" /><path
         id="path288"
         style="fill:#f2f2f2;fill-opacity:1;fill-rule:nonzero;stroke:#ffffff;stroke-width:1.06698;stroke-linecap:round;stroke-linejoin:round;stroke-miterlimit:10;stroke-dasharray:none;stroke-opacity:1"
         d="m 330.281,210.242 h 17.281 v 17.281 h -17.281 z" /><path
         id="path290"
         style="fill:none;stroke:#de8c00;stroke-width:2.13396;stroke-linecap:butt;stroke-linejoin:round;stroke-miterlimit:10;stroke-dasharray:4.26791, 4.26791;stroke-dashoffset:0;stroke-opacity:1"
         d="m 332.008,218.883 h 13.824" /><path
         id="path292"
         style="fill:#f2f2f2;fill-opacity:1;fill-rule:nonzero;stroke:#ffffff;stroke-width:1.06698;stroke-linecap:round;stroke-linejoin:round;stroke-miterlimit:10;stroke-dasharray:none;stroke-opacity:1"
         d="m 330.281,227.523 h 17.281 v 17.281 h -17.281 z" /><path
         id="path294"
         style="fill:none;stroke:#b79f00;stroke-width:2.13396;stroke-linecap:butt;stroke-linejoin:round;stroke-miterlimit:10;stroke-dasharray:8.53583, 4.26791;stroke-dashoffset:0;stroke-opacity:1"
         d="m 332.008,236.164 h 13.824" /><path
         id="path296"
         style="fill:#f2f2f2;fill-opacity:1;fill-rule:nonzero;stroke:#ffffff;stroke-width:1.06698;stroke-linecap:round;stroke-linejoin:round;stroke-miterlimit:10;stroke-dasharray:none;stroke-opacity:1"
         d="m 330.281,244.805 h 17.281 v 17.281 h -17.281 z" /><path
         id="path298"
         style="fill:none;stroke:#7cae00;stroke-width:2.13396;stroke-linecap:butt;stroke-linejoin:round;stroke-miterlimit:10;stroke-dasharray:8.53583, 8.53583;stroke-dashoffset:0;stroke-opacity:1"
         d="m 332.008,253.445 h 13.824" /><text
         id="text324"
         style="font-variant:normal;font-weight:normal;font-size:8.7998px;font-family:TeXGyreHeros;-inkscape-font-specification:TeXGyreHeros-Regular;writing-mode:lr-tb;fill:#000000;fill-opacity:1;fill-rule:nonzero;stroke:none"
         transform="translate(353.04297,65.96582)"><tspan
           id="tspan300"
           y="0"
           x="0">1</tspan><tspan
           id="tspan302"
           y="17.281252"
           x="0">2</tspan><tspan
           id="tspan304"
           y="34.5625"
           x="0">3</tspan><tspan
           id="tspan306"
           y="51.839844"
           x="0">4</tspan><tspan
           id="tspan308"
           y="69.121094"
           x="0">5</tspan><tspan
           id="tspan310"
           y="86.402344"
           x="0">6</tspan><tspan
           id="tspan312"
           y="103.67969"
           x="0">7</tspan><tspan
           id="tspan314"
           y="120.96094"
           x="0">8</tspan><tspan
           id="tspan316"
           y="138.24219"
           x="0">9</tspan><tspan
           id="tspan318"
           sodipodi:role="line"
           y="155.51953"
           x="0 4.8926916">10</tspan><tspan
           id="tspan320"
           sodipodi:role="line"
           y="172.8008"
           x="0 4.8926916">11</tspan><tspan
           id="tspan322"
           sodipodi:role="line"
           y="190.08205"
           x="0 4.8926916">12</tspan></text></g></g></svg>
